  0
SECTION
  2
HEADER
  9
$ACADVER
  1
AC1014
  9
$ACADMAINTVER
 70
     9
  9
$DWGCODEPAGE
  3
ANSI_1252
  9
$INSBASE
 10
0.0
 20
0.0
 30
0.0
  9
$EXTMIN
 10
1.000000000000000E+20
 20
1.000000000000000E+20
 30
1.000000000000000E+20
  9
$EXTMAX
 10
-1.000000000000000E+20
 20
-1.000000000000000E+20
 30
-1.000000000000000E+20
  9
$LIMMIN
 10
0.0
 20
0.0
  9
$LIMMAX
 10
12.0
 20
9.0
  9
$ORTHOMODE
 70
     0
  9
$REGENMODE
 70
     1
  9
$FILLMODE
 70
     1
  9
$QTEXTMODE
 70
     0
  9
$MIRRTEXT
 70
     1
  9
$DRAGMODE
 70
     2
  9
$LTSCALE
 40
1.0
  9
$OSMODE
 70
    37
  9
$ATTMODE
 70
     1
  9
$TEXTSIZE
 40
0.2
  9
$TRACEWID
 40
0.05
  9
$TEXTSTYLE
  7
STANDARD
  9
$CLAYER
  8
0
  9
$CELTYPE
  6
BYLAYER
  9
$CECOLOR
 62
   256
  9
$CELTSCALE
 40
1.0
  9
$DELOBJ
 70
     1
  9
$DISPSILH
 70
     0
  9
$DIMSCALE
 40
1.0
  9
$DIMASZ
 40
0.18
  9
$DIMEXO
 40
0.0625
  9
$DIMDLI
 40
0.38
  9
$DIMRND
 40
0.0
  9
$DIMDLE
 40
0.0
  9
$DIMEXE
 40
0.18
  9
$DIMTP
 40
0.0
  9
$DIMTM
 40
0.0
  9
$DIMTXT
 40
0.18
  9
$DIMCEN
 40
0.09
  9
$DIMTSZ
 40
0.0
  9
$DIMTOL
 70
     0
  9
$DIMLIM
 70
     0
  9
$DIMTIH
 70
     1
  9
$DIMTOH
 70
     1
  9
$DIMSE1
 70
     0
  9
$DIMSE2
 70
     0
  9
$DIMTAD
 70
     0
  9
$DIMZIN
 70
     0
  9
$DIMBLK
  1

  9
$DIMASO
 70
     1
  9
$DIMSHO
 70
     1
  9
$DIMPOST
  1

  9
$DIMAPOST
  1

  9
$DIMALT
 70
     0
  9
$DIMALTD
 70
     2
  9
$DIMALTF
 40
25.4
  9
$DIMLFAC
 40
1.0
  9
$DIMTOFL
 70
     0
  9
$DIMTVP
 40
0.0
  9
$DIMTIX
 70
     0
  9
$DIMSOXD
 70
     0
  9
$DIMSAH
 70
     0
  9
$DIMBLK1
  1

  9
$DIMBLK2
  1

  9
$DIMSTYLE
  2
STANDARD
  9
$DIMCLRD
 70
     0
  9
$DIMCLRE
 70
     0
  9
$DIMCLRT
 70
     0
  9
$DIMTFAC
 40
1.0
  9
$DIMGAP
 40
0.09
  9
$DIMJUST
 70
     0
  9
$DIMSD1
 70
     0
  9
$DIMSD2
 70
     0
  9
$DIMTOLJ
 70
     1
  9
$DIMTZIN
 70
     0
  9
$DIMALTZ
 70
     0
  9
$DIMALTTZ
 70
     0
  9
$DIMFIT
 70
     3
  9
$DIMUPT
 70
     0
  9
$DIMUNIT
 70
     2
  9
$DIMDEC
 70
     4
  9
$DIMTDEC
 70
     4
  9
$DIMALTU
 70
     2
  9
$DIMALTTD
 70
     2
  9
$DIMTXSTY
  7
STANDARD
  9
$DIMAUNIT
 70
     0
  9
$LUNITS
 70
     2
  9
$LUPREC
 70
     4
  9
$SKETCHINC
 40
0.1
  9
$FILLETRAD
 40
0.5
  9
$AUNITS
 70
     0
  9
$AUPREC
 70
     0
  9
$MENU
  1
.
  9
$ELEVATION
 40
0.0
  9
$PELEVATION
 40
0.0
  9
$THICKNESS
 40
0.0
  9
$LIMCHECK
 70
     0
  9
$CHAMFERA
 40
0.0
  9
$CHAMFERB
 40
0.0
  9
$CHAMFERC
 40
0.0
  9
$CHAMFERD
 40
0.0
  9
$SKPOLY
 70
     0
  9
$TDCREATE
 40
2460725.201140567
  9
$TDUPDATE
 40
2460725.20114059
  9
$TDINDWG
 40
0.0000000116
  9
$TDUSRTIMER
 40
0.0000000116
  9
$USRTIMER
 70
     1
  9
$ANGBASE
 50
0.0
  9
$ANGDIR
 70
     0
  9
$PDMODE
 70
     0
  9
$PDSIZE
 40
0.0
  9
$PLINEWID
 40
0.0
  9
$COORDS
 70
     1
  9
$SPLFRAME
 70
     0
  9
$SPLINETYPE
 70
     6
  9
$SPLINESEGS
 70
     8
  9
$ATTDIA
 70
     0
  9
$ATTREQ
 70
     1
  9
$HANDLING
 70
     1
  9
$HANDSEED
  5
1000045F
  9
$SURFTAB1
 70
     6
  9
$SURFTAB2
 70
     6
  9
$SURFTYPE
 70
     6
  9
$SURFU
 70
     6
  9
$SURFV
 70
     6
  9
$UCSNAME
  2

  9
$UCSORG
 10
0.0
 20
0.0
 30
0.0
  9
$UCSXDIR
 10
1.0
 20
0.0
 30
0.0
  9
$UCSYDIR
 10
0.0
 20
1.0
 30
0.0
  9
$PUCSNAME
  2

  9
$PUCSORG
 10
0.0
 20
0.0
 30
0.0
  9
$PUCSXDIR
 10
1.0
 20
0.0
 30
0.0
  9
$PUCSYDIR
 10
0.0
 20
1.0
 30
0.0
  9
$USERI1
 70
     0
  9
$USERI2
 70
     0
  9
$USERI3
 70
     0
  9
$USERI4
 70
     0
  9
$USERI5
 70
     0
  9
$USERR1
 40
0.0
  9
$USERR2
 40
0.0
  9
$USERR3
 40
0.0
  9
$USERR4
 40
0.0
  9
$USERR5
 40
0.0
  9
$WORLDVIEW
 70
     1
  9
$SHADEDGE
 70
     3
  9
$SHADEDIF
 70
    70
  9
$TILEMODE
 70
     1
  9
$MAXACTVP
 70
    64
  9
$PINSBASE
 10
0.0
 20
0.0
 30
0.0
  9
$PLIMCHECK
 70
     0
  9
$PEXTMIN
 10
1.000000000000000E+20
 20
1.000000000000000E+20
 30
1.000000000000000E+20
  9
$PEXTMAX
 10
-1.000000000000000E+20
 20
-1.000000000000000E+20
 30
-1.000000000000000E+20
  9
$PLIMMIN
 10
0.0
 20
0.0
  9
$PLIMMAX
 10
12.0
 20
9.0
  9
$UNITMODE
 70
     0
  9
$VISRETAIN
 70
     1
  9
$PLINEGEN
 70
     0
  9
$PSLTSCALE
 70
     1
  9
$TREEDEPTH
 70
  3020
  9
$PICKSTYLE
 70
     1
  9
$CMLSTYLE
  2
STANDARD
  9
$CMLJUST
 70
     0
  9
$CMLSCALE
 40
1.0
  9
$PROXYGRAPHICS
 70
     1
  9
$MEASUREMENT
 70
     0
  0
ENDSEC
  0
SECTION
  2
CLASSES
  0
CLASS
  1
ACDBDICTIONARYWDFLT
  2
AcDbDictionaryWithDefault
  3
ObjectDBX Classes
 90
        0
280
     0
281
     0
  0
CLASS
  1
VISUALSTYLE
  2
AcDbVisualStyle
  3
ObjectDBX Classes
 90
     4095
280
     0
281
     0
  0
CLASS
  1
MATERIAL
  2
AcDbMaterial
  3
ObjectDBX Classes
 90
     1153
280
     0
281
     0
  0
CLASS
  1
SCALE
  2
AcDbScale
  3
ObjectDBX Classes
 90
     1153
280
     0
281
     0
  0
CLASS
  1
TABLESTYLE
  2
AcDbTableStyle
  3
ObjectDBX Classes
 90
     4095
280
     0
281
     0
  0
CLASS
  1
MLEADERSTYLE
  2
AcDbMLeaderStyle
  3
ACDB_MLEADERSTYLE_CLASS
 90
     4095
280
     0
281
     0
  0
CLASS
  1
SUN
  2
AcDbSun
  3
SCENEOE
 90
     1153
280
     0
281
     0
  0
CLASS
  1
SORTENTSTABLE
  2
AcDbSortentsTable
  3
ObjectDBX Classes
 90
        0
280
     0
281
     0
  0
CLASS
  1
DICTIONARYVAR
  2
AcDbDictionaryVar
  3
ObjectDBX Classes
 90
        0
280
     0
281
     0
  0
CLASS
  1
XRECORD
  2
AcDbXrecord
  3
ObjectDBX Classes
 90
        0
280
     0
281
     0
  0
CLASS
  1
LWPOLYLINE
  2
AcDbPolyline
  3
ObjectDBX Classes
 90
        0
280
     0
281
     1
  0
CLASS
  1
HATCH
  2
AcDbHatch
  3
ObjectDBX Classes
 90
        0
280
     0
281
     1
  0
CLASS
  1
ACDBPLACEHOLDER
  2
AcDbPlaceHolder
  3
ObjectDBX Classes
 90
        0
280
     0
281
     0
  0
CLASS
  1
LAYOUT
  2
AcDbLayout
  3
ObjectDBX Classes
 90
        0
280
     0
281
     0
  0
ENDSEC
  0
SECTION
  2
TABLES
  0
TABLE
  2
VPORT
  5
8
102
{ACAD_XDICTIONARY
360
10000454
102
}
330
0
100
AcDbSymbolTable
 70
     1
  0
VPORT
  5
29
330
8
100
AcDbSymbolTableRecord
100
AcDbViewportTableRecord
  2
*ACTIVE
 70
     0
 10
0.0
 20
0.0
 11
1.0
 21
1.0
 12
10.42990654205607
 22
4.5
 13
0.0
 23
0.0
 14
0.5
 24
0.5
 15
0.5
 25
0.5
 16
0.0
 26
0.0
 36
1.0
 17
0.0
 27
0.0
 37
0.0
 40
9.0
 41
1.972972972850329
 42
50.0
 43
0.0
 44
0.0
 50
0.0
 51
0.0
 71
     0
 72
   100
 73
     1
 74
     3
 75
     0
 76
     0
 77
     0
 78
     0
  0
ENDTAB
  0
TABLE
  2
LTYPE
  5
5
330
0
100
AcDbSymbolTable
 70
     7
  0
LTYPE
  5
14
330
5
100
AcDbSymbolTableRecord
100
AcDbLinetypeTableRecord
  2
BYBLOCK
 70
     0
  3

 72
    65
 73
     0
 40
0.0
  0
LTYPE
  5
15
330
5
100
AcDbSymbolTableRecord
100
AcDbLinetypeTableRecord
  2
BYLAYER
 70
     0
  3

 72
    65
 73
     0
 40
0.0
  0
LTYPE
  5
16
330
5
100
AcDbSymbolTableRecord
100
AcDbLinetypeTableRecord
  2
CONTINUOUS
 70
     0
  3
Solid line
 72
    65
 73
     0
 40
0.0
  0
LTYPE
  5
10000024
330
5
100
AcDbSymbolTableRecord
100
AcDbLinetypeTableRecord
  2
ONS_PHANTOM
 70
     0
  3
Onshape Phantom line ______ __ __ ______
 72
    65
 73
     6
 40
0.4999999999999999
 49
0.25
 74
     0
 49
-0.05
 74
     0
 49
0.05
 74
     0
 49
-0.05
 74
     0
 49
0.05
 74
     0
 49
-0.05
 74
     0
  0
LTYPE
  5
10000025
330
5
100
AcDbSymbolTableRecord
100
AcDbLinetypeTableRecord
  2
CENTER
 70
     0
  3
Center line ____ _ ____ _ ____ _
 72
    65
 73
     4
 40
0.7199999999999999
 49
0.45
 74
     0
 49
-0.09
 74
     0
 49
0.09
 74
     0
 49
-0.09
 74
     0
  0
LTYPE
  5
10000026
330
5
100
AcDbSymbolTableRecord
100
AcDbLinetypeTableRecord
  2
DASHED
 70
     0
  3
Dashed line __ __ __ __ __
 72
    65
 73
     2
 40
0.75
 49
0.5
 74
     0
 49
-0.25
 74
     0
  0
LTYPE
  5
10000027
330
5
100
AcDbSymbolTableRecord
100
AcDbLinetypeTableRecord
  2
ONS_DASHDOT
 70
     0
  3
Onshape Dashed with Dot _ . ____ . ____
 72
    65
 73
     4
 40
0.71
 49
0.5
 74
     0
 49
-0.1
 74
     0
 49
0.01
 74
     0
 49
-0.1
 74
     0
  0
LTYPE
  5
10000028
330
5
100
AcDbSymbolTableRecord
100
AcDbLinetypeTableRecord
  2
ONS_DOTTED
 70
     0
  3
Onshape Dotted line . . . . . . .
 72
    65
 73
     2
 40
0.11
 49
0.01
 74
     0
 49
-0.1
 74
     0
  0
LTYPE
  5
10000029
330
5
100
AcDbSymbolTableRecord
100
AcDbLinetypeTableRecord
  2
HIDDEN
 70
     0
  3
Hidden line ____ ____ ____ ____ 
 72
    65
 73
     2
 40
0.15
 49
0.1
 74
     0
 49
-0.05
 74
     0
  0
ENDTAB
  0
TABLE
  2
LAYER
  5
2
330
0
100
AcDbSymbolTable
 70
    46
  0
LAYER
  5
10
330
2
100
AcDbSymbolTableRecord
100
AcDbLayerTableRecord
  2
0
 70
     0
 62
     7
  6
CONTINUOUS
  0
LAYER
  5
1000002A
330
2
100
AcDbSymbolTableRecord
100
AcDbLayerTableRecord
  2
SECTION_CUTTING_LINE
 70
     0
 62
     7
  6
ONS_PHANTOM
  0
LAYER
  5
1000002B
330
2
100
AcDbSymbolTableRecord
100
AcDbLayerTableRecord
  2
DETAIL_VIEW_BORDER
 70
     0
 62
     7
  6
CONTINUOUS
  0
LAYER
  5
1000002C
330
2
100
AcDbSymbolTableRecord
100
AcDbLayerTableRecord
  2
DETAIL_VIEW_PARENT_BORDER
 70
     0
 62
     7
  6
ONS_PHANTOM
  0
LAYER
  5
1000002D
330
2
100
AcDbSymbolTableRecord
100
AcDbLayerTableRecord
  2
TEXT
 70
     0
 62
     7
  6
CONTINUOUS
  0
LAYER
  5
1000002E
330
2
100
AcDbSymbolTableRecord
100
AcDbLayerTableRecord
  2
SKETCHED_GEOMETRY
 70
     0
 62
    -7
  6
CONTINUOUS
  0
LAYER
  5
1000002F
330
2
100
AcDbSymbolTableRecord
100
AcDbLayerTableRecord
  2
VIRTUAL_SHARPS
 70
     0
 62
    -7
  6
CONTINUOUS
  0
LAYER
  5
10000030
330
2
100
AcDbSymbolTableRecord
100
AcDbLayerTableRecord
  2
CENTERLINES
 70
     0
 62
    -7
  6
CENTER
  0
LAYER
  5
10000031
330
2
100
AcDbSymbolTableRecord
100
AcDbLayerTableRecord
  2
CENTERMARKS
 70
     0
 62
    -7
  6
CONTINUOUS
  0
LAYER
  5
10000032
330
2
100
AcDbSymbolTableRecord
100
AcDbLayerTableRecord
  2
TABLES
 70
     0
 62
     7
  6
CONTINUOUS
  0
LAYER
  5
10000033
330
2
100
AcDbSymbolTableRecord
100
AcDbLayerTableRecord
  2
IMAGES
 70
     0
 62
    -7
  6
CONTINUOUS
  0
LAYER
  5
10000034
330
2
100
AcDbSymbolTableRecord
100
AcDbLayerTableRecord
  2
ANNOTATION_LINES
 70
     0
 62
    -7
  6
CONTINUOUS
  0
LAYER
  5
10000035
330
2
100
AcDbSymbolTableRecord
100
AcDbLayerTableRecord
  2
ANNOTATION_TEXT
 70
     0
 62
    -7
  6
CONTINUOUS
  0
LAYER
  5
10000036
330
2
100
AcDbSymbolTableRecord
100
AcDbLayerTableRecord
  2
SIDE_THREAD_SYMBOLS
 70
     0
 62
     7
  6
HIDDEN
  0
LAYER
  5
10000037
330
2
100
AcDbSymbolTableRecord
100
AcDbLayerTableRecord
  2
SIDE_THREAD_SYMBOLS_HIDDEN
 70
     0
 62
    -7
  6
HIDDEN
  0
LAYER
  5
10000038
330
2
100
AcDbSymbolTableRecord
100
AcDbLayerTableRecord
  2
SURFACE_THREAD_SYMBOLS
 70
     0
 62
     7
  6
HIDDEN
  0
LAYER
  5
10000039
330
2
100
AcDbSymbolTableRecord
100
AcDbLayerTableRecord
  2
SURFACE_THREAD_SYMBOLS_ON_
 70
     0
 62
     7
  6
HIDDEN
  0
LAYER
  5
1000003A
330
2
100
AcDbSymbolTableRecord
100
AcDbLayerTableRecord
  2
SURFACE_THREAD_SYMBOLS_HID
 70
     0
 62
    -7
  6
HIDDEN
  0
LAYER
  5
1000003B
330
2
100
AcDbSymbolTableRecord
100
AcDbLayerTableRecord
  2
BLIND_THREAD_SYMBOLS
 70
     0
 62
     7
  6
CONTINUOUS
  0
LAYER
  5
1000003C
330
2
100
AcDbSymbolTableRecord
100
AcDbLayerTableRecord
  2
BLIND_THREAD_SYMBOLS_HIDDE
 70
     0
 62
    -7
  6
HIDDEN
  0
LAYER
  5
1000003D
330
2
100
AcDbSymbolTableRecord
100
AcDbLayerTableRecord
  2
EXPLODE_LINES
 70
     0
 62
     7
  6
ONS_PHANTOM
  0
LAYER
  5
1000003E
330
2
100
AcDbSymbolTableRecord
100
AcDbLayerTableRecord
  2
HIDDEN_EXPLODE_LINES
 70
     0
 62
    -7
  6
ONS_PHANTOM
  0
LAYER
  5
1000003F
330
2
100
AcDbSymbolTableRecord
100
AcDbLayerTableRecord
  2
BREAK_LINES
 70
     0
 62
    -7
  6
CONTINUOUS
  0
LAYER
  5
10000040
330
2
100
AcDbSymbolTableRecord
100
AcDbLayerTableRecord
  2
SHEETMETAL_BEND_LINES_UP
 70
     0
 62
     7
  6
CENTER
  0
LAYER
  5
10000041
330
2
100
AcDbSymbolTableRecord
100
AcDbLayerTableRecord
  2
SHEETMETAL_BEND_LINES_DOWN
 70
     0
 62
     7
  6
CENTER
  0
LAYER
  5
10000042
330
2
100
AcDbSymbolTableRecord
100
AcDbLayerTableRecord
  2
SHEETMETAL_BEND_TANGENT_LI
 70
     0
 62
     7
  6
CONTINUOUS
  0
LAYER
  5
10000043
330
2
100
AcDbSymbolTableRecord
100
AcDbLayerTableRecord
  2
SHEETMETAL_CUT_LINES
 70
     0
 62
     7
  6
CONTINUOUS
  0
LAYER
  5
10000044
330
2
100
AcDbSymbolTableRecord
100
AcDbLayerTableRecord
  2
SHEETMETAL_CBORE_CSINK_UP
 70
     0
 62
     7
  6
CONTINUOUS
  0
LAYER
  5
10000045
330
2
100
AcDbSymbolTableRecord
100
AcDbLayerTableRecord
  2
SHEETMETAL_CBORE_CSINK_DOW
 70
     0
 62
     7
  6
CONTINUOUS
  0
LAYER
  5
10000046
330
2
100
AcDbSymbolTableRecord
100
AcDbLayerTableRecord
  2
SHEETMETAL_FORM_TEAR
 70
     0
 62
     7
  6
CONTINUOUS
  0
LAYER
  5
10000047
330
2
100
AcDbSymbolTableRecord
100
AcDbLayerTableRecord
  2
SHEETMETAL_FORM_UP
 70
     0
 62
     7
  6
CENTER
  0
LAYER
  5
10000048
330
2
100
AcDbSymbolTableRecord
100
AcDbLayerTableRecord
  2
SHEETMETAL_FORM_DOWN
 70
     0
 62
     7
  6
CENTER
  0
LAYER
  5
10000049
330
2
100
AcDbSymbolTableRecord
100
AcDbLayerTableRecord
  2
SHEETMETAL_FORM_CENTERMARK
 70
     0
 62
     7
  6
CONTINUOUS
  0
LAYER
  5
1000004A
330
2
100
AcDbSymbolTableRecord
100
AcDbLayerTableRecord
  2
REGION_ASSOC_POINTS
 70
     0
 62
    -7
  6
CONTINUOUS
  0
LAYER
  5
1000004B
330
2
100
AcDbSymbolTableRecord
100
AcDbLayerTableRecord
  2
PATTERN_CENTERLINES
 70
     1
 62
    -7
  6
CENTER
  0
LAYER
  5
1000004C
330
2
100
AcDbSymbolTableRecord
100
AcDbLayerTableRecord
  2
HIDDEN
 70
     0
 62
    -7
  6
HIDDEN
  0
LAYER
  5
1000004D
330
2
100
AcDbSymbolTableRecord
100
AcDbLayerTableRecord
  2
VISIBLE
 70
     0
 62
     7
  6
CONTINUOUS
  0
LAYER
  5
1000004E
330
2
100
AcDbSymbolTableRecord
100
AcDbLayerTableRecord
  2
MODELSKETCH_VISIBLE
 70
     0
 62
     7
  6
CONTINUOUS
  0
LAYER
  5
1000004F
330
2
100
AcDbSymbolTableRecord
100
AcDbLayerTableRecord
  2
MODELSKETCH_POINT
 70
     0
 62
     7
  6
CONTINUOUS
  0
LAYER
  5
10000050
330
2
100
AcDbSymbolTableRecord
100
AcDbLayerTableRecord
  2
MODELSKETCH_CONSTRUCTION
 70
     0
 62
    -7
  6
CENTER
  0
LAYER
  5
10000051
330
2
100
AcDbSymbolTableRecord
100
AcDbLayerTableRecord
  2
HIDDEN_BASE_VIEW
 70
     0
 62
     7
  6
CONTINUOUS
  0
LAYER
  5
10000052
330
2
100
AcDbSymbolTableRecord
100
AcDbLayerTableRecord
  2
TANGENT_LINES
 70
     0
 62
    -7
  6
CONTINUOUS
  0
LAYER
  5
10000053
330
2
100
AcDbSymbolTableRecord
100
AcDbLayerTableRecord
  2
TANGENT_HIDDEN
 70
     0
 62
    -7
  6
HIDDEN
  0
LAYER
  5
10000054
330
2
100
AcDbSymbolTableRecord
100
AcDbLayerTableRecord
  2
INVISIBLE_LINES
 70
     0
 62
    -7
  6
CONTINUOUS
  0
LAYER
  5
10000055
330
2
100
AcDbSymbolTableRecord
100
AcDbLayerTableRecord
  2
VIEW_HATCHES
 70
     0
 62
    -7
  6
CONTINUOUS
  0
LAYER
  5
10000056
330
2
100
AcDbSymbolTableRecord
100
AcDbLayerTableRecord
  2
SECTION_JOG_LINES
 70
     0
 62
    -7
  6
CONTINUOUS
  0
ENDTAB
  0
TABLE
  2
STYLE
  5
3
330
0
100
AcDbSymbolTable
 70
     2
  0
STYLE
  5
11
330
3
100
AcDbSymbolTableRecord
100
AcDbTextStyleTableRecord
  2
STANDARD
 70
     0
 40
0.0
 41
1.0
 50
0.0
 71
     0
 42
0.2
  3
txt
  4

  0
STYLE
  5
10000004
330
3
100
AcDbSymbolTableRecord
100
AcDbTextStyleTableRecord
  2
TTFSTYLE
 70
     0
 40
0.0
 41
1.0
 50
0.0
 71
     0
 42
0.2
  3
Verdana.ttf
  4

1001
ACAD
1000
Verdana
1071
       34
  0
ENDTAB
  0
TABLE
  2
VIEW
  5
6
330
0
100
AcDbSymbolTable
 70
     0
  0
ENDTAB
  0
TABLE
  2
UCS
  5
7
330
0
100
AcDbSymbolTable
 70
     0
  0
ENDTAB
  0
TABLE
  2
APPID
  5
9
330
0
100
AcDbSymbolTable
 70
     2
  0
APPID
  5
12
330
9
100
AcDbSymbolTableRecord
100
AcDbRegAppTableRecord
  2
ACAD
 70
     0
  0
APPID
  5
1000045E
330
9
100
AcDbSymbolTableRecord
100
AcDbRegAppTableRecord
  2
ACAD_MLEADERVER
 70
     0
  0
ENDTAB
  0
TABLE
  2
DIMSTYLE
  5
A
330
0
100
AcDbSymbolTable
 70
     1
  0
DIMSTYLE
105
27
330
A
100
AcDbSymbolTableRecord
100
AcDbDimStyleTableRecord
  2
STANDARD
 70
     0
  3

  4

  5

  6

  7

 40
1.0
 41
0.18
 42
0.0625
 43
0.38
 44
0.18
 45
0.0
 46
0.0
 47
0.0
 48
0.0
140
0.18
141
0.09
142
0.0
143
25.4
144
1.0
145
0.0
146
1.0
147
0.09
 71
     0
 72
     0
 73
     1
 74
     1
 75
     0
 76
     0
 77
     0
 78
     0
170
     0
171
     2
172
     0
173
     0
174
     0
175
     0
176
     0
177
     0
178
     0
270
     2
271
     4
272
     4
273
     2
274
     2
340
11
275
     0
280
     0
281
     0
282
     0
283
     1
284
     0
285
     0
286
     0
287
     3
288
     0
  0
ENDTAB
  0
TABLE
  2
BLOCK_RECORD
  5
1
330
0
100
AcDbSymbolTable
 70
     0
  0
BLOCK_RECORD
  5
1F
102
{ACAD_XDICTIONARY
360
10000429
102
}
330
1
100
AcDbSymbolTableRecord
100
AcDbBlockTableRecord
  2
*MODEL_SPACE
  0
BLOCK_RECORD
  5
1B
330
1
100
AcDbSymbolTableRecord
100
AcDbBlockTableRecord
  2
*PAPER_SPACE
  0
ENDTAB
  0
ENDSEC
  0
SECTION
  2
BLOCKS
  0
BLOCK
  5
20
330
1F
100
AcDbEntity
  8
0
100
AcDbBlockBegin
  2
*MODEL_SPACE
 70
     0
 10
0.0
 20
0.0
 30
0.0
  3
*MODEL_SPACE
  1

  0
ENDBLK
  5
21
330
1F
100
AcDbEntity
  8
0
100
AcDbBlockEnd
  0
BLOCK
  5
1C
330
1B
100
AcDbEntity
 67
     1
  8
0
100
AcDbBlockBegin
  2
*PAPER_SPACE
 70
     0
 10
0.0
 20
0.0
 30
0.0
  3
*PAPER_SPACE
  1

  0
ENDBLK
  5
1D
330
1B
100
AcDbEntity
 67
     1
  8
0
100
AcDbBlockEnd
  0
ENDSEC
  0
SECTION
  2
ENTITIES
  0
LINE
  5
10000057
102
{ACAD_XDICTIONARY
360
10000058
102
}
330
1F
100
AcDbEntity
  8
MODELSKETCH_VISIBLE
100
AcDbLine
 10
-0.4681929560687494
 20
0.772228212083647
 30
0.0
 11
-0.4849443427660011
 21
0.7869274045709881
 31
0.0
  0
ELLIPSE
  5
1000005A
102
{ACAD_XDICTIONARY
360
1000005B
102
}
330
1F
100
AcDbEntity
  8
MODELSKETCH_VISIBLE
100
AcDbEllipse
 10
-8.066938747563798
 20
5.107465570789842
 30
0.0
 11
-38.56475787864653
 21
22.92734201284545
 31
0.0
210
0.0
220
0.0
230
1.0
 40
0.0000877070063316
 41
4.47782308719634
 42
4.47833377747313
  0
LINE
  5
1000005D
102
{ACAD_XDICTIONARY
360
1000005E
102
}
330
1F
100
AcDbEntity
  8
MODELSKETCH_VISIBLE
100
AcDbLine
 10
-0.1136220476501061
 20
0.8958968020669832
 30
0.0
 11
-0.1229465006671411
 21
0.9161385853874547
 31
0.0
  0
ELLIPSE
  5
10000060
102
{ACAD_XDICTIONARY
360
10000061
102
}
330
1F
100
AcDbEntity
  8
MODELSKETCH_VISIBLE
100
AcDbEllipse
 10
-0.3917476783091028
 20
-9.539847323324937
 30
0.0
 11
-0.5737490692614182
 21
-44.86158066046976
 31
0.0
210
0.0
220
0.0
230
1.0
 40
0.0000438532041642
 41
4.477823087164693
 42
4.478333778413871
  0
LINE
  5
10000063
102
{ACAD_XDICTIONARY
360
10000064
102
}
330
1F
100
AcDbEntity
  8
MODELSKETCH_VISIBLE
100
AcDbLine
 10
-0.8791122474857727
 20
-0.2066463303631023
 30
0.0
 11
-0.8982684734546347
 21
-0.2180355455551495
 31
0.0
  0
LINE
  5
10000066
102
{ACAD_XDICTIONARY
360
10000067
102
}
330
1F
100
AcDbEntity
  8
MODELSKETCH_VISIBLE
100
AcDbLine
 10
0.8326804143506565
 20
-0.3495488130247316
 30
0.0
 11
0.8548725596274162
 21
-0.3515944933584079
 31
0.0
  0
ELLIPSE
  5
10000069
102
{ACAD_XDICTIONARY
360
1000006A
102
}
330
1F
100
AcDbEntity
  8
MODELSKETCH_VISIBLE
100
AcDbEllipse
 10
-4.236261613293228
 20
-8.556622708617097
 30
0.0
 11
-18.77062869261577
 21
-40.75005578824884
 31
0.0
210
0.0
220
0.0
230
1.0
 40
0.0000877070365506
 41
4.477823087866383
 42
4.478333777473916
  0
ELLIPSE
  5
1000006C
102
{ACAD_XDICTIONARY
360
1000006D
102
}
330
1F
100
AcDbEntity
  8
MODELSKETCH_VISIBLE
100
AcDbEllipse
 10
9.528535825200047
 20
0.6075839395697242
 30
0.0
 11
44.67579734090826
 21
4.118706075387863
 31
0.0
210
0.0
220
0.0
230
1.0
 40
0.0000438532583795
 41
4.477823091497982
 42
4.478333778413808
  0
LINE
  5
1000006F
102
{ACAD_XDICTIONARY
360
10000070
102
}
330
1F
100
AcDbEntity
  8
MODELSKETCH_VISIBLE
100
AcDbLine
 10
-0.8871596349747618
 20
0.1687863463809929
 30
0.0
 11
-0.9092921293486953
 21
0.1661733196209572
 31
0.0
  0
LINE
  5
10000072
102
{ACAD_XDICTIONARY
360
10000073
102
}
330
1F
100
AcDbEntity
  8
MODELSKETCH_VISIBLE
100
AcDbLine
 10
0.2605951489382572
 20
0.8646567042424382
 30
0.0
 11
0.2603099119780218
 21
0.8869411104469733
 31
0.0
  0
ARC
  5
10000075
102
{ACAD_XDICTIONARY
360
10000076
102
}
330
1F
100
AcDbEntity
  8
MODELSKETCH_VISIBLE
100
AcDbCircle
 10
-0.6724161576422145
 20
0.6054462277922638
 30
0.0
 40
0.102
100
AcDbArc
 50
266.9999986211786
 51
270.0000001899343
  0
ARC
  5
10000078
102
{ACAD_XDICTIONARY
360
10000079
102
}
330
1F
100
AcDbEntity
  8
MODELSKETCH_VISIBLE
100
AcDbCircle
 10
-0.3680255602044051
 20
0.8265989419557933
 30
0.0
 40
0.102
100
AcDbArc
 50
278.2714675389853
 51
309.7285323793612
  0
LINE
  5
1000007B
102
{ACAD_XDICTIONARY
360
1000007C
102
}
330
1F
100
AcDbEntity
  8
MODELSKETCH_VISIBLE
100
AcDbLine
 10
0.2974065551427474
 20
-0.852695953221149
 30
0.0
 11
0.3107357620140954
 21
-0.8705567584715617
 31
0.0
  0
LINE
  5
1000007E
102
{ACAD_XDICTIONARY
360
1000007F
102
}
330
1F
100
AcDbEntity
  8
MODELSKETCH_VISIBLE
100
AcDbLine
 10
0.5897530697645901
 20
0.6839096128548316
 30
0.0
 11
0.5985563774090203
 21
0.7043834472424039
 31
0.0
  0
ARC
  5
10000081
102
{ACAD_XDICTIONARY
360
10000082
102
}
330
1F
100
AcDbEntity
  8
MODELSKETCH_VISIBLE
100
AcDbCircle
 10
-0.6640424046433444
 20
0.7652269533529961
 30
0.0
 40
0.262
100
AcDbArc
 50
252.7333370890177
 51
266.9999994632071
  0
ELLIPSE
  5
10000084
102
{ACAD_XDICTIONARY
360
10000085
102
}
330
1F
100
AcDbEntity
  8
MODELSKETCH_VISIBLE
100
AcDbEllipse
 10
6.827357825332673
 20
-6.674529072135443
 30
0.0
 11
32.95473847457642
 21
-30.44463532213307
 31
0.0
210
0.0
220
0.0
230
1.0
 40
0.0000438535806145
 41
4.477823087164732
 42
4.478333778413781
  0
ARC
  5
10000087
102
{ACAD_XDICTIONARY
360
10000088
102
}
330
1F
100
AcDbEntity
  8
MODELSKETCH_VISIBLE
100
AcDbCircle
 10
0.6724161576422145
 20
0.6054462277922638
 30
0.0
 40
0.102
100
AcDbArc
 50
270.0
 51
273.0000001940114
  0
LINE
  5
1000008A
102
{ACAD_XDICTIONARY
360
1000008B
102
}
330
1F
100
AcDbEntity
  8
MODELSKETCH_VISIBLE
100
AcDbLine
 10
-0.0702160988301162
 20
-0.9216807951253553
 30
0.0
 11
-0.0751282912523521
 21
-0.8999426607615417
 31
0.0
  0
LINE
  5
1000008D
102
{ACAD_XDICTIONARY
360
1000008E
102
}
330
1F
100
AcDbEntity
  8
MODELSKETCH_VISIBLE
100
AcDbLine
 10
0.8169373552522934
 20
0.3849083178710918
 30
0.0
 11
0.8333070356306991
 21
0.4000314684793906
 31
0.0
  0
ARC
  5
10000090
102
{ACAD_XDICTIONARY
360
10000091
102
}
330
1F
100
AcDbEntity
  8
MODELSKETCH_VISIBLE
100
AcDbCircle
 10
-0.2953870802460776
 20
0.9691599858259311
 30
0.0
 40
0.262
100
AcDbArc
 50
228.7333370890175
 51
243.0000000000001
  0
ELLIPSE
  5
10000093
102
{ACAD_XDICTIONARY
360
10000094
102
}
330
1F
100
AcDbEntity
  8
MODELSKETCH_VISIBLE
100
AcDbEllipse
 10
3.52232615560728
 20
-8.87442225208104
 30
0.0
 11
17.72270275085339
 21
-41.21645772784341
 31
0.0
210
0.0
220
0.0
230
1.0
 40
0.0000438536632248
 41
4.477823087162871
 42
4.47833377841547
  0
ELLIPSE
  5
10000096
102
{ACAD_XDICTIONARY
360
10000097
102
}
330
1F
100
AcDbEntity
  8
MODELSKETCH_VISIBLE
100
AcDbEllipse
 10
5.922711032665878
 20
7.488871653154489
 30
0.0
 11
26.83285841784837
 21
35.95693614469008
 31
0.0
210
0.0
220
0.0
230
1.0
 40
0.0000877068948183
 41
4.477823087866613
 42
4.478333777474068
  0
LINE
  5
10000099
102
{ACAD_XDICTIONARY
360
1000009A
102
}
330
1F
100
AcDbEntity
  8
MODELSKETCH_VISIBLE
100
AcDbLine
 10
0.9028657192833257
 20
0.0193529111833421
 30
0.0
 11
0.9239713059481883
 21
0.0265104478786273
 31
0.0
  0
ARC
  5
1000009C
102
{ACAD_XDICTIONARY
360
1000009D
102
}
330
1F
100
AcDbEntity
  8
MODELSKETCH_VISIBLE
100
AcDbCircle
 10
0.3680255602044047
 20
0.8265989419557933
 30
0.0
 40
0.102
100
AcDbArc
 50
261.7285324607602
 51
270.0
  0
ELLIPSE
  5
1000009F
102
{ACAD_XDICTIONARY
360
100000A0
102
}
330
1F
100
AcDbEntity
  8
MODELSKETCH_VISIBLE
100
AcDbEllipse
 10
8.457623921148175
 20
4.430660234507139
 30
0.0
 11
39.1381429043158
 21
21.93390899408375
 31
0.0
210
0.0
220
0.0
230
1.0
 40
0.0000438539828012
 41
4.477823087163811
 42
4.478333778414902
  0
ELLIPSE
  5
100000A2
102
{ACAD_XDICTIONARY
360
100000A3
102
}
330
1F
100
AcDbEntity
  8
MODELSKETCH_VISIBLE
100
AcDbEllipse
 10
-5.292121833970104
 20
7.947021567666981
 30
0.0
 11
-25.90526925412266
 21
36.63086931080772
 31
0.0
210
0.0
220
0.0
230
1.0
 40
0.0000877066230701
 41
4.477823087867344
 42
4.478333777473077
  0
ARC
  5
100000A5
102
{ACAD_XDICTIONARY
360
100000A6
102
}
330
1F
100
AcDbEntity
  8
MODELSKETCH_VISIBLE
100
AcDbCircle
 10
-1.013005547567104
 20
0.0185570983909646
 30
0.0
 40
0.262
100
AcDbArc
 50
300.7333370890174
 51
314.9999999999998
  0
LINE
  5
100000A8
102
{ACAD_XDICTIONARY
360
100000A9
102
}
330
1F
100
AcDbEntity
  8
MODELSKETCH_VISIBLE
100
AcDbLine
 10
-0.43467276380303
 20
-0.7915811013337376
 30
0.0
 11
-0.4390269485267671
 21
-0.8134378438953268
 31
0.0
  0
ELLIPSE
  5
100000AB
102
{ACAD_XDICTIONARY
360
100000AC
102
}
330
1F
100
AcDbEntity
  8
MODELSKETCH_VISIBLE
100
AcDbEllipse
 10
-1.602248997165243
 20
9.412465322673405
 30
0.0
 11
-8.766524241940708
 21
44.00058652279441
 31
0.0
210
0.0
220
0.0
230
1.0
 40
0.000087706828944
 41
4.477823087867395
 42
4.478333777473147
  0
LINE
  5
100000AE
102
{ACAD_XDICTIONARY
360
100000AF
102
}
330
1F
100
AcDbEntity
  8
MODELSKETCH_VISIBLE
100
AcDbLine
 10
0.6185170978804998
 20
-0.6580103695574633
 30
0.0
 11
0.6379585782418878
 21
-0.6689055502062728
 31
0.0
  0
ARC
  5
100000B1
102
{ACAD_XDICTIONARY
360
100000B2
102
}
330
1F
100
AcDbEntity
  8
MODELSKETCH_VISIBLE
100
AcDbCircle
 10
-0.6724161576422145
 20
0.6054462277922638
 30
0.0
 40
0.102
100
AcDbArc
 50
270.0000001899343
 51
302.2714671797337
  0
ELLIPSE
  5
100000B4
102
{ACAD_XDICTIONARY
360
100000B5
102
}
330
1F
100
AcDbEntity
  8
MODELSKETCH_VISIBLE
100
AcDbEllipse
 10
-9.193422193245508
 20
-2.577342238595711
 30
0.0
 11
-42.84319525642167
 21
-13.31781395366124
 31
0.0
210
0.0
220
0.0
230
1.0
 40
0.0000877069108948
 41
4.477823087866433
 42
4.478333777473889
  0
LINE
  5
100000B7
102
{ACAD_XDICTIONARY
360
100000B8
102
}
330
1F
100
AcDbEntity
  8
MODELSKETCH_VISIBLE
100
AcDbLine
 10
-0.7418090652061112
 20
0.5150343241449298
 30
0.0
 11
-0.7630909186400724
 21
0.5216493018830864
 31
0.0
  0
ELLIPSE
  5
100000BA
102
{ACAD_XDICTIONARY
360
100000BB
102
}
330
1F
100
AcDbEntity
  8
MODELSKETCH_VISIBLE
100
AcDbEllipse
 10
2.364667256047336
 20
9.250408318386064
 30
0.0
 11
9.888032454809172
 21
43.76220259055208
 31
0.0
210
0.0
220
0.0
230
1.0
 40
0.0000877068036223
 41
4.477823087867358
 42
4.478333777473122
  0
ARC
  5
100000BD
102
{ACAD_XDICTIONARY
360
100000BE
102
}
330
1F
100
AcDbEntity
  8
MODELSKETCH_VISIBLE
100
AcDbCircle
 10
0.1881237350724535
 20
-0.8850525883294114
 30
0.0
 40
0.102
100
AcDbArc
 50
86.27146762021763
 51
117.7285328200562
  0
ARC
  5
100000C0
102
{ACAD_XDICTIONARY
360
100000C1
102
}
330
1F
100
AcDbEntity
  8
MODELSKETCH_VISIBLE
100
AcDbCircle
 10
0.3680255602044047
 20
0.8265989419557933
 30
0.0
 40
0.102
100
AcDbArc
 50
230.2714676202178
 51
261.7285324607602
  0
LINE
  5
100000C3
102
{ACAD_XDICTIONARY
360
100000C4
102
}
330
1F
100
AcDbEntity
  8
MODELSKETCH_VISIBLE
100
AcDbLine
 10
-0.7630909362580256
 20
0.5216493135283005
 30
0.0
 11
-0.7418090634573209
 21
0.5150343297711834
 31
0.0
  0
ARC
  5
100000C6
102
{ACAD_XDICTIONARY
360
100000C7
102
}
330
1F
100
AcDbEntity
  8
MODELSKETCH_VISIBLE
100
AcDbCircle
 10
0.6724161576422145
 20
0.6054462277922638
 30
0.0
 40
0.102
100
AcDbArc
 50
206.2714671797341
 51
237.7285323793614
  0
ARC
  5
100000C9
102
{ACAD_XDICTIONARY
360
100000CA
102
}
330
1F
100
AcDbEntity
  8
MODELSKETCH_VISIBLE
100
AcDbCircle
 10
-0.5318429023728528
 20
-0.7320189553569094
 30
0.0
 40
0.102
100
AcDbArc
 50
38.27146717973466
 51
69.72853237936077
  0
ARC
  5
100000CC
102
{ACAD_XDICTIONARY
360
100000CD
102
}
330
1F
100
AcDbEntity
  8
MODELSKETCH_VISIBLE
100
AcDbCircle
 10
-0.7836016002118996
 20
-0.4524125948197622
 30
0.0
 40
0.102
100
AcDbArc
 50
14.27146762021692
 51
45.72853237936196
  0
ARC
  5
100000CF
102
{ACAD_XDICTIONARY
360
100000D0
102
}
330
1F
100
AcDbEntity
  8
MODELSKETCH_VISIBLE
100
AcDbCircle
 10
0.0874324725044793
 20
-1.009395942162528
 30
0.0
 40
0.262
100
AcDbArc
 50
36.73333708901756
 51
51.00000000000004
  0
ARC
  5
100000D2
102
{ACAD_XDICTIONARY
360
100000D3
102
}
330
1F
100
AcDbEntity
  8
MODELSKETCH_VISIBLE
100
AcDbCircle
 10
0.9178787646419154
 20
0.4289792287766993
 30
0.0
 40
0.262
100
AcDbArc
 50
249.0000000000001
 51
263.2666666666667
  0
ARC
  5
100000D5
102
{ACAD_XDICTIONARY
360
100000D6
102
}
330
1F
100
AcDbEntity
  8
MODELSKETCH_VISIBLE
100
AcDbCircle
 10
-0.3680255602044051
 20
0.8265989419557933
 30
0.0
 40
0.102
100
AcDbArc
 50
270.0
 51
278.2714675389853
  0
ARC
  5
100000D8
102
{ACAD_XDICTIONARY
360
100000D9
102
}
330
1F
100
AcDbEntity
  8
MODELSKETCH_VISIBLE
100
AcDbCircle
 10
0.8998684625772579
 20
-0.0945799865988829
 30
0.0
 40
0.102
100
AcDbArc
 50
158.2714671797337
 51
189.7285323793609
  0
ARC
  5
100000DB
102
{ACAD_XDICTIONARY
360
100000DC
102
}
330
1F
100
AcDbEntity
  8
MODELSKETCH_VISIBLE
100
AcDbCircle
 10
-0.1881237350724535
 20
-0.8850525883294114
 30
0.0
 40
0.102
100
AcDbArc
 50
62.27146695671964
 51
93.72853237936066
  0
ARC
  5
100000DE
102
{ACAD_XDICTIONARY
360
100000DF
102
}
330
1F
100
AcDbEntity
  8
MODELSKETCH_VISIBLE
100
AcDbCircle
 10
-0.3306847789425921
 20
-0.9576910682877381
 30
0.0
 40
0.262
100
AcDbArc
 50
12.73333708901707
 51
26.99999999999969
  0
ARC
  5
100000E1
102
{ACAD_XDICTIONARY
360
100000E2
102
}
330
1F
100
AcDbEntity
  8
MODELSKETCH_VISIBLE
100
AcDbCircle
 10
1.013005547567104
 20
0.0185570983909648
 30
0.0
 40
0.262
100
AcDbArc
 50
225.0000000000002
 51
239.2666666666668
  0
ARC
  5
100000E4
102
{ACAD_XDICTIONARY
360
100000E5
102
}
330
1F
100
AcDbEntity
  8
MODELSKETCH_VISIBLE
100
AcDbCircle
 10
0.9947271835859351
 20
0.1924641149347429
 30
0.0
 40
0.262
100
AcDbArc
 50
132.7333370890172
 51
146.9999999999997
  0
ARC
  5
100000E7
102
{ACAD_XDICTIONARY
360
100000E8
102
}
330
1F
100
AcDbEntity
  8
MODELSKETCH_VISIBLE
100
AcDbCircle
 10
-0.830446292137437
 20
0.5804167133858268
 30
0.0
 40
0.262
100
AcDbArc
 50
9.000000000000153
 51
23.26666666666683
  0
LINE
  5
100000EA
102
{ACAD_XDICTIONARY
360
100000EB
102
}
330
1F
100
AcDbEntity
  8
MODELSKETCH_VISIBLE
100
AcDbLine
 10
-0.4849443652865528
 20
0.7869274096546075
 30
0.0
 11
-0.4681929633463848
 21
0.7722282037899564
 31
0.0
  0
ARC
  5
100000ED
102
{ACAD_XDICTIONARY
360
100000EE
102
}
330
1F
100
AcDbEntity
  8
MODELSKETCH_VISIBLE
100
AcDbCircle
 10
-0.0874324725044793
 20
-1.009395942162528
 30
0.0
 40
0.262
100
AcDbArc
 50
129.0
 51
143.2666666666665
  0
ARC
  5
100000F0
102
{ACAD_XDICTIONARY
360
100000F1
102
}
330
1F
100
AcDbEntity
  8
MODELSKETCH_VISIBLE
100
AcDbCircle
 10
-0.8124161576422145
 20
0.3629591147326213
 30
0.0
 40
0.1661792947437626
100
AcDbArc
 50
72.73333009664718
 51
100.9889086676397
  0
LINE
  5
100000F3
102
{ACAD_XDICTIONARY
360
100000F4
102
}
330
1F
100
AcDbEntity
  8
MODELSKETCH_VISIBLE
100
AcDbLine
 10
-0.7190583586681393
 20
-0.5463479858667966
 30
0.0
 11
-0.7319260307339474
 21
-0.5645440907155711
 31
0.0
  0
ARC
  5
100000F6
102
{ACAD_XDICTIONARY
360
100000F7
102
}
330
1F
100
AcDbEntity
  8
MODELSKETCH_VISIBLE
100
AcDbCircle
 10
0.1243433538331157
 20
1.005516452207498
 30
0.0
 40
0.262
100
AcDbArc
 50
204.7333370890174
 51
218.9999999999999
  0
ARC
  5
100000F9
102
{ACAD_XDICTIONARY
360
100000FA
102
}
330
1F
100
AcDbEntity
  8
MODELSKETCH_VISIBLE
100
AcDbCircle
 10
-0.4439164632123819
 20
-0.771166328268187
 30
0.0
 40
0.1661792958393925
100
AcDbArc
 50
295.0110916836696
 51
323.2666666666668
  0
ARC
  5
100000FC
102
{ACAD_XDICTIONARY
360
100000FD
102
}
330
1F
100
AcDbEntity
  8
MODELSKETCH_VISIBLE
100
AcDbCircle
 10
-0.5225736924106559
 20
0.8680099891721949
 30
0.0
 40
0.262
100
AcDbArc
 50
345.0
 51
359.266666666667
  0
ARC
  5
100000FF
102
{ACAD_XDICTIONARY
360
10000100
102
}
330
1F
100
AcDbEntity
  8
MODELSKETCH_VISIBLE
100
AcDbCircle
 10
0.0000000000000003
 20
0.9048251896395256
 30
0.0
 40
0.102
100
AcDbArc
 50
219.0000000000005
 51
254.2714676197959
  0
ARC
  5
10000102
102
{ACAD_XDICTIONARY
360
10000103
102
}
330
1F
100
AcDbEntity
  8
MODELSKETCH_VISIBLE
100
AcDbCircle
 10
0.8701263586368858
 20
-0.1861167702571197
 30
0.0
 40
0.1661792947437626
100
AcDbArc
 50
264.7333370890172
 51
270.0
  0
ARC
  5
10000105
102
{ACAD_XDICTIONARY
360
10000106
102
}
330
1F
100
AcDbEntity
  8
MODELSKETCH_VISIBLE
100
AcDbCircle
 10
-0.124343353833115
 20
1.005516452207498
 30
0.0
 40
0.262
100
AcDbArc
 50
321.0
 51
335.2666666666668
  0
ARC
  5
10000108
102
{ACAD_XDICTIONARY
360
10000109
102
}
330
1F
100
AcDbEntity
  8
MODELSKETCH_VISIBLE
100
AcDbCircle
 10
-0.8701263586368858
 20
-0.1861167702571197
 30
0.0
 40
0.1661792958393925
100
AcDbArc
 50
270.0
 51
275.2667318607657
  0
ARC
  5
1000010B
102
{ACAD_XDICTIONARY
360
1000010C
102
}
330
1F
100
AcDbEntity
  8
MODELSKETCH_VISIBLE
100
AcDbCircle
 10
-0.7191994721533327
 20
-0.5239384042232401
 30
0.0
 40
0.1661792958393925
100
AcDbArc
 50
271.0110916836696
 51
299.2666666661436
  0
ARC
  5
1000010E
102
{ACAD_XDICTIONARY
360
1000010F
102
}
330
1F
100
AcDbEntity
  8
MODELSKETCH_VISIBLE
100
AcDbCircle
 10
0.8086311146183367
 20
-0.6104427293149842
 30
0.0
 40
0.262
100
AcDbArc
 50
84.73333708901748
 51
98.99999999999974
  0
ARC
  5
10000111
102
{ACAD_XDICTIONARY
360
10000112
102
}
330
1F
100
AcDbEntity
  8
MODELSKETCH_VISIBLE
100
AcDbCircle
 10
0.2738813282054657
 20
0.8466099162105513
 30
0.0
 40
0.1661792958393925
100
AcDbArc
 50
127.0110916836696
 51
155.2666666666663
  0
ARC
  5
10000114
102
{ACAD_XDICTIONARY
360
10000115
102
}
330
1F
100
AcDbEntity
  8
MODELSKETCH_VISIBLE
100
AcDbCircle
 10
-0.8086311146183367
 20
-0.6104427293149842
 30
0.0
 40
0.262
100
AcDbArc
 50
81.00000000000026
 51
95.26666666666698
  0
LINE
  5
10000117
102
{ACAD_XDICTIONARY
360
10000118
102
}
330
1F
100
AcDbEntity
  8
MODELSKETCH_VISIBLE
100
AcDbLine
 10
-0.8982684929617591
 20
-0.2180355524294308
 30
0.0
 11
-0.8791122495609422
 21
-0.2066463268727469
 31
0.0
  0
ARC
  5
1000011A
102
{ACAD_XDICTIONARY
360
1000011B
102
}
330
1F
100
AcDbEntity
  8
MODELSKETCH_VISIBLE
100
AcDbCircle
 10
-0.6916236279335847
 20
-0.7403927083557814
 30
0.0
 40
0.262
100
AcDbArc
 50
348.7333370890174
 51
3.000000000000017
  0
ARC
  5
1000011D
102
{ACAD_XDICTIONARY
360
1000011E
102
}
330
1F
100
AcDbEntity
  8
MODELSKETCH_VISIBLE
100
AcDbCircle
 10
0.6916236279335847
 20
-0.7403927083557814
 30
0.0
 40
0.262
100
AcDbArc
 50
176.9999999999999
 51
191.2666666666666
  0
ARC
  5
10000120
102
{ACAD_XDICTIONARY
360
10000121
102
}
330
1F
100
AcDbEntity
  8
MODELSKETCH_VISIBLE
100
AcDbCircle
 10
0.2953870802460771
 20
0.9691599858259311
 30
0.0
 40
0.262
100
AcDbArc
 50
297.0000000000001
 51
311.2666666666669
  0
ARC
  5
10000123
102
{ACAD_XDICTIONARY
360
10000124
102
}
330
1F
100
AcDbEntity
  8
MODELSKETCH_VISIBLE
100
AcDbCircle
 10
-0.2738813282054654
 20
0.8466099162105531
 30
0.0
 40
0.1661792947437628
100
AcDbArc
 50
24.73333009664675
 51
52.98890866763941
  0
ARC
  5
10000126
102
{ACAD_XDICTIONARY
360
10000127
102
}
330
1F
100
AcDbEntity
  8
MODELSKETCH_VISIBLE
100
AcDbCircle
 10
0.7191994721533327
 20
-0.5239384042232401
 30
0.0
 40
0.1661792947437626
100
AcDbArc
 50
240.733337089018
 51
268.9889086676399
  0
ELLIPSE
  5
10000129
102
{ACAD_XDICTIONARY
360
1000012A
102
}
330
1F
100
AcDbEntity
  8
MODELSKETCH_VISIBLE
100
AcDbEllipse
 10
5.924316016307129
 20
7.487640384447166
 30
0.0
 11
26.83316520103396
 21
35.9565626225052
 31
0.0
210
0.0
220
0.0
230
1.0
 40
0.0000438535609732
 41
4.477823087784854
 42
4.47833377824671
  0
ARC
  5
1000012C
102
{ACAD_XDICTIONARY
360
1000012D
102
}
330
1F
100
AcDbEntity
  8
MODELSKETCH_VISIBLE
100
AcDbCircle
 10
0.3680255602044047
 20
0.8265989419557933
 30
0.0
 40
0.102
100
AcDbArc
 50
270.0000000000005
 51
296.9999999999999
  0
ARC
  5
1000012F
102
{ACAD_XDICTIONARY
360
10000130
102
}
330
1F
100
AcDbEntity
  8
MODELSKETCH_VISIBLE
100
AcDbCircle
 10
0.5945503186293898
 20
0.6620190713138996
 30
0.0
 40
0.1661792958393925
100
AcDbArc
 50
103.0110916836695
 51
131.2666666666663
  0
ARC
  5
10000132
102
{ACAD_XDICTIONARY
360
10000133
102
}
330
1F
100
AcDbEntity
  8
MODELSKETCH_VISIBLE
100
AcDbCircle
 10
0.4904318551564488
 20
-0.8865670875631614
 30
0.0
 40
0.262
100
AcDbArc
 50
60.73333708901744
 51
74.99999999999982
  0
ARC
  5
10000135
102
{ACAD_XDICTIONARY
360
10000136
102
}
330
1F
100
AcDbEntity
  8
MODELSKETCH_VISIBLE
100
AcDbCircle
 10
0.6640424046433444
 20
0.7652269533529961
 30
0.0
 40
0.262
100
AcDbArc
 50
273.000000075531
 51
287.2666666666665
  0
ARC
  5
10000138
102
{ACAD_XDICTIONARY
360
10000139
102
}
330
1F
100
AcDbEntity
  8
MODELSKETCH_VISIBLE
100
AcDbCircle
 10
0.5225736924106559
 20
0.8680099891721949
 30
0.0
 40
0.262
100
AcDbArc
 50
180.733337089017
 51
194.9999999999995
  0
ARC
  5
1000013B
102
{ACAD_XDICTIONARY
360
1000013C
102
}
330
1F
100
AcDbEntity
  8
MODELSKETCH_VISIBLE
100
AcDbCircle
 10
-0.9870107081796615
 20
-0.2287672774701508
 30
0.0
 40
0.262
100
AcDbArc
 50
56.99999999999996
 51
71.26666666666664
  0
ELLIPSE
  5
1000013E
102
{ACAD_XDICTIONARY
360
1000013F
102
}
330
1F
100
AcDbEntity
  8
MODELSKETCH_VISIBLE
100
AcDbEllipse
 10
-8.065881953552466
 20
5.109190453694761
 30
0.0
 11
-38.56441833103951
 21
22.92768607888701
 31
0.0
210
0.0
220
0.0
230
1.0
 40
0.0000438534718427
 41
4.477823087784317
 42
4.478333778246537
  0
ARC
  5
10000141
102
{ACAD_XDICTIONARY
360
10000142
102
}
330
1F
100
AcDbEntity
  8
MODELSKETCH_VISIBLE
100
AcDbCircle
 10
0.3306847789425921
 20
-0.9576910682877381
 30
0.0
 40
0.262
100
AcDbArc
 50
153.0000000000003
 51
167.266666666667
  0
ARC
  5
10000144
102
{ACAD_XDICTIONARY
360
10000145
102
}
330
1F
100
AcDbEntity
  8
MODELSKETCH_VISIBLE
100
AcDbCircle
 10
0.4439164632123819
 20
-0.771166328268187
 30
0.0
 40
0.1661792947437628
100
AcDbArc
 50
216.7333370890175
 51
244.9889086676396
  0
ELLIPSE
  5
10000147
102
{ACAD_XDICTIONARY
360
10000148
102
}
330
1F
100
AcDbEntity
  8
MODELSKETCH_VISIBLE
100
AcDbEllipse
 10
8.951877273397997
 20
-3.320549124504052
 30
0.0
 11
42.48860040867272
 21
-14.4086586095327
 31
0.0
210
0.0
220
0.0
230
1.0
 40
0.0000438533086542
 41
4.477823087164724
 42
4.478333778413869
  0
ARC
  5
1000014A
102
{ACAD_XDICTIONARY
360
1000014B
102
}
330
1F
100
AcDbEntity
  8
MODELSKETCH_VISIBLE
100
AcDbCircle
 10
0.5318429023728528
 20
-0.7320189553569094
 30
0.0
 40
0.102
100
AcDbArc
 50
110.2714671390541
 51
141.7285323793609
  0
ARC
  5
1000014D
102
{ACAD_XDICTIONARY
360
1000014E
102
}
330
1F
100
AcDbEntity
  8
MODELSKETCH_VISIBLE
100
AcDbCircle
 10
-0.6724161576422145
 20
0.6054462277922638
 30
0.0
 40
0.102
100
AcDbArc
 50
302.2714671797337
 51
333.7285324607599
  0
ARC
  5
10000150
102
{ACAD_XDICTIONARY
360
10000151
102
}
330
1F
100
AcDbEntity
  8
MODELSKETCH_VISIBLE
100
AcDbCircle
 10
0.0000000000000003
 20
0.9048251896395256
 30
0.0
 40
0.102
100
AcDbArc
 50
254.2714676202175
 51
285.7285323793609
  0
ARC
  5
10000153
102
{ACAD_XDICTIONARY
360
10000154
102
}
330
1F
100
AcDbEntity
  8
MODELSKETCH_VISIBLE
100
AcDbCircle
 10
-0.3680255602044051
 20
0.8265989419557933
 30
0.0
 40
0.102
100
AcDbArc
 50
243.0000000000004
 51
270.0
  0
ARC
  5
10000156
102
{ACAD_XDICTIONARY
360
10000157
102
}
330
1F
100
AcDbEntity
  8
MODELSKETCH_VISIBLE
100
AcDbCircle
 10
0.8124161576422145
 20
0.3629591147326213
 30
0.0
 40
0.1661792958393925
100
AcDbArc
 50
79.01109168366938
 51
107.2666666666669
  0
ARC
  5
10000159
102
{ACAD_XDICTIONARY
360
1000015A
102
}
330
1F
100
AcDbEntity
  8
MODELSKETCH_VISIBLE
100
AcDbCircle
 10
-0.870600492862315
 20
0.1838861441042335
 30
0.0
 40
0.1661792958393925
100
AcDbArc
 50
223.0110916836696
 51
251.2666666661438
  0
ARC
  5
1000015C
102
{ACAD_XDICTIONARY
360
1000015D
102
}
330
1F
100
AcDbEntity
  8
MODELSKETCH_VISIBLE
100
AcDbCircle
 10
0.1881237350724535
 20
-0.8850525883294114
 30
0.0
 40
0.102
100
AcDbArc
 50
50.99999999999968
 51
86.27146761979698
  0
ARC
  5
1000015F
102
{ACAD_XDICTIONARY
360
10000160
102
}
330
1F
100
AcDbEntity
  8
MODELSKETCH_VISIBLE
100
AcDbCircle
 10
0.5318429023728528
 20
-0.7320189553569094
 30
0.0
 40
0.102
100
AcDbArc
 50
141.7285323793606
 51
177.0000000000005
  0
ARC
  5
10000162
102
{ACAD_XDICTIONARY
360
10000163
102
}
330
1F
100
AcDbEntity
  8
MODELSKETCH_VISIBLE
100
AcDbCircle
 10
0.6724161576422145
 20
0.6054462277922638
 30
0.0
 40
0.102
100
AcDbArc
 50
270.0
 51
273.0000000000007
  0
LINE
  5
10000165
102
{ACAD_XDICTIONARY
360
10000166
102
}
330
1F
100
AcDbEntity
  8
MODELSKETCH_VISIBLE
100
AcDbLine
 10
0.260309912080288
 20
0.8869411104482912
 30
0.0
 11
0.2605951490405361
 21
0.8646567042437473
 31
0.0
  0
ARC
  5
10000168
102
{ACAD_XDICTIONARY
360
10000169
102
}
330
1F
100
AcDbEntity
  8
MODELSKETCH_VISIBLE
100
AcDbCircle
 10
-0.3680255602044051
 20
0.8265989419557933
 30
0.0
 40
0.102
100
AcDbArc
 50
309.7285323793615
 51
344.9999999999991
  0
ARC
  5
1000016B
102
{ACAD_XDICTIONARY
360
1000016C
102
}
330
1F
100
AcDbEntity
  8
MODELSKETCH_VISIBLE
100
AcDbCircle
 10
-0.7836016002118996
 20
-0.4524125948197622
 30
0.0
 40
0.102
100
AcDbArc
 50
339.0000000000001
 51
14.27146761979561
  0
ARC
  5
1000016E
102
{ACAD_XDICTIONARY
360
1000016F
102
}
330
1F
100
AcDbEntity
  8
MODELSKETCH_VISIBLE
100
AcDbCircle
 10
-0.0918762649275466
 20
-0.8850525883294114
 30
0.0
 40
0.1661792958393927
100
AcDbArc
 50
319.0110916836699
 51
347.2666666666666
  0
ARC
  5
10000171
102
{ACAD_XDICTIONARY
360
10000172
102
}
330
1F
100
AcDbEntity
  8
MODELSKETCH_VISIBLE
100
AcDbCircle
 10
-0.8998684625772579
 20
-0.0945799865988831
 30
0.0
 40
0.102
100
AcDbArc
 50
350.271467139054
 51
21.72853237936091
  0
ARC
  5
10000174
102
{ACAD_XDICTIONARY
360
10000175
102
}
330
1F
100
AcDbEntity
  8
MODELSKETCH_VISIBLE
100
AcDbCircle
 10
0.0
 20
0.0
 30
0.0
 40
0.9946181455272106
100
AcDbArc
 50
28.06627013582561
 51
31.93372995036415
  0
ARC
  5
10000177
102
{ACAD_XDICTIONARY
360
10000178
102
}
330
1F
100
AcDbEntity
  8
MODELSKETCH_VISIBLE
100
AcDbCircle
 10
0.830446292137437
 20
0.5804167133858268
 30
0.0
 40
0.262
100
AcDbArc
 50
156.7333370890174
 51
170.9999999999998
  0
ARC
  5
1000017A
102
{ACAD_XDICTIONARY
360
1000017B
102
}
330
1F
100
AcDbEntity
  8
MODELSKETCH_VISIBLE
100
AcDbCircle
 10
-0.9947271835859351
 20
0.1924641149347433
 30
0.0
 40
0.262
100
AcDbArc
 50
33.00000000000009
 51
47.26666666666686
  0
ARC
  5
1000017D
102
{ACAD_XDICTIONARY
360
1000017E
102
}
330
1F
100
AcDbEntity
  8
MODELSKETCH_VISIBLE
100
AcDbCircle
 10
0.0
 20
0.0
 30
0.0
 40
0.9946181455272106
100
AcDbArc
 50
172.0662701358257
 51
175.9337299503642
  0
ELLIPSE
  5
10000180
102
{ACAD_XDICTIONARY
360
10000181
102
}
330
1F
100
AcDbEntity
  8
MODELSKETCH_VISIBLE
100
AcDbEllipse
 10
-5.29045484036774
 20
7.948167483848299
 30
0.0
 11
-25.90481912039608
 21
36.63104552388715
 31
0.0
210
0.0
220
0.0
230
1.0
 40
0.0000438533192336
 41
4.477823087784331
 42
4.478333778246592
  0
LINE
  5
10000183
102
{ACAD_XDICTIONARY
360
10000184
102
}
330
1F
100
AcDbEntity
  8
MODELSKETCH_VISIBLE
100
AcDbLine
 10
-0.9028657396060347
 20
0.0193529047310881
 30
0.0
 11
-0.9239713001625713
 21
0.0265104310313245
 31
0.0
  0
ARC
  5
10000186
102
{ACAD_XDICTIONARY
360
10000187
102
}
330
1F
100
AcDbEntity
  8
MODELSKETCH_VISIBLE
100
AcDbCircle
 10
0.8605398927146694
 20
0.2796063605371476
 30
0.0
 40
0.102
100
AcDbArc
 50
182.2714671797338
 51
213.7285323793609
  0
ARC
  5
10000189
102
{ACAD_XDICTIONARY
360
1000018A
102
}
330
1F
100
AcDbEntity
  8
MODELSKETCH_VISIBLE
100
AcDbCircle
 10
-0.8605398927146674
 20
0.279606360537148
 30
0.0
 40
0.102
100
AcDbArc
 50
326.2714676202169
 51
357.7285323793612
  0
ARC
  5
1000018C
102
{ACAD_XDICTIONARY
360
1000018D
102
}
330
1F
100
AcDbEntity
  8
MODELSKETCH_VISIBLE
100
AcDbCircle
 10
0.0
 20
0.0
 30
0.0
 40
0.9946181455272106
100
AcDbArc
 50
268.0662701358256
 51
271.9337299503643
  0
ARC
  5
1000018F
102
{ACAD_XDICTIONARY
360
10000190
102
}
330
1F
100
AcDbEntity
  8
MODELSKETCH_VISIBLE
100
AcDbCircle
 10
0.3680255602044047
 20
0.8265989419557933
 30
0.0
 40
0.102
100
AcDbArc
 50
194.9999999999998
 51
230.2714676197961
  0
ARC
  5
10000192
102
{ACAD_XDICTIONARY
360
10000193
102
}
330
1F
100
AcDbEntity
  8
MODELSKETCH_VISIBLE
100
AcDbCircle
 10
0.0918762649275466
 20
-0.8850525883294114
 30
0.0
 40
0.1661792947437628
100
AcDbArc
 50
192.7333370890179
 51
220.9889086676397
  0
ARC
  5
10000195
102
{ACAD_XDICTIONARY
360
10000196
102
}
330
1F
100
AcDbEntity
  8
MODELSKETCH_VISIBLE
100
AcDbCircle
 10
0.7205398927146693
 20
0.5220934735967905
 30
0.0
 40
0.1661792947437626
100
AcDbArc
 50
312.7333370890173
 51
340.9889086676392
  0
ARC
  5
10000198
102
{ACAD_XDICTIONARY
360
10000199
102
}
330
1F
100
AcDbEntity
  8
MODELSKETCH_VISIBLE
100
AcDbCircle
 10
-0.8898078624296102
 20
0.0011402298340313
 30
0.0
 40
0.1661792947437628
100
AcDbArc
 50
96.73333009664756
 51
124.9889086676399
  0
LINE
  5
1000019B
102
{ACAD_XDICTIONARY
360
1000019C
102
}
330
1F
100
AcDbEntity
  8
MODELSKETCH_VISIBLE
100
AcDbLine
 10
0.8548725587712352
 20
-0.3515945026464867
 30
0.0
 11
0.8326804134943752
 21
-0.3495488223139429
 31
0.0
  0
ARC
  5
1000019E
102
{ACAD_XDICTIONARY
360
1000019F
102
}
330
1F
100
AcDbEntity
  8
MODELSKETCH_VISIBLE
100
AcDbCircle
 10
-0.5318429023728528
 20
-0.7320189553569094
 30
0.0
 40
0.102
100
AcDbArc
 50
69.72853237936113
 51
105.0000000000004
  0
LINE
  5
100001A1
102
{ACAD_XDICTIONARY
360
100001A2
102
}
330
1F
100
AcDbEntity
  8
MODELSKETCH_VISIBLE
100
AcDbLine
 10
0.0
 20
0.2898298351331921
 30
0.0
 11
0.2509999999999999
 21
0.1449149175665961
 31
0.0
  0
ARC
  5
100001A4
102
{ACAD_XDICTIONARY
360
100001A5
102
}
330
1F
100
AcDbEntity
  8
MODELSKETCH_VISIBLE
100
AcDbCircle
 10
0.8898078624296122
 20
0.0011402298340309
 30
0.0
 40
0.1661792958393927
100
AcDbArc
 50
55.0110916836701
 51
83.26666666666722
  0
ARC
  5
100001A7
102
{ACAD_XDICTIONARY
360
100001A8
102
}
330
1F
100
AcDbEntity
  8
MODELSKETCH_VISIBLE
100
AcDbCircle
 10
-0.7205398927146672
 20
0.5220934735967914
 30
0.0
 40
0.1661792958393925
100
AcDbArc
 50
199.0110916836698
 51
227.2666666666666
  0
ARC
  5
100001AA
102
{ACAD_XDICTIONARY
360
100001AB
102
}
330
1F
100
AcDbEntity
  8
MODELSKETCH_VISIBLE
100
AcDbCircle
 10
-0.1881237350724535
 20
-0.8850525883294114
 30
0.0
 40
0.102
100
AcDbArc
 50
26.99999999999955
 51
62.27146695671954
  0
ARC
  5
100001AD
102
{ACAD_XDICTIONARY
360
100001AE
102
}
330
1F
100
AcDbEntity
  8
MODELSKETCH_VISIBLE
100
AcDbCircle
 10
0.8605398927146694
 20
0.2796063605371476
 30
0.0
 40
0.102
100
AcDbArc
 50
147.0000000000006
 51
182.2714671797338
  0
ARC
  5
100001B0
102
{ACAD_XDICTIONARY
360
100001B1
102
}
330
1F
100
AcDbEntity
  8
MODELSKETCH_VISIBLE
100
AcDbCircle
 10
-0.8998684625772579
 20
-0.0945799865988831
 30
0.0
 40
0.102
100
AcDbArc
 50
314.9999999999999
 51
350.271467139054
  0
ARC
  5
100001B3
102
{ACAD_XDICTIONARY
360
100001B4
102
}
330
1F
100
AcDbEntity
  8
MODELSKETCH_VISIBLE
100
AcDbCircle
 10
0.0
 20
0.0
 30
0.0
 40
0.9946181455272106
100
AcDbArc
 50
4.066270135825675
 51
7.933729950364168
  0
ARC
  5
100001B6
102
{ACAD_XDICTIONARY
360
100001B7
102
}
330
1F
100
AcDbEntity
  8
MODELSKETCH_VISIBLE
100
AcDbCircle
 10
0.0
 20
0.0
 30
0.0
 40
0.9946181455272106
100
AcDbArc
 50
148.0662701358257
 51
151.9337299503642
  0
ELLIPSE
  5
100001B9
102
{ACAD_XDICTIONARY
360
100001BA
102
}
330
1F
100
AcDbEntity
  8
MODELSKETCH_VISIBLE
100
AcDbEllipse
 10
-1.60026004829916
 20
9.412834138977983
 30
0.0
 11
-8.766041354310161
 21
44.00056441290938
 31
0.0
210
0.0
220
0.0
230
1.0
 40
0.000043853785225
 41
4.477823087784679
 42
4.478333778246613
  0
LINE
  5
100001BC
102
{ACAD_XDICTIONARY
360
100001BD
102
}
330
1F
100
AcDbEntity
  8
MODELSKETCH_VISIBLE
100
AcDbLine
 10
-0.8169373581967938
 20
0.3849083399921347
 30
0.0
 11
-0.8333070189543231
 21
0.4000314704824646
 31
0.0
  0
ARC
  5
100001BF
102
{ACAD_XDICTIONARY
360
100001C0
102
}
330
1F
100
AcDbEntity
  8
MODELSKETCH_VISIBLE
100
AcDbCircle
 10
-0.7836016002118996
 20
-0.4524125948197622
 30
0.0
 40
0.102
100
AcDbArc
 50
45.72853237936211
 51
81.00000000000077
  0
ARC
  5
100001C2
102
{ACAD_XDICTIONARY
360
100001C3
102
}
330
1F
100
AcDbEntity
  8
MODELSKETCH_VISIBLE
100
AcDbCircle
 10
0.870600492862315
 20
0.1838861441042338
 30
0.0
 40
0.1661792947437626
100
AcDbArc
 50
288.733337089017
 51
316.9889086676396
  0
LINE
  5
100001C5
102
{ACAD_XDICTIONARY
360
100001C6
102
}
330
1F
100
AcDbEntity
  8
MODELSKETCH_VISIBLE
100
AcDbLine
 10
0.6379585782511619
 20
-0.6689055501897206
 30
0.0
 11
0.6185170978897762
 21
-0.65801036954091
 31
0.0
  0
ARC
  5
100001C8
102
{ACAD_XDICTIONARY
360
100001C9
102
}
330
1F
100
AcDbEntity
  8
MODELSKETCH_VISIBLE
100
AcDbCircle
 10
0.8701263586368858
 20
-0.1861167702571197
 30
0.0
 40
0.1661792947437626
100
AcDbArc
 50
270.0
 51
292.9889086676396
  0
ARC
  5
100001CB
102
{ACAD_XDICTIONARY
360
100001CC
102
}
330
1F
100
AcDbEntity
  8
MODELSKETCH_VISIBLE
100
AcDbCircle
 10
0.8133437041522716
 20
-0.3608758111615256
 30
0.0
 40
0.1661792958393925
100
AcDbArc
 50
31.01109168366966
 51
59.26665657021558
  0
ARC
  5
100001CE
102
{ACAD_XDICTIONARY
360
100001CF
102
}
330
1F
100
AcDbEntity
  8
MODELSKETCH_VISIBLE
100
AcDbCircle
 10
-0.4458913992172291
 20
0.7700260984341575
 30
0.0
 40
0.1661792958393925
100
AcDbArc
 50
175.0110916836702
 51
203.2666666666671
  0
ARC
  5
100001D1
102
{ACAD_XDICTIONARY
360
100001D2
102
}
330
1F
100
AcDbEntity
  8
MODELSKETCH_VISIBLE
100
AcDbCircle
 10
-0.9329744684514528
 20
-0.3950737228925142
 30
0.0
 40
0.262
100
AcDbArc
 50
324.7333370890175
 51
339.0
  0
ARC
  5
100001D4
102
{ACAD_XDICTIONARY
360
100001D5
102
}
330
1F
100
AcDbEntity
  8
MODELSKETCH_VISIBLE
100
AcDbCircle
 10
0.8998684625772579
 20
-0.0945799865988829
 30
0.0
 40
0.102
100
AcDbArc
 50
123.0000000000004
 51
158.2714671797337
  0
LINE
  5
100001D7
102
{ACAD_XDICTIONARY
360
100001D8
102
}
330
1F
100
AcDbEntity
  8
MODELSKETCH_VISIBLE
100
AcDbLine
 10
0.598556377879626
 20
0.7043834470400582
 30
0.0
 11
0.5897530702352514
 21
0.6839096126524564
 31
0.0
  0
ARC
  5
100001DA
102
{ACAD_XDICTIONARY
360
100001DB
102
}
330
1F
100
AcDbEntity
  8
MODELSKETCH_VISIBLE
100
AcDbCircle
 10
0.0000000000000003
 20
0.9048251896395256
 30
0.0
 40
0.102
100
AcDbArc
 50
285.7285323793612
 51
320.9999999999994
  0
ARC
  5
100001DD
102
{ACAD_XDICTIONARY
360
100001DE
102
}
330
1F
100
AcDbEntity
  8
MODELSKETCH_VISIBLE
100
AcDbCircle
 10
-0.8605398927146674
 20
0.279606360537148
 30
0.0
 40
0.102
100
AcDbArc
 50
290.9999999999997
 51
326.2714676197953
  0
ARC
  5
100001E0
102
{ACAD_XDICTIONARY
360
100001E1
102
}
330
1F
100
AcDbEntity
  8
MODELSKETCH_VISIBLE
100
AcDbCircle
 10
0.0
 20
0.0
 30
0.0
 40
0.9946181455272106
100
AcDbArc
 50
340.0662701358257
 51
343.9337299503642
  0
ARC
  5
100001E3
102
{ACAD_XDICTIONARY
360
100001E4
102
}
330
1F
100
AcDbEntity
  8
MODELSKETCH_VISIBLE
100
AcDbCircle
 10
0.9870107081796615
 20
-0.2287672774701508
 30
0.0
 40
0.262
100
AcDbArc
 50
108.7333370890177
 51
123.0
  0
ARC
  5
100001E6
102
{ACAD_XDICTIONARY
360
100001E7
102
}
330
1F
100
AcDbEntity
  8
MODELSKETCH_VISIBLE
100
AcDbCircle
 10
0.0
 20
0.0
 30
0.0
 40
0.9946181455272106
100
AcDbArc
 50
124.0662701358257
 51
127.9337299503643
  0
ARC
  5
100001E9
102
{ACAD_XDICTIONARY
360
100001EA
102
}
330
1F
100
AcDbEntity
  8
MODELSKETCH_VISIBLE
100
AcDbCircle
 10
-0.4904318551564496
 20
-0.8865670875631614
 30
0.0
 40
0.262
100
AcDbArc
 50
105.0
 51
119.2666666666668
  0
ARC
  5
100001EC
102
{ACAD_XDICTIONARY
360
100001ED
102
}
330
1F
100
AcDbEntity
  8
MODELSKETCH_VISIBLE
100
AcDbCircle
 10
-0.1881237350724535
 20
-0.8850525883294114
 30
0.0
 40
0.102
100
AcDbArc
 50
93.72853237936086
 51
129.0000000000001
  0
ARC
  5
100001EF
102
{ACAD_XDICTIONARY
360
100001F0
102
}
330
1F
100
AcDbEntity
  8
MODELSKETCH_VISIBLE
100
AcDbCircle
 10
0.8605398927146694
 20
0.2796063605371476
 30
0.0
 40
0.102
100
AcDbArc
 50
213.7285323793612
 51
248.9999999999992
  0
ARC
  5
100001F2
102
{ACAD_XDICTIONARY
360
100001F3
102
}
330
1F
100
AcDbEntity
  8
MODELSKETCH_VISIBLE
100
AcDbCircle
 10
-0.8998684625772579
 20
-0.0945799865988831
 30
0.0
 40
0.102
100
AcDbArc
 50
21.72853237936106
 51
56.99999999999961
  0
LINE
  5
100001F5
102
{ACAD_XDICTIONARY
360
100001F6
102
}
330
1F
100
AcDbEntity
  8
MODELSKETCH_VISIBLE
100
AcDbLine
 10
-0.7319260393531835
 20
-0.5645441094594773
 30
0.0
 11
-0.7190583555773865
 21
-0.5463479880524705
 31
0.0
  0
LINE
  5
100001F8
102
{ACAD_XDICTIONARY
360
100001F9
102
}
330
1F
100
AcDbEntity
  8
MODELSKETCH_VISIBLE
100
AcDbLine
 10
0.2510000000000001
 20
0.1449149175665963
 30
0.0
 11
0.2509999999999999
 21
-0.1449149175665961
 31
0.0
  0
ARC
  5
100001FB
102
{ACAD_XDICTIONARY
360
100001FC
102
}
330
1F
100
AcDbEntity
  8
MODELSKETCH_VISIBLE
100
AcDbCircle
 10
0.0
 20
0.0
 30
0.0
 40
0.9946181455272106
100
AcDbArc
 50
244.0662701358257
 51
247.9337299503642
  0
ARC
  5
100001FE
102
{ACAD_XDICTIONARY
360
100001FF
102
}
330
1F
100
AcDbEntity
  8
MODELSKETCH_VISIBLE
100
AcDbCircle
 10
0.9329744684514528
 20
-0.3950737228925142
 30
0.0
 40
0.262
100
AcDbArc
 50
201.0
 51
215.2666666666669
  0
ARC
  5
10000201
102
{ACAD_XDICTIONARY
360
10000202
102
}
330
1F
100
AcDbEntity
  8
MODELSKETCH_VISIBLE
100
AcDbCircle
 10
-0.5945503186293898
 20
0.6620190713138996
 30
0.0
 40
0.1661792947437628
100
AcDbArc
 50
48.73333009664719
 51
76.98890866763996
  0
ELLIPSE
  5
10000204
102
{ACAD_XDICTIONARY
360
10000205
102
}
330
1F
100
AcDbEntity
  8
MODELSKETCH_VISIBLE
100
AcDbEllipse
 10
2.366634271243094
 20
9.249936233198747
 30
0.0
 11
9.888464572883199
 21
43.76198583873509
 31
0.0
210
0.0
220
0.0
230
1.0
 40
0.0000438533940177
 41
4.477823087783834
 42
4.478333778247359
  0
LINE
  5
10000207
102
{ACAD_XDICTIONARY
360
10000208
102
}
330
1F
100
AcDbEntity
  8
MODELSKETCH_VISIBLE
100
AcDbLine
 10
0.3107357565630129
 20
-0.8705567625396111
 30
0.0
 11
0.2974065496909995
 21
-0.8526959572896946
 31
0.0
  0
ELLIPSE
  5
1000020A
102
{ACAD_XDICTIONARY
360
1000020B
102
}
330
1F
100
AcDbEntity
  8
MODELSKETCH_VISIBLE
100
AcDbEllipse
 10
-9.19399690147503
 20
-2.575402703348641
 30
0.0
 11
-42.84322374578972
 21
-13.31733139242741
 31
0.0
210
0.0
220
0.0
230
1.0
 40
0.0000438530981387
 41
4.477823087783328
 42
4.478333778247375
  0
LINE
  5
1000020D
102
{ACAD_XDICTIONARY
360
1000020E
102
}
330
1F
100
AcDbEntity
  8
MODELSKETCH_VISIBLE
100
AcDbLine
 10
-0.1229465096263082
 20
0.916138603589241
 30
0.0
 11
-0.1136220481240489
 21
0.895896801848654
 31
0.0
  0
LINE
  5
10000210
102
{ACAD_XDICTIONARY
360
10000211
102
}
330
1F
100
AcDbEntity
  8
MODELSKETCH_VISIBLE
100
AcDbLine
 10
-0.5897530839744302
 20
0.6839096254390316
 30
0.0
 11
-0.5985563818745177
 21
0.7043834334684766
 31
0.0
  0
ARC
  5
10000213
102
{ACAD_XDICTIONARY
360
10000214
102
}
330
1F
100
AcDbEntity
  8
MODELSKETCH_VISIBLE
100
AcDbCircle
 10
-0.2760501742329248
 20
-0.8459052154181338
 30
0.0
 40
0.1661792947437628
100
AcDbArc
 50
168.7333370890174
 51
196.9889086676395
  0
ARC
  5
10000216
102
{ACAD_XDICTIONARY
360
10000217
102
}
330
1F
100
AcDbEntity
  8
MODELSKETCH_VISIBLE
100
AcDbCircle
 10
-0.0941442319989394
 20
0.8848142153847658
 30
0.0
 40
0.1661792958393927
100
AcDbArc
 50
151.0110916836701
 51
179.2666666661442
  0
ARC
  5
10000219
102
{ACAD_XDICTIONARY
360
1000021A
102
}
330
1F
100
AcDbEntity
  8
MODELSKETCH_VISIBLE
100
AcDbCircle
 10
0.7836016002119015
 20
-0.4524125948197622
 30
0.0
 40
0.102
100
AcDbArc
 50
99.00000000000034
 51
134.2714676197957
  0
ARC
  5
1000021C
102
{ACAD_XDICTIONARY
360
1000021D
102
}
330
1F
100
AcDbEntity
  8
MODELSKETCH_VISIBLE
100
AcDbCircle
 10
0.0000000000000003
 20
0.9048251896395256
 30
0.0
 40
0.102
100
AcDbArc
 50
219.0000000000005
 51
254.2714666929996
  0
ARC
  5
1000021F
102
{ACAD_XDICTIONARY
360
10000220
102
}
330
1F
100
AcDbEntity
  8
MODELSKETCH_VISIBLE
100
AcDbCircle
 10
0.5962450304314213
 20
-0.660493145953433
 30
0.0
 40
0.1661792958393927
100
AcDbArc
 50
7.01109168366973
 51
35.26666666666674
  0
ARC
  5
10000222
102
{ACAD_XDICTIONARY
360
10000223
102
}
330
1F
100
AcDbEntity
  8
MODELSKETCH_VISIBLE
100
AcDbCircle
 10
0.0
 20
0.0
 30
0.0
 40
0.9946181455272106
100
AcDbArc
 50
100.0662701358257
 51
103.9337299503642
  0
ELLIPSE
  5
10000225
102
{ACAD_XDICTIONARY
360
10000226
102
}
330
1F
100
AcDbEntity
  8
MODELSKETCH_VISIBLE
100
AcDbEllipse
 10
-9.446908650175063
 20
1.38478239419216
 30
0.0
 11
-44.55604951120211
 21
5.25946899307172
 31
0.0
210
0.0
220
0.0
230
1.0
 40
0.0000877068321941
 41
4.477823087867404
 42
4.478333777473122
  0
ARC
  5
10000228
102
{ACAD_XDICTIONARY
360
10000229
102
}
330
1F
100
AcDbEntity
  8
MODELSKETCH_VISIBLE
100
AcDbCircle
 10
0.8998684625772579
 20
-0.0945799865988829
 30
0.0
 40
0.102
100
AcDbArc
 50
189.7285323793611
 51
225.0000000000002
  0
ARC
  5
1000022B
102
{ACAD_XDICTIONARY
360
1000022C
102
}
330
1F
100
AcDbEntity
  8
MODELSKETCH_VISIBLE
100
AcDbCircle
 10
0.3680255602044047
 20
0.8265989419557933
 30
0.0
 40
0.102
100
AcDbArc
 50
270.0
 51
296.9999999999999
  0
ARC
  5
1000022E
102
{ACAD_XDICTIONARY
360
1000022F
102
}
330
1F
100
AcDbEntity
  8
MODELSKETCH_VISIBLE
100
AcDbCircle
 10
-0.8605398927146674
 20
0.279606360537148
 30
0.0
 40
0.102
100
AcDbArc
 50
357.7285323793614
 51
33.00000000000009
  0
ARC
  5
10000231
102
{ACAD_XDICTIONARY
360
10000232
102
}
330
1F
100
AcDbEntity
  8
MODELSKETCH_VISIBLE
100
AcDbCircle
 10
0.6724161576422145
 20
0.6054462277922638
 30
0.0
 40
0.102
100
AcDbArc
 50
170.9999999999994
 51
206.2714671797341
  0
ARC
  5
10000234
102
{ACAD_XDICTIONARY
360
10000235
102
}
330
1F
100
AcDbEntity
  8
MODELSKETCH_VISIBLE
100
AcDbCircle
 10
0.6640424046433444
 20
0.7652269533529961
 30
0.0
 40
0.262
100
AcDbArc
 50
273.0000000000001
 51
287.2666666666665
  0
ARC
  5
10000237
102
{ACAD_XDICTIONARY
360
10000238
102
}
330
1F
100
AcDbEntity
  8
MODELSKETCH_VISIBLE
100
AcDbCircle
 10
0.5945503186293898
 20
0.6620190713138996
 30
0.0
 40
0.1661792958393925
100
AcDbArc
 50
103.0110916836695
 51
131.2666736590327
  0
ARC
  5
1000023A
102
{ACAD_XDICTIONARY
360
1000023B
102
}
330
1F
100
AcDbEntity
  8
MODELSKETCH_VISIBLE
100
AcDbCircle
 10
-0.2738813282054654
 20
0.8466099162105531
 30
0.0
 40
0.1661792947437628
100
AcDbArc
 50
24.73333708901729
 51
52.98890866763941
  0
ARC
  5
1000023D
102
{ACAD_XDICTIONARY
360
1000023E
102
}
330
1F
100
AcDbEntity
  8
MODELSKETCH_VISIBLE
100
AcDbCircle
 10
-0.830446292137437
 20
0.5804167133858268
 30
0.0
 40
0.262
100
AcDbArc
 50
9.000000000000153
 51
23.26666666666678
  0
ARC
  5
10000240
102
{ACAD_XDICTIONARY
360
10000241
102
}
330
1F
100
AcDbEntity
  8
MODELSKETCH_VISIBLE
100
AcDbCircle
 10
-1.013005547567104
 20
0.0185570983909646
 30
0.0
 40
0.262
100
AcDbArc
 50
300.7333370890174
 51
314.9999999999998
  0
ARC
  5
10000243
102
{ACAD_XDICTIONARY
360
10000244
102
}
330
1F
100
AcDbEntity
  8
MODELSKETCH_VISIBLE
100
AcDbCircle
 10
0.0
 20
0.0
 30
0.0
 40
0.9946181455272106
100
AcDbArc
 50
220.0662701358256
 51
223.9337299503642
  0
ARC
  5
10000246
102
{ACAD_XDICTIONARY
360
10000247
102
}
330
1F
100
AcDbEntity
  8
MODELSKETCH_VISIBLE
100
AcDbCircle
 10
0.5318429023728528
 20
-0.7320189553569094
 30
0.0
 40
0.102
100
AcDbArc
 50
110.271466697442
 51
141.7285332801981
  0
LINE
  5
10000249
102
{ACAD_XDICTIONARY
360
1000024A
102
}
330
1F
100
AcDbEntity
  8
MODELSKETCH_VISIBLE
100
AcDbLine
 10
0.251
 20
-0.1449149175665961
 30
0.0
 11
0.0000000000000001
 21
-0.289829835133192
 31
0.0
  0
ARC
  5
1000024C
102
{ACAD_XDICTIONARY
360
1000024D
102
}
330
1F
100
AcDbEntity
  8
MODELSKETCH_VISIBLE
100
AcDbCircle
 10
-0.1881237350724535
 20
-0.8850525883294114
 30
0.0
 40
0.102
100
AcDbArc
 50
26.99999999999959
 51
62.271466693
  0
ARC
  5
1000024F
102
{ACAD_XDICTIONARY
360
10000250
102
}
330
1F
100
AcDbEntity
  8
MODELSKETCH_VISIBLE
100
AcDbCircle
 10
0.0
 20
0.0
 30
0.0
 40
0.9946181455272106
100
AcDbArc
 50
292.0662701358257
 51
295.9337299503642
  0
ARC
  5
10000252
102
{ACAD_XDICTIONARY
360
10000253
102
}
330
1F
100
AcDbEntity
  8
MODELSKETCH_VISIBLE
100
AcDbCircle
 10
0.8605398927146694
 20
0.2796063605371476
 30
0.0
 40
0.102
100
AcDbArc
 50
147.0000000000006
 51
182.271466698463
  0
ARC
  5
10000255
102
{ACAD_XDICTIONARY
360
10000256
102
}
330
1F
100
AcDbEntity
  8
MODELSKETCH_VISIBLE
100
AcDbCircle
 10
0.0
 20
0.0
 30
0.0
 40
0.9946181455272106
100
AcDbArc
 50
100.0662701358257
 51
103.9337299503642
  0
ARC
  5
10000258
102
{ACAD_XDICTIONARY
360
10000259
102
}
330
1F
100
AcDbEntity
  8
MODELSKETCH_VISIBLE
100
AcDbCircle
 10
-0.6724161576422145
 20
0.6054462277922638
 30
0.0
 40
0.102
100
AcDbArc
 50
333.7285332997767
 51
9.000000000000508
  0
ARC
  5
1000025B
102
{ACAD_XDICTIONARY
360
1000025C
102
}
330
1F
100
AcDbEntity
  8
MODELSKETCH_VISIBLE
100
AcDbCircle
 10
-0.7191994721533327
 20
-0.5239384042232401
 30
0.0
 40
0.1661792958393925
100
AcDbArc
 50
271.0110916836695
 51
299.2666666656206
  0
ARC
  5
1000025E
102
{ACAD_XDICTIONARY
360
1000025F
102
}
330
1F
100
AcDbEntity
  8
MODELSKETCH_VISIBLE
100
AcDbCircle
 10
-0.8998684625772579
 20
-0.0945799865988831
 30
0.0
 40
0.102
100
AcDbArc
 50
350.2714666984634
 51
21.72853328019786
  0
ARC
  5
10000261
102
{ACAD_XDICTIONARY
360
10000262
102
}
330
1F
100
AcDbEntity
  8
MODELSKETCH_VISIBLE
100
AcDbCircle
 10
0.0000000000000003
 20
0.9048251896395256
 30
0.0
 40
0.102
100
AcDbArc
 50
254.2714666929999
 51
285.7285332801966
  0
LINE
  5
10000264
102
{ACAD_XDICTIONARY
360
10000265
102
}
330
1F
100
AcDbEntity
  8
MODELSKETCH_VISIBLE
100
AcDbLine
 10
0.0000000000000001
 20
-0.2898298351331921
 30
0.0
 11
-0.251
 21
-0.1449149175665961
 31
0.0
  0
ARC
  5
10000267
102
{ACAD_XDICTIONARY
360
10000268
102
}
330
1F
100
AcDbEntity
  8
MODELSKETCH_VISIBLE
100
AcDbCircle
 10
-0.3306847789425921
 20
-0.9576910682877381
 30
0.0
 40
0.262
100
AcDbArc
 50
12.73333708901712
 51
26.99999999999969
  0
ARC
  5
1000026A
102
{ACAD_XDICTIONARY
360
1000026B
102
}
330
1F
100
AcDbEntity
  8
MODELSKETCH_VISIBLE
100
AcDbCircle
 10
0.7836016002119015
 20
-0.4524125948197622
 30
0.0
 40
0.102
100
AcDbArc
 50
165.7285333009602
 51
200.9999999999999
  0
ARC
  5
1000026D
102
{ACAD_XDICTIONARY
360
1000026E
102
}
330
1F
100
AcDbEntity
  8
MODELSKETCH_VISIBLE
100
AcDbCircle
 10
0.9947271835859351
 20
0.1924641149347429
 30
0.0
 40
0.262
100
AcDbArc
 50
132.7333370890172
 51
146.9999999999997
  0
ARC
  5
10000270
102
{ACAD_XDICTIONARY
360
10000271
102
}
330
1F
100
AcDbEntity
  8
MODELSKETCH_VISIBLE
100
AcDbCircle
 10
-0.8605398927146674
 20
0.279606360537148
 30
0.0
 40
0.102
100
AcDbArc
 50
290.9999999999997
 51
326.2714666929998
  0
ARC
  5
10000273
102
{ACAD_XDICTIONARY
360
10000274
102
}
330
1F
100
AcDbEntity
  8
MODELSKETCH_VISIBLE
100
AcDbCircle
 10
0.7836016002119015
 20
-0.4524125948197622
 30
0.0
 40
0.102
100
AcDbArc
 50
134.2714666974429
 51
165.7285333009602
  0
ARC
  5
10000276
102
{ACAD_XDICTIONARY
360
10000277
102
}
330
1F
100
AcDbEntity
  8
MODELSKETCH_VISIBLE
100
AcDbCircle
 10
0.9178787646419154
 20
0.4289792287766993
 30
0.0
 40
0.262
100
AcDbArc
 50
249.0000000000001
 51
263.2666666666667
  0
ARC
  5
10000279
102
{ACAD_XDICTIONARY
360
1000027A
102
}
330
1F
100
AcDbEntity
  8
MODELSKETCH_VISIBLE
100
AcDbCircle
 10
-0.9178787646419154
 20
0.4289792287767
 30
0.0
 40
0.262
100
AcDbArc
 50
276.7333370890175
 51
290.9999999999999
  0
ARC
  5
1000027C
102
{ACAD_XDICTIONARY
360
1000027D
102
}
330
1F
100
AcDbEntity
  8
MODELSKETCH_VISIBLE
100
AcDbCircle
 10
0.0
 20
0.0
 30
0.0
 40
0.9946181455272106
100
AcDbArc
 50
196.0662701358257
 51
199.9337299503642
  0
ARC
  5
1000027F
102
{ACAD_XDICTIONARY
360
10000280
102
}
330
1F
100
AcDbEntity
  8
MODELSKETCH_VISIBLE
100
AcDbCircle
 10
-0.4904318551564496
 20
-0.8865670875631614
 30
0.0
 40
0.262
100
AcDbArc
 50
105.0
 51
119.2666666666668
  0
ARC
  5
10000282
102
{ACAD_XDICTIONARY
360
10000283
102
}
330
1F
100
AcDbEntity
  8
MODELSKETCH_VISIBLE
100
AcDbCircle
 10
-0.7836016002118996
 20
-0.4524125948197622
 30
0.0
 40
0.102
100
AcDbArc
 50
14.2714666972716
 51
45.72853330096061
  0
LINE
  5
10000285
102
{ACAD_XDICTIONARY
360
10000286
102
}
330
1F
100
AcDbEntity
  8
MODELSKETCH_VISIBLE
100
AcDbLine
 10
-0.2510000000000001
 20
-0.1449149175665961
 30
0.0
 11
-0.2509999999999999
 21
0.1449149175665961
 31
0.0
  0
ARC
  5
10000288
102
{ACAD_XDICTIONARY
360
10000289
102
}
330
1F
100
AcDbEntity
  8
MODELSKETCH_VISIBLE
100
AcDbCircle
 10
0.6724161576422145
 20
0.6054462277922638
 30
0.0
 40
0.102
100
AcDbArc
 50
170.9999999999995
 51
206.2714666972711
  0
ARC
  5
1000028B
102
{ACAD_XDICTIONARY
360
1000028C
102
}
330
1F
100
AcDbEntity
  8
MODELSKETCH_VISIBLE
100
AcDbCircle
 10
-0.0874324725044793
 20
-1.009395942162528
 30
0.0
 40
0.262
100
AcDbArc
 50
129.0
 51
143.2666666666666
  0
ARC
  5
1000028E
102
{ACAD_XDICTIONARY
360
1000028F
102
}
330
1F
100
AcDbEntity
  8
MODELSKETCH_VISIBLE
100
AcDbCircle
 10
0.0918762649275466
 20
-0.8850525883294114
 30
0.0
 40
0.1661792947437628
100
AcDbArc
 50
192.7333370890179
 51
220.9889086676397
  0
ARC
  5
10000291
102
{ACAD_XDICTIONARY
360
10000292
102
}
330
1F
100
AcDbEntity
  8
MODELSKETCH_VISIBLE
100
AcDbCircle
 10
0.8998684625772579
 20
-0.0945799865988829
 30
0.0
 40
0.102
100
AcDbArc
 50
158.2714666972718
 51
189.7285333009604
  0
LINE
  5
10000294
102
{ACAD_XDICTIONARY
360
10000295
102
}
330
1F
100
AcDbEntity
  8
MODELSKETCH_VISIBLE
100
AcDbLine
 10
-0.251
 20
0.1449149175665961
 30
0.0
 11
0.0
 21
0.2898298351331921
 31
0.0
  0
ARC
  5
10000297
102
{ACAD_XDICTIONARY
360
10000298
102
}
330
1F
100
AcDbEntity
  8
MODELSKETCH_VISIBLE
100
AcDbCircle
 10
0.6724161576422145
 20
0.6054462277922638
 30
0.0
 40
0.102
100
AcDbArc
 50
206.2714666972711
 51
237.7285332998434
  0
ARC
  5
1000029A
102
{ACAD_XDICTIONARY
360
1000029B
102
}
330
1F
100
AcDbEntity
  8
MODELSKETCH_VISIBLE
100
AcDbCircle
 10
-0.6916236279335847
 20
-0.7403927083557814
 30
0.0
 40
0.262
100
AcDbArc
 50
348.7333370890174
 51
3.000000000000017
  0
ARC
  5
1000029D
102
{ACAD_XDICTIONARY
360
1000029E
102
}
330
1F
100
AcDbEntity
  8
MODELSKETCH_VISIBLE
100
AcDbCircle
 10
0.0
 20
0.0
 30
0.0
 40
0.9946181455272106
100
AcDbArc
 50
268.0662701358257
 51
271.9337299503642
  0
ARC
  5
100002A0
102
{ACAD_XDICTIONARY
360
100002A1
102
}
330
1F
100
AcDbEntity
  8
MODELSKETCH_VISIBLE
100
AcDbCircle
 10
0.5318429023728528
 20
-0.7320189553569094
 30
0.0
 40
0.102
100
AcDbArc
 50
141.7285332801981
 51
177.0000000000005
  0
ARC
  5
100002A3
102
{ACAD_XDICTIONARY
360
100002A4
102
}
330
1F
100
AcDbEntity
  8
MODELSKETCH_VISIBLE
100
AcDbCircle
 10
0.9870107081796615
 20
-0.2287672774701508
 30
0.0
 40
0.262
100
AcDbArc
 50
108.7333370890177
 51
123.0
  0
ARC
  5
100002A6
102
{ACAD_XDICTIONARY
360
100002A7
102
}
330
1F
100
AcDbEntity
  8
MODELSKETCH_VISIBLE
100
AcDbCircle
 10
0.0
 20
0.0
 30
0.0
 40
0.9946181455272106
100
AcDbArc
 50
28.06627013582566
 51
31.93372995036415
  0
ARC
  5
100002A9
102
{ACAD_XDICTIONARY
360
100002AA
102
}
330
1F
100
AcDbEntity
  8
MODELSKETCH_VISIBLE
100
AcDbCircle
 10
-0.124343353833115
 20
1.005516452207498
 30
0.0
 40
0.262
100
AcDbArc
 50
321.0000000000001
 51
335.2666666666668
  0
ARC
  5
100002AC
102
{ACAD_XDICTIONARY
360
100002AD
102
}
330
1F
100
AcDbEntity
  8
MODELSKETCH_VISIBLE
100
AcDbCircle
 10
-0.3680255602044051
 20
0.8265989419557933
 30
0.0
 40
0.102
100
AcDbArc
 50
309.7285332801965
 51
345.0000000000002
  0
ARC
  5
100002AF
102
{ACAD_XDICTIONARY
360
100002B0
102
}
330
1F
100
AcDbEntity
  8
MODELSKETCH_VISIBLE
100
AcDbCircle
 10
0.4458913992172291
 20
0.7700260984341575
 30
0.0
 40
0.1661792947437628
100
AcDbArc
 50
336.7333370890173
 51
4.98890866763904
  0
ARC
  5
100002B2
102
{ACAD_XDICTIONARY
360
100002B3
102
}
330
1F
100
AcDbEntity
  8
MODELSKETCH_VISIBLE
100
AcDbCircle
 10
-0.4458913992172291
 20
0.7700260984341575
 30
0.0
 40
0.1661792958393925
100
AcDbArc
 50
175.0110916836702
 51
203.2666666656214
  0
ARC
  5
100002B5
102
{ACAD_XDICTIONARY
360
100002B6
102
}
330
1F
100
AcDbEntity
  8
MODELSKETCH_VISIBLE
100
AcDbCircle
 10
-0.5962450304314193
 20
-0.660493145953433
 30
0.0
 40
0.1661792947437628
100
AcDbArc
 50
144.7333370890181
 51
172.9889086676394
  0
LINE
  5
100002B8
102
{ACAD_XDICTIONARY
360
100002B9
102
}
330
1F
100
AcDbEntity
  8
MODELSKETCH_VISIBLE
100
AcDbLine
 10
0.251
 20
-0.1449149175665961
 30
0.0
 11
0.0000000000000001
 21
-0.289829835133192
 31
0.0
  0
ARC
  5
100002BB
102
{ACAD_XDICTIONARY
360
100002BC
102
}
330
1F
100
AcDbEntity
  8
MODELSKETCH_VISIBLE
100
AcDbCircle
 10
0.2760501742329244
 20
-0.8459052154181338
 30
0.0
 40
0.1661792958393927
100
AcDbArc
 50
343.0110916836693
 51
11.26667365850974
  0
ARC
  5
100002BE
102
{ACAD_XDICTIONARY
360
100002BF
102
}
330
1F
100
AcDbEntity
  8
MODELSKETCH_VISIBLE
100
AcDbCircle
 10
-0.0941442319989394
 20
0.8848142153847658
 30
0.0
 40
0.1661792958393927
100
AcDbArc
 50
151.0110916836701
 51
179.2666666546001
  0
ARC
  5
100002C1
102
{ACAD_XDICTIONARY
360
100002C2
102
}
330
1F
100
AcDbEntity
  8
MODELSKETCH_VISIBLE
100
AcDbCircle
 10
-0.8133437041522716
 20
-0.360875811161526
 30
0.0
 40
0.1661792947437628
100
AcDbArc
 50
120.7333370890175
 51
148.9889086676399
  0
LINE
  5
100002C4
102
{ACAD_XDICTIONARY
360
100002C5
102
}
330
1F
100
AcDbEntity
  8
MODELSKETCH_VISIBLE
100
AcDbLine
 10
0.0000000000000001
 20
-0.2898298351331921
 30
0.0
 11
-0.251
 21
-0.1449149175665961
 31
0.0
  0
ARC
  5
100002C7
102
{ACAD_XDICTIONARY
360
100002C8
102
}
330
1F
100
AcDbEntity
  8
MODELSKETCH_VISIBLE
100
AcDbCircle
 10
0.8998684625772579
 20
-0.0945799865988829
 30
0.0
 40
0.102
100
AcDbArc
 50
123.0000000000004
 51
158.2714666972718
  0
ARC
  5
100002CA
102
{ACAD_XDICTIONARY
360
100002CB
102
}
330
1F
100
AcDbEntity
  8
MODELSKETCH_VISIBLE
100
AcDbCircle
 10
0.8124161576422145
 20
0.3629591147326213
 30
0.0
 40
0.1661792958393925
100
AcDbArc
 50
79.01109168366938
 51
107.2666736516976
  0
ARC
  5
100002CD
102
{ACAD_XDICTIONARY
360
100002CE
102
}
330
1F
100
AcDbEntity
  8
MODELSKETCH_VISIBLE
100
AcDbCircle
 10
0.5962450304314213
 20
-0.660493145953433
 30
0.0
 40
0.1661792958393927
100
AcDbArc
 50
7.011091683669781
 51
35.26667365169794
  0
CIRCLE
  5
100002D0
102
{ACAD_XDICTIONARY
360
100002D1
102
}
330
1F
100
AcDbEntity
  8
MODELSKETCH_VISIBLE
100
AcDbCircle
 10
0.0
 20
0.0
 30
0.0
 40
0.3750000000000001
  0
ARC
  5
100002D3
102
{ACAD_XDICTIONARY
360
100002D4
102
}
330
1F
100
AcDbEntity
  8
MODELSKETCH_VISIBLE
100
AcDbCircle
 10
-0.8605398927146674
 20
0.279606360537148
 30
0.0
 40
0.102
100
AcDbArc
 50
326.2714666929998
 51
357.7285332801964
  0
ARC
  5
100002D6
102
{ACAD_XDICTIONARY
360
100002D7
102
}
330
1F
100
AcDbEntity
  8
MODELSKETCH_VISIBLE
100
AcDbCircle
 10
-0.0918762649275466
 20
-0.8850525883294114
 30
0.0
 40
0.1661792958393927
100
AcDbArc
 50
319.0110916836699
 51
347.2666736585098
  0
ARC
  5
100002D9
102
{ACAD_XDICTIONARY
360
100002DA
102
}
330
1F
100
AcDbEntity
  8
MODELSKETCH_VISIBLE
100
AcDbCircle
 10
-0.8898078624296102
 20
0.0011402298340313
 30
0.0
 40
0.1661792947437628
100
AcDbArc
 50
96.73333708901738
 51
124.98890866764
  0
ARC
  5
100002DC
102
{ACAD_XDICTIONARY
360
100002DD
102
}
330
1F
100
AcDbEntity
  8
MODELSKETCH_VISIBLE
100
AcDbCircle
 10
-0.8701263586368858
 20
-0.1861167702571197
 30
0.0
 40
0.1661792958393925
100
AcDbArc
 50
247.0110916836695
 51
270.0
  0
ARC
  5
100002DF
102
{ACAD_XDICTIONARY
360
100002E0
102
}
330
1F
100
AcDbEntity
  8
MODELSKETCH_VISIBLE
100
AcDbCircle
 10
0.7205398927146693
 20
0.5220934735967905
 30
0.0
 40
0.1661792947437626
100
AcDbArc
 50
312.7333370890173
 51
340.9889086676396
  0
ARC
  5
100002E2
102
{ACAD_XDICTIONARY
360
100002E3
102
}
330
1F
100
AcDbEntity
  8
MODELSKETCH_VISIBLE
100
AcDbCircle
 10
-0.8998684625772579
 20
-0.0945799865988831
 30
0.0
 40
0.102
100
AcDbArc
 50
21.72853328019781
 51
56.99999999999961
  0
ARC
  5
100002E5
102
{ACAD_XDICTIONARY
360
100002E6
102
}
330
1F
100
AcDbEntity
  8
MODELSKETCH_VISIBLE
100
AcDbCircle
 10
-0.5945503186293898
 20
0.6620190713138996
 30
0.0
 40
0.1661792947437628
100
AcDbArc
 50
48.73333708901779
 51
76.98890866763996
  0
ARC
  5
100002E8
102
{ACAD_XDICTIONARY
360
100002E9
102
}
330
1F
100
AcDbEntity
  8
MODELSKETCH_VISIBLE
100
AcDbCircle
 10
0.8133437041522716
 20
-0.3608758111615256
 30
0.0
 40
0.1661792958393925
100
AcDbArc
 50
31.01109168366915
 51
59.26667365169767
  0
ARC
  5
100002EB
102
{ACAD_XDICTIONARY
360
100002EC
102
}
330
1F
100
AcDbEntity
  8
MODELSKETCH_VISIBLE
100
AcDbCircle
 10
0.8701263586368858
 20
-0.1861167702571197
 30
0.0
 40
0.1661792947437626
100
AcDbArc
 50
270.0
 51
292.9889086676396
  0
ARC
  5
100002EE
102
{ACAD_XDICTIONARY
360
100002EF
102
}
330
1F
100
AcDbEntity
  8
MODELSKETCH_VISIBLE
100
AcDbCircle
 10
-0.7205398927146672
 20
0.5220934735967914
 30
0.0
 40
0.1661792958393925
100
AcDbArc
 50
199.0110916836698
 51
227.2666666656212
  0
ARC
  5
100002F1
102
{ACAD_XDICTIONARY
360
100002F2
102
}
330
1F
100
AcDbEntity
  8
MODELSKETCH_VISIBLE
100
AcDbCircle
 10
-0.5225736924106559
 20
0.8680099891721949
 30
0.0
 40
0.262
100
AcDbArc
 50
345.0
 51
359.266666666667
  0
ARC
  5
100002F4
102
{ACAD_XDICTIONARY
360
100002F5
102
}
330
1F
100
AcDbEntity
  8
MODELSKETCH_VISIBLE
100
AcDbCircle
 10
0.0
 20
0.0
 30
0.0
 40
0.9946181455272106
100
AcDbArc
 50
220.0662701358256
 51
223.9337299503642
  0
CIRCLE
  5
100002F7
102
{ACAD_XDICTIONARY
360
100002F8
102
}
330
1F
100
AcDbEntity
  8
MODELSKETCH_VISIBLE
100
AcDbCircle
 10
0.0
 20
0.0
 30
0.0
 40
0.3750000000000001
  0
ARC
  5
100002FA
102
{ACAD_XDICTIONARY
360
100002FB
102
}
330
1F
100
AcDbEntity
  8
MODELSKETCH_VISIBLE
100
AcDbCircle
 10
0.0
 20
0.0
 30
0.0
 40
0.9946181455272106
100
AcDbArc
 50
148.0662701358258
 51
151.9337299503643
  0
LINE
  5
100002FD
102
{ACAD_XDICTIONARY
360
100002FE
102
}
330
1F
100
AcDbEntity
  8
MODELSKETCH_VISIBLE
100
AcDbLine
 10
-0.251
 20
0.1449149175665961
 30
0.0
 11
0.0
 21
0.289829835133192
 31
0.0
  0
ARC
  5
10000300
102
{ACAD_XDICTIONARY
360
10000301
102
}
330
1F
100
AcDbEntity
  8
MODELSKETCH_VISIBLE
100
AcDbCircle
 10
0.8898078624296122
 20
0.0011402298340309
 30
0.0
 40
0.1661792958393927
100
AcDbArc
 50
55.0110916836701
 51
83.26667365903369
  0
ARC
  5
10000303
102
{ACAD_XDICTIONARY
360
10000304
102
}
330
1F
100
AcDbEntity
  8
MODELSKETCH_VISIBLE
100
AcDbCircle
 10
0.0941442319989394
 20
0.8848142153847658
 30
0.0
 40
0.1661792947437628
100
AcDbArc
 50
0.7333370890171043
 51
28.98890866763948
  0
ARC
  5
10000306
102
{ACAD_XDICTIONARY
360
10000307
102
}
330
1F
100
AcDbEntity
  8
MODELSKETCH_VISIBLE
100
AcDbCircle
 10
-0.870600492862315
 20
0.1838861441042335
 30
0.0
 40
0.1661792958393925
100
AcDbArc
 50
223.0110916836696
 51
251.2666666656212
  0
ARC
  5
10000309
102
{ACAD_XDICTIONARY
360
1000030A
102
}
330
1F
100
AcDbEntity
  8
MODELSKETCH_VISIBLE
100
AcDbCircle
 10
0.870600492862315
 20
0.1838861441042338
 30
0.0
 40
0.1661792947437626
100
AcDbArc
 50
288.733337089017
 51
316.9889086676396
  0
ARC
  5
1000030C
102
{ACAD_XDICTIONARY
360
1000030D
102
}
330
1F
100
AcDbEntity
  8
MODELSKETCH_VISIBLE
100
AcDbCircle
 10
-0.2760501742329248
 20
-0.8459052154181338
 30
0.0
 40
0.1661792947437628
100
AcDbArc
 50
168.7333370890174
 51
196.9889086676395
  0
ARC
  5
1000030F
102
{ACAD_XDICTIONARY
360
10000310
102
}
330
1F
100
AcDbEntity
  8
MODELSKETCH_VISIBLE
100
AcDbCircle
 10
0.8605398927146694
 20
0.2796063605371476
 30
0.0
 40
0.102
100
AcDbArc
 50
182.271466698463
 51
213.7285332784015
  0
ARC
  5
10000312
102
{ACAD_XDICTIONARY
360
10000313
102
}
330
1F
100
AcDbEntity
  8
MODELSKETCH_VISIBLE
100
AcDbCircle
 10
-0.5318429023728528
 20
-0.7320189553569094
 30
0.0
 40
0.102
100
AcDbArc
 50
2.999999999999559
 51
38.2714666918735
  0
ARC
  5
10000315
102
{ACAD_XDICTIONARY
360
10000316
102
}
330
1F
100
AcDbEntity
  8
MODELSKETCH_VISIBLE
100
AcDbCircle
 10
-0.8086311146183367
 20
-0.6104427293149842
 30
0.0
 40
0.262
100
AcDbArc
 50
81.00000000000026
 51
95.26666666666698
  0
ARC
  5
10000318
102
{ACAD_XDICTIONARY
360
10000319
102
}
330
1F
100
AcDbEntity
  8
MODELSKETCH_VISIBLE
100
AcDbCircle
 10
0.0
 20
0.0
 30
0.0
 40
0.9946181455272106
100
AcDbArc
 50
172.0662701358258
 51
175.9337299503643
  0
ARC
  5
1000031B
102
{ACAD_XDICTIONARY
360
1000031C
102
}
330
1F
100
AcDbEntity
  8
MODELSKETCH_VISIBLE
100
AcDbCircle
 10
0.5225736924106559
 20
0.8680099891721949
 30
0.0
 40
0.262
100
AcDbArc
 50
180.7333370890174
 51
195.0
  0
ARC
  5
1000031E
102
{ACAD_XDICTIONARY
360
1000031F
102
}
330
1F
100
AcDbEntity
  8
MODELSKETCH_VISIBLE
100
AcDbCircle
 10
1.013005547567104
 20
0.0185570983909648
 30
0.0
 40
0.262
100
AcDbArc
 50
225.0000000000002
 51
239.2666666666668
  0
ARC
  5
10000321
102
{ACAD_XDICTIONARY
360
10000322
102
}
330
1F
100
AcDbEntity
  8
MODELSKETCH_VISIBLE
100
AcDbCircle
 10
0.6724161576422145
 20
0.6054462277922638
 30
0.0
 40
0.102
100
AcDbArc
 50
237.7285332998434
 51
270.0
  0
ARC
  5
10000324
102
{ACAD_XDICTIONARY
360
10000325
102
}
330
1F
100
AcDbEntity
  8
MODELSKETCH_VISIBLE
100
AcDbCircle
 10
-0.6724161576422145
 20
0.6054462277922638
 30
0.0
 40
0.102
100
AcDbArc
 50
270.0000013095419
 51
302.2714666930004
  0
ARC
  5
10000327
102
{ACAD_XDICTIONARY
360
10000328
102
}
330
1F
100
AcDbEntity
  8
MODELSKETCH_VISIBLE
100
AcDbCircle
 10
0.4439164632123819
 20
-0.771166328268187
 30
0.0
 40
0.1661792947437628
100
AcDbArc
 50
216.7333370890174
 51
244.9889086676397
  0
ARC
  5
1000032A
102
{ACAD_XDICTIONARY
360
1000032B
102
}
330
1F
100
AcDbEntity
  8
MODELSKETCH_VISIBLE
100
AcDbCircle
 10
0.3306847789425921
 20
-0.9576910682877381
 30
0.0
 40
0.262
100
AcDbArc
 50
153.0000000000003
 51
167.266666666667
  0
LINE
  5
1000032D
102
{ACAD_XDICTIONARY
360
1000032E
102
}
330
1F
100
AcDbEntity
  8
MODELSKETCH_VISIBLE
100
AcDbLine
 10
0.2510000000000001
 20
0.1449149175665963
 30
0.0
 11
0.2509999999999999
 21
-0.1449149175665961
 31
0.0
  0
ARC
  5
10000330
102
{ACAD_XDICTIONARY
360
10000331
102
}
330
1F
100
AcDbEntity
  8
MODELSKETCH_VISIBLE
100
AcDbCircle
 10
-0.8998684625772579
 20
-0.0945799865988831
 30
0.0
 40
0.102
100
AcDbArc
 50
314.9999999999999
 51
350.2714666984634
  0
ARC
  5
10000333
102
{ACAD_XDICTIONARY
360
10000334
102
}
330
1F
100
AcDbEntity
  8
MODELSKETCH_VISIBLE
100
AcDbCircle
 10
-0.8605398927146674
 20
0.279606360537148
 30
0.0
 40
0.102
100
AcDbArc
 50
357.7285332801963
 51
33.00000000000009
  0
ARC
  5
10000336
102
{ACAD_XDICTIONARY
360
10000337
102
}
330
1F
100
AcDbEntity
  8
MODELSKETCH_VISIBLE
100
AcDbCircle
 10
0.0
 20
0.0
 30
0.0
 40
0.9946181455272106
100
AcDbArc
 50
52.0662701358257
 51
55.93372995036418
  0
ARC
  5
10000339
102
{ACAD_XDICTIONARY
360
1000033A
102
}
330
1F
100
AcDbEntity
  8
MODELSKETCH_VISIBLE
100
AcDbCircle
 10
0.8998684625772579
 20
-0.0945799865988829
 30
0.0
 40
0.102
100
AcDbArc
 50
189.7285333009604
 51
225.0000000000002
  0
ARC
  5
1000033C
102
{ACAD_XDICTIONARY
360
1000033D
102
}
330
1F
100
AcDbEntity
  8
MODELSKETCH_VISIBLE
100
AcDbCircle
 10
-0.8701263586368858
 20
-0.1861167702571197
 30
0.0
 40
0.1661792958393925
100
AcDbArc
 50
270.0
 51
275.2666666666665
  0
ARC
  5
1000033F
102
{ACAD_XDICTIONARY
360
10000340
102
}
330
1F
100
AcDbEntity
  8
MODELSKETCH_VISIBLE
100
AcDbCircle
 10
0.1881237350724535
 20
-0.8850525883294114
 30
0.0
 40
0.102
100
AcDbArc
 50
86.27146669300025
 51
117.728533280198
  0
ARC
  5
10000342
102
{ACAD_XDICTIONARY
360
10000343
102
}
330
1F
100
AcDbEntity
  8
MODELSKETCH_VISIBLE
100
AcDbCircle
 10
0.1243433538331157
 20
1.005516452207498
 30
0.0
 40
0.262
100
AcDbArc
 50
204.7333370890174
 51
218.9999999999999
  0
ARC
  5
10000345
102
{ACAD_XDICTIONARY
360
10000346
102
}
330
1F
100
AcDbEntity
  8
MODELSKETCH_VISIBLE
100
AcDbCircle
 10
0.0
 20
0.0
 30
0.0
 40
0.9946181455272106
100
AcDbArc
 50
316.0662701358258
 51
319.9337299503642
  0
ARC
  5
10000348
102
{ACAD_XDICTIONARY
360
10000349
102
}
330
1F
100
AcDbEntity
  8
MODELSKETCH_VISIBLE
100
AcDbCircle
 10
0.0874324725044793
 20
-1.009395942162528
 30
0.0
 40
0.262
100
AcDbArc
 50
36.73333708901751
 51
51.00000000000004
  0
ARC
  5
1000034B
102
{ACAD_XDICTIONARY
360
1000034C
102
}
330
1F
100
AcDbEntity
  8
MODELSKETCH_VISIBLE
100
AcDbCircle
 10
-0.6724161576422145
 20
0.6054462277922638
 30
0.0
 40
0.102
100
AcDbArc
 50
302.2714666930004
 51
333.7285332997767
  0
ARC
  5
1000034E
102
{ACAD_XDICTIONARY
360
1000034F
102
}
330
1F
100
AcDbEntity
  8
MODELSKETCH_VISIBLE
100
AcDbCircle
 10
-0.9329744684514528
 20
-0.3950737228925142
 30
0.0
 40
0.262
100
AcDbArc
 50
324.7333370890175
 51
339.0
  0
ARC
  5
10000351
102
{ACAD_XDICTIONARY
360
10000352
102
}
330
1F
100
AcDbEntity
  8
MODELSKETCH_VISIBLE
100
AcDbCircle
 10
0.0
 20
0.0
 30
0.0
 40
0.9946181455272106
100
AcDbArc
 50
124.0662701358257
 51
127.9337299503643
  0
ARC
  5
10000354
102
{ACAD_XDICTIONARY
360
10000355
102
}
330
1F
100
AcDbEntity
  8
MODELSKETCH_VISIBLE
100
AcDbCircle
 10
0.7191994721533327
 20
-0.5239384042232401
 30
0.0
 40
0.1661792947437626
100
AcDbArc
 50
240.7333370890177
 51
268.9889086676399
  0
ARC
  5
10000357
102
{ACAD_XDICTIONARY
360
10000358
102
}
330
1F
100
AcDbEntity
  8
MODELSKETCH_VISIBLE
100
AcDbCircle
 10
0.1881237350724535
 20
-0.8850525883294114
 30
0.0
 40
0.102
100
AcDbArc
 50
50.99999999999968
 51
86.27146669300025
  0
ARC
  5
1000035A
102
{ACAD_XDICTIONARY
360
1000035B
102
}
330
1F
100
AcDbEntity
  8
MODELSKETCH_VISIBLE
100
AcDbCircle
 10
0.3680255602044047
 20
0.8265989419557933
 30
0.0
 40
0.102
100
AcDbArc
 50
261.7285332998436
 51
270.0
  0
ARC
  5
1000035D
102
{ACAD_XDICTIONARY
360
1000035E
102
}
330
1F
100
AcDbEntity
  8
MODELSKETCH_VISIBLE
100
AcDbCircle
 10
-0.1881237350724535
 20
-0.8850525883294114
 30
0.0
 40
0.102
100
AcDbArc
 50
62.271466693
 51
93.72853328019639
  0
ARC
  5
10000360
102
{ACAD_XDICTIONARY
360
10000361
102
}
330
1F
100
AcDbEntity
  8
MODELSKETCH_VISIBLE
100
AcDbCircle
 10
-0.7836016002118996
 20
-0.4524125948197622
 30
0.0
 40
0.102
100
AcDbArc
 50
338.9999999999997
 51
14.2714666972716
  0
ARC
  5
10000363
102
{ACAD_XDICTIONARY
360
10000364
102
}
330
1F
100
AcDbEntity
  8
MODELSKETCH_VISIBLE
100
AcDbCircle
 10
-0.9947271835859351
 20
0.1924641149347433
 30
0.0
 40
0.262
100
AcDbArc
 50
33.00000000000014
 51
47.26666666666686
  0
ARC
  5
10000366
102
{ACAD_XDICTIONARY
360
10000367
102
}
330
1F
100
AcDbEntity
  8
MODELSKETCH_VISIBLE
100
AcDbCircle
 10
0.830446292137437
 20
0.5804167133858268
 30
0.0
 40
0.262
100
AcDbArc
 50
156.7333370890174
 51
170.9999999999999
  0
ARC
  5
10000369
102
{ACAD_XDICTIONARY
360
1000036A
102
}
330
1F
100
AcDbEntity
  8
MODELSKETCH_VISIBLE
100
AcDbCircle
 10
0.8605398927146694
 20
0.2796063605371476
 30
0.0
 40
0.102
100
AcDbArc
 50
213.7285332784015
 51
248.9999999999992
  0
ARC
  5
1000036C
102
{ACAD_XDICTIONARY
360
1000036D
102
}
330
1F
100
AcDbEntity
  8
MODELSKETCH_VISIBLE
100
AcDbCircle
 10
0.6916236279335847
 20
-0.7403927083557814
 30
0.0
 40
0.262
100
AcDbArc
 50
177.0
 51
191.2666666666666
  0
ARC
  5
1000036F
102
{ACAD_XDICTIONARY
360
10000370
102
}
330
1F
100
AcDbEntity
  8
MODELSKETCH_VISIBLE
100
AcDbCircle
 10
-0.1881237350724535
 20
-0.8850525883294114
 30
0.0
 40
0.102
100
AcDbArc
 50
93.72853328019639
 51
129.0000000000001
  0
ARC
  5
10000372
102
{ACAD_XDICTIONARY
360
10000373
102
}
330
1F
100
AcDbEntity
  8
MODELSKETCH_VISIBLE
100
AcDbCircle
 10
0.3680255602044047
 20
0.8265989419557933
 30
0.0
 40
0.102
100
AcDbArc
 50
230.2714666929997
 51
261.7285332998436
  0
ARC
  5
10000375
102
{ACAD_XDICTIONARY
360
10000376
102
}
330
1F
100
AcDbEntity
  8
MODELSKETCH_VISIBLE
100
AcDbCircle
 10
-0.3680255602044051
 20
0.8265989419557933
 30
0.0
 40
0.102
100
AcDbArc
 50
278.2714667116423
 51
309.7285332801967
  0
ARC
  5
10000378
102
{ACAD_XDICTIONARY
360
10000379
102
}
330
1F
100
AcDbEntity
  8
MODELSKETCH_VISIBLE
100
AcDbCircle
 10
0.0000000000000003
 20
0.9048251896395256
 30
0.0
 40
0.102
100
AcDbArc
 50
285.7285332801964
 51
320.9999999999996
  0
ARC
  5
1000037B
102
{ACAD_XDICTIONARY
360
1000037C
102
}
330
1F
100
AcDbEntity
  8
MODELSKETCH_VISIBLE
100
AcDbCircle
 10
0.2953870802460771
 20
0.9691599858259311
 30
0.0
 40
0.262
100
AcDbArc
 50
297.0000000000001
 51
311.2666666666669
  0
ARC
  5
1000037E
102
{ACAD_XDICTIONARY
360
1000037F
102
}
330
1F
100
AcDbEntity
  8
MODELSKETCH_VISIBLE
100
AcDbCircle
 10
0.0
 20
0.0
 30
0.0
 40
0.9946181455272106
100
AcDbArc
 50
340.0662701358257
 51
343.9337299503641
  0
ARC
  5
10000381
102
{ACAD_XDICTIONARY
360
10000382
102
}
330
1F
100
AcDbEntity
  8
MODELSKETCH_VISIBLE
100
AcDbCircle
 10
0.4904318551564488
 20
-0.8865670875631614
 30
0.0
 40
0.262
100
AcDbArc
 50
60.73333708901749
 51
74.99999999999996
  0
ARC
  5
10000384
102
{ACAD_XDICTIONARY
360
10000385
102
}
330
1F
100
AcDbEntity
  8
MODELSKETCH_VISIBLE
100
AcDbCircle
 10
0.3680255602044047
 20
0.8265989419557933
 30
0.0
 40
0.102
100
AcDbArc
 50
195.0000000000009
 51
230.2714666929997
  0
LINE
  5
10000387
102
{ACAD_XDICTIONARY
360
10000388
102
}
330
1F
100
AcDbEntity
  8
MODELSKETCH_VISIBLE
100
AcDbLine
 10
0.0
 20
0.2898298351331921
 30
0.0
 11
0.2509999999999999
 21
0.1449149175665961
 31
0.0
  0
ARC
  5
1000038A
102
{ACAD_XDICTIONARY
360
1000038B
102
}
330
1F
100
AcDbEntity
  8
MODELSKETCH_VISIBLE
100
AcDbCircle
 10
-0.5318429023728528
 20
-0.7320189553569094
 30
0.0
 40
0.102
100
AcDbArc
 50
38.27146669187355
 51
69.72853327378873
  0
ARC
  5
1000038D
102
{ACAD_XDICTIONARY
360
1000038E
102
}
330
1F
100
AcDbEntity
  8
MODELSKETCH_VISIBLE
100
AcDbCircle
 10
-0.2953870802460776
 20
0.9691599858259311
 30
0.0
 40
0.262
100
AcDbArc
 50
228.7333370890175
 51
243.0
  0
ARC
  5
10000390
102
{ACAD_XDICTIONARY
360
10000391
102
}
330
1F
100
AcDbEntity
  8
MODELSKETCH_VISIBLE
100
AcDbCircle
 10
0.2738813282054657
 20
0.8466099162105513
 30
0.0
 40
0.1661792958393925
100
AcDbArc
 50
127.0110916836696
 51
155.2666736590329
  0
ELLIPSE
  5
10000393
102
{ACAD_XDICTIONARY
360
10000394
102
}
330
1F
100
AcDbEntity
  8
MODELSKETCH_VISIBLE
100
AcDbEllipse
 10
-7.351623470064307
 20
-6.092282915573718
 30
0.0
 11
-33.72258588920769
 21
-29.59189670972678
 31
0.0
210
0.0
220
0.0
230
1.0
 40
0.0000438535303247
 41
4.477823087784637
 42
4.478333778246707
  0
ARC
  5
10000396
102
{ACAD_XDICTIONARY
360
10000397
102
}
330
1F
100
AcDbEntity
  8
MODELSKETCH_VISIBLE
100
AcDbCircle
 10
0.8701263586368858
 20
-0.1861167702571197
 30
0.0
 40
0.1661792947437626
100
AcDbArc
 50
264.7333370890172
 51
270.0
  0
ARC
  5
10000399
102
{ACAD_XDICTIONARY
360
1000039A
102
}
330
1F
100
AcDbEntity
  8
MODELSKETCH_VISIBLE
100
AcDbCircle
 10
0.5318429023728528
 20
-0.7320189553569094
 30
0.0
 40
0.102
100
AcDbArc
 50
75.00000000000017
 51
110.271466697442
  0
ARC
  5
1000039C
102
{ACAD_XDICTIONARY
360
1000039D
102
}
330
1F
100
AcDbEntity
  8
MODELSKETCH_VISIBLE
100
AcDbCircle
 10
-0.7836016002118996
 20
-0.4524125948197622
 30
0.0
 40
0.102
100
AcDbArc
 50
45.72853330096061
 51
81.00000000000081
  0
ARC
  5
1000039F
102
{ACAD_XDICTIONARY
360
100003A0
102
}
330
1F
100
AcDbEntity
  8
MODELSKETCH_VISIBLE
100
AcDbCircle
 10
-0.9870107081796615
 20
-0.2287672774701508
 30
0.0
 40
0.262
100
AcDbArc
 50
57.00000000000001
 51
71.2666666666666
  0
ARC
  5
100003A2
102
{ACAD_XDICTIONARY
360
100003A3
102
}
330
1F
100
AcDbEntity
  8
MODELSKETCH_VISIBLE
100
AcDbCircle
 10
-0.3680255602044051
 20
0.8265989419557933
 30
0.0
 40
0.102
100
AcDbArc
 50
270.0
 51
278.2714667116422
  0
ARC
  5
100003A5
102
{ACAD_XDICTIONARY
360
100003A6
102
}
330
1F
100
AcDbEntity
  8
MODELSKETCH_VISIBLE
100
AcDbCircle
 10
0.0
 20
0.0
 30
0.0
 40
0.9946181455272106
100
AcDbArc
 50
76.06627013582572
 51
79.93372995036417
  0
ARC
  5
100003A8
102
{ACAD_XDICTIONARY
360
100003A9
102
}
330
1F
100
AcDbEntity
  8
MODELSKETCH_VISIBLE
100
AcDbCircle
 10
0.9329744684514528
 20
-0.3950737228925142
 30
0.0
 40
0.262
100
AcDbArc
 50
201.0
 51
215.2666666666669
  0
ARC
  5
100003AB
102
{ACAD_XDICTIONARY
360
100003AC
102
}
330
1F
100
AcDbEntity
  8
MODELSKETCH_VISIBLE
100
AcDbCircle
 10
0.1881237350724535
 20
-0.8850525883294114
 30
0.0
 40
0.102
100
AcDbArc
 50
117.728533280198
 51
153.0000000000005
  0
ARC
  5
100003AE
102
{ACAD_XDICTIONARY
360
100003AF
102
}
330
1F
100
AcDbEntity
  8
MODELSKETCH_VISIBLE
100
AcDbCircle
 10
-0.4439164632123819
 20
-0.771166328268187
 30
0.0
 40
0.1661792958393925
100
AcDbArc
 50
295.0110916836696
 51
323.2666736590331
  0
ARC
  5
100003B1
102
{ACAD_XDICTIONARY
360
100003B2
102
}
330
1F
100
AcDbEntity
  8
MODELSKETCH_VISIBLE
100
AcDbCircle
 10
-0.8124161576422145
 20
0.3629591147326213
 30
0.0
 40
0.1661792947437626
100
AcDbArc
 50
72.73333708901741
 51
100.9889086676397
  0
ARC
  5
100003B4
102
{ACAD_XDICTIONARY
360
100003B5
102
}
330
1F
100
AcDbEntity
  8
MODELSKETCH_VISIBLE
100
AcDbCircle
 10
0.0
 20
0.0
 30
0.0
 40
0.9946181455272106
100
AcDbArc
 50
4.066270135825726
 51
7.933729950364219
  0
ARC
  5
100003B7
102
{ACAD_XDICTIONARY
360
100003B8
102
}
330
1F
100
AcDbEntity
  8
MODELSKETCH_VISIBLE
100
AcDbCircle
 10
0.8086311146183367
 20
-0.6104427293149842
 30
0.0
 40
0.262
100
AcDbArc
 50
84.73333708901748
 51
98.99999999999974
  0
ARC
  5
100003BA
102
{ACAD_XDICTIONARY
360
100003BB
102
}
330
1F
100
AcDbEntity
  8
MODELSKETCH_VISIBLE
100
AcDbCircle
 10
0.0
 20
0.0
 30
0.0
 40
0.9946181455272106
100
AcDbArc
 50
244.0662701358257
 51
247.9337299503642
  0
ARC
  5
100003BD
102
{ACAD_XDICTIONARY
360
100003BE
102
}
330
1F
100
AcDbEntity
  8
MODELSKETCH_VISIBLE
100
AcDbCircle
 10
-0.5318429023728528
 20
-0.7320189553569094
 30
0.0
 40
0.102
100
AcDbArc
 50
69.72853327378873
 51
105.0000000000002
  0
ARC
  5
100003C0
102
{ACAD_XDICTIONARY
360
100003C1
102
}
330
1F
100
AcDbEntity
  8
MODELSKETCH_VISIBLE
100
AcDbCircle
 10
0.7836016002119015
 20
-0.4524125948197622
 30
0.0
 40
0.102
100
AcDbArc
 50
99.00000000000034
 51
134.2714666974429
  0
ARC
  5
100003C3
102
{ACAD_XDICTIONARY
360
100003C4
102
}
330
1F
100
AcDbEntity
  8
MODELSKETCH_VISIBLE
100
AcDbCircle
 10
-0.3680255602044051
 20
0.8265989419557933
 30
0.0
 40
0.102
100
AcDbArc
 50
243.0000000000004
 51
269.9999999999996
  0
ARC
  5
100003C6
102
{ACAD_XDICTIONARY
360
100003C7
102
}
330
1F
100
AcDbEntity
  8
MODELSKETCH_VISIBLE
100
AcDbCircle
 10
0.7836016002119015
 20
-0.4524125948197622
 30
0.0
 40
0.102
100
AcDbArc
 50
134.271467620217
 51
165.7285323793612
  0
ARC
  5
100003C9
102
{ACAD_XDICTIONARY
360
100003CA
102
}
330
1F
100
AcDbEntity
  8
MODELSKETCH_VISIBLE
100
AcDbCircle
 10
-0.6724161576422145
 20
0.6054462277922638
 30
0.0
 40
0.102
100
AcDbArc
 50
266.9999998059886
 51
270.0000013095419
  0
ARC
  5
100003CC
102
{ACAD_XDICTIONARY
360
100003CD
102
}
330
1F
100
AcDbEntity
  8
MODELSKETCH_VISIBLE
100
AcDbCircle
 10
0.6724161576422145
 20
0.6054462277922638
 30
0.0
 40
0.102
100
AcDbArc
 50
237.7285323793614
 51
270.0
  0
ARC
  5
100003CF
102
{ACAD_XDICTIONARY
360
100003D0
102
}
330
1F
100
AcDbEntity
  8
MODELSKETCH_VISIBLE
100
AcDbCircle
 10
-0.6640424046433444
 20
0.7652269533529961
 30
0.0
 40
0.262
100
AcDbArc
 50
252.7333370890177
 51
266.999999924469
  0
LINE
  5
100003D2
102
{ACAD_XDICTIONARY
360
100003D3
102
}
330
1F
100
AcDbEntity
  8
MODELSKETCH_VISIBLE
100
AcDbLine
 10
0.9239713073862178
 20
0.026510443638273
 30
0.0
 11
0.90286572072153
 21
0.0193529069424715
 31
0.0
  0
LINE
  5
100003D5
102
{ACAD_XDICTIONARY
360
100003D6
102
}
330
1F
100
AcDbEntity
  8
MODELSKETCH_VISIBLE
100
AcDbLine
 10
-0.4390269454333413
 20
-0.8134378445115857
 30
0.0
 11
-0.4346727607092267
 21
-0.7915811019500666
 31
0.0
  0
ARC
  5
100003D8
102
{ACAD_XDICTIONARY
360
100003D9
102
}
330
1F
100
AcDbEntity
  8
MODELSKETCH_VISIBLE
100
AcDbCircle
 10
0.4458913992172291
 20
0.7700260984341575
 30
0.0
 40
0.1661792947437628
100
AcDbArc
 50
336.7333370890173
 51
4.98890866763904
  0
LINE
  5
100003DB
102
{ACAD_XDICTIONARY
360
100003DC
102
}
330
1F
100
AcDbEntity
  8
MODELSKETCH_VISIBLE
100
AcDbLine
 10
-0.8326804304603073
 20
-0.349548825359437
 30
0.0
 11
-0.8548725476548366
 21
-0.3515945045701927
 31
0.0
  0
ARC
  5
100003DE
102
{ACAD_XDICTIONARY
360
100003DF
102
}
330
1F
100
AcDbEntity
  8
MODELSKETCH_VISIBLE
100
AcDbCircle
 10
-0.8133437041522716
 20
-0.360875811161526
 30
0.0
 40
0.1661792947437628
100
AcDbArc
 50
120.7333300966472
 51
148.9889086676399
  0
ARC
  5
100003E1
102
{ACAD_XDICTIONARY
360
100003E2
102
}
330
1F
100
AcDbEntity
  8
MODELSKETCH_VISIBLE
100
AcDbCircle
 10
0.0
 20
0.0
 30
0.0
 40
0.9946181455272106
100
AcDbArc
 50
52.0662701358257
 51
55.93372995036418
  0
ARC
  5
100003E4
102
{ACAD_XDICTIONARY
360
100003E5
102
}
330
1F
100
AcDbEntity
  8
MODELSKETCH_VISIBLE
100
AcDbCircle
 10
0.0
 20
0.0
 30
0.0
 40
0.9946181455272106
100
AcDbArc
 50
292.0662701358257
 51
295.9337299503642
  0
ARC
  5
100003E7
102
{ACAD_XDICTIONARY
360
100003E8
102
}
330
1F
100
AcDbEntity
  8
MODELSKETCH_VISIBLE
100
AcDbCircle
 10
0.1881237350724535
 20
-0.8850525883294114
 30
0.0
 40
0.102
100
AcDbArc
 50
117.7285328200562
 51
153.0000000000005
  0
ARC
  5
100003EA
102
{ACAD_XDICTIONARY
360
100003EB
102
}
330
1F
100
AcDbEntity
  8
MODELSKETCH_VISIBLE
100
AcDbCircle
 10
-0.5318429023728528
 20
-0.7320189553569094
 30
0.0
 40
0.102
100
AcDbArc
 50
2.999999999999559
 51
38.27146717973461
  0
LINE
  5
100003ED
102
{ACAD_XDICTIONARY
360
100003EE
102
}
330
1F
100
AcDbEntity
  8
MODELSKETCH_VISIBLE
100
AcDbLine
 10
-0.909292149680345
 20
0.166173318861146
 30
0.0
 11
-0.8871596351658163
 21
0.168786347999239
 31
0.0
  0
ELLIPSE
  5
100003F0
102
{ACAD_XDICTIONARY
360
100003F1
102
}
330
1F
100
AcDbEntity
  8
MODELSKETCH_VISIBLE
100
AcDbEllipse
 10
-4.238087505549849
 20
-8.555752007137961
 30
0.0
 11
-18.77100636607489
 21
-40.74975406934517
 31
0.0
210
0.0
220
0.0
230
1.0
 40
0.0000438536679315
 41
4.477823087783786
 42
4.478333778247202
  0
ARC
  5
100003F3
102
{ACAD_XDICTIONARY
360
100003F4
102
}
330
1F
100
AcDbEntity
  8
MODELSKETCH_VISIBLE
100
AcDbCircle
 10
0.7836016002119015
 20
-0.4524125948197622
 30
0.0
 40
0.102
100
AcDbArc
 50
165.7285323793617
 51
200.9999999999999
  0
ARC
  5
100003F6
102
{ACAD_XDICTIONARY
360
100003F7
102
}
330
1F
100
AcDbEntity
  8
MODELSKETCH_VISIBLE
100
AcDbCircle
 10
0.0
 20
0.0
 30
0.0
 40
0.9946181455272106
100
AcDbArc
 50
196.0662701358257
 51
199.9337299503642
  0
ARC
  5
100003F9
102
{ACAD_XDICTIONARY
360
100003FA
102
}
330
1F
100
AcDbEntity
  8
MODELSKETCH_VISIBLE
100
AcDbCircle
 10
-0.9178787646419154
 20
0.4289792287767
 30
0.0
 40
0.262
100
AcDbArc
 50
276.7333370890175
 51
290.9999999999999
  0
ARC
  5
100003FC
102
{ACAD_XDICTIONARY
360
100003FD
102
}
330
1F
100
AcDbEntity
  8
MODELSKETCH_VISIBLE
100
AcDbCircle
 10
0.2760501742329244
 20
-0.8459052154181338
 30
0.0
 40
0.1661792958393927
100
AcDbArc
 50
343.0110916836692
 51
11.26666666666651
  0
ARC
  5
100003FF
102
{ACAD_XDICTIONARY
360
10000400
102
}
330
1F
100
AcDbEntity
  8
MODELSKETCH_VISIBLE
100
AcDbCircle
 10
-0.6724161576422145
 20
0.6054462277922638
 30
0.0
 40
0.102
100
AcDbArc
 50
333.7285324607599
 51
9.000000000000508
  0
LINE
  5
10000402
102
{ACAD_XDICTIONARY
360
10000403
102
}
330
1F
100
AcDbEntity
  8
MODELSKETCH_VISIBLE
100
AcDbLine
 10
-0.2605951551884111
 20
0.8646567214977037
 30
0.0
 11
-0.2603099200468795
 21
0.8869410996914758
 31
0.0
  0
LINE
  5
10000405
102
{ACAD_XDICTIONARY
360
10000406
102
}
330
1F
100
AcDbEntity
  8
MODELSKETCH_VISIBLE
100
AcDbLine
 10
0.8333070319292363
 20
0.4000314724859375
 30
0.0
 11
0.8169373515503836
 21
0.3849083218781292
 31
0.0
  0
ARC
  5
10000408
102
{ACAD_XDICTIONARY
360
10000409
102
}
330
1F
100
AcDbEntity
  8
MODELSKETCH_VISIBLE
100
AcDbCircle
 10
0.5318429023728528
 20
-0.7320189553569094
 30
0.0
 40
0.102
100
AcDbArc
 50
74.99999999999976
 51
110.2714671390541
  0
LINE
  5
1000040B
102
{ACAD_XDICTIONARY
360
1000040C
102
}
330
1F
100
AcDbEntity
  8
MODELSKETCH_VISIBLE
100
AcDbLine
 10
-0.0702160988301156
 20
-0.9216807951253553
 30
0.0
 11
-0.0751282912523526
 21
-0.8999426607615417
 31
0.0
  0
ARC
  5
1000040E
102
{ACAD_XDICTIONARY
360
1000040F
102
}
330
1F
100
AcDbEntity
  8
MODELSKETCH_VISIBLE
100
AcDbCircle
 10
-0.8701263586368858
 20
-0.1861167702571197
 30
0.0
 40
0.1661792958393925
100
AcDbArc
 50
247.0110916836695
 51
270.0
  0
ARC
  5
10000411
102
{ACAD_XDICTIONARY
360
10000412
102
}
330
1F
100
AcDbEntity
  8
MODELSKETCH_VISIBLE
100
AcDbCircle
 10
0.0941442319989394
 20
0.8848142153847658
 30
0.0
 40
0.1661792947437628
100
AcDbArc
 50
0.7333370890171043
 51
28.98890866763948
  0
ELLIPSE
  5
10000414
102
{ACAD_XDICTIONARY
360
10000415
102
}
330
1F
100
AcDbEntity
  8
MODELSKETCH_VISIBLE
100
AcDbEllipse
 10
-7.350309609624005
 20
-6.09382102032942
 30
0.0
 11
-33.72236370544352
 21
-29.59232606005139
 31
0.0
210
0.0
220
0.0
230
1.0
 40
0.0000877068445926
 41
4.477823087868327
 42
4.478333777472305
  0
LINE
  5
10000417
102
{ACAD_XDICTIONARY
360
10000418
102
}
330
1F
100
AcDbEntity
  8
MODELSKETCH_VISIBLE
100
AcDbLine
 10
-0.6185171092026275
 20
-0.6580103844834644
 30
0.0
 11
-0.6379585643688032
 21
-0.6689055526861997
 31
0.0
  0
ELLIPSE
  5
1000041A
102
{ACAD_XDICTIONARY
360
1000041B
102
}
330
1F
100
AcDbEntity
  8
MODELSKETCH_VISIBLE
100
AcDbEllipse
 10
-9.446644828009848
 20
1.386787990243945
 30
0.0
 11
-44.55587940847708
 21
5.25992143576152
 31
0.0
210
0.0
220
0.0
230
1.0
 40
0.0000438533786934
 41
4.477823087785639
 42
4.478333778245734
  0
ARC
  5
1000041D
102
{ACAD_XDICTIONARY
360
1000041E
102
}
330
1F
100
AcDbEntity
  8
MODELSKETCH_VISIBLE
100
AcDbCircle
 10
-0.5962450304314193
 20
-0.660493145953433
 30
0.0
 40
0.1661792947437628
100
AcDbArc
 50
144.7333300966473
 51
172.9889086676394
  0
ARC
  5
10000420
102
{ACAD_XDICTIONARY
360
10000421
102
}
330
1F
100
AcDbEntity
  8
MODELSKETCH_VISIBLE
100
AcDbCircle
 10
0.0
 20
0.0
 30
0.0
 40
0.9946181455272106
100
AcDbArc
 50
76.06627013582572
 51
79.93372995036417
  0
ARC
  5
10000423
102
{ACAD_XDICTIONARY
360
10000424
102
}
330
1F
100
AcDbEntity
  8
MODELSKETCH_VISIBLE
100
AcDbCircle
 10
0.0
 20
0.0
 30
0.0
 40
0.9946181455272106
100
AcDbArc
 50
316.0662701358258
 51
319.9337299503642
  0
LINE
  5
10000426
102
{ACAD_XDICTIONARY
360
10000427
102
}
330
1F
100
AcDbEntity
  8
MODELSKETCH_VISIBLE
100
AcDbLine
 10
-0.2510000000000001
 20
-0.1449149175665961
 30
0.0
 11
-0.2509999999999999
 21
0.1449149175665961
 31
0.0
  0
ENDSEC
  0
SECTION
  2
OBJECTS
  0
DICTIONARY
  5
C
330
0
100
AcDbDictionary
  3
ACAD_GROUP
350
D
  3
ACAD_LAYOUT
350
1A
  3
ACAD_MATERIAL
350
43
  3
ACAD_MLEADERSTYLE
350
6B
  3
ACAD_MLINESTYLE
350
17
  3
ACAD_PLOTSETTINGS
350
19
  3
ACAD_SCALELIST
350
47
  3
ACAD_VISUALSTYLE
350
2A
  3
ACDBHEADERROUNDTRIPXREC
350
1000042B
  3
ACDBVARIABLEDICTIONARY
350
1000044C
  3
DWGPROPS
350
10000453
  3
ONSHAPE_DATA
350
10000001
  0
DICTIONARY
  5
10000454
330
8
100
AcDbDictionary
280
     1
  3
ACAD_XREC_ROUNDTRIP
360
10000455
  0
DICTIONARY
  5
10000429
330
1F
100
AcDbDictionary
280
     1
  3
ACAD_SORTENTS
360
1000042A
  0
DICTIONARY
  5
10000058
330
10000057
100
AcDbDictionary
280
     1
  3
BTDETID
360
10000059
  0
DICTIONARY
  5
1000005B
330
1000005A
100
AcDbDictionary
280
     1
  3
BTDETID
360
1000005C
  0
DICTIONARY
  5
1000005E
330
1000005D
100
AcDbDictionary
280
     1
  3
BTDETID
360
1000005F
  0
DICTIONARY
  5
10000061
330
10000060
100
AcDbDictionary
280
     1
  3
BTDETID
360
10000062
  0
DICTIONARY
  5
10000064
330
10000063
100
AcDbDictionary
280
     1
  3
BTDETID
360
10000065
  0
DICTIONARY
  5
10000067
330
10000066
100
AcDbDictionary
280
     1
  3
BTDETID
360
10000068
  0
DICTIONARY
  5
1000006A
330
10000069
100
AcDbDictionary
280
     1
  3
BTDETID
360
1000006B
  0
DICTIONARY
  5
1000006D
330
1000006C
100
AcDbDictionary
280
     1
  3
BTDETID
360
1000006E
  0
DICTIONARY
  5
10000070
330
1000006F
100
AcDbDictionary
280
     1
  3
BTDETID
360
10000071
  0
DICTIONARY
  5
10000073
330
10000072
100
AcDbDictionary
280
     1
  3
BTDETID
360
10000074
  0
DICTIONARY
  5
10000076
330
10000075
100
AcDbDictionary
280
     1
  3
BTDETID
360
10000077
  0
DICTIONARY
  5
10000079
330
10000078
100
AcDbDictionary
280
     1
  3
BTDETID
360
1000007A
  0
DICTIONARY
  5
1000007C
330
1000007B
100
AcDbDictionary
280
     1
  3
BTDETID
360
1000007D
  0
DICTIONARY
  5
1000007F
330
1000007E
100
AcDbDictionary
280
     1
  3
BTDETID
360
10000080
  0
DICTIONARY
  5
10000082
330
10000081
100
AcDbDictionary
280
     1
  3
BTDETID
360
10000083
  0
DICTIONARY
  5
10000085
330
10000084
100
AcDbDictionary
280
     1
  3
BTDETID
360
10000086
  0
DICTIONARY
  5
10000088
330
10000087
100
AcDbDictionary
280
     1
  3
BTDETID
360
10000089
  0
DICTIONARY
  5
1000008B
330
1000008A
100
AcDbDictionary
280
     1
  3
BTDETID
360
1000008C
  0
DICTIONARY
  5
1000008E
330
1000008D
100
AcDbDictionary
280
     1
  3
BTDETID
360
1000008F
  0
DICTIONARY
  5
10000091
330
10000090
100
AcDbDictionary
280
     1
  3
BTDETID
360
10000092
  0
DICTIONARY
  5
10000094
330
10000093
100
AcDbDictionary
280
     1
  3
BTDETID
360
10000095
  0
DICTIONARY
  5
10000097
330
10000096
100
AcDbDictionary
280
     1
  3
BTDETID
360
10000098
  0
DICTIONARY
  5
1000009A
330
10000099
100
AcDbDictionary
280
     1
  3
BTDETID
360
1000009B
  0
DICTIONARY
  5
1000009D
330
1000009C
100
AcDbDictionary
280
     1
  3
BTDETID
360
1000009E
  0
DICTIONARY
  5
100000A0
330
1000009F
100
AcDbDictionary
280
     1
  3
BTDETID
360
100000A1
  0
DICTIONARY
  5
100000A3
330
100000A2
100
AcDbDictionary
280
     1
  3
BTDETID
360
100000A4
  0
DICTIONARY
  5
100000A6
330
100000A5
100
AcDbDictionary
280
     1
  3
BTDETID
360
100000A7
  0
DICTIONARY
  5
100000A9
330
100000A8
100
AcDbDictionary
280
     1
  3
BTDETID
360
100000AA
  0
DICTIONARY
  5
100000AC
330
100000AB
100
AcDbDictionary
280
     1
  3
BTDETID
360
100000AD
  0
DICTIONARY
  5
100000AF
330
100000AE
100
AcDbDictionary
280
     1
  3
BTDETID
360
100000B0
  0
DICTIONARY
  5
100000B2
330
100000B1
100
AcDbDictionary
280
     1
  3
BTDETID
360
100000B3
  0
DICTIONARY
  5
100000B5
330
100000B4
100
AcDbDictionary
280
     1
  3
BTDETID
360
100000B6
  0
DICTIONARY
  5
100000B8
330
100000B7
100
AcDbDictionary
280
     1
  3
BTDETID
360
100000B9
  0
DICTIONARY
  5
100000BB
330
100000BA
100
AcDbDictionary
280
     1
  3
BTDETID
360
100000BC
  0
DICTIONARY
  5
100000BE
330
100000BD
100
AcDbDictionary
280
     1
  3
BTDETID
360
100000BF
  0
DICTIONARY
  5
100000C1
330
100000C0
100
AcDbDictionary
280
     1
  3
BTDETID
360
100000C2
  0
DICTIONARY
  5
100000C4
330
100000C3
100
AcDbDictionary
280
     1
  3
BTDETID
360
100000C5
  0
DICTIONARY
  5
100000C7
330
100000C6
100
AcDbDictionary
280
     1
  3
BTDETID
360
100000C8
  0
DICTIONARY
  5
100000CA
330
100000C9
100
AcDbDictionary
280
     1
  3
BTDETID
360
100000CB
  0
DICTIONARY
  5
100000CD
330
100000CC
100
AcDbDictionary
280
     1
  3
BTDETID
360
100000CE
  0
DICTIONARY
  5
100000D0
330
100000CF
100
AcDbDictionary
280
     1
  3
BTDETID
360
100000D1
  0
DICTIONARY
  5
100000D3
330
100000D2
100
AcDbDictionary
280
     1
  3
BTDETID
360
100000D4
  0
DICTIONARY
  5
100000D6
330
100000D5
100
AcDbDictionary
280
     1
  3
BTDETID
360
100000D7
  0
DICTIONARY
  5
100000D9
330
100000D8
100
AcDbDictionary
280
     1
  3
BTDETID
360
100000DA
  0
DICTIONARY
  5
100000DC
330
100000DB
100
AcDbDictionary
280
     1
  3
BTDETID
360
100000DD
  0
DICTIONARY
  5
100000DF
330
100000DE
100
AcDbDictionary
280
     1
  3
BTDETID
360
100000E0
  0
DICTIONARY
  5
100000E2
330
100000E1
100
AcDbDictionary
280
     1
  3
BTDETID
360
100000E3
  0
DICTIONARY
  5
100000E5
330
100000E4
100
AcDbDictionary
280
     1
  3
BTDETID
360
100000E6
  0
DICTIONARY
  5
100000E8
330
100000E7
100
AcDbDictionary
280
     1
  3
BTDETID
360
100000E9
  0
DICTIONARY
  5
100000EB
330
100000EA
100
AcDbDictionary
280
     1
  3
BTDETID
360
100000EC
  0
DICTIONARY
  5
100000EE
330
100000ED
100
AcDbDictionary
280
     1
  3
BTDETID
360
100000EF
  0
DICTIONARY
  5
100000F1
330
100000F0
100
AcDbDictionary
280
     1
  3
BTDETID
360
100000F2
  0
DICTIONARY
  5
100000F4
330
100000F3
100
AcDbDictionary
280
     1
  3
BTDETID
360
100000F5
  0
DICTIONARY
  5
100000F7
330
100000F6
100
AcDbDictionary
280
     1
  3
BTDETID
360
100000F8
  0
DICTIONARY
  5
100000FA
330
100000F9
100
AcDbDictionary
280
     1
  3
BTDETID
360
100000FB
  0
DICTIONARY
  5
100000FD
330
100000FC
100
AcDbDictionary
280
     1
  3
BTDETID
360
100000FE
  0
DICTIONARY
  5
10000100
330
100000FF
100
AcDbDictionary
280
     1
  3
BTDETID
360
10000101
  0
DICTIONARY
  5
10000103
330
10000102
100
AcDbDictionary
280
     1
  3
BTDETID
360
10000104
  0
DICTIONARY
  5
10000106
330
10000105
100
AcDbDictionary
280
     1
  3
BTDETID
360
10000107
  0
DICTIONARY
  5
10000109
330
10000108
100
AcDbDictionary
280
     1
  3
BTDETID
360
1000010A
  0
DICTIONARY
  5
1000010C
330
1000010B
100
AcDbDictionary
280
     1
  3
BTDETID
360
1000010D
  0
DICTIONARY
  5
1000010F
330
1000010E
100
AcDbDictionary
280
     1
  3
BTDETID
360
10000110
  0
DICTIONARY
  5
10000112
330
10000111
100
AcDbDictionary
280
     1
  3
BTDETID
360
10000113
  0
DICTIONARY
  5
10000115
330
10000114
100
AcDbDictionary
280
     1
  3
BTDETID
360
10000116
  0
DICTIONARY
  5
10000118
330
10000117
100
AcDbDictionary
280
     1
  3
BTDETID
360
10000119
  0
DICTIONARY
  5
1000011B
330
1000011A
100
AcDbDictionary
280
     1
  3
BTDETID
360
1000011C
  0
DICTIONARY
  5
1000011E
330
1000011D
100
AcDbDictionary
280
     1
  3
BTDETID
360
1000011F
  0
DICTIONARY
  5
10000121
330
10000120
100
AcDbDictionary
280
     1
  3
BTDETID
360
10000122
  0
DICTIONARY
  5
10000124
330
10000123
100
AcDbDictionary
280
     1
  3
BTDETID
360
10000125
  0
DICTIONARY
  5
10000127
330
10000126
100
AcDbDictionary
280
     1
  3
BTDETID
360
10000128
  0
DICTIONARY
  5
1000012A
330
10000129
100
AcDbDictionary
280
     1
  3
BTDETID
360
1000012B
  0
DICTIONARY
  5
1000012D
330
1000012C
100
AcDbDictionary
280
     1
  3
BTDETID
360
1000012E
  0
DICTIONARY
  5
10000130
330
1000012F
100
AcDbDictionary
280
     1
  3
BTDETID
360
10000131
  0
DICTIONARY
  5
10000133
330
10000132
100
AcDbDictionary
280
     1
  3
BTDETID
360
10000134
  0
DICTIONARY
  5
10000136
330
10000135
100
AcDbDictionary
280
     1
  3
BTDETID
360
10000137
  0
DICTIONARY
  5
10000139
330
10000138
100
AcDbDictionary
280
     1
  3
BTDETID
360
1000013A
  0
DICTIONARY
  5
1000013C
330
1000013B
100
AcDbDictionary
280
     1
  3
BTDETID
360
1000013D
  0
DICTIONARY
  5
1000013F
330
1000013E
100
AcDbDictionary
280
     1
  3
BTDETID
360
10000140
  0
DICTIONARY
  5
10000142
330
10000141
100
AcDbDictionary
280
     1
  3
BTDETID
360
10000143
  0
DICTIONARY
  5
10000145
330
10000144
100
AcDbDictionary
280
     1
  3
BTDETID
360
10000146
  0
DICTIONARY
  5
10000148
330
10000147
100
AcDbDictionary
280
     1
  3
BTDETID
360
10000149
  0
DICTIONARY
  5
1000014B
330
1000014A
100
AcDbDictionary
280
     1
  3
BTDETID
360
1000014C
  0
DICTIONARY
  5
1000014E
330
1000014D
100
AcDbDictionary
280
     1
  3
BTDETID
360
1000014F
  0
DICTIONARY
  5
10000151
330
10000150
100
AcDbDictionary
280
     1
  3
BTDETID
360
10000152
  0
DICTIONARY
  5
10000154
330
10000153
100
AcDbDictionary
280
     1
  3
BTDETID
360
10000155
  0
DICTIONARY
  5
10000157
330
10000156
100
AcDbDictionary
280
     1
  3
BTDETID
360
10000158
  0
DICTIONARY
  5
1000015A
330
10000159
100
AcDbDictionary
280
     1
  3
BTDETID
360
1000015B
  0
DICTIONARY
  5
1000015D
330
1000015C
100
AcDbDictionary
280
     1
  3
BTDETID
360
1000015E
  0
DICTIONARY
  5
10000160
330
1000015F
100
AcDbDictionary
280
     1
  3
BTDETID
360
10000161
  0
DICTIONARY
  5
10000163
330
10000162
100
AcDbDictionary
280
     1
  3
BTDETID
360
10000164
  0
DICTIONARY
  5
10000166
330
10000165
100
AcDbDictionary
280
     1
  3
BTDETID
360
10000167
  0
DICTIONARY
  5
10000169
330
10000168
100
AcDbDictionary
280
     1
  3
BTDETID
360
1000016A
  0
DICTIONARY
  5
1000016C
330
1000016B
100
AcDbDictionary
280
     1
  3
BTDETID
360
1000016D
  0
DICTIONARY
  5
1000016F
330
1000016E
100
AcDbDictionary
280
     1
  3
BTDETID
360
10000170
  0
DICTIONARY
  5
10000172
330
10000171
100
AcDbDictionary
280
     1
  3
BTDETID
360
10000173
  0
DICTIONARY
  5
10000175
330
10000174
100
AcDbDictionary
280
     1
  3
BTDETID
360
10000176
  0
DICTIONARY
  5
10000178
330
10000177
100
AcDbDictionary
280
     1
  3
BTDETID
360
10000179
  0
DICTIONARY
  5
1000017B
330
1000017A
100
AcDbDictionary
280
     1
  3
BTDETID
360
1000017C
  0
DICTIONARY
  5
1000017E
330
1000017D
100
AcDbDictionary
280
     1
  3
BTDETID
360
1000017F
  0
DICTIONARY
  5
10000181
330
10000180
100
AcDbDictionary
280
     1
  3
BTDETID
360
10000182
  0
DICTIONARY
  5
10000184
330
10000183
100
AcDbDictionary
280
     1
  3
BTDETID
360
10000185
  0
DICTIONARY
  5
10000187
330
10000186
100
AcDbDictionary
280
     1
  3
BTDETID
360
10000188
  0
DICTIONARY
  5
1000018A
330
10000189
100
AcDbDictionary
280
     1
  3
BTDETID
360
1000018B
  0
DICTIONARY
  5
1000018D
330
1000018C
100
AcDbDictionary
280
     1
  3
BTDETID
360
1000018E
  0
DICTIONARY
  5
10000190
330
1000018F
100
AcDbDictionary
280
     1
  3
BTDETID
360
10000191
  0
DICTIONARY
  5
10000193
330
10000192
100
AcDbDictionary
280
     1
  3
BTDETID
360
10000194
  0
DICTIONARY
  5
10000196
330
10000195
100
AcDbDictionary
280
     1
  3
BTDETID
360
10000197
  0
DICTIONARY
  5
10000199
330
10000198
100
AcDbDictionary
280
     1
  3
BTDETID
360
1000019A
  0
DICTIONARY
  5
1000019C
330
1000019B
100
AcDbDictionary
280
     1
  3
BTDETID
360
1000019D
  0
DICTIONARY
  5
1000019F
330
1000019E
100
AcDbDictionary
280
     1
  3
BTDETID
360
100001A0
  0
DICTIONARY
  5
100001A2
330
100001A1
100
AcDbDictionary
280
     1
  3
BTDETID
360
100001A3
  0
DICTIONARY
  5
100001A5
330
100001A4
100
AcDbDictionary
280
     1
  3
BTDETID
360
100001A6
  0
DICTIONARY
  5
100001A8
330
100001A7
100
AcDbDictionary
280
     1
  3
BTDETID
360
100001A9
  0
DICTIONARY
  5
100001AB
330
100001AA
100
AcDbDictionary
280
     1
  3
BTDETID
360
100001AC
  0
DICTIONARY
  5
100001AE
330
100001AD
100
AcDbDictionary
280
     1
  3
BTDETID
360
100001AF
  0
DICTIONARY
  5
100001B1
330
100001B0
100
AcDbDictionary
280
     1
  3
BTDETID
360
100001B2
  0
DICTIONARY
  5
100001B4
330
100001B3
100
AcDbDictionary
280
     1
  3
BTDETID
360
100001B5
  0
DICTIONARY
  5
100001B7
330
100001B6
100
AcDbDictionary
280
     1
  3
BTDETID
360
100001B8
  0
DICTIONARY
  5
100001BA
330
100001B9
100
AcDbDictionary
280
     1
  3
BTDETID
360
100001BB
  0
DICTIONARY
  5
100001BD
330
100001BC
100
AcDbDictionary
280
     1
  3
BTDETID
360
100001BE
  0
DICTIONARY
  5
100001C0
330
100001BF
100
AcDbDictionary
280
     1
  3
BTDETID
360
100001C1
  0
DICTIONARY
  5
100001C3
330
100001C2
100
AcDbDictionary
280
     1
  3
BTDETID
360
100001C4
  0
DICTIONARY
  5
100001C6
330
100001C5
100
AcDbDictionary
280
     1
  3
BTDETID
360
100001C7
  0
DICTIONARY
  5
100001C9
330
100001C8
100
AcDbDictionary
280
     1
  3
BTDETID
360
100001CA
  0
DICTIONARY
  5
100001CC
330
100001CB
100
AcDbDictionary
280
     1
  3
BTDETID
360
100001CD
  0
DICTIONARY
  5
100001CF
330
100001CE
100
AcDbDictionary
280
     1
  3
BTDETID
360
100001D0
  0
DICTIONARY
  5
100001D2
330
100001D1
100
AcDbDictionary
280
     1
  3
BTDETID
360
100001D3
  0
DICTIONARY
  5
100001D5
330
100001D4
100
AcDbDictionary
280
     1
  3
BTDETID
360
100001D6
  0
DICTIONARY
  5
100001D8
330
100001D7
100
AcDbDictionary
280
     1
  3
BTDETID
360
100001D9
  0
DICTIONARY
  5
100001DB
330
100001DA
100
AcDbDictionary
280
     1
  3
BTDETID
360
100001DC
  0
DICTIONARY
  5
100001DE
330
100001DD
100
AcDbDictionary
280
     1
  3
BTDETID
360
100001DF
  0
DICTIONARY
  5
100001E1
330
100001E0
100
AcDbDictionary
280
     1
  3
BTDETID
360
100001E2
  0
DICTIONARY
  5
100001E4
330
100001E3
100
AcDbDictionary
280
     1
  3
BTDETID
360
100001E5
  0
DICTIONARY
  5
100001E7
330
100001E6
100
AcDbDictionary
280
     1
  3
BTDETID
360
100001E8
  0
DICTIONARY
  5
100001EA
330
100001E9
100
AcDbDictionary
280
     1
  3
BTDETID
360
100001EB
  0
DICTIONARY
  5
100001ED
330
100001EC
100
AcDbDictionary
280
     1
  3
BTDETID
360
100001EE
  0
DICTIONARY
  5
100001F0
330
100001EF
100
AcDbDictionary
280
     1
  3
BTDETID
360
100001F1
  0
DICTIONARY
  5
100001F3
330
100001F2
100
AcDbDictionary
280
     1
  3
BTDETID
360
100001F4
  0
DICTIONARY
  5
100001F6
330
100001F5
100
AcDbDictionary
280
     1
  3
BTDETID
360
100001F7
  0
DICTIONARY
  5
100001F9
330
100001F8
100
AcDbDictionary
280
     1
  3
BTDETID
360
100001FA
  0
DICTIONARY
  5
100001FC
330
100001FB
100
AcDbDictionary
280
     1
  3
BTDETID
360
100001FD
  0
DICTIONARY
  5
100001FF
330
100001FE
100
AcDbDictionary
280
     1
  3
BTDETID
360
10000200
  0
DICTIONARY
  5
10000202
330
10000201
100
AcDbDictionary
280
     1
  3
BTDETID
360
10000203
  0
DICTIONARY
  5
10000205
330
10000204
100
AcDbDictionary
280
     1
  3
BTDETID
360
10000206
  0
DICTIONARY
  5
10000208
330
10000207
100
AcDbDictionary
280
     1
  3
BTDETID
360
10000209
  0
DICTIONARY
  5
1000020B
330
1000020A
100
AcDbDictionary
280
     1
  3
BTDETID
360
1000020C
  0
DICTIONARY
  5
1000020E
330
1000020D
100
AcDbDictionary
280
     1
  3
BTDETID
360
1000020F
  0
DICTIONARY
  5
10000211
330
10000210
100
AcDbDictionary
280
     1
  3
BTDETID
360
10000212
  0
DICTIONARY
  5
10000214
330
10000213
100
AcDbDictionary
280
     1
  3
BTDETID
360
10000215
  0
DICTIONARY
  5
10000217
330
10000216
100
AcDbDictionary
280
     1
  3
BTDETID
360
10000218
  0
DICTIONARY
  5
1000021A
330
10000219
100
AcDbDictionary
280
     1
  3
BTDETID
360
1000021B
  0
DICTIONARY
  5
1000021D
330
1000021C
100
AcDbDictionary
280
     1
  3
BTDETID
360
1000021E
  0
DICTIONARY
  5
10000220
330
1000021F
100
AcDbDictionary
280
     1
  3
BTDETID
360
10000221
  0
DICTIONARY
  5
10000223
330
10000222
100
AcDbDictionary
280
     1
  3
BTDETID
360
10000224
  0
DICTIONARY
  5
10000226
330
10000225
100
AcDbDictionary
280
     1
  3
BTDETID
360
10000227
  0
DICTIONARY
  5
10000229
330
10000228
100
AcDbDictionary
280
     1
  3
BTDETID
360
1000022A
  0
DICTIONARY
  5
1000022C
330
1000022B
100
AcDbDictionary
280
     1
  3
BTDETID
360
1000022D
  0
DICTIONARY
  5
1000022F
330
1000022E
100
AcDbDictionary
280
     1
  3
BTDETID
360
10000230
  0
DICTIONARY
  5
10000232
330
10000231
100
AcDbDictionary
280
     1
  3
BTDETID
360
10000233
  0
DICTIONARY
  5
10000235
330
10000234
100
AcDbDictionary
280
     1
  3
BTDETID
360
10000236
  0
DICTIONARY
  5
10000238
330
10000237
100
AcDbDictionary
280
     1
  3
BTDETID
360
10000239
  0
DICTIONARY
  5
1000023B
330
1000023A
100
AcDbDictionary
280
     1
  3
BTDETID
360
1000023C
  0
DICTIONARY
  5
1000023E
330
1000023D
100
AcDbDictionary
280
     1
  3
BTDETID
360
1000023F
  0
DICTIONARY
  5
10000241
330
10000240
100
AcDbDictionary
280
     1
  3
BTDETID
360
10000242
  0
DICTIONARY
  5
10000244
330
10000243
100
AcDbDictionary
280
     1
  3
BTDETID
360
10000245
  0
DICTIONARY
  5
10000247
330
10000246
100
AcDbDictionary
280
     1
  3
BTDETID
360
10000248
  0
DICTIONARY
  5
1000024A
330
10000249
100
AcDbDictionary
280
     1
  3
BTDETID
360
1000024B
  0
DICTIONARY
  5
1000024D
330
1000024C
100
AcDbDictionary
280
     1
  3
BTDETID
360
1000024E
  0
DICTIONARY
  5
10000250
330
1000024F
100
AcDbDictionary
280
     1
  3
BTDETID
360
10000251
  0
DICTIONARY
  5
10000253
330
10000252
100
AcDbDictionary
280
     1
  3
BTDETID
360
10000254
  0
DICTIONARY
  5
10000256
330
10000255
100
AcDbDictionary
280
     1
  3
BTDETID
360
10000257
  0
DICTIONARY
  5
10000259
330
10000258
100
AcDbDictionary
280
     1
  3
BTDETID
360
1000025A
  0
DICTIONARY
  5
1000025C
330
1000025B
100
AcDbDictionary
280
     1
  3
BTDETID
360
1000025D
  0
DICTIONARY
  5
1000025F
330
1000025E
100
AcDbDictionary
280
     1
  3
BTDETID
360
10000260
  0
DICTIONARY
  5
10000262
330
10000261
100
AcDbDictionary
280
     1
  3
BTDETID
360
10000263
  0
DICTIONARY
  5
10000265
330
10000264
100
AcDbDictionary
280
     1
  3
BTDETID
360
10000266
  0
DICTIONARY
  5
10000268
330
10000267
100
AcDbDictionary
280
     1
  3
BTDETID
360
10000269
  0
DICTIONARY
  5
1000026B
330
1000026A
100
AcDbDictionary
280
     1
  3
BTDETID
360
1000026C
  0
DICTIONARY
  5
1000026E
330
1000026D
100
AcDbDictionary
280
     1
  3
BTDETID
360
1000026F
  0
DICTIONARY
  5
10000271
330
10000270
100
AcDbDictionary
280
     1
  3
BTDETID
360
10000272
  0
DICTIONARY
  5
10000274
330
10000273
100
AcDbDictionary
280
     1
  3
BTDETID
360
10000275
  0
DICTIONARY
  5
10000277
330
10000276
100
AcDbDictionary
280
     1
  3
BTDETID
360
10000278
  0
DICTIONARY
  5
1000027A
330
10000279
100
AcDbDictionary
280
     1
  3
BTDETID
360
1000027B
  0
DICTIONARY
  5
1000027D
330
1000027C
100
AcDbDictionary
280
     1
  3
BTDETID
360
1000027E
  0
DICTIONARY
  5
10000280
330
1000027F
100
AcDbDictionary
280
     1
  3
BTDETID
360
10000281
  0
DICTIONARY
  5
10000283
330
10000282
100
AcDbDictionary
280
     1
  3
BTDETID
360
10000284
  0
DICTIONARY
  5
10000286
330
10000285
100
AcDbDictionary
280
     1
  3
BTDETID
360
10000287
  0
DICTIONARY
  5
10000289
330
10000288
100
AcDbDictionary
280
     1
  3
BTDETID
360
1000028A
  0
DICTIONARY
  5
1000028C
330
1000028B
100
AcDbDictionary
280
     1
  3
BTDETID
360
1000028D
  0
DICTIONARY
  5
1000028F
330
1000028E
100
AcDbDictionary
280
     1
  3
BTDETID
360
10000290
  0
DICTIONARY
  5
10000292
330
10000291
100
AcDbDictionary
280
     1
  3
BTDETID
360
10000293
  0
DICTIONARY
  5
10000295
330
10000294
100
AcDbDictionary
280
     1
  3
BTDETID
360
10000296
  0
DICTIONARY
  5
10000298
330
10000297
100
AcDbDictionary
280
     1
  3
BTDETID
360
10000299
  0
DICTIONARY
  5
1000029B
330
1000029A
100
AcDbDictionary
280
     1
  3
BTDETID
360
1000029C
  0
DICTIONARY
  5
1000029E
330
1000029D
100
AcDbDictionary
280
     1
  3
BTDETID
360
1000029F
  0
DICTIONARY
  5
100002A1
330
100002A0
100
AcDbDictionary
280
     1
  3
BTDETID
360
100002A2
  0
DICTIONARY
  5
100002A4
330
100002A3
100
AcDbDictionary
280
     1
  3
BTDETID
360
100002A5
  0
DICTIONARY
  5
100002A7
330
100002A6
100
AcDbDictionary
280
     1
  3
BTDETID
360
100002A8
  0
DICTIONARY
  5
100002AA
330
100002A9
100
AcDbDictionary
280
     1
  3
BTDETID
360
100002AB
  0
DICTIONARY
  5
100002AD
330
100002AC
100
AcDbDictionary
280
     1
  3
BTDETID
360
100002AE
  0
DICTIONARY
  5
100002B0
330
100002AF
100
AcDbDictionary
280
     1
  3
BTDETID
360
100002B1
  0
DICTIONARY
  5
100002B3
330
100002B2
100
AcDbDictionary
280
     1
  3
BTDETID
360
100002B4
  0
DICTIONARY
  5
100002B6
330
100002B5
100
AcDbDictionary
280
     1
  3
BTDETID
360
100002B7
  0
DICTIONARY
  5
100002B9
330
100002B8
100
AcDbDictionary
280
     1
  3
BTDETID
360
100002BA
  0
DICTIONARY
  5
100002BC
330
100002BB
100
AcDbDictionary
280
     1
  3
BTDETID
360
100002BD
  0
DICTIONARY
  5
100002BF
330
100002BE
100
AcDbDictionary
280
     1
  3
BTDETID
360
100002C0
  0
DICTIONARY
  5
100002C2
330
100002C1
100
AcDbDictionary
280
     1
  3
BTDETID
360
100002C3
  0
DICTIONARY
  5
100002C5
330
100002C4
100
AcDbDictionary
280
     1
  3
BTDETID
360
100002C6
  0
DICTIONARY
  5
100002C8
330
100002C7
100
AcDbDictionary
280
     1
  3
BTDETID
360
100002C9
  0
DICTIONARY
  5
100002CB
330
100002CA
100
AcDbDictionary
280
     1
  3
BTDETID
360
100002CC
  0
DICTIONARY
  5
100002CE
330
100002CD
100
AcDbDictionary
280
     1
  3
BTDETID
360
100002CF
  0
DICTIONARY
  5
100002D1
330
100002D0
100
AcDbDictionary
280
     1
  3
BTDETID
360
100002D2
  0
DICTIONARY
  5
100002D4
330
100002D3
100
AcDbDictionary
280
     1
  3
BTDETID
360
100002D5
  0
DICTIONARY
  5
100002D7
330
100002D6
100
AcDbDictionary
280
     1
  3
BTDETID
360
100002D8
  0
DICTIONARY
  5
100002DA
330
100002D9
100
AcDbDictionary
280
     1
  3
BTDETID
360
100002DB
  0
DICTIONARY
  5
100002DD
330
100002DC
100
AcDbDictionary
280
     1
  3
BTDETID
360
100002DE
  0
DICTIONARY
  5
100002E0
330
100002DF
100
AcDbDictionary
280
     1
  3
BTDETID
360
100002E1
  0
DICTIONARY
  5
100002E3
330
100002E2
100
AcDbDictionary
280
     1
  3
BTDETID
360
100002E4
  0
DICTIONARY
  5
100002E6
330
100002E5
100
AcDbDictionary
280
     1
  3
BTDETID
360
100002E7
  0
DICTIONARY
  5
100002E9
330
100002E8
100
AcDbDictionary
280
     1
  3
BTDETID
360
100002EA
  0
DICTIONARY
  5
100002EC
330
100002EB
100
AcDbDictionary
280
     1
  3
BTDETID
360
100002ED
  0
DICTIONARY
  5
100002EF
330
100002EE
100
AcDbDictionary
280
     1
  3
BTDETID
360
100002F0
  0
DICTIONARY
  5
100002F2
330
100002F1
100
AcDbDictionary
280
     1
  3
BTDETID
360
100002F3
  0
DICTIONARY
  5
100002F5
330
100002F4
100
AcDbDictionary
280
     1
  3
BTDETID
360
100002F6
  0
DICTIONARY
  5
100002F8
330
100002F7
100
AcDbDictionary
280
     1
  3
BTDETID
360
100002F9
  0
DICTIONARY
  5
100002FB
330
100002FA
100
AcDbDictionary
280
     1
  3
BTDETID
360
100002FC
  0
DICTIONARY
  5
100002FE
330
100002FD
100
AcDbDictionary
280
     1
  3
BTDETID
360
100002FF
  0
DICTIONARY
  5
10000301
330
10000300
100
AcDbDictionary
280
     1
  3
BTDETID
360
10000302
  0
DICTIONARY
  5
10000304
330
10000303
100
AcDbDictionary
280
     1
  3
BTDETID
360
10000305
  0
DICTIONARY
  5
10000307
330
10000306
100
AcDbDictionary
280
     1
  3
BTDETID
360
10000308
  0
DICTIONARY
  5
1000030A
330
10000309
100
AcDbDictionary
280
     1
  3
BTDETID
360
1000030B
  0
DICTIONARY
  5
1000030D
330
1000030C
100
AcDbDictionary
280
     1
  3
BTDETID
360
1000030E
  0
DICTIONARY
  5
10000310
330
1000030F
100
AcDbDictionary
280
     1
  3
BTDETID
360
10000311
  0
DICTIONARY
  5
10000313
330
10000312
100
AcDbDictionary
280
     1
  3
BTDETID
360
10000314
  0
DICTIONARY
  5
10000316
330
10000315
100
AcDbDictionary
280
     1
  3
BTDETID
360
10000317
  0
DICTIONARY
  5
10000319
330
10000318
100
AcDbDictionary
280
     1
  3
BTDETID
360
1000031A
  0
DICTIONARY
  5
1000031C
330
1000031B
100
AcDbDictionary
280
     1
  3
BTDETID
360
1000031D
  0
DICTIONARY
  5
1000031F
330
1000031E
100
AcDbDictionary
280
     1
  3
BTDETID
360
10000320
  0
DICTIONARY
  5
10000322
330
10000321
100
AcDbDictionary
280
     1
  3
BTDETID
360
10000323
  0
DICTIONARY
  5
10000325
330
10000324
100
AcDbDictionary
280
     1
  3
BTDETID
360
10000326
  0
DICTIONARY
  5
10000328
330
10000327
100
AcDbDictionary
280
     1
  3
BTDETID
360
10000329
  0
DICTIONARY
  5
1000032B
330
1000032A
100
AcDbDictionary
280
     1
  3
BTDETID
360
1000032C
  0
DICTIONARY
  5
1000032E
330
1000032D
100
AcDbDictionary
280
     1
  3
BTDETID
360
1000032F
  0
DICTIONARY
  5
10000331
330
10000330
100
AcDbDictionary
280
     1
  3
BTDETID
360
10000332
  0
DICTIONARY
  5
10000334
330
10000333
100
AcDbDictionary
280
     1
  3
BTDETID
360
10000335
  0
DICTIONARY
  5
10000337
330
10000336
100
AcDbDictionary
280
     1
  3
BTDETID
360
10000338
  0
DICTIONARY
  5
1000033A
330
10000339
100
AcDbDictionary
280
     1
  3
BTDETID
360
1000033B
  0
DICTIONARY
  5
1000033D
330
1000033C
100
AcDbDictionary
280
     1
  3
BTDETID
360
1000033E
  0
DICTIONARY
  5
10000340
330
1000033F
100
AcDbDictionary
280
     1
  3
BTDETID
360
10000341
  0
DICTIONARY
  5
10000343
330
10000342
100
AcDbDictionary
280
     1
  3
BTDETID
360
10000344
  0
DICTIONARY
  5
10000346
330
10000345
100
AcDbDictionary
280
     1
  3
BTDETID
360
10000347
  0
DICTIONARY
  5
10000349
330
10000348
100
AcDbDictionary
280
     1
  3
BTDETID
360
1000034A
  0
DICTIONARY
  5
1000034C
330
1000034B
100
AcDbDictionary
280
     1
  3
BTDETID
360
1000034D
  0
DICTIONARY
  5
1000034F
330
1000034E
100
AcDbDictionary
280
     1
  3
BTDETID
360
10000350
  0
DICTIONARY
  5
10000352
330
10000351
100
AcDbDictionary
280
     1
  3
BTDETID
360
10000353
  0
DICTIONARY
  5
10000355
330
10000354
100
AcDbDictionary
280
     1
  3
BTDETID
360
10000356
  0
DICTIONARY
  5
10000358
330
10000357
100
AcDbDictionary
280
     1
  3
BTDETID
360
10000359
  0
DICTIONARY
  5
1000035B
330
1000035A
100
AcDbDictionary
280
     1
  3
BTDETID
360
1000035C
  0
DICTIONARY
  5
1000035E
330
1000035D
100
AcDbDictionary
280
     1
  3
BTDETID
360
1000035F
  0
DICTIONARY
  5
10000361
330
10000360
100
AcDbDictionary
280
     1
  3
BTDETID
360
10000362
  0
DICTIONARY
  5
10000364
330
10000363
100
AcDbDictionary
280
     1
  3
BTDETID
360
10000365
  0
DICTIONARY
  5
10000367
330
10000366
100
AcDbDictionary
280
     1
  3
BTDETID
360
10000368
  0
DICTIONARY
  5
1000036A
330
10000369
100
AcDbDictionary
280
     1
  3
BTDETID
360
1000036B
  0
DICTIONARY
  5
1000036D
330
1000036C
100
AcDbDictionary
280
     1
  3
BTDETID
360
1000036E
  0
DICTIONARY
  5
10000370
330
1000036F
100
AcDbDictionary
280
     1
  3
BTDETID
360
10000371
  0
DICTIONARY
  5
10000373
330
10000372
100
AcDbDictionary
280
     1
  3
BTDETID
360
10000374
  0
DICTIONARY
  5
10000376
330
10000375
100
AcDbDictionary
280
     1
  3
BTDETID
360
10000377
  0
DICTIONARY
  5
10000379
330
10000378
100
AcDbDictionary
280
     1
  3
BTDETID
360
1000037A
  0
DICTIONARY
  5
1000037C
330
1000037B
100
AcDbDictionary
280
     1
  3
BTDETID
360
1000037D
  0
DICTIONARY
  5
1000037F
330
1000037E
100
AcDbDictionary
280
     1
  3
BTDETID
360
10000380
  0
DICTIONARY
  5
10000382
330
10000381
100
AcDbDictionary
280
     1
  3
BTDETID
360
10000383
  0
DICTIONARY
  5
10000385
330
10000384
100
AcDbDictionary
280
     1
  3
BTDETID
360
10000386
  0
DICTIONARY
  5
10000388
330
10000387
100
AcDbDictionary
280
     1
  3
BTDETID
360
10000389
  0
DICTIONARY
  5
1000038B
330
1000038A
100
AcDbDictionary
280
     1
  3
BTDETID
360
1000038C
  0
DICTIONARY
  5
1000038E
330
1000038D
100
AcDbDictionary
280
     1
  3
BTDETID
360
1000038F
  0
DICTIONARY
  5
10000391
330
10000390
100
AcDbDictionary
280
     1
  3
BTDETID
360
10000392
  0
DICTIONARY
  5
10000394
330
10000393
100
AcDbDictionary
280
     1
  3
BTDETID
360
10000395
  0
DICTIONARY
  5
10000397
330
10000396
100
AcDbDictionary
280
     1
  3
BTDETID
360
10000398
  0
DICTIONARY
  5
1000039A
330
10000399
100
AcDbDictionary
280
     1
  3
BTDETID
360
1000039B
  0
DICTIONARY
  5
1000039D
330
1000039C
100
AcDbDictionary
280
     1
  3
BTDETID
360
1000039E
  0
DICTIONARY
  5
100003A0
330
1000039F
100
AcDbDictionary
280
     1
  3
BTDETID
360
100003A1
  0
DICTIONARY
  5
100003A3
330
100003A2
100
AcDbDictionary
280
     1
  3
BTDETID
360
100003A4
  0
DICTIONARY
  5
100003A6
330
100003A5
100
AcDbDictionary
280
     1
  3
BTDETID
360
100003A7
  0
DICTIONARY
  5
100003A9
330
100003A8
100
AcDbDictionary
280
     1
  3
BTDETID
360
100003AA
  0
DICTIONARY
  5
100003AC
330
100003AB
100
AcDbDictionary
280
     1
  3
BTDETID
360
100003AD
  0
DICTIONARY
  5
100003AF
330
100003AE
100
AcDbDictionary
280
     1
  3
BTDETID
360
100003B0
  0
DICTIONARY
  5
100003B2
330
100003B1
100
AcDbDictionary
280
     1
  3
BTDETID
360
100003B3
  0
DICTIONARY
  5
100003B5
330
100003B4
100
AcDbDictionary
280
     1
  3
BTDETID
360
100003B6
  0
DICTIONARY
  5
100003B8
330
100003B7
100
AcDbDictionary
280
     1
  3
BTDETID
360
100003B9
  0
DICTIONARY
  5
100003BB
330
100003BA
100
AcDbDictionary
280
     1
  3
BTDETID
360
100003BC
  0
DICTIONARY
  5
100003BE
330
100003BD
100
AcDbDictionary
280
     1
  3
BTDETID
360
100003BF
  0
DICTIONARY
  5
100003C1
330
100003C0
100
AcDbDictionary
280
     1
  3
BTDETID
360
100003C2
  0
DICTIONARY
  5
100003C4
330
100003C3
100
AcDbDictionary
280
     1
  3
BTDETID
360
100003C5
  0
DICTIONARY
  5
100003C7
330
100003C6
100
AcDbDictionary
280
     1
  3
BTDETID
360
100003C8
  0
DICTIONARY
  5
100003CA
330
100003C9
100
AcDbDictionary
280
     1
  3
BTDETID
360
100003CB
  0
DICTIONARY
  5
100003CD
330
100003CC
100
AcDbDictionary
280
     1
  3
BTDETID
360
100003CE
  0
DICTIONARY
  5
100003D0
330
100003CF
100
AcDbDictionary
280
     1
  3
BTDETID
360
100003D1
  0
DICTIONARY
  5
100003D3
330
100003D2
100
AcDbDictionary
280
     1
  3
BTDETID
360
100003D4
  0
DICTIONARY
  5
100003D6
330
100003D5
100
AcDbDictionary
280
     1
  3
BTDETID
360
100003D7
  0
DICTIONARY
  5
100003D9
330
100003D8
100
AcDbDictionary
280
     1
  3
BTDETID
360
100003DA
  0
DICTIONARY
  5
100003DC
330
100003DB
100
AcDbDictionary
280
     1
  3
BTDETID
360
100003DD
  0
DICTIONARY
  5
100003DF
330
100003DE
100
AcDbDictionary
280
     1
  3
BTDETID
360
100003E0
  0
DICTIONARY
  5
100003E2
330
100003E1
100
AcDbDictionary
280
     1
  3
BTDETID
360
100003E3
  0
DICTIONARY
  5
100003E5
330
100003E4
100
AcDbDictionary
280
     1
  3
BTDETID
360
100003E6
  0
DICTIONARY
  5
100003E8
330
100003E7
100
AcDbDictionary
280
     1
  3
BTDETID
360
100003E9
  0
DICTIONARY
  5
100003EB
330
100003EA
100
AcDbDictionary
280
     1
  3
BTDETID
360
100003EC
  0
DICTIONARY
  5
100003EE
330
100003ED
100
AcDbDictionary
280
     1
  3
BTDETID
360
100003EF
  0
DICTIONARY
  5
100003F1
330
100003F0
100
AcDbDictionary
280
     1
  3
BTDETID
360
100003F2
  0
DICTIONARY
  5
100003F4
330
100003F3
100
AcDbDictionary
280
     1
  3
BTDETID
360
100003F5
  0
DICTIONARY
  5
100003F7
330
100003F6
100
AcDbDictionary
280
     1
  3
BTDETID
360
100003F8
  0
DICTIONARY
  5
100003FA
330
100003F9
100
AcDbDictionary
280
     1
  3
BTDETID
360
100003FB
  0
DICTIONARY
  5
100003FD
330
100003FC
100
AcDbDictionary
280
     1
  3
BTDETID
360
100003FE
  0
DICTIONARY
  5
10000400
330
100003FF
100
AcDbDictionary
280
     1
  3
BTDETID
360
10000401
  0
DICTIONARY
  5
10000403
330
10000402
100
AcDbDictionary
280
     1
  3
BTDETID
360
10000404
  0
DICTIONARY
  5
10000406
330
10000405
100
AcDbDictionary
280
     1
  3
BTDETID
360
10000407
  0
DICTIONARY
  5
10000409
330
10000408
100
AcDbDictionary
280
     1
  3
BTDETID
360
1000040A
  0
DICTIONARY
  5
1000040C
330
1000040B
100
AcDbDictionary
280
     1
  3
BTDETID
360
1000040D
  0
DICTIONARY
  5
1000040F
330
1000040E
100
AcDbDictionary
280
     1
  3
BTDETID
360
10000410
  0
DICTIONARY
  5
10000412
330
10000411
100
AcDbDictionary
280
     1
  3
BTDETID
360
10000413
  0
DICTIONARY
  5
10000415
330
10000414
100
AcDbDictionary
280
     1
  3
BTDETID
360
10000416
  0
DICTIONARY
  5
10000418
330
10000417
100
AcDbDictionary
280
     1
  3
BTDETID
360
10000419
  0
DICTIONARY
  5
1000041B
330
1000041A
100
AcDbDictionary
280
     1
  3
BTDETID
360
1000041C
  0
DICTIONARY
  5
1000041E
330
1000041D
100
AcDbDictionary
280
     1
  3
BTDETID
360
1000041F
  0
DICTIONARY
  5
10000421
330
10000420
100
AcDbDictionary
280
     1
  3
BTDETID
360
10000422
  0
DICTIONARY
  5
10000424
330
10000423
100
AcDbDictionary
280
     1
  3
BTDETID
360
10000425
  0
DICTIONARY
  5
10000427
330
10000426
100
AcDbDictionary
280
     1
  3
BTDETID
360
10000428
  0
DICTIONARY
  5
D
102
{ACAD_REACTORS
330
C
102
}
330
C
100
AcDbDictionary
  0
DICTIONARY
  5
1A
102
{ACAD_REACTORS
330
C
102
}
330
C
100
AcDbDictionary
  0
DICTIONARY
  5
43
102
{ACAD_REACTORS
330
C
102
}
330
C
100
AcDbDictionary
  3
BYBLOCK
350
45
  3
BYLAYER
350
44
  3
GLOBAL
350
46
  0
DICTIONARY
  5
6B
102
{ACAD_REACTORS
330
C
102
}
330
C
100
AcDbDictionary
  3
STANDARD
350
6C
  0
DICTIONARY
  5
17
102
{ACAD_REACTORS
330
C
102
}
330
C
100
AcDbDictionary
  3
STANDARD
350
18
  0
DICTIONARY
  5
19
102
{ACAD_REACTORS
330
C
102
}
330
C
100
AcDbDictionary
  0
DICTIONARY
  5
47
102
{ACAD_REACTORS
330
C
102
}
330
C
100
AcDbDictionary
  3
SCALE100_1
350
10000023
  3
SCALE10_1
350
1000001D
  3
SCALE12_1
350
1000001E
  3
SCALE16_1
350
1000001F
  3
SCALE1_1
350
10000006
  3
SCALE1_10
350
1000000D
  3
SCALE1_100
350
10000016
  3
SCALE1_12
350
1000000E
  3
SCALE1_16
350
1000000F
  3
SCALE1_2
350
10000007
  3
SCALE1_20
350
10000010
  3
SCALE1_25
350
10000011
  3
SCALE1_3
350
10000008
  3
SCALE1_32
350
10000012
  3
SCALE1_4
350
10000009
  3
SCALE1_40
350
10000013
  3
SCALE1_5
350
1000000A
  3
SCALE1_50
350
10000014
  3
SCALE1_6
350
1000000B
  3
SCALE1_8
350
1000000C
  3
SCALE1_80
350
10000015
  3
SCALE20_1
350
10000020
  3
SCALE2_1
350
10000017
  3
SCALE32_1
350
10000021
  3
SCALE3_1
350
10000018
  3
SCALE4_1
350
10000019
  3
SCALE50_1
350
10000022
  3
SCALE5_1
350
1000001A
  3
SCALE6_1
350
1000001B
  3
SCALE8_1
350
1000001C
  0
DICTIONARY
  5
2A
102
{ACAD_REACTORS
330
C
102
}
330
C
100
AcDbDictionary
  3
2DWIREFRAME
350
2F
  3
BASIC
350
32
  3
BRIGHTEN
350
36
  3
COLORCHANGE
350
3A
  3
CONCEPTUAL
350
34
  3
DIM
350
35
  3
EDGECOLOROFF
350
3D
  3
FACEPATTERN
350
39
  3
FLAT
350
2B
  3
FLATWITHEDGES
350
2C
  3
GOURAUD
350
2D
  3
GOURAUDWITHEDGES
350
2E
  3
HIDDEN
350
31
  3
JITTEROFF
350
3B
  3
LINEPATTERN
350
38
  3
OVERHANGOFF
350
3C
  3
REALISTIC
350
33
  3
SHADED
350
42
  3
SHADED_WITH_EDGES
350
41
  3
SHADES_OF_GRAY
350
3E
  3
SKETCHY
350
3F
  3
THICKEN
350
37
  3
WIREFRAME
350
30
  3
X-RAY
350
40
  0
DICTIONARY
  5
1000042B
102
{ACAD_REACTORS
330
C
102
}
330
C
100
AcDbDictionary
  3
CEPSNID
350
10000435
  3
CEPSNTYPE
350
10000434
  3
DIMSTYLEDATA
350
1000044B
  3
FINGERPRINTGUID
350
10000436
  3
HYPERLINKBASE
350
1000042E
  3
INSUNITS
350
10000433
  3
LAYOUTDICT
350
10000430
  3
LWETCUNION
350
10000432
  3
PLOTSETDICT
350
10000431
  3
PSVPSCALE
350
10000438
  3
PUCSBASE
350
1000043B
  3
PUCSORGBACK
350
10000441
  3
PUCSORGBOTTOM
350
1000043D
  3
PUCSORGFRONT
350
10000440
  3
PUCSORGLEFT
350
1000043E
  3
PUCSORGRIGHT
350
1000043F
  3
PUCSORGTOP
350
1000043C
  3
PUCSORTHOREF
350
10000439
  3
PUCSORTHOVIEW
350
1000043A
  3
STYLESHEET
350
1000042F
  3
TSTACKALIGN
350
1000042C
  3
TSTACKSIZE
350
1000042D
  3
UCSBASE
350
10000444
  3
UCSORGBACK
350
1000044A
  3
UCSORGBOTTOM
350
10000446
  3
UCSORGFRONT
350
10000449
  3
UCSORGLEFT
350
10000447
  3
UCSORGRIGHT
350
10000448
  3
UCSORGTOP
350
10000445
  3
UCSORTHOREF
350
10000442
  3
UCSORTHOVIEW
350
10000443
  3
VERSIONGUID
350
10000437
  0
DICTIONARY
  5
1000044C
102
{ACAD_REACTORS
330
C
102
}
330
C
100
AcDbDictionary
  3
CANNOSCALE
350
10000456
  3
CMLEADERSTYLE
350
1000044E
  3
CTABLESTYLE
350
1000044D
  3
DIMASSOC
350
10000451
  3
HIDETEXT
350
10000452
  3
MSLTSCALE
350
10000457
  0
XRECORD
  5
10000453
102
{ACAD_REACTORS
330
C
102
}
330
C
100
AcDbXrecord
  1
DWGPROPS COOKIE
  2

  3

  4

  6
File was created by BTDwgCreate
  7

  8

  9

300
=
301
=
302
=
303
=
304
=
305
=
306
=
307
=
308
=
309
=
 40
0.0
 41
2460725.201140567
 42
2460725.20114059
  1

 90
        0
  0
DICTIONARY
  5
10000001
102
{ACAD_REACTORS
330
C
102
}
330
C
100
AcDbDictionary
280
     1
  3
DIM_UNITS
360
10000003
  3
DWGGEN_VERSION
360
10000002
  3
FIRST_ANGLE
360
10000005
  0
XRECORD
  5
10000455
102
{ACAD_REACTORS
330
10000454
102
}
330
10000454
100
AcDbXrecord
102
VTR_0.000_0.000_1.000_1.000_VISUALSTYLE
340
2F
102
VTR_0.000_0.000_1.000_1.000_GRIDDISPLAY
 70
     3
102
VTR_0.000_0.000_1.000_1.000_GRIDMAJOR
 70
     5
102
VTR_0.000_0.000_1.000_1.000_DEFAULTLIGHTING
280
     1
102
VTR_0.000_0.000_1.000_1.000_DEFAULTLIGHTINGTYPE
 70
     1
102
VTR_0.000_0.000_1.000_1.000_BRIGHTNESS
141
0.0
102
VTR_0.000_0.000_1.000_1.000_CONTRAST
142
0.0
  0
SORTENTSTABLE
  5
1000042A
102
{ACAD_REACTORS
330
10000429
102
}
330
10000429
100
AcDbSortentsTable
330
1F
  0
XRECORD
  5
10000059
102
{ACAD_REACTORS
330
10000058
102
}
330
10000058
100
AcDbXrecord
1000
KLRU
  0
XRECORD
  5
1000005C
102
{ACAD_REACTORS
330
1000005B
102
}
330
1000005B
100
AcDbXrecord
1000
KLNU
  0
XRECORD
  5
1000005F
102
{ACAD_REACTORS
330
1000005E
102
}
330
1000005E
100
AcDbXrecord
1000
KLJU
  0
XRECORD
  5
10000062
102
{ACAD_REACTORS
330
10000061
102
}
330
10000061
100
AcDbXrecord
1000
KLFU
  0
XRECORD
  5
10000065
102
{ACAD_REACTORS
330
10000064
102
}
330
10000064
100
AcDbXrecord
1000
KLBU
  0
XRECORD
  5
10000068
102
{ACAD_REACTORS
330
10000067
102
}
330
10000067
100
AcDbXrecord
1000
KL9T
  0
XRECORD
  5
1000006B
102
{ACAD_REACTORS
330
1000006A
102
}
330
1000006A
100
AcDbXrecord
1000
KL5T
  0
XRECORD
  5
1000006E
102
{ACAD_REACTORS
330
1000006D
102
}
330
1000006D
100
AcDbXrecord
1000
KL1T
  0
XRECORD
  5
10000071
102
{ACAD_REACTORS
330
10000070
102
}
330
10000070
100
AcDbXrecord
1000
KLxT
  0
XRECORD
  5
10000074
102
{ACAD_REACTORS
330
10000073
102
}
330
10000073
100
AcDbXrecord
1000
KLtT
  0
XRECORD
  5
10000077
102
{ACAD_REACTORS
330
10000076
102
}
330
10000076
100
AcDbXrecord
1000
KLpT
  0
XRECORD
  5
1000007A
102
{ACAD_REACTORS
330
10000079
102
}
330
10000079
100
AcDbXrecord
1000
KLlT
  0
XRECORD
  5
1000007D
102
{ACAD_REACTORS
330
1000007C
102
}
330
1000007C
100
AcDbXrecord
1000
KLhT
  0
XRECORD
  5
10000080
102
{ACAD_REACTORS
330
1000007F
102
}
330
1000007F
100
AcDbXrecord
1000
KLdT
  0
XRECORD
  5
10000083
102
{ACAD_REACTORS
330
10000082
102
}
330
10000082
100
AcDbXrecord
1000
KLZT
  0
XRECORD
  5
10000086
102
{ACAD_REACTORS
330
10000085
102
}
330
10000085
100
AcDbXrecord
1000
KLVT
  0
XRECORD
  5
10000089
102
{ACAD_REACTORS
330
10000088
102
}
330
10000088
100
AcDbXrecord
1000
KLRT
  0
XRECORD
  5
1000008C
102
{ACAD_REACTORS
330
1000008B
102
}
330
1000008B
100
AcDbXrecord
1000
KLNT
  0
XRECORD
  5
1000008F
102
{ACAD_REACTORS
330
1000008E
102
}
330
1000008E
100
AcDbXrecord
1000
KLJT
  0
XRECORD
  5
10000092
102
{ACAD_REACTORS
330
10000091
102
}
330
10000091
100
AcDbXrecord
1000
KLFT
  0
XRECORD
  5
10000095
102
{ACAD_REACTORS
330
10000094
102
}
330
10000094
100
AcDbXrecord
1000
KLBT
  0
XRECORD
  5
10000098
102
{ACAD_REACTORS
330
10000097
102
}
330
10000097
100
AcDbXrecord
1000
KL9S
  0
XRECORD
  5
1000009B
102
{ACAD_REACTORS
330
1000009A
102
}
330
1000009A
100
AcDbXrecord
1000
KL5S
  0
XRECORD
  5
1000009E
102
{ACAD_REACTORS
330
1000009D
102
}
330
1000009D
100
AcDbXrecord
1000
KL1S
  0
XRECORD
  5
100000A1
102
{ACAD_REACTORS
330
100000A0
102
}
330
100000A0
100
AcDbXrecord
1000
KLxS
  0
XRECORD
  5
100000A4
102
{ACAD_REACTORS
330
100000A3
102
}
330
100000A3
100
AcDbXrecord
1000
KLtS
  0
XRECORD
  5
100000A7
102
{ACAD_REACTORS
330
100000A6
102
}
330
100000A6
100
AcDbXrecord
1000
KLpS
  0
XRECORD
  5
100000AA
102
{ACAD_REACTORS
330
100000A9
102
}
330
100000A9
100
AcDbXrecord
1000
KLlS
  0
XRECORD
  5
100000AD
102
{ACAD_REACTORS
330
100000AC
102
}
330
100000AC
100
AcDbXrecord
1000
KLhS
  0
XRECORD
  5
100000B0
102
{ACAD_REACTORS
330
100000AF
102
}
330
100000AF
100
AcDbXrecord
1000
KLdS
  0
XRECORD
  5
100000B3
102
{ACAD_REACTORS
330
100000B2
102
}
330
100000B2
100
AcDbXrecord
1000
KLZS
  0
XRECORD
  5
100000B6
102
{ACAD_REACTORS
330
100000B5
102
}
330
100000B5
100
AcDbXrecord
1000
KLVS
  0
XRECORD
  5
100000B9
102
{ACAD_REACTORS
330
100000B8
102
}
330
100000B8
100
AcDbXrecord
1000
KLRS
  0
XRECORD
  5
100000BC
102
{ACAD_REACTORS
330
100000BB
102
}
330
100000BB
100
AcDbXrecord
1000
KLNS
  0
XRECORD
  5
100000BF
102
{ACAD_REACTORS
330
100000BE
102
}
330
100000BE
100
AcDbXrecord
1000
KLJS
  0
XRECORD
  5
100000C2
102
{ACAD_REACTORS
330
100000C1
102
}
330
100000C1
100
AcDbXrecord
1000
KLFS
  0
XRECORD
  5
100000C5
102
{ACAD_REACTORS
330
100000C4
102
}
330
100000C4
100
AcDbXrecord
1000
KLBS
  0
XRECORD
  5
100000C8
102
{ACAD_REACTORS
330
100000C7
102
}
330
100000C7
100
AcDbXrecord
1000
KL9R
  0
XRECORD
  5
100000CB
102
{ACAD_REACTORS
330
100000CA
102
}
330
100000CA
100
AcDbXrecord
1000
KL5R
  0
XRECORD
  5
100000CE
102
{ACAD_REACTORS
330
100000CD
102
}
330
100000CD
100
AcDbXrecord
1000
KL1R
  0
XRECORD
  5
100000D1
102
{ACAD_REACTORS
330
100000D0
102
}
330
100000D0
100
AcDbXrecord
1000
KLxR
  0
XRECORD
  5
100000D4
102
{ACAD_REACTORS
330
100000D3
102
}
330
100000D3
100
AcDbXrecord
1000
KLtR
  0
XRECORD
  5
100000D7
102
{ACAD_REACTORS
330
100000D6
102
}
330
100000D6
100
AcDbXrecord
1000
KLpR
  0
XRECORD
  5
100000DA
102
{ACAD_REACTORS
330
100000D9
102
}
330
100000D9
100
AcDbXrecord
1000
KLlR
  0
XRECORD
  5
100000DD
102
{ACAD_REACTORS
330
100000DC
102
}
330
100000DC
100
AcDbXrecord
1000
KLhR
  0
XRECORD
  5
100000E0
102
{ACAD_REACTORS
330
100000DF
102
}
330
100000DF
100
AcDbXrecord
1000
KLdR
  0
XRECORD
  5
100000E3
102
{ACAD_REACTORS
330
100000E2
102
}
330
100000E2
100
AcDbXrecord
1000
KLZR
  0
XRECORD
  5
100000E6
102
{ACAD_REACTORS
330
100000E5
102
}
330
100000E5
100
AcDbXrecord
1000
KLVR
  0
XRECORD
  5
100000E9
102
{ACAD_REACTORS
330
100000E8
102
}
330
100000E8
100
AcDbXrecord
1000
KLRR
  0
XRECORD
  5
100000EC
102
{ACAD_REACTORS
330
100000EB
102
}
330
100000EB
100
AcDbXrecord
1000
KLNR
  0
XRECORD
  5
100000EF
102
{ACAD_REACTORS
330
100000EE
102
}
330
100000EE
100
AcDbXrecord
1000
KLJR
  0
XRECORD
  5
100000F2
102
{ACAD_REACTORS
330
100000F1
102
}
330
100000F1
100
AcDbXrecord
1000
KLFR
  0
XRECORD
  5
100000F5
102
{ACAD_REACTORS
330
100000F4
102
}
330
100000F4
100
AcDbXrecord
1000
KLBR
  0
XRECORD
  5
100000F8
102
{ACAD_REACTORS
330
100000F7
102
}
330
100000F7
100
AcDbXrecord
1000
KL9Q
  0
XRECORD
  5
100000FB
102
{ACAD_REACTORS
330
100000FA
102
}
330
100000FA
100
AcDbXrecord
1000
KL5Q
  0
XRECORD
  5
100000FE
102
{ACAD_REACTORS
330
100000FD
102
}
330
100000FD
100
AcDbXrecord
1000
KL1Q
  0
XRECORD
  5
10000101
102
{ACAD_REACTORS
330
10000100
102
}
330
10000100
100
AcDbXrecord
1000
KLxQ
  0
XRECORD
  5
10000104
102
{ACAD_REACTORS
330
10000103
102
}
330
10000103
100
AcDbXrecord
1000
KLtQ
  0
XRECORD
  5
10000107
102
{ACAD_REACTORS
330
10000106
102
}
330
10000106
100
AcDbXrecord
1000
KLpQ
  0
XRECORD
  5
1000010A
102
{ACAD_REACTORS
330
10000109
102
}
330
10000109
100
AcDbXrecord
1000
KLlQ
  0
XRECORD
  5
1000010D
102
{ACAD_REACTORS
330
1000010C
102
}
330
1000010C
100
AcDbXrecord
1000
KLhQ
  0
XRECORD
  5
10000110
102
{ACAD_REACTORS
330
1000010F
102
}
330
1000010F
100
AcDbXrecord
1000
KLdQ
  0
XRECORD
  5
10000113
102
{ACAD_REACTORS
330
10000112
102
}
330
10000112
100
AcDbXrecord
1000
KLZQ
  0
XRECORD
  5
10000116
102
{ACAD_REACTORS
330
10000115
102
}
330
10000115
100
AcDbXrecord
1000
KLVQ
  0
XRECORD
  5
10000119
102
{ACAD_REACTORS
330
10000118
102
}
330
10000118
100
AcDbXrecord
1000
KLRQ
  0
XRECORD
  5
1000011C
102
{ACAD_REACTORS
330
1000011B
102
}
330
1000011B
100
AcDbXrecord
1000
KLNQ
  0
XRECORD
  5
1000011F
102
{ACAD_REACTORS
330
1000011E
102
}
330
1000011E
100
AcDbXrecord
1000
KLJQ
  0
XRECORD
  5
10000122
102
{ACAD_REACTORS
330
10000121
102
}
330
10000121
100
AcDbXrecord
1000
KLFQ
  0
XRECORD
  5
10000125
102
{ACAD_REACTORS
330
10000124
102
}
330
10000124
100
AcDbXrecord
1000
KLBQ
  0
XRECORD
  5
10000128
102
{ACAD_REACTORS
330
10000127
102
}
330
10000127
100
AcDbXrecord
1000
KL9P
  0
XRECORD
  5
1000012B
102
{ACAD_REACTORS
330
1000012A
102
}
330
1000012A
100
AcDbXrecord
1000
KL5P
  0
XRECORD
  5
1000012E
102
{ACAD_REACTORS
330
1000012D
102
}
330
1000012D
100
AcDbXrecord
1000
KL1P
  0
XRECORD
  5
10000131
102
{ACAD_REACTORS
330
10000130
102
}
330
10000130
100
AcDbXrecord
1000
KLxP
  0
XRECORD
  5
10000134
102
{ACAD_REACTORS
330
10000133
102
}
330
10000133
100
AcDbXrecord
1000
KLtP
  0
XRECORD
  5
10000137
102
{ACAD_REACTORS
330
10000136
102
}
330
10000136
100
AcDbXrecord
1000
KLpP
  0
XRECORD
  5
1000013A
102
{ACAD_REACTORS
330
10000139
102
}
330
10000139
100
AcDbXrecord
1000
KLlP
  0
XRECORD
  5
1000013D
102
{ACAD_REACTORS
330
1000013C
102
}
330
1000013C
100
AcDbXrecord
1000
KLhP
  0
XRECORD
  5
10000140
102
{ACAD_REACTORS
330
1000013F
102
}
330
1000013F
100
AcDbXrecord
1000
KLdP
  0
XRECORD
  5
10000143
102
{ACAD_REACTORS
330
10000142
102
}
330
10000142
100
AcDbXrecord
1000
KLZP
  0
XRECORD
  5
10000146
102
{ACAD_REACTORS
330
10000145
102
}
330
10000145
100
AcDbXrecord
1000
KLVP
  0
XRECORD
  5
10000149
102
{ACAD_REACTORS
330
10000148
102
}
330
10000148
100
AcDbXrecord
1000
KLRP
  0
XRECORD
  5
1000014C
102
{ACAD_REACTORS
330
1000014B
102
}
330
1000014B
100
AcDbXrecord
1000
KLNP
  0
XRECORD
  5
1000014F
102
{ACAD_REACTORS
330
1000014E
102
}
330
1000014E
100
AcDbXrecord
1000
KLJP
  0
XRECORD
  5
10000152
102
{ACAD_REACTORS
330
10000151
102
}
330
10000151
100
AcDbXrecord
1000
KLFP
  0
XRECORD
  5
10000155
102
{ACAD_REACTORS
330
10000154
102
}
330
10000154
100
AcDbXrecord
1000
KLBP
  0
XRECORD
  5
10000158
102
{ACAD_REACTORS
330
10000157
102
}
330
10000157
100
AcDbXrecord
1000
KL9O
  0
XRECORD
  5
1000015B
102
{ACAD_REACTORS
330
1000015A
102
}
330
1000015A
100
AcDbXrecord
1000
KL5O
  0
XRECORD
  5
1000015E
102
{ACAD_REACTORS
330
1000015D
102
}
330
1000015D
100
AcDbXrecord
1000
KL1O
  0
XRECORD
  5
10000161
102
{ACAD_REACTORS
330
10000160
102
}
330
10000160
100
AcDbXrecord
1000
KLxO
  0
XRECORD
  5
10000164
102
{ACAD_REACTORS
330
10000163
102
}
330
10000163
100
AcDbXrecord
1000
KLtO
  0
XRECORD
  5
10000167
102
{ACAD_REACTORS
330
10000166
102
}
330
10000166
100
AcDbXrecord
1000
KLpO
  0
XRECORD
  5
1000016A
102
{ACAD_REACTORS
330
10000169
102
}
330
10000169
100
AcDbXrecord
1000
KLlO
  0
XRECORD
  5
1000016D
102
{ACAD_REACTORS
330
1000016C
102
}
330
1000016C
100
AcDbXrecord
1000
KLhO
  0
XRECORD
  5
10000170
102
{ACAD_REACTORS
330
1000016F
102
}
330
1000016F
100
AcDbXrecord
1000
KLdO
  0
XRECORD
  5
10000173
102
{ACAD_REACTORS
330
10000172
102
}
330
10000172
100
AcDbXrecord
1000
KLZO
  0
XRECORD
  5
10000176
102
{ACAD_REACTORS
330
10000175
102
}
330
10000175
100
AcDbXrecord
1000
KLVO
  0
XRECORD
  5
10000179
102
{ACAD_REACTORS
330
10000178
102
}
330
10000178
100
AcDbXrecord
1000
KLRO
  0
XRECORD
  5
1000017C
102
{ACAD_REACTORS
330
1000017B
102
}
330
1000017B
100
AcDbXrecord
1000
KLNO
  0
XRECORD
  5
1000017F
102
{ACAD_REACTORS
330
1000017E
102
}
330
1000017E
100
AcDbXrecord
1000
KLJO
  0
XRECORD
  5
10000182
102
{ACAD_REACTORS
330
10000181
102
}
330
10000181
100
AcDbXrecord
1000
KLFO
  0
XRECORD
  5
10000185
102
{ACAD_REACTORS
330
10000184
102
}
330
10000184
100
AcDbXrecord
1000
KLBO
  0
XRECORD
  5
10000188
102
{ACAD_REACTORS
330
10000187
102
}
330
10000187
100
AcDbXrecord
1000
KL9N
  0
XRECORD
  5
1000018B
102
{ACAD_REACTORS
330
1000018A
102
}
330
1000018A
100
AcDbXrecord
1000
KL5N
  0
XRECORD
  5
1000018E
102
{ACAD_REACTORS
330
1000018D
102
}
330
1000018D
100
AcDbXrecord
1000
KL1N
  0
XRECORD
  5
10000191
102
{ACAD_REACTORS
330
10000190
102
}
330
10000190
100
AcDbXrecord
1000
KLxN
  0
XRECORD
  5
10000194
102
{ACAD_REACTORS
330
10000193
102
}
330
10000193
100
AcDbXrecord
1000
KLtN
  0
XRECORD
  5
10000197
102
{ACAD_REACTORS
330
10000196
102
}
330
10000196
100
AcDbXrecord
1000
KLpN
  0
XRECORD
  5
1000019A
102
{ACAD_REACTORS
330
10000199
102
}
330
10000199
100
AcDbXrecord
1000
KLlN
  0
XRECORD
  5
1000019D
102
{ACAD_REACTORS
330
1000019C
102
}
330
1000019C
100
AcDbXrecord
1000
KLhN
  0
XRECORD
  5
100001A0
102
{ACAD_REACTORS
330
1000019F
102
}
330
1000019F
100
AcDbXrecord
1000
KLdN
  0
XRECORD
  5
100001A3
102
{ACAD_REACTORS
330
100001A2
102
}
330
100001A2
100
AcDbXrecord
1000
KLZN
  0
XRECORD
  5
100001A6
102
{ACAD_REACTORS
330
100001A5
102
}
330
100001A5
100
AcDbXrecord
1000
KLVN
  0
XRECORD
  5
100001A9
102
{ACAD_REACTORS
330
100001A8
102
}
330
100001A8
100
AcDbXrecord
1000
KLRN
  0
XRECORD
  5
100001AC
102
{ACAD_REACTORS
330
100001AB
102
}
330
100001AB
100
AcDbXrecord
1000
KLNN
  0
XRECORD
  5
100001AF
102
{ACAD_REACTORS
330
100001AE
102
}
330
100001AE
100
AcDbXrecord
1000
KLJN
  0
XRECORD
  5
100001B2
102
{ACAD_REACTORS
330
100001B1
102
}
330
100001B1
100
AcDbXrecord
1000
KLFN
  0
XRECORD
  5
100001B5
102
{ACAD_REACTORS
330
100001B4
102
}
330
100001B4
100
AcDbXrecord
1000
KLBN
  0
XRECORD
  5
100001B8
102
{ACAD_REACTORS
330
100001B7
102
}
330
100001B7
100
AcDbXrecord
1000
KL9M
  0
XRECORD
  5
100001BB
102
{ACAD_REACTORS
330
100001BA
102
}
330
100001BA
100
AcDbXrecord
1000
KL5M
  0
XRECORD
  5
100001BE
102
{ACAD_REACTORS
330
100001BD
102
}
330
100001BD
100
AcDbXrecord
1000
KL1M
  0
XRECORD
  5
100001C1
102
{ACAD_REACTORS
330
100001C0
102
}
330
100001C0
100
AcDbXrecord
1000
KLxM
  0
XRECORD
  5
100001C4
102
{ACAD_REACTORS
330
100001C3
102
}
330
100001C3
100
AcDbXrecord
1000
KLtM
  0
XRECORD
  5
100001C7
102
{ACAD_REACTORS
330
100001C6
102
}
330
100001C6
100
AcDbXrecord
1000
KLpM
  0
XRECORD
  5
100001CA
102
{ACAD_REACTORS
330
100001C9
102
}
330
100001C9
100
AcDbXrecord
1000
KLlM
  0
XRECORD
  5
100001CD
102
{ACAD_REACTORS
330
100001CC
102
}
330
100001CC
100
AcDbXrecord
1000
KLhM
  0
XRECORD
  5
100001D0
102
{ACAD_REACTORS
330
100001CF
102
}
330
100001CF
100
AcDbXrecord
1000
KLdM
  0
XRECORD
  5
100001D3
102
{ACAD_REACTORS
330
100001D2
102
}
330
100001D2
100
AcDbXrecord
1000
KLZM
  0
XRECORD
  5
100001D6
102
{ACAD_REACTORS
330
100001D5
102
}
330
100001D5
100
AcDbXrecord
1000
KLVM
  0
XRECORD
  5
100001D9
102
{ACAD_REACTORS
330
100001D8
102
}
330
100001D8
100
AcDbXrecord
1000
KLRM
  0
XRECORD
  5
100001DC
102
{ACAD_REACTORS
330
100001DB
102
}
330
100001DB
100
AcDbXrecord
1000
KLNM
  0
XRECORD
  5
100001DF
102
{ACAD_REACTORS
330
100001DE
102
}
330
100001DE
100
AcDbXrecord
1000
KLJM
  0
XRECORD
  5
100001E2
102
{ACAD_REACTORS
330
100001E1
102
}
330
100001E1
100
AcDbXrecord
1000
KLFM
  0
XRECORD
  5
100001E5
102
{ACAD_REACTORS
330
100001E4
102
}
330
100001E4
100
AcDbXrecord
1000
KLBM
  0
XRECORD
  5
100001E8
102
{ACAD_REACTORS
330
100001E7
102
}
330
100001E7
100
AcDbXrecord
1000
KL9L
  0
XRECORD
  5
100001EB
102
{ACAD_REACTORS
330
100001EA
102
}
330
100001EA
100
AcDbXrecord
1000
KL5L
  0
XRECORD
  5
100001EE
102
{ACAD_REACTORS
330
100001ED
102
}
330
100001ED
100
AcDbXrecord
1000
KL1L
  0
XRECORD
  5
100001F1
102
{ACAD_REACTORS
330
100001F0
102
}
330
100001F0
100
AcDbXrecord
1000
KLxL
  0
XRECORD
  5
100001F4
102
{ACAD_REACTORS
330
100001F3
102
}
330
100001F3
100
AcDbXrecord
1000
KLtL
  0
XRECORD
  5
100001F7
102
{ACAD_REACTORS
330
100001F6
102
}
330
100001F6
100
AcDbXrecord
1000
KLpL
  0
XRECORD
  5
100001FA
102
{ACAD_REACTORS
330
100001F9
102
}
330
100001F9
100
AcDbXrecord
1000
KLlL
  0
XRECORD
  5
100001FD
102
{ACAD_REACTORS
330
100001FC
102
}
330
100001FC
100
AcDbXrecord
1000
KLhL
  0
XRECORD
  5
10000200
102
{ACAD_REACTORS
330
100001FF
102
}
330
100001FF
100
AcDbXrecord
1000
KLdL
  0
XRECORD
  5
10000203
102
{ACAD_REACTORS
330
10000202
102
}
330
10000202
100
AcDbXrecord
1000
KLZL
  0
XRECORD
  5
10000206
102
{ACAD_REACTORS
330
10000205
102
}
330
10000205
100
AcDbXrecord
1000
KLVL
  0
XRECORD
  5
10000209
102
{ACAD_REACTORS
330
10000208
102
}
330
10000208
100
AcDbXrecord
1000
KLRL
  0
XRECORD
  5
1000020C
102
{ACAD_REACTORS
330
1000020B
102
}
330
1000020B
100
AcDbXrecord
1000
KLNL
  0
XRECORD
  5
1000020F
102
{ACAD_REACTORS
330
1000020E
102
}
330
1000020E
100
AcDbXrecord
1000
KLJL
  0
XRECORD
  5
10000212
102
{ACAD_REACTORS
330
10000211
102
}
330
10000211
100
AcDbXrecord
1000
KLFL
  0
XRECORD
  5
10000215
102
{ACAD_REACTORS
330
10000214
102
}
330
10000214
100
AcDbXrecord
1000
KLBL
  0
XRECORD
  5
10000218
102
{ACAD_REACTORS
330
10000217
102
}
330
10000217
100
AcDbXrecord
1000
KL9K
  0
XRECORD
  5
1000021B
102
{ACAD_REACTORS
330
1000021A
102
}
330
1000021A
100
AcDbXrecord
1000
KL5K
  0
XRECORD
  5
1000021E
102
{ACAD_REACTORS
330
1000021D
102
}
330
1000021D
100
AcDbXrecord
1000
KL1K
  0
XRECORD
  5
10000221
102
{ACAD_REACTORS
330
10000220
102
}
330
10000220
100
AcDbXrecord
1000
KLxK
  0
XRECORD
  5
10000224
102
{ACAD_REACTORS
330
10000223
102
}
330
10000223
100
AcDbXrecord
1000
KLtK
  0
XRECORD
  5
10000227
102
{ACAD_REACTORS
330
10000226
102
}
330
10000226
100
AcDbXrecord
1000
KLVU
  0
XRECORD
  5
1000022A
102
{ACAD_REACTORS
330
10000229
102
}
330
10000229
100
AcDbXrecord
1000
KLlK
  0
XRECORD
  5
1000022D
102
{ACAD_REACTORS
330
1000022C
102
}
330
1000022C
100
AcDbXrecord
1000
KLhK
  0
XRECORD
  5
10000230
102
{ACAD_REACTORS
330
1000022F
102
}
330
1000022F
100
AcDbXrecord
1000
KLdK
  0
XRECORD
  5
10000233
102
{ACAD_REACTORS
330
10000232
102
}
330
10000232
100
AcDbXrecord
1000
KLZK
  0
XRECORD
  5
10000236
102
{ACAD_REACTORS
330
10000235
102
}
330
10000235
100
AcDbXrecord
1000
KL1E
  0
XRECORD
  5
10000239
102
{ACAD_REACTORS
330
10000238
102
}
330
10000238
100
AcDbXrecord
1000
KLxE
  0
XRECORD
  5
1000023C
102
{ACAD_REACTORS
330
1000023B
102
}
330
1000023B
100
AcDbXrecord
1000
KLtE
  0
XRECORD
  5
1000023F
102
{ACAD_REACTORS
330
1000023E
102
}
330
1000023E
100
AcDbXrecord
1000
KLpE
  0
XRECORD
  5
10000242
102
{ACAD_REACTORS
330
10000241
102
}
330
10000241
100
AcDbXrecord
1000
KLlE
  0
XRECORD
  5
10000245
102
{ACAD_REACTORS
330
10000244
102
}
330
10000244
100
AcDbXrecord
1000
KLhE
  0
XRECORD
  5
10000248
102
{ACAD_REACTORS
330
10000247
102
}
330
10000247
100
AcDbXrecord
1000
KLdE
  0
XRECORD
  5
1000024B
102
{ACAD_REACTORS
330
1000024A
102
}
330
1000024A
100
AcDbXrecord
1000
KLZE
  0
XRECORD
  5
1000024E
102
{ACAD_REACTORS
330
1000024D
102
}
330
1000024D
100
AcDbXrecord
1000
KLVE
  0
XRECORD
  5
10000251
102
{ACAD_REACTORS
330
10000250
102
}
330
10000250
100
AcDbXrecord
1000
KLRE
  0
XRECORD
  5
10000254
102
{ACAD_REACTORS
330
10000253
102
}
330
10000253
100
AcDbXrecord
1000
KLNE
  0
XRECORD
  5
10000257
102
{ACAD_REACTORS
330
10000256
102
}
330
10000256
100
AcDbXrecord
1000
KLJE
  0
XRECORD
  5
1000025A
102
{ACAD_REACTORS
330
10000259
102
}
330
10000259
100
AcDbXrecord
1000
KLFE
  0
XRECORD
  5
1000025D
102
{ACAD_REACTORS
330
1000025C
102
}
330
1000025C
100
AcDbXrecord
1000
KLBE
  0
XRECORD
  5
10000260
102
{ACAD_REACTORS
330
1000025F
102
}
330
1000025F
100
AcDbXrecord
1000
KL9D
  0
XRECORD
  5
10000263
102
{ACAD_REACTORS
330
10000262
102
}
330
10000262
100
AcDbXrecord
1000
KL5D
  0
XRECORD
  5
10000266
102
{ACAD_REACTORS
330
10000265
102
}
330
10000265
100
AcDbXrecord
1000
KL1D
  0
XRECORD
  5
10000269
102
{ACAD_REACTORS
330
10000268
102
}
330
10000268
100
AcDbXrecord
1000
KLxD
  0
XRECORD
  5
1000026C
102
{ACAD_REACTORS
330
1000026B
102
}
330
1000026B
100
AcDbXrecord
1000
KLtD
  0
XRECORD
  5
1000026F
102
{ACAD_REACTORS
330
1000026E
102
}
330
1000026E
100
AcDbXrecord
1000
KLpD
  0
XRECORD
  5
10000272
102
{ACAD_REACTORS
330
10000271
102
}
330
10000271
100
AcDbXrecord
1000
KLlD
  0
XRECORD
  5
10000275
102
{ACAD_REACTORS
330
10000274
102
}
330
10000274
100
AcDbXrecord
1000
KLhD
  0
XRECORD
  5
10000278
102
{ACAD_REACTORS
330
10000277
102
}
330
10000277
100
AcDbXrecord
1000
KLdD
  0
XRECORD
  5
1000027B
102
{ACAD_REACTORS
330
1000027A
102
}
330
1000027A
100
AcDbXrecord
1000
KLZD
  0
XRECORD
  5
1000027E
102
{ACAD_REACTORS
330
1000027D
102
}
330
1000027D
100
AcDbXrecord
1000
KLVD
  0
XRECORD
  5
10000281
102
{ACAD_REACTORS
330
10000280
102
}
330
10000280
100
AcDbXrecord
1000
KLRD
  0
XRECORD
  5
10000284
102
{ACAD_REACTORS
330
10000283
102
}
330
10000283
100
AcDbXrecord
1000
KLND
  0
XRECORD
  5
10000287
102
{ACAD_REACTORS
330
10000286
102
}
330
10000286
100
AcDbXrecord
1000
KLJD
  0
XRECORD
  5
1000028A
102
{ACAD_REACTORS
330
10000289
102
}
330
10000289
100
AcDbXrecord
1000
KLFD
  0
XRECORD
  5
1000028D
102
{ACAD_REACTORS
330
1000028C
102
}
330
1000028C
100
AcDbXrecord
1000
KLBD
  0
XRECORD
  5
10000290
102
{ACAD_REACTORS
330
1000028F
102
}
330
1000028F
100
AcDbXrecord
1000
KL9C
  0
XRECORD
  5
10000293
102
{ACAD_REACTORS
330
10000292
102
}
330
10000292
100
AcDbXrecord
1000
KL1C
  0
XRECORD
  5
10000296
102
{ACAD_REACTORS
330
10000295
102
}
330
10000295
100
AcDbXrecord
1000
KLxC
  0
XRECORD
  5
10000299
102
{ACAD_REACTORS
330
10000298
102
}
330
10000298
100
AcDbXrecord
1000
KLtC
  0
XRECORD
  5
1000029C
102
{ACAD_REACTORS
330
1000029B
102
}
330
1000029B
100
AcDbXrecord
1000
KLpC
  0
XRECORD
  5
1000029F
102
{ACAD_REACTORS
330
1000029E
102
}
330
1000029E
100
AcDbXrecord
1000
KLlC
  0
XRECORD
  5
100002A2
102
{ACAD_REACTORS
330
100002A1
102
}
330
100002A1
100
AcDbXrecord
1000
KLhC
  0
XRECORD
  5
100002A5
102
{ACAD_REACTORS
330
100002A4
102
}
330
100002A4
100
AcDbXrecord
1000
KLdC
  0
XRECORD
  5
100002A8
102
{ACAD_REACTORS
330
100002A7
102
}
330
100002A7
100
AcDbXrecord
1000
KLZC
  0
XRECORD
  5
100002AB
102
{ACAD_REACTORS
330
100002AA
102
}
330
100002AA
100
AcDbXrecord
1000
KLVC
  0
XRECORD
  5
100002AE
102
{ACAD_REACTORS
330
100002AD
102
}
330
100002AD
100
AcDbXrecord
1000
KLRC
  0
XRECORD
  5
100002B1
102
{ACAD_REACTORS
330
100002B0
102
}
330
100002B0
100
AcDbXrecord
1000
JL9
  0
XRECORD
  5
100002B4
102
{ACAD_REACTORS
330
100002B3
102
}
330
100002B3
100
AcDbXrecord
1000
JL5
  0
XRECORD
  5
100002B7
102
{ACAD_REACTORS
330
100002B6
102
}
330
100002B6
100
AcDbXrecord
1000
JLx
  0
XRECORD
  5
100002BA
102
{ACAD_REACTORS
330
100002B9
102
}
330
100002B9
100
AcDbXrecord
1000
JLt
  0
XRECORD
  5
100002BD
102
{ACAD_REACTORS
330
100002BC
102
}
330
100002BC
100
AcDbXrecord
1000
JLp
  0
XRECORD
  5
100002C0
102
{ACAD_REACTORS
330
100002BF
102
}
330
100002BF
100
AcDbXrecord
1000
JLl
  0
XRECORD
  5
100002C3
102
{ACAD_REACTORS
330
100002C2
102
}
330
100002C2
100
AcDbXrecord
1000
JLh
  0
XRECORD
  5
100002C6
102
{ACAD_REACTORS
330
100002C5
102
}
330
100002C5
100
AcDbXrecord
1000
JLd
  0
XRECORD
  5
100002C9
102
{ACAD_REACTORS
330
100002C8
102
}
330
100002C8
100
AcDbXrecord
1000
JLZ
  0
XRECORD
  5
100002CC
102
{ACAD_REACTORS
330
100002CB
102
}
330
100002CB
100
AcDbXrecord
1000
JLF
  0
XRECORD
  5
100002CF
102
{ACAD_REACTORS
330
100002CE
102
}
330
100002CE
100
AcDbXrecord
1000
JL1
  0
XRECORD
  5
100002D2
102
{ACAD_REACTORS
330
100002D1
102
}
330
100002D1
100
AcDbXrecord
1000
JLB
  0
XRECORD
  5
100002D5
102
{ACAD_REACTORS
330
100002D4
102
}
330
100002D4
100
AcDbXrecord
1000
KLFF
  0
XRECORD
  5
100002D8
102
{ACAD_REACTORS
330
100002D7
102
}
330
100002D7
100
AcDbXrecord
1000
JLJ
  0
XRECORD
  5
100002DB
102
{ACAD_REACTORS
330
100002DA
102
}
330
100002DA
100
AcDbXrecord
1000
JLN
  0
XRECORD
  5
100002DE
102
{ACAD_REACTORS
330
100002DD
102
}
330
100002DD
100
AcDbXrecord
1000
JLR
  0
XRECORD
  5
100002E1
102
{ACAD_REACTORS
330
100002E0
102
}
330
100002E0
100
AcDbXrecord
1000
JLV
  0
XRECORD
  5
100002E4
102
{ACAD_REACTORS
330
100002E3
102
}
330
100002E3
100
AcDbXrecord
1000
KLBB
  0
XRECORD
  5
100002E7
102
{ACAD_REACTORS
330
100002E6
102
}
330
100002E6
100
AcDbXrecord
1000
KLFB
  0
XRECORD
  5
100002EA
102
{ACAD_REACTORS
330
100002E9
102
}
330
100002E9
100
AcDbXrecord
1000
KLJB
  0
XRECORD
  5
100002ED
102
{ACAD_REACTORS
330
100002EC
102
}
330
100002EC
100
AcDbXrecord
1000
KLNB
  0
XRECORD
  5
100002F0
102
{ACAD_REACTORS
330
100002EF
102
}
330
100002EF
100
AcDbXrecord
1000
KLRB
  0
XRECORD
  5
100002F3
102
{ACAD_REACTORS
330
100002F2
102
}
330
100002F2
100
AcDbXrecord
1000
KL5C
  0
XRECORD
  5
100002F6
102
{ACAD_REACTORS
330
100002F5
102
}
330
100002F5
100
AcDbXrecord
1000
KLpK
  0
XRECORD
  5
100002F9
102
{ACAD_REACTORS
330
100002F8
102
}
330
100002F8
100
AcDbXrecord
1000
KLtB
  0
XRECORD
  5
100002FC
102
{ACAD_REACTORS
330
100002FB
102
}
330
100002FB
100
AcDbXrecord
1000
KLhH
  0
XRECORD
  5
100002FF
102
{ACAD_REACTORS
330
100002FE
102
}
330
100002FE
100
AcDbXrecord
1000
KLVB
  0
XRECORD
  5
10000302
102
{ACAD_REACTORS
330
10000301
102
}
330
10000301
100
AcDbXrecord
1000
KLZB
  0
XRECORD
  5
10000305
102
{ACAD_REACTORS
330
10000304
102
}
330
10000304
100
AcDbXrecord
1000
KLdB
  0
XRECORD
  5
10000308
102
{ACAD_REACTORS
330
10000307
102
}
330
10000307
100
AcDbXrecord
1000
KLhB
  0
XRECORD
  5
1000030B
102
{ACAD_REACTORS
330
1000030A
102
}
330
1000030A
100
AcDbXrecord
1000
KLlB
  0
XRECORD
  5
1000030E
102
{ACAD_REACTORS
330
1000030D
102
}
330
1000030D
100
AcDbXrecord
1000
KLpB
  0
XRECORD
  5
10000311
102
{ACAD_REACTORS
330
10000310
102
}
330
10000310
100
AcDbXrecord
1000
KLxB
  0
XRECORD
  5
10000314
102
{ACAD_REACTORS
330
10000313
102
}
330
10000313
100
AcDbXrecord
1000
KL1B
  0
XRECORD
  5
10000317
102
{ACAD_REACTORS
330
10000316
102
}
330
10000316
100
AcDbXrecord
1000
KL5B
  0
XRECORD
  5
1000031A
102
{ACAD_REACTORS
330
10000319
102
}
330
10000319
100
AcDbXrecord
1000
KL9B
  0
XRECORD
  5
1000031D
102
{ACAD_REACTORS
330
1000031C
102
}
330
1000031C
100
AcDbXrecord
1000
KLBC
  0
XRECORD
  5
10000320
102
{ACAD_REACTORS
330
1000031F
102
}
330
1000031F
100
AcDbXrecord
1000
KLFC
  0
XRECORD
  5
10000323
102
{ACAD_REACTORS
330
10000322
102
}
330
10000322
100
AcDbXrecord
1000
KLJC
  0
XRECORD
  5
10000326
102
{ACAD_REACTORS
330
10000325
102
}
330
10000325
100
AcDbXrecord
1000
KLNC
  0
XRECORD
  5
10000329
102
{ACAD_REACTORS
330
10000328
102
}
330
10000328
100
AcDbXrecord
1000
KL5E
  0
XRECORD
  5
1000032C
102
{ACAD_REACTORS
330
1000032B
102
}
330
1000032B
100
AcDbXrecord
1000
KL9E
  0
XRECORD
  5
1000032F
102
{ACAD_REACTORS
330
1000032E
102
}
330
1000032E
100
AcDbXrecord
1000
KLBF
  0
XRECORD
  5
10000332
102
{ACAD_REACTORS
330
10000331
102
}
330
10000331
100
AcDbXrecord
1000
KLJF
  0
XRECORD
  5
10000335
102
{ACAD_REACTORS
330
10000334
102
}
330
10000334
100
AcDbXrecord
1000
KLNF
  0
XRECORD
  5
10000338
102
{ACAD_REACTORS
330
10000337
102
}
330
10000337
100
AcDbXrecord
1000
KLRF
  0
XRECORD
  5
1000033B
102
{ACAD_REACTORS
330
1000033A
102
}
330
1000033A
100
AcDbXrecord
1000
KLVF
  0
XRECORD
  5
1000033E
102
{ACAD_REACTORS
330
1000033D
102
}
330
1000033D
100
AcDbXrecord
1000
KLZF
  0
XRECORD
  5
10000341
102
{ACAD_REACTORS
330
10000340
102
}
330
10000340
100
AcDbXrecord
1000
KLdF
  0
XRECORD
  5
10000344
102
{ACAD_REACTORS
330
10000343
102
}
330
10000343
100
AcDbXrecord
1000
KLhF
  0
XRECORD
  5
10000347
102
{ACAD_REACTORS
330
10000346
102
}
330
10000346
100
AcDbXrecord
1000
KLlF
  0
XRECORD
  5
1000034A
102
{ACAD_REACTORS
330
10000349
102
}
330
10000349
100
AcDbXrecord
1000
KLpF
  0
XRECORD
  5
1000034D
102
{ACAD_REACTORS
330
1000034C
102
}
330
1000034C
100
AcDbXrecord
1000
KLtF
  0
XRECORD
  5
10000350
102
{ACAD_REACTORS
330
1000034F
102
}
330
1000034F
100
AcDbXrecord
1000
KLxF
  0
XRECORD
  5
10000353
102
{ACAD_REACTORS
330
10000352
102
}
330
10000352
100
AcDbXrecord
1000
KL1F
  0
XRECORD
  5
10000356
102
{ACAD_REACTORS
330
10000355
102
}
330
10000355
100
AcDbXrecord
1000
KL5F
  0
XRECORD
  5
10000359
102
{ACAD_REACTORS
330
10000358
102
}
330
10000358
100
AcDbXrecord
1000
KL9F
  0
XRECORD
  5
1000035C
102
{ACAD_REACTORS
330
1000035B
102
}
330
1000035B
100
AcDbXrecord
1000
KLBG
  0
XRECORD
  5
1000035F
102
{ACAD_REACTORS
330
1000035E
102
}
330
1000035E
100
AcDbXrecord
1000
KLFG
  0
XRECORD
  5
10000362
102
{ACAD_REACTORS
330
10000361
102
}
330
10000361
100
AcDbXrecord
1000
KLJG
  0
XRECORD
  5
10000365
102
{ACAD_REACTORS
330
10000364
102
}
330
10000364
100
AcDbXrecord
1000
KLNG
  0
XRECORD
  5
10000368
102
{ACAD_REACTORS
330
10000367
102
}
330
10000367
100
AcDbXrecord
1000
KLRG
  0
XRECORD
  5
1000036B
102
{ACAD_REACTORS
330
1000036A
102
}
330
1000036A
100
AcDbXrecord
1000
KLVG
  0
XRECORD
  5
1000036E
102
{ACAD_REACTORS
330
1000036D
102
}
330
1000036D
100
AcDbXrecord
1000
KLZG
  0
XRECORD
  5
10000371
102
{ACAD_REACTORS
330
10000370
102
}
330
10000370
100
AcDbXrecord
1000
KLdG
  0
XRECORD
  5
10000374
102
{ACAD_REACTORS
330
10000373
102
}
330
10000373
100
AcDbXrecord
1000
KLhG
  0
XRECORD
  5
10000377
102
{ACAD_REACTORS
330
10000376
102
}
330
10000376
100
AcDbXrecord
1000
KLlG
  0
XRECORD
  5
1000037A
102
{ACAD_REACTORS
330
10000379
102
}
330
10000379
100
AcDbXrecord
1000
KLpG
  0
XRECORD
  5
1000037D
102
{ACAD_REACTORS
330
1000037C
102
}
330
1000037C
100
AcDbXrecord
1000
KLtG
  0
XRECORD
  5
10000380
102
{ACAD_REACTORS
330
1000037F
102
}
330
1000037F
100
AcDbXrecord
1000
KLxG
  0
XRECORD
  5
10000383
102
{ACAD_REACTORS
330
10000382
102
}
330
10000382
100
AcDbXrecord
1000
KL1G
  0
XRECORD
  5
10000386
102
{ACAD_REACTORS
330
10000385
102
}
330
10000385
100
AcDbXrecord
1000
KL5G
  0
XRECORD
  5
10000389
102
{ACAD_REACTORS
330
10000388
102
}
330
10000388
100
AcDbXrecord
1000
KL9G
  0
XRECORD
  5
1000038C
102
{ACAD_REACTORS
330
1000038B
102
}
330
1000038B
100
AcDbXrecord
1000
KLBH
  0
XRECORD
  5
1000038F
102
{ACAD_REACTORS
330
1000038E
102
}
330
1000038E
100
AcDbXrecord
1000
KLFH
  0
XRECORD
  5
10000392
102
{ACAD_REACTORS
330
10000391
102
}
330
10000391
100
AcDbXrecord
1000
KLJH
  0
XRECORD
  5
10000395
102
{ACAD_REACTORS
330
10000394
102
}
330
10000394
100
AcDbXrecord
1000
KLNH
  0
XRECORD
  5
10000398
102
{ACAD_REACTORS
330
10000397
102
}
330
10000397
100
AcDbXrecord
1000
KLRH
  0
XRECORD
  5
1000039B
102
{ACAD_REACTORS
330
1000039A
102
}
330
1000039A
100
AcDbXrecord
1000
KLVH
  0
XRECORD
  5
1000039E
102
{ACAD_REACTORS
330
1000039D
102
}
330
1000039D
100
AcDbXrecord
1000
KLZH
  0
XRECORD
  5
100003A1
102
{ACAD_REACTORS
330
100003A0
102
}
330
100003A0
100
AcDbXrecord
1000
KLdH
  0
XRECORD
  5
100003A4
102
{ACAD_REACTORS
330
100003A3
102
}
330
100003A3
100
AcDbXrecord
1000
KLlH
  0
XRECORD
  5
100003A7
102
{ACAD_REACTORS
330
100003A6
102
}
330
100003A6
100
AcDbXrecord
1000
KLpH
  0
XRECORD
  5
100003AA
102
{ACAD_REACTORS
330
100003A9
102
}
330
100003A9
100
AcDbXrecord
1000
KLtH
  0
XRECORD
  5
100003AD
102
{ACAD_REACTORS
330
100003AC
102
}
330
100003AC
100
AcDbXrecord
1000
KLxH
  0
XRECORD
  5
100003B0
102
{ACAD_REACTORS
330
100003AF
102
}
330
100003AF
100
AcDbXrecord
1000
KL1H
  0
XRECORD
  5
100003B3
102
{ACAD_REACTORS
330
100003B2
102
}
330
100003B2
100
AcDbXrecord
1000
KL5H
  0
XRECORD
  5
100003B6
102
{ACAD_REACTORS
330
100003B5
102
}
330
100003B5
100
AcDbXrecord
1000
KL9H
  0
XRECORD
  5
100003B9
102
{ACAD_REACTORS
330
100003B8
102
}
330
100003B8
100
AcDbXrecord
1000
KLBI
  0
XRECORD
  5
100003BC
102
{ACAD_REACTORS
330
100003BB
102
}
330
100003BB
100
AcDbXrecord
1000
KLFI
  0
XRECORD
  5
100003BF
102
{ACAD_REACTORS
330
100003BE
102
}
330
100003BE
100
AcDbXrecord
1000
KLJI
  0
XRECORD
  5
100003C2
102
{ACAD_REACTORS
330
100003C1
102
}
330
100003C1
100
AcDbXrecord
1000
KLNI
  0
XRECORD
  5
100003C5
102
{ACAD_REACTORS
330
100003C4
102
}
330
100003C4
100
AcDbXrecord
1000
KLRI
  0
XRECORD
  5
100003C8
102
{ACAD_REACTORS
330
100003C7
102
}
330
100003C7
100
AcDbXrecord
1000
KLVI
  0
XRECORD
  5
100003CB
102
{ACAD_REACTORS
330
100003CA
102
}
330
100003CA
100
AcDbXrecord
1000
KLZI
  0
XRECORD
  5
100003CE
102
{ACAD_REACTORS
330
100003CD
102
}
330
100003CD
100
AcDbXrecord
1000
KLdI
  0
XRECORD
  5
100003D1
102
{ACAD_REACTORS
330
100003D0
102
}
330
100003D0
100
AcDbXrecord
1000
KLhI
  0
XRECORD
  5
100003D4
102
{ACAD_REACTORS
330
100003D3
102
}
330
100003D3
100
AcDbXrecord
1000
KLlI
  0
XRECORD
  5
100003D7
102
{ACAD_REACTORS
330
100003D6
102
}
330
100003D6
100
AcDbXrecord
1000
KLpI
  0
XRECORD
  5
100003DA
102
{ACAD_REACTORS
330
100003D9
102
}
330
100003D9
100
AcDbXrecord
1000
KLtI
  0
XRECORD
  5
100003DD
102
{ACAD_REACTORS
330
100003DC
102
}
330
100003DC
100
AcDbXrecord
1000
KLxI
  0
XRECORD
  5
100003E0
102
{ACAD_REACTORS
330
100003DF
102
}
330
100003DF
100
AcDbXrecord
1000
KL1I
  0
XRECORD
  5
100003E3
102
{ACAD_REACTORS
330
100003E2
102
}
330
100003E2
100
AcDbXrecord
1000
KL5I
  0
XRECORD
  5
100003E6
102
{ACAD_REACTORS
330
100003E5
102
}
330
100003E5
100
AcDbXrecord
1000
KL9I
  0
XRECORD
  5
100003E9
102
{ACAD_REACTORS
330
100003E8
102
}
330
100003E8
100
AcDbXrecord
1000
KLBJ
  0
XRECORD
  5
100003EC
102
{ACAD_REACTORS
330
100003EB
102
}
330
100003EB
100
AcDbXrecord
1000
KLFJ
  0
XRECORD
  5
100003EF
102
{ACAD_REACTORS
330
100003EE
102
}
330
100003EE
100
AcDbXrecord
1000
KLJJ
  0
XRECORD
  5
100003F2
102
{ACAD_REACTORS
330
100003F1
102
}
330
100003F1
100
AcDbXrecord
1000
KLNJ
  0
XRECORD
  5
100003F5
102
{ACAD_REACTORS
330
100003F4
102
}
330
100003F4
100
AcDbXrecord
1000
KLRJ
  0
XRECORD
  5
100003F8
102
{ACAD_REACTORS
330
100003F7
102
}
330
100003F7
100
AcDbXrecord
1000
KLVJ
  0
XRECORD
  5
100003FB
102
{ACAD_REACTORS
330
100003FA
102
}
330
100003FA
100
AcDbXrecord
1000
KLZJ
  0
XRECORD
  5
100003FE
102
{ACAD_REACTORS
330
100003FD
102
}
330
100003FD
100
AcDbXrecord
1000
KLdJ
  0
XRECORD
  5
10000401
102
{ACAD_REACTORS
330
10000400
102
}
330
10000400
100
AcDbXrecord
1000
KLhJ
  0
XRECORD
  5
10000404
102
{ACAD_REACTORS
330
10000403
102
}
330
10000403
100
AcDbXrecord
1000
KLlJ
  0
XRECORD
  5
10000407
102
{ACAD_REACTORS
330
10000406
102
}
330
10000406
100
AcDbXrecord
1000
KLpJ
  0
XRECORD
  5
1000040A
102
{ACAD_REACTORS
330
10000409
102
}
330
10000409
100
AcDbXrecord
1000
KLtJ
  0
XRECORD
  5
1000040D
102
{ACAD_REACTORS
330
1000040C
102
}
330
1000040C
100
AcDbXrecord
1000
KLxJ
  0
XRECORD
  5
10000410
102
{ACAD_REACTORS
330
1000040F
102
}
330
1000040F
100
AcDbXrecord
1000
KL1J
  0
XRECORD
  5
10000413
102
{ACAD_REACTORS
330
10000412
102
}
330
10000412
100
AcDbXrecord
1000
KL5J
  0
XRECORD
  5
10000416
102
{ACAD_REACTORS
330
10000415
102
}
330
10000415
100
AcDbXrecord
1000
KL9J
  0
XRECORD
  5
10000419
102
{ACAD_REACTORS
330
10000418
102
}
330
10000418
100
AcDbXrecord
1000
KLBK
  0
XRECORD
  5
1000041C
102
{ACAD_REACTORS
330
1000041B
102
}
330
1000041B
100
AcDbXrecord
1000
KLFK
  0
XRECORD
  5
1000041F
102
{ACAD_REACTORS
330
1000041E
102
}
330
1000041E
100
AcDbXrecord
1000
KLJK
  0
XRECORD
  5
10000422
102
{ACAD_REACTORS
330
10000421
102
}
330
10000421
100
AcDbXrecord
1000
KLNK
  0
XRECORD
  5
10000425
102
{ACAD_REACTORS
330
10000424
102
}
330
10000424
100
AcDbXrecord
1000
KLRK
  0
XRECORD
  5
10000428
102
{ACAD_REACTORS
330
10000427
102
}
330
10000427
100
AcDbXrecord
1000
KLVK
  0
MATERIAL
  5
45
102
{ACAD_REACTORS
330
43
102
}
102
{ACAD_XDICTIONARY
360
1000045A
102
}
330
43
100
AcDbMaterial
  1
BYBLOCK
  0
MATERIAL
  5
44
102
{ACAD_REACTORS
330
43
102
}
102
{ACAD_XDICTIONARY
360
10000458
102
}
330
43
100
AcDbMaterial
  1
BYLAYER
  0
MATERIAL
  5
46
102
{ACAD_REACTORS
330
43
102
}
102
{ACAD_XDICTIONARY
360
1000045C
102
}
330
43
100
AcDbMaterial
  1
GLOBAL
  0
ACAD_PROXY_OBJECT
  5
6C
102
{ACAD_REACTORS
330
6B
102
}
330
6B
100
AcDbProxyObject
 90
      499
 91
      505
 93
      610
310
40901902A4063FBFFFFFE056BD1B81E855B9FC0AD7A3703D0AD73F4214DD185B99185C9900AD7A3703D0AC73F90141901A02B5E8DC0F42B1CFC02B5E8DC0F42B1CFE5764000000000000300FC0
340
14
340
0
340
11
340
0
 94
        0
1001
ACAD_MLEADERVER
1070
     2
  0
MLINESTYLE
  5
18
102
{ACAD_REACTORS
330
17
102
}
330
17
100
AcDbMlineStyle
  2
Standard
 70
     0
  3

 62
   256
 51
90.0
 52
90.0
 71
     2
 49
0.5
 62
   256
  6
BYLAYER
 49
-0.5
 62
   256
  6
BYLAYER
  0
ACAD_PROXY_OBJECT
  5
10000023
102
{ACAD_REACTORS
330
47
102
}
330
47
100
AcDbProxyObject
 90
      499
 91
      503
 93
      121
310
9053130303A310000000000001650100
  0
ACAD_PROXY_OBJECT
  5
1000001D
102
{ACAD_REACTORS
330
47
102
}
330
47
100
AcDbProxyObject
 90
      499
 91
      503
 93
      113
310
90431303A310000000000000910100
  0
ACAD_PROXY_OBJECT
  5
1000001E
102
{ACAD_REACTORS
330
47
102
}
330
47
100
AcDbProxyObject
 90
      499
 91
      503
 93
      113
310
90431323A310000000000000A10100
  0
ACAD_PROXY_OBJECT
  5
1000001F
102
{ACAD_REACTORS
330
47
102
}
330
47
100
AcDbProxyObject
 90
      499
 91
      503
 93
      113
310
90431363A310000000000000C10100
  0
ACAD_PROXY_OBJECT
  5
10000006
102
{ACAD_REACTORS
330
47
102
}
330
47
100
AcDbProxyObject
 90
      499
 91
      503
 93
       41
310
903313A31500
  0
ACAD_PROXY_OBJECT
  5
1000000D
102
{ACAD_REACTORS
330
47
102
}
330
47
100
AcDbProxyObject
 90
      499
 91
      503
 93
      113
310
904313A31304000000000000244000
  0
ACAD_PROXY_OBJECT
  5
10000016
102
{ACAD_REACTORS
330
47
102
}
330
47
100
AcDbProxyObject
 90
      499
 91
      503
 93
      121
310
905313A3130304000000000000594000
  0
ACAD_PROXY_OBJECT
  5
1000000E
102
{ACAD_REACTORS
330
47
102
}
330
47
100
AcDbProxyObject
 90
      499
 91
      503
 93
      113
310
904313A31324000000000000284000
  0
ACAD_PROXY_OBJECT
  5
1000000F
102
{ACAD_REACTORS
330
47
102
}
330
47
100
AcDbProxyObject
 90
      499
 91
      503
 93
      113
310
904313A31364000000000000304000
  0
ACAD_PROXY_OBJECT
  5
10000007
102
{ACAD_REACTORS
330
47
102
}
330
47
100
AcDbProxyObject
 90
      499
 91
      503
 93
      105
310
903313A324000000000000004000
  0
ACAD_PROXY_OBJECT
  5
10000010
102
{ACAD_REACTORS
330
47
102
}
330
47
100
AcDbProxyObject
 90
      499
 91
      503
 93
      113
310
904313A32304000000000000344000
  0
ACAD_PROXY_OBJECT
  5
10000011
102
{ACAD_REACTORS
330
47
102
}
330
47
100
AcDbProxyObject
 90
      499
 91
      503
 93
      113
310
904313A32354000000000000394000
  0
ACAD_PROXY_OBJECT
  5
10000008
102
{ACAD_REACTORS
330
47
102
}
330
47
100
AcDbProxyObject
 90
      499
 91
      503
 93
      105
310
903313A334000000000000084000
  0
ACAD_PROXY_OBJECT
  5
10000012
102
{ACAD_REACTORS
330
47
102
}
330
47
100
AcDbProxyObject
 90
      499
 91
      503
 93
      113
310
904313A33324000000000000404000
  0
ACAD_PROXY_OBJECT
  5
10000009
102
{ACAD_REACTORS
330
47
102
}
330
47
100
AcDbProxyObject
 90
      499
 91
      503
 93
      105
310
903313A344000000000000104000
  0
ACAD_PROXY_OBJECT
  5
10000013
102
{ACAD_REACTORS
330
47
102
}
330
47
100
AcDbProxyObject
 90
      499
 91
      503
 93
      113
310
904313A34304000000000000444000
  0
ACAD_PROXY_OBJECT
  5
1000000A
102
{ACAD_REACTORS
330
47
102
}
330
47
100
AcDbProxyObject
 90
      499
 91
      503
 93
      105
310
903313A354000000000000144000
  0
ACAD_PROXY_OBJECT
  5
10000014
102
{ACAD_REACTORS
330
47
102
}
330
47
100
AcDbProxyObject
 90
      499
 91
      503
 93
      113
310
904313A35304000000000000494000
  0
ACAD_PROXY_OBJECT
  5
1000000B
102
{ACAD_REACTORS
330
47
102
}
330
47
100
AcDbProxyObject
 90
      499
 91
      503
 93
      105
310
903313A364000000000000184000
  0
ACAD_PROXY_OBJECT
  5
1000000C
102
{ACAD_REACTORS
330
47
102
}
330
47
100
AcDbProxyObject
 90
      499
 91
      503
 93
      105
310
903313A384000000000000204000
  0
ACAD_PROXY_OBJECT
  5
10000015
102
{ACAD_REACTORS
330
47
102
}
330
47
100
AcDbProxyObject
 90
      499
 91
      503
 93
      113
310
904313A38304000000000000544000
  0
ACAD_PROXY_OBJECT
  5
10000020
102
{ACAD_REACTORS
330
47
102
}
330
47
100
AcDbProxyObject
 90
      499
 91
      503
 93
      113
310
90432303A310000000000000D10100
  0
ACAD_PROXY_OBJECT
  5
10000017
102
{ACAD_REACTORS
330
47
102
}
330
47
100
AcDbProxyObject
 90
      499
 91
      503
 93
      105
310
903323A310000000000000010100
  0
ACAD_PROXY_OBJECT
  5
10000021
102
{ACAD_REACTORS
330
47
102
}
330
47
100
AcDbProxyObject
 90
      499
 91
      503
 93
      113
310
90433323A310000000000001010100
  0
ACAD_PROXY_OBJECT
  5
10000018
102
{ACAD_REACTORS
330
47
102
}
330
47
100
AcDbProxyObject
 90
      499
 91
      503
 93
      105
310
903333A310000000000000210100
  0
ACAD_PROXY_OBJECT
  5
10000019
102
{ACAD_REACTORS
330
47
102
}
330
47
100
AcDbProxyObject
 90
      499
 91
      503
 93
      105
310
903343A310000000000000410100
  0
ACAD_PROXY_OBJECT
  5
10000022
102
{ACAD_REACTORS
330
47
102
}
330
47
100
AcDbProxyObject
 90
      499
 91
      503
 93
      113
310
90435303A310000000000001250100
  0
ACAD_PROXY_OBJECT
  5
1000001A
102
{ACAD_REACTORS
330
47
102
}
330
47
100
AcDbProxyObject
 90
      499
 91
      503
 93
      105
310
903353A310000000000000510100
  0
ACAD_PROXY_OBJECT
  5
1000001B
102
{ACAD_REACTORS
330
47
102
}
330
47
100
AcDbProxyObject
 90
      499
 91
      503
 93
      105
310
903363A310000000000000610100
  0
ACAD_PROXY_OBJECT
  5
1000001C
102
{ACAD_REACTORS
330
47
102
}
330
47
100
AcDbProxyObject
 90
      499
 91
      503
 93
      105
310
903383A310000000000000810100
  0
ACAD_PROXY_OBJECT
  5
2F
102
{ACAD_REACTORS
330
2A
102
}
330
2A
100
AcDbProxyObject
 90
      499
 91
      501
 93
      436
310
42CC9915DA5C99599C985B595049028333333333333E33F0000000000000F90107901411070040501600405405064090741402480A0340
1001
ACAD
1000
AcDbSavedByObjectVersion
1070
     0
  0
ACAD_PROXY_OBJECT
  5
32
102
{ACAD_REACTORS
330
2A
102
}
330
2A
100
AcDbProxyObject
 90
      499
 91
      501
 93
      388
310
4150985CDA58D07406404333333333333E33F0000000000000F90107A41107004050150841D405064090741402480A0350
1001
ACAD
1000
AcDbSavedByObjectVersion
1070
     0
  0
ACAD_PROXY_OBJECT
  5
36
102
{ACAD_REACTORS
330
2A
102
}
330
2A
100
AcDbProxyObject
 90
      499
 91
      501
 93
      428
310
42109C9A59DA1D195B90C409028333333333333E33F0000000000000F9010790141107004050150841D405064090741402480A029950
1001
ACAD
1000
AcDbSavedByObjectVersion
1070
     0
  0
ACAD_PROXY_OBJECT
  5
3A
102
{ACAD_REACTORS
330
2A
102
}
330
2A
100
AcDbProxyObject
 90
      499
 91
      501
 93
      452
310
42D0DBDB1BDC90DA185B99D95104090240C333333333333E33F0000000000000F90108901411070040501508421405064090741402480A0350
1001
ACAD
1000
AcDbSavedByObjectVersion
1070
     0
  0
ACAD_PROXY_OBJECT
  5
34
102
{ACAD_REACTORS
330
2A
102
}
330
2A
100
AcDbProxyObject
 90
      499
 91
      501
 93
      500
310
4290DBDB98D95C1D1D585B10940D028333333333333E33F0000000000000F90107902409070040501000000000018199010841D405064090740C02480A0340
1001
ACAD
1000
AcDbSavedByObjectVersion
1070
     0
  0
ACAD_PROXY_OBJECT
  5
35
102
{ACAD_REACTORS
330
2A
102
}
330
2A
100
AcDbProxyObject
 90
      499
 91
      501
 93
      412
310
40D11A5B50B409028333333333333E33F0000000000000F9010790141107004050150841D405064090741402480A02677FFFFFD0
1001
ACAD
1000
AcDbSavedByObjectVersion
1070
     0
  0
ACAD_PROXY_OBJECT
  5
3D
102
{ACAD_REACTORS
330
2A
102
}
330
2A
100
AcDbProxyObject
 90
      499
 91
      501
 93
      452
310
43115919D950DBDB1BDC93D999916409028333333333333E33F0000000000000F9010790141107004050150841D405064090741402480A0350
1001
ACAD
1000
AcDbSavedByObjectVersion
1070
     0
  0
ACAD_PROXY_OBJECT
  5
39
102
{ACAD_REACTORS
330
2A
102
}
330
2A
100
AcDbProxyObject
 90
      499
 91
      501
 93
      444
310
42D19858D95C185D1D195C9B90F409028333333333333E33F0000000000000F9010790141107004050150841D405064090741402480A0350
1001
ACAD
1000
AcDbSavedByObjectVersion
1070
     0
  0
ACAD_PROXY_OBJECT
  5
2B
102
{ACAD_REACTORS
330
2A
102
}
330
2A
100
AcDbProxyObject
 90
      499
 91
      501
 93
      380
310
41119B185D240901404333333333333E33F0000000000000F9010740A907004050150841D405064090741402480A1B50
1001
ACAD
1000
AcDbSavedByObjectVersion
1070
     0
  0
ACAD_PROXY_OBJECT
  5
2C
102
{ACAD_REACTORS
330
2A
102
}
330
2A
100
AcDbProxyObject
 90
      499
 91
      501
 93
      468
310
43519B185D15DA5D1A115919D95CD0140901404333333333333E33F0000000000000F90107409019070040501600405405064090741402480A1B50
1001
ACAD
1000
AcDbSavedByObjectVersion
1070
     0
  0
ACAD_PROXY_OBJECT
  5
2D
102
{ACAD_REACTORS
330
2A
102
}
330
2A
100
AcDbProxyObject
 90
      499
 91
      501
 93
      404
310
41D1DBDD5C985D5910240902404333333333333E33F0000000000000F9010740A9070040501641D405064090741402480A1B50
1001
ACAD
1000
AcDbSavedByObjectVersion
1070
     0
  0
ACAD_PROXY_OBJECT
  5
2E
102
{ACAD_REACTORS
330
2A
102
}
330
2A
100
AcDbProxyObject
 90
      499
 91
      501
 93
      492
310
4411DBDD5C985D5915DA5D1A115919D95CD0340902404333333333333E33F0000000000000F90107409019070040501600405405064090741402480A1B50
1001
ACAD
1000
AcDbSavedByObjectVersion
1070
     0
  0
ACAD_PROXY_OBJECT
  5
31
102
{ACAD_REACTORS
330
2A
102
}
330
2A
100
AcDbProxyObject
 90
      499
 91
      501
 93
      476
310
41921A5919195B90640502408333333333333E33F0000000000000F901079024090700405020000000000001110200405405064090740C02480A0340
1001
ACAD
1000
AcDbSavedByObjectVersion
1070
     0
  0
ACAD_PROXY_OBJECT
  5
3B
102
{ACAD_REACTORS
330
2A
102
}
330
2A
100
AcDbProxyObject
 90
      499
 91
      501
 93
      428
310
42529A5D1D195C93D999914409028333333333333E33F0000000000000F9010790141107004050150A41D405064090741402480A0350
1001
ACAD
1000
AcDbSavedByObjectVersion
1070
     0
  0
ACAD_PROXY_OBJECT
  5
38
102
{ACAD_REACTORS
330
2A
102
}
330
2A
100
AcDbProxyObject
 90
      499
 91
      501
 93
      444
310
42D31A5B995C185D1D195C9B90E409028333333333333E33F0000000000000F9010790141107004050750841D405064090741402483A0350
1001
ACAD
1000
AcDbSavedByObjectVersion
1070
     0
  0
ACAD_PROXY_OBJECT
  5
3C
102
{ACAD_REACTORS
330
2A
102
}
330
2A
100
AcDbProxyObject
 90
      499
 91
      501
 93
      444
310
42D3DD995C9A185B99D3D999915409028333333333333E33F0000000000000F9010790141107004050150941D405064090741402480A0350
1001
ACAD
1000
AcDbSavedByObjectVersion
1070
     0
  0
ACAD_PROXY_OBJECT
  5
33
102
{ACAD_REACTORS
330
2A
102
}
330
2A
100
AcDbProxyObject
 90
      499
 91
      501
 93
      428
310
425499585B1A5CDD1A58D08409038333333333333E33F0000000000000F9010740A907004050150800405405064090740C02480A1B40
1001
ACAD
1000
AcDbSavedByObjectVersion
1070
     0
  0
ACAD_PROXY_OBJECT
  5
42
102
{ACAD_REACTORS
330
2A
102
}
330
2A
100
AcDbProxyObject
 90
      499
 91
      501
 93
      420
310
4194DA1859195911B40902404333333333333E33F0000000000000F9010740A41107004050150800405405064090840C02480A0B40
1001
ACAD
1000
AcDbSavedByObjectVersion
1070
     0
  0
ACAD_PROXY_OBJECT
  5
41
102
{ACAD_REACTORS
330
2A
102
}
330
2A
100
AcDbProxyObject
 90
      499
 91
      501
 93
      516
310
4454DA18591959081DDA5D1A08195919D95CD1A40902404333333333333E33F0000000000000F901074090142907004050250800405405064090740C02480A0B40
1001
ACAD
1000
AcDbSavedByObjectVersion
1070
     0
  0
ACAD_PROXY_OBJECT
  5
3E
102
{ACAD_REACTORS
330
2A
102
}
330
2A
100
AcDbProxyObject
 90
      499
 91
      501
 93
      532
310
4394DA1859195CC81BD98811DC985E5174090240C333333333333E33F0000000000000F901079024090741D01000000000000111010841D405064090740C02480A0340
1001
ACAD
1000
AcDbSavedByObjectVersion
1070
     0
  0
ACAD_PROXY_OBJECT
  5
3F
102
{ACAD_REACTORS
330
2A
102
}
330
2A
100
AcDbProxyObject
 90
      499
 91
      501
 93
      476
310
41D4DAD95D18DA1E51840502408333333333333E33F0000000000000F901079024090741D01000000000000111010B41D405064090741802480A0340
1001
ACAD
1000
AcDbSavedByObjectVersion
1070
     0
  0
ACAD_PROXY_OBJECT
  5
37
102
{ACAD_REACTORS
330
2A
102
}
330
2A
100
AcDbProxyObject
 90
      499
 91
      501
 93
      412
310
41D51A1A58DAD95B90D409028333333333333E33F0000000000000F9010790141107004050150C41D405064090741402480A0350
1001
ACAD
1000
AcDbSavedByObjectVersion
1070
     0
  0
ACAD_PROXY_OBJECT
  5
30
102
{ACAD_REACTORS
330
2A
102
}
330
2A
100
AcDbProxyObject
 90
      499
 91
      501
 93
      420
310
4255DA5C99599C985B595059028333333333333E33F0000000000000F90107901411070040501600405405064090740C02480A0340
1001
ACAD
1000
AcDbSavedByObjectVersion
1070
     0
  0
ACAD_PROXY_OBJECT
  5
40
102
{ACAD_REACTORS
330
2A
102
}
330
2A
100
AcDbProxyObject
 90
      499
 91
      501
 93
      404
310
41560B54985E51940902404000000000000E03F0000000000000F9010740501907004050150841D405064090740C02480A1B40
1001
ACAD
1000
AcDbSavedByObjectVersion
1070
     0
  0
XRECORD
  5
10000435
102
{ACAD_REACTORS
330
1000042B
102
}
330
1000042B
100
AcDbXrecord
340
0
  0
XRECORD
  5
10000434
102
{ACAD_REACTORS
330
1000042B
102
}
330
1000042B
100
AcDbXrecord
 90
        0
  0
XRECORD
  5
1000044B
102
{ACAD_REACTORS
330
1000042B
102
}
330
1000042B
100
AcDbXrecord
1000
DSTYLE
1002
{
1070
   340
340
11
1002
}
  0
XRECORD
  5
10000436
102
{ACAD_REACTORS
330
1000042B
102
}
330
1000042B
100
AcDbXrecord
  1
{62773439-7575-3177-3972-307530373337}
  0
XRECORD
  5
1000042E
102
{ACAD_REACTORS
330
1000042B
102
}
330
1000042B
100
AcDbXrecord
  1

  0
XRECORD
  5
10000433
102
{ACAD_REACTORS
330
1000042B
102
}
330
1000042B
100
AcDbXrecord
 90
        1
  0
XRECORD
  5
10000430
102
{ACAD_REACTORS
330
1000042B
102
}
330
1000042B
100
AcDbXrecord
340
1A
  0
XRECORD
  5
10000432
102
{ACAD_REACTORS
330
1000042B
102
}
330
1000042B
100
AcDbXrecord
 90
    10781
  0
XRECORD
  5
10000431
102
{ACAD_REACTORS
330
1000042B
102
}
330
1000042B
100
AcDbXrecord
340
19
  0
XRECORD
  5
10000438
102
{ACAD_REACTORS
330
1000042B
102
}
330
1000042B
100
AcDbXrecord
 40
0.0
  0
XRECORD
  5
1000043B
102
{ACAD_REACTORS
330
1000042B
102
}
330
1000042B
100
AcDbXrecord
340
0
  0
XRECORD
  5
10000441
102
{ACAD_REACTORS
330
1000042B
102
}
330
1000042B
100
AcDbXrecord
 10
0.0
 20
0.0
 30
0.0
  0
XRECORD
  5
1000043D
102
{ACAD_REACTORS
330
1000042B
102
}
330
1000042B
100
AcDbXrecord
 10
0.0
 20
0.0
 30
0.0
  0
XRECORD
  5
10000440
102
{ACAD_REACTORS
330
1000042B
102
}
330
1000042B
100
AcDbXrecord
 10
0.0
 20
0.0
 30
0.0
  0
XRECORD
  5
1000043E
102
{ACAD_REACTORS
330
1000042B
102
}
330
1000042B
100
AcDbXrecord
 10
0.0
 20
0.0
 30
0.0
  0
XRECORD
  5
1000043F
102
{ACAD_REACTORS
330
1000042B
102
}
330
1000042B
100
AcDbXrecord
 10
0.0
 20
0.0
 30
0.0
  0
XRECORD
  5
1000043C
102
{ACAD_REACTORS
330
1000042B
102
}
330
1000042B
100
AcDbXrecord
 10
0.0
 20
0.0
 30
0.0
  0
XRECORD
  5
10000439
102
{ACAD_REACTORS
330
1000042B
102
}
330
1000042B
100
AcDbXrecord
340
0
  0
XRECORD
  5
1000043A
102
{ACAD_REACTORS
330
1000042B
102
}
330
1000042B
100
AcDbXrecord
 70
     0
  0
XRECORD
  5
1000042F
102
{ACAD_REACTORS
330
1000042B
102
}
330
1000042B
100
AcDbXrecord
  1

  0
XRECORD
  5
1000042C
102
{ACAD_REACTORS
330
1000042B
102
}
330
1000042B
100
AcDbXrecord
 90
        1
  0
XRECORD
  5
1000042D
102
{ACAD_REACTORS
330
1000042B
102
}
330
1000042B
100
AcDbXrecord
 90
       70
  0
XRECORD
  5
10000444
102
{ACAD_REACTORS
330
1000042B
102
}
330
1000042B
100
AcDbXrecord
340
0
  0
XRECORD
  5
1000044A
102
{ACAD_REACTORS
330
1000042B
102
}
330
1000042B
100
AcDbXrecord
 10
0.0
 20
0.0
 30
0.0
  0
XRECORD
  5
10000446
102
{ACAD_REACTORS
330
1000042B
102
}
330
1000042B
100
AcDbXrecord
 10
0.0
 20
0.0
 30
0.0
  0
XRECORD
  5
10000449
102
{ACAD_REACTORS
330
1000042B
102
}
330
1000042B
100
AcDbXrecord
 10
0.0
 20
0.0
 30
0.0
  0
XRECORD
  5
10000447
102
{ACAD_REACTORS
330
1000042B
102
}
330
1000042B
100
AcDbXrecord
 10
0.0
 20
0.0
 30
0.0
  0
XRECORD
  5
10000448
102
{ACAD_REACTORS
330
1000042B
102
}
330
1000042B
100
AcDbXrecord
 10
0.0
 20
0.0
 30
0.0
  0
XRECORD
  5
10000445
102
{ACAD_REACTORS
330
1000042B
102
}
330
1000042B
100
AcDbXrecord
 10
0.0
 20
0.0
 30
0.0
  0
XRECORD
  5
10000442
102
{ACAD_REACTORS
330
1000042B
102
}
330
1000042B
100
AcDbXrecord
340
0
  0
XRECORD
  5
10000443
102
{ACAD_REACTORS
330
1000042B
102
}
330
1000042B
100
AcDbXrecord
 70
     0
  0
XRECORD
  5
10000437
102
{ACAD_REACTORS
330
1000042B
102
}
330
1000042B
100
AcDbXrecord
  1
{FAEB1C32-E019-11D5-929B-00C0DF256EC4}
  0
DICTIONARYVAR
  5
10000456
102
{ACAD_REACTORS
330
1000044C
102
}
330
1000044C
100
DictionaryVariables
280
     0
  1
1:1
  0
DICTIONARYVAR
  5
1000044E
102
{ACAD_REACTORS
330
1000044C
102
}
330
1000044C
100
DictionaryVariables
280
     0
  1
Standard
  0
DICTIONARYVAR
  5
1000044D
102
{ACAD_REACTORS
330
1000044C
102
}
330
1000044C
100
DictionaryVariables
280
     0
  1
Standard
  0
DICTIONARYVAR
  5
10000451
102
{ACAD_REACTORS
330
1000044C
102
}
330
1000044C
100
DictionaryVariables
280
     0
  1
2
  0
DICTIONARYVAR
  5
10000452
102
{ACAD_REACTORS
330
1000044C
102
}
330
1000044C
100
DictionaryVariables
280
     0
  1
1
  0
DICTIONARYVAR
  5
10000457
102
{ACAD_REACTORS
330
1000044C
102
}
330
1000044C
100
DictionaryVariables
280
     0
  1
1
  0
XRECORD
  5
10000003
102
{ACAD_REACTORS
330
10000001
102
}
330
10000001
100
AcDbXrecord
 70
     1
  0
XRECORD
  5
10000002
102
{ACAD_REACTORS
330
10000001
102
}
330
10000001
100
AcDbXrecord
1040
89.0
  0
ACAD_PROXY_OBJECT
  5
10000005
102
{ACAD_REACTORS
330
10000001
102
}
330
10000001
100
AcDbProxyObject
 90
      499
 91
      509
 93
       34
310
40C8804000
  0
DICTIONARY
  5
1000045A
330
45
100
AcDbDictionary
280
     1
  3
ACAD_XREC_ROUNDTRIP
360
1000045B
  0
DICTIONARY
  5
10000458
330
44
100
AcDbDictionary
280
     1
  3
ACAD_XREC_ROUNDTRIP
360
10000459
  0
DICTIONARY
  5
1000045C
330
46
100
AcDbDictionary
280
     1
  3
ACAD_XREC_ROUNDTRIP
360
1000045D
  0
XRECORD
  5
1000045B
102
{ACAD_REACTORS
330
1000045A
102
}
330
1000045A
100
AcDbXrecord
102
MATERIAL
148
0.0
149
0.0
149
0.0
 93
        0
 94
      127
282
     0
 72
     1
 77
     1
171
     1
175
     1
179
     1
273
     0
  0
XRECORD
  5
10000459
102
{ACAD_REACTORS
330
10000458
102
}
330
10000458
100
AcDbXrecord
102
MATERIAL
148
0.0
149
0.0
149
0.0
 93
        0
 94
      127
282
     0
 72
     1
 77
     1
171
     1
175
     1
179
     1
273
     0
  0
XRECORD
  5
1000045D
102
{ACAD_REACTORS
330
1000045C
102
}
330
1000045C
100
AcDbXrecord
102
MATERIAL
148
0.0
149
0.0
149
0.0
 93
        0
 94
      127
282
     0
 72
     1
 77
     1
171
     1
175
     1
179
     1
273
     0
  0
ENDSEC
  0
EOF
