  0
SECTION
  2
HEADER
  9
$ACADVER
  1
AC1015
  9
$ACADMAINTVER
 70
     6
  9
$DWGCODEPAGE
  3
ANSI_1252
  9
$INSBASE
 10
0.0
 20
0.0
 30
0.0
  9
$EXTMIN
 10
-2.5199705606
 20
-2.5263300896
 30
0.0
  9
$EXTMAX
 10
2.51997056
 20
2.4874403896
 30
0.0
  9
$LIMMIN
 10
0.0
 20
0.0
  9
$LIMMAX
 10
420.0
 20
297.0
  9
$ORTHOMODE
 70
     0
  9
$REGENMODE
 70
     1
  9
$FILLMODE
 70
     1
  9
$QTEXTMODE
 70
     0
  9
$MIRRTEXT
 70
     1
  9
$LTSCALE
 40
1.0
  9
$ATTMODE
 70
     1
  9
$TEXTSIZE
 40
0.35
  9
$TRACEWID
 40
1.0
  9
$TEXTSTYLE
  7
Standard
  9
$CLAYER
  8
0
  9
$CELTYPE
  6
ByLayer
  9
$CECOLOR
 62
   256
  9
$CELTSCALE
 40
1.0
  9
$DISPSILH
 70
     0
  9
$DIMSCALE
 40
1.0
  9
$DIMASZ
 40
0.3302
  9
$DIMEXO
 40
0.0
  9
$DIMDLI
 40
3.75
  9
$DIMRND
 40
0.0
  9
$DIMDLE
 40
0.0
  9
$DIMEXE
 40
0.3175
  9
$DIMTP
 40
0.0
  9
$DIMTM
 40
0.0
  9
$DIMTXT
 40
0.35
  9
$DIMCEN
 40
2.5
  9
$DIMTSZ
 40
0.0
  9
$DIMTOL
 70
     0
  9
$DIMLIM
 70
     0
  9
$DIMTIH
 70
     1
  9
$DIMTOH
 70
     1
  9
$DIMSE1
 70
     0
  9
$DIMSE2
 70
     0
  9
$DIMTAD
 70
     1
  9
$DIMZIN
 70
     1
  9
$DIMBLK
  1

  9
$DIMASO
 70
     1
  9
$DIMSHO
 70
     1
  9
$DIMPOST
  1

  9
$DIMAPOST
  1

  9
$DIMALT
 70
     0
  9
$DIMALTD
 70
     3
  9
$DIMALTF
 40
0.3937007874
  9
$DIMLFAC
 40
1.0
  9
$DIMTOFL
 70
     1
  9
$DIMTVP
 40
0.0
  9
$DIMTIX
 70
     0
  9
$DIMSOXD
 70
     0
  9
$DIMSAH
 70
     0
  9
$DIMBLK1
  1

  9
$DIMBLK2
  1

  9
$DIMSTYLE
  2
ISO-25
  9
$DIMCLRD
 70
     0
  9
$DIMCLRE
 70
     0
  9
$DIMCLRT
 70
     0
  9
$DIMTFAC
 40
1.0
  9
$DIMGAP
 40
0.1524
  9
$DIMJUST
 70
     0
  9
$DIMSD1
 70
     0
  9
$DIMSD2
 70
     0
  9
$DIMTOLJ
 70
     0
  9
$DIMTZIN
 70
     1
  9
$DIMALTZ
 70
     0
  9
$DIMALTTZ
 70
     0
  9
$DIMUPT
 70
     0
  9
$DIMDEC
 70
     2
  9
$DIMTDEC
 70
     2
  9
$DIMALTU
 70
     2
  9
$DIMALTTD
 70
     3
  9
$DIMTXSTY
  7
Standard
  9
$DIMAUNIT
 70
     0
  9
$DIMADEC
 70
     2
  9
$DIMALTRND
 40
0.0
  9
$DIMAZIN
 70
     0
  9
$DIMDSEP
 70
    44
  9
$DIMATFIT
 70
     3
  9
$DIMFRAC
 70
     0
  9
$DIMLDRBLK
  1

  9
$DIMLUNIT
 70
     2
  9
$DIMLWD
 70
    -2
  9
$DIMLWE
 70
    -2
  9
$DIMTMOVE
 70
     0
  9
$LUNITS
 70
     2
  9
$LUPREC
 70
     2
  9
$SKETCHINC
 40
1.0
  9
$FILLETRAD
 40
0.0
  9
$AUNITS
 70
     0
  9
$AUPREC
 70
     2
  9
$MENU
  1
.
  9
$ELEVATION
 40
0.0
  9
$PELEVATION
 40
0.0
  9
$THICKNESS
 40
0.0
  9
$LIMCHECK
 70
     0
  9
$CHAMFERA
 40
0.0
  9
$CHAMFERB
 40
0.0
  9
$CHAMFERC
 40
0.0
  9
$CHAMFERD
 40
0.0
  9
$SKPOLY
 70
     0
  9
$TDCREATE
 40
2460725.00828956
  9
$TDUCREATE
 40
2460725.216622894
  9
$TDUPDATE
 40
2460725.008329248
  9
$TDUUPDATE
 40
2460725.216662581
  9
$TDINDWG
 40
0.0000000116
  9
$TDUSRTIMER
 40
0.0000000116
  9
$USRTIMER
 70
     1
  9
$ANGBASE
 50
0.0
  9
$ANGDIR
 70
     0
  9
$PDMODE
 70
     0
  9
$PDSIZE
 40
-1.0
  9
$PLINEWID
 40
0.0
  9
$SPLFRAME
 70
     0
  9
$SPLINETYPE
 70
     6
  9
$SPLINESEGS
 70
     8
  9
$HANDSEED
  5
1AD
  9
$SURFTAB1
 70
     6
  9
$SURFTAB2
 70
     6
  9
$SURFTYPE
 70
     6
  9
$SURFU
 70
     6
  9
$SURFV
 70
     6
  9
$UCSBASE
  2

  9
$UCSNAME
  2

  9
$UCSORG
 10
0.0
 20
0.0
 30
0.0
  9
$UCSXDIR
 10
1.0
 20
0.0
 30
0.0
  9
$UCSYDIR
 10
0.0
 20
1.0
 30
0.0
  9
$UCSORTHOREF
  2

  9
$UCSORTHOVIEW
 70
     0
  9
$UCSORGTOP
 10
0.0
 20
0.0
 30
0.0
  9
$UCSORGBOTTOM
 10
0.0
 20
0.0
 30
0.0
  9
$UCSORGLEFT
 10
0.0
 20
0.0
 30
0.0
  9
$UCSORGRIGHT
 10
0.0
 20
0.0
 30
0.0
  9
$UCSORGFRONT
 10
0.0
 20
0.0
 30
0.0
  9
$UCSORGBACK
 10
0.0
 20
0.0
 30
0.0
  9
$PUCSBASE
  2

  9
$PUCSNAME
  2

  9
$PUCSORG
 10
0.0
 20
0.0
 30
0.0
  9
$PUCSXDIR
 10
1.0
 20
0.0
 30
0.0
  9
$PUCSYDIR
 10
0.0
 20
1.0
 30
0.0
  9
$PUCSORTHOREF
  2

  9
$PUCSORTHOVIEW
 70
     0
  9
$PUCSORGTOP
 10
0.0
 20
0.0
 30
0.0
  9
$PUCSORGBOTTOM
 10
0.0
 20
0.0
 30
0.0
  9
$PUCSORGLEFT
 10
0.0
 20
0.0
 30
0.0
  9
$PUCSORGRIGHT
 10
0.0
 20
0.0
 30
0.0
  9
$PUCSORGFRONT
 10
0.0
 20
0.0
 30
0.0
  9
$PUCSORGBACK
 10
0.0
 20
0.0
 30
0.0
  9
$USERI1
 70
     0
  9
$USERI2
 70
     0
  9
$USERI3
 70
     0
  9
$USERI4
 70
     0
  9
$USERI5
 70
     0
  9
$USERR1
 40
0.0
  9
$USERR2
 40
0.0
  9
$USERR3
 40
0.0
  9
$USERR4
 40
0.0
  9
$USERR5
 40
0.0
  9
$WORLDVIEW
 70
     1
  9
$SHADEDGE
 70
     3
  9
$SHADEDIF
 70
    70
  9
$TILEMODE
 70
     1
  9
$MAXACTVP
 70
    64
  9
$PINSBASE
 10
0.0
 20
0.0
 30
0.0
  9
$PLIMCHECK
 70
     0
  9
$PEXTMIN
 10
1.0000000000E+20
 20
1.0000000000E+20
 30
1.0000000000E+20
  9
$PEXTMAX
 10
-1.0000000000E+20
 20
-1.0000000000E+20
 30
-1.0000000000E+20
  9
$PLIMMIN
 10
0.0
 20
0.0
  9
$PLIMMAX
 10
420.0
 20
297.0
  9
$UNITMODE
 70
     0
  9
$VISRETAIN
 70
     1
  9
$PLINEGEN
 70
     0
  9
$PSLTSCALE
 70
     1
  9
$TREEDEPTH
 70
  3020
  9
$CMLSTYLE
  2
Standard
  9
$CMLJUST
 70
     0
  9
$CMLSCALE
 40
20.0
  9
$PROXYGRAPHICS
 70
     1
  9
$MEASUREMENT
 70
     1
  9
$CELWEIGHT
370
    -1
  9
$ENDCAPS
280
     0
  9
$JOINSTYLE
280
     0
  9
$LWDISPLAY
290
     1
  9
$INSUNITS
 70
     5
  9
$HYPERLINKBASE
  1

  9
$STYLESHEET
  1

  9
$XEDIT
290
     1
  9
$CEPSNTYPE
380
     0
  9
$PSTYLEMODE
290
     1
  9
$FINGERPRINTGUID
  2
{7e0411ba-5897-4849-8d38-9f3eb758a2e5}
  9
$VERSIONGUID
  2
{FAEB1C32-E019-11D5-929B-00C0DF256EC4}
  9
$EXTNAMES
290
     1
  9
$PSVPSCALE
 40
0.0
  9
$OLESTARTUP
290
     0
  0
ENDSEC
  0
SECTION
  2
CLASSES
  0
CLASS
  1
ACDBDICTIONARYWDFLT
  2
AcDbDictionaryWithDefault
  3
ObjectDBX Classes
 90
        0
280
     0
281
     0
  0
CLASS
  1
VISUALSTYLE
  2
AcDbVisualStyle
  3
ObjectDBX Classes
 90
     4095
280
     0
281
     0
  0
CLASS
  1
MATERIAL
  2
AcDbMaterial
  3
ObjectDBX Classes
 90
     1153
280
     0
281
     0
  0
CLASS
  1
SCALE
  2
AcDbScale
  3
ObjectDBX Classes
 90
     1153
280
     0
281
     0
  0
CLASS
  1
TABLESTYLE
  2
AcDbTableStyle
  3
ObjectDBX Classes
 90
     4095
280
     0
281
     0
  0
CLASS
  1
MLEADERSTYLE
  2
AcDbMLeaderStyle
  3
ACDB_MLEADERSTYLE_CLASS
 90
     4095
280
     0
281
     0
  0
CLASS
  1
SUN
  2
AcDbSun
  3
SCENEOE
 90
     1153
280
     0
281
     0
  0
CLASS
  1
ACDBPLACEHOLDER
  2
AcDbPlaceHolder
  3
ObjectDBX Classes
 90
        0
280
     0
281
     0
  0
CLASS
  1
LAYOUT
  2
AcDbLayout
  3
ObjectDBX Classes
 90
        0
280
     0
281
     0
  0
ENDSEC
  0
SECTION
  2
TABLES
  0
TABLE
  2
VPORT
  5
8
330
0
100
AcDbSymbolTable
 70
     1
  0
VPORT
  5
29
330
8
100
AcDbSymbolTableRecord
100
AcDbViewportTableRecord
  2
*Active
 70
     0
 10
0.0
 20
0.0
 11
1.0
 21
1.0
 12
-0.0000000003
 22
-0.01944485
 13
0.0
 23
0.0
 14
10.0
 24
10.0
 15
10.0
 25
10.0
 16
0.0
 26
0.0
 36
1.0
 17
0.0
 27
0.0
 37
0.0
 40
5.1140458888
 41
1.0052197526
 42
50.0
 43
0.0
 44
0.0
 50
0.0
 51
0.0
 71
     0
 72
   100
 73
     1
 74
     3
 75
     0
 76
     0
 77
     0
 78
     0
281
     0
 65
     1
110
0.0
120
0.0
130
0.0
111
1.0
121
0.0
131
0.0
112
0.0
122
1.0
132
0.0
 79
     0
146
0.0
  0
ENDTAB
  0
TABLE
  2
LTYPE
  5
5
330
0
100
AcDbSymbolTable
 70
     6
  0
LTYPE
  5
14
330
5
100
AcDbSymbolTableRecord
100
AcDbLinetypeTableRecord
  2
ByBlock
 70
     0
  3

 72
    65
 73
     0
 40
0.0
  0
LTYPE
  5
15
330
5
100
AcDbSymbolTableRecord
100
AcDbLinetypeTableRecord
  2
ByLayer
 70
     0
  3

 72
    65
 73
     0
 40
0.0
  0
LTYPE
  5
16
330
5
100
AcDbSymbolTableRecord
100
AcDbLinetypeTableRecord
  2
Continuous
 70
     0
  3
Solid line
 72
    65
 73
     0
 40
0.0
  0
LTYPE
  5
5E
330
5
100
AcDbSymbolTableRecord
100
AcDbLinetypeTableRecord
  2
HIDDEN
 70
     0
  3
Hidden __ __ __ __ __ __ __ __ __ __ __ __ __ __
 72
    65
 73
     2
 40
0.1905
 49
0.127
 74
     0
 49
-0.0635
 74
     0
  0
LTYPE
  5
5F
330
5
100
AcDbSymbolTableRecord
100
AcDbLinetypeTableRecord
  2
PHANTOM
 70
     0
  3
Phantom ______  __  __  ______  __  __  ______
 72
    65
 73
     6
 40
1.27
 49
0.635
 74
     0
 49
-0.127
 74
     0
 49
0.127
 74
     0
 49
-0.127
 74
     0
 49
0.127
 74
     0
 49
-0.127
 74
     0
  0
LTYPE
  5
60
330
5
100
AcDbSymbolTableRecord
100
AcDbLinetypeTableRecord
  2
CENTER
 70
     0
  3
Center ____ _ ____ _ ____ _ ____ _ ____ _ ____
 72
    65
 73
     4
 40
1.016
 49
0.635
 74
     0
 49
-0.127
 74
     0
 49
0.127
 74
     0
 49
-0.127
 74
     0
  0
LTYPE
  5
61
330
5
100
AcDbSymbolTableRecord
100
AcDbLinetypeTableRecord
  2
CENTERX2
 70
     0
  3
Center (2x) ________  __  ________  __  _____
 72
    65
 73
     4
 40
2.032
 49
1.27
 74
     0
 49
-0.254
 74
     0
 49
0.254
 74
     0
 49
-0.254
 74
     0
  0
LTYPE
  5
62
330
5
100
AcDbSymbolTableRecord
100
AcDbLinetypeTableRecord
  2
DOT2
 70
     0
  3
Dot (.5x) ........................................
 72
    65
 73
     2
 40
0.0635
 49
0.0
 74
     0
 49
-0.0635
 74
     0
  0
ENDTAB
  0
TABLE
  2
LAYER
  5
2
330
0
100
AcDbSymbolTable
 70
     1
  0
LAYER
  5
10
330
2
100
AcDbSymbolTableRecord
100
AcDbLayerTableRecord
  2
0
 70
     0
 62
     7
  6
Continuous
370
    -3
390
F
  0
ENDTAB
  0
TABLE
  2
STYLE
  5
3
330
0
100
AcDbSymbolTable
 70
     2
  0
STYLE
  5
11
330
3
100
AcDbSymbolTableRecord
100
AcDbTextStyleTableRecord
  2
Standard
 70
     0
 40
0.0
 41
1.0
 50
0.0
 71
     0
 42
0.35
  3
txt
  4

  0
STYLE
  5
1A9
330
3
100
AcDbSymbolTableRecord
100
AcDbTextStyleTableRecord
  2
SLDTEXTSTYLE0
 70
     0
 40
0.0
 41
0.7
 50
0.0
 71
     0
 42
0.35
  3
TXT
  4

  0
ENDTAB
  0
TABLE
  2
VIEW
  5
6
330
0
100
AcDbSymbolTable
 70
     0
  0
ENDTAB
  0
TABLE
  2
UCS
  5
7
330
0
100
AcDbSymbolTable
 70
     0
  0
ENDTAB
  0
TABLE
  2
APPID
  5
9
330
0
100
AcDbSymbolTable
 70
     1
  0
APPID
  5
12
330
9
100
AcDbSymbolTableRecord
100
AcDbRegAppTableRecord
  2
ACAD
 70
     0
  0
ENDTAB
  0
TABLE
  2
DIMSTYLE
  5
A
330
0
100
AcDbSymbolTable
 70
     1
100
AcDbDimStyleTable
  0
DIMSTYLE
105
27
330
A
100
AcDbSymbolTableRecord
100
AcDbDimStyleTableRecord
  2
ISO-25
 70
     0
 41
2.5
 42
0.625
 43
3.75
 44
1.25
 73
     0
 74
     0
 77
     1
 78
     8
140
2.5
141
2.5
143
0.0393700787
147
0.625
171
     3
172
     1
178
     0
271
     2
272
     2
274
     3
278
    44
283
     0
284
     8
340
11
  0
ENDTAB
  0
TABLE
  2
BLOCK_RECORD
  5
1
330
0
100
AcDbSymbolTable
 70
     1
  0
BLOCK_RECORD
  5
1F
330
1
100
AcDbSymbolTableRecord
100
AcDbBlockTableRecord
  2
*Model_Space
340
22
  0
BLOCK_RECORD
  5
1B
330
1
100
AcDbSymbolTableRecord
100
AcDbBlockTableRecord
  2
*Paper_Space
340
1E
  0
BLOCK_RECORD
  5
23
330
1
100
AcDbSymbolTableRecord
100
AcDbBlockTableRecord
  2
*Paper_Space0
340
26
  0
ENDTAB
  0
ENDSEC
  0
SECTION
  2
BLOCKS
  0
BLOCK
  5
20
330
1F
100
AcDbEntity
  8
0
100
AcDbBlockBegin
  2
*Model_Space
 70
     0
 10
0.0
 20
0.0
 30
0.0
  3
*Model_Space
  1

  0
ENDBLK
  5
21
330
1F
100
AcDbEntity
  8
0
100
AcDbBlockEnd
  0
BLOCK
  5
1C
330
1B
100
AcDbEntity
 67
     1
  8
0
100
AcDbBlockBegin
  2
*Paper_Space
 70
     0
 10
0.0
 20
0.0
 30
0.0
  3
*Paper_Space
  1

  0
ENDBLK
  5
1D
330
1B
100
AcDbEntity
 67
     1
  8
0
100
AcDbBlockEnd
  0
BLOCK
  5
24
330
23
100
AcDbEntity
  8
0
100
AcDbBlockBegin
  2
*Paper_Space0
 70
     0
 10
0.0
 20
0.0
 30
0.0
  3
*Paper_Space0
  1

  0
ENDBLK
  5
25
330
23
100
AcDbEntity
  8
0
100
AcDbBlockEnd
  0
ENDSEC
  0
SECTION
  2
ENTITIES
  0
ARC
  5
63
330
1F
100
AcDbEntity
  8
0
  6
Continuous
 62
     7
100
AcDbCircle
 10
-1.7079370404
 20
1.5378334186
 30
0.0
 40
0.2590800000000002
100
AcDbArc
 50
266.9999986212
 51
270.0000001899
  0
ARC
  5
64
330
1F
100
AcDbEntity
  8
0
  6
Continuous
 62
     7
100
AcDbCircle
 10
-0.9347849229
 20
2.0995613126
 30
0.0
 40
0.2590799999999998
100
AcDbArc
 50
278.271467539
 51
309.7285323794
  0
ARC
  5
65
330
1F
100
AcDbEntity
  8
0
  6
Continuous
 62
     7
100
AcDbCircle
 10
-1.6866677078
 20
1.9436764615
 30
0.0
 40
0.6654800000000001
100
AcDbArc
 50
252.733337089
 51
266.9999994632
  0
ARC
  5
66
330
1F
100
AcDbEntity
  8
0
  6
Continuous
 62
     7
100
AcDbCircle
 10
1.7079370404
 20
1.5378334186
 30
0.0
 40
0.25908
100
AcDbArc
 50
270.0
 51
273.000000194
  0
ARC
  5
67
330
1F
100
AcDbEntity
  8
0
  6
Continuous
 62
     7
100
AcDbCircle
 10
-0.7502831838
 20
2.461666364
 30
0.0
 40
0.6654799999999998
100
AcDbArc
 50
228.733337089
 51
243.0
  0
ARC
  5
68
330
1F
100
AcDbEntity
  8
0
  6
Continuous
 62
     7
100
AcDbCircle
 10
0.9347849229
 20
2.0995613126
 30
0.0
 40
0.25908
100
AcDbArc
 50
261.7285324608
 51
270.0
  0
ARC
  5
69
330
1F
100
AcDbEntity
  8
0
  6
Continuous
 62
     7
100
AcDbCircle
 10
-2.5730340908
 20
0.0471350299
 30
0.0
 40
0.6654800000000004
100
AcDbArc
 50
300.733337089
 51
315.0
  0
ARC
  5
6A
330
1F
100
AcDbEntity
  8
0
  6
Continuous
 62
     7
100
AcDbCircle
 10
-1.7079370404
 20
1.5378334186
 30
0.0
 40
0.2590800000000002
100
AcDbArc
 50
270.0000001899
 51
302.2714671797
  0
ARC
  5
6B
330
1F
100
AcDbEntity
  8
0
  6
Continuous
 62
     7
100
AcDbCircle
 10
0.4778342871
 20
-2.2480335744
 30
0.0
 40
0.25908
100
AcDbArc
 50
86.2714676198
 51
117.7285328201
  0
ARC
  5
6C
330
1F
100
AcDbEntity
  8
0
  6
Continuous
 62
     7
100
AcDbCircle
 10
0.9347849229
 20
2.0995613126
 30
0.0
 40
0.2590799999999999
100
AcDbArc
 50
230.2714676198
 51
261.7285324608
  0
ARC
  5
6D
330
1F
100
AcDbEntity
  8
0
  6
Continuous
 62
     7
100
AcDbCircle
 10
1.7079370404
 20
1.5378334186
 30
0.0
 40
0.2590799999999912
100
AcDbArc
 50
206.2714671797
 51
237.7285323794
  0
ARC
  5
6E
330
1F
100
AcDbEntity
  8
0
  6
Continuous
 62
     7
100
AcDbCircle
 10
-1.350880972
 20
-1.8593281466
 30
0.0
 40
0.2590800000000003
100
AcDbArc
 50
38.2714671797
 51
69.7285323794
  0
ARC
  5
6F
330
1F
100
AcDbEntity
  8
0
  6
Continuous
 62
     7
100
AcDbCircle
 10
-1.9903480645
 20
-1.1491279908
 30
0.0
 40
0.2590800000000003
100
AcDbArc
 50
14.2714676198
 51
45.7285323794
  0
ARC
  5
70
330
1F
100
AcDbEntity
  8
0
  6
Continuous
 62
     7
100
AcDbCircle
 10
0.2220784802
 20
-2.5638656931
 30
0.0
 40
0.6654800000000002
100
AcDbArc
 50
36.733337089
 51
51.0
  0
ARC
  5
71
330
1F
100
AcDbEntity
  8
0
  6
Continuous
 62
     7
100
AcDbCircle
 10
2.3314120622
 20
1.0896072411
 30
0.0
 40
0.6654800000000002
100
AcDbArc
 50
249.0
 51
263.2666666666
  0
ARC
  5
72
330
1F
100
AcDbEntity
  8
0
  6
Continuous
 62
     7
100
AcDbCircle
 10
-0.9347849229
 20
2.0995613126
 30
0.0
 40
0.25908
100
AcDbArc
 50
270.0
 51
278.271467539
  0
ARC
  5
73
330
1F
100
AcDbEntity
  8
0
  6
Continuous
 62
     7
100
AcDbCircle
 10
2.2856658949
 20
-0.240233166
 30
0.0
 40
0.25908
100
AcDbArc
 50
158.2714671797
 51
189.7285323794
  0
ARC
  5
74
330
1F
100
AcDbEntity
  8
0
  6
Continuous
 62
     7
100
AcDbCircle
 10
-0.4778342871
 20
-2.2480335744
 30
0.0
 40
0.2590799999999995
100
AcDbArc
 50
62.2714669567
 51
93.7285323794
  0
ARC
  5
75
330
1F
100
AcDbEntity
  8
0
  6
Continuous
 62
     7
100
AcDbCircle
 10
-0.8399393385
 20
-2.4325353135
 30
0.0
 40
0.66548
100
AcDbArc
 50
12.733337089
 51
27.0
  0
ARC
  5
76
330
1F
100
AcDbEntity
  8
0
  6
Continuous
 62
     7
100
AcDbCircle
 10
2.5730340908
 20
0.0471350299
 30
0.0
 40
0.66548
100
AcDbArc
 50
225.0
 51
239.2666666663
  0
ARC
  5
77
330
1F
100
AcDbEntity
  8
0
  6
Continuous
 62
     7
100
AcDbCircle
 10
2.5266070463
 20
0.4888588519
 30
0.0
 40
0.6654800000000004
100
AcDbArc
 50
132.733337089
 51
147.0
  0
ARC
  5
78
330
1F
100
AcDbEntity
  8
0
  6
Continuous
 62
     7
100
AcDbCircle
 10
-2.109333582
 20
1.474258452
 30
0.0
 40
0.6654799999999998
100
AcDbArc
 50
9.0
 51
23.2666666667
  0
ARC
  5
79
330
1F
100
AcDbEntity
  8
0
  6
Continuous
 62
     7
100
AcDbCircle
 10
-0.2220784802
 20
-2.5638656931
 30
0.0
 40
0.6654800000000027
100
AcDbArc
 50
129.0
 51
143.2666666656
  0
ARC
  5
7A
330
1F
100
AcDbEntity
  8
0
  6
Continuous
 62
     7
100
AcDbCircle
 10
-2.0635370927
 20
0.9219161413
 30
0.0
 40
0.4220954086491572
100
AcDbArc
 50
72.7333237249
 51
100.988901434
  0
ARC
  5
7B
330
1F
100
AcDbEntity
  8
0
  6
Continuous
 62
     7
100
AcDbCircle
 10
0.3158321187
 20
2.5540117886
 30
0.0
 40
0.66548
100
AcDbArc
 50
204.733337089
 51
219.0
  0
ARC
  5
7C
330
1F
100
AcDbEntity
  8
0
  6
Continuous
 62
     7
100
AcDbCircle
 10
-1.1275478166
 20
-1.9587624738
 30
0.0
 40
0.4220954114320575
100
AcDbArc
 50
295.0110916837
 51
323.2666666692
  0
ARC
  5
7D
330
1F
100
AcDbEntity
  8
0
  6
Continuous
 62
     7
100
AcDbCircle
 10
-1.3273371787
 20
2.2047453725
 30
0.0
 40
0.6654800000000051
100
AcDbArc
 50
345.0
 51
359.2666666666
  0
ARC
  5
7E
330
1F
100
AcDbEntity
  8
0
  6
Continuous
 62
     7
100
AcDbCircle
 10
0.0
 20
2.2982559817
 30
0.0
 40
0.2590800000000025
100
AcDbArc
 50
219.0
 51
254.2714676202
  0
ARC
  5
7F
330
1F
100
AcDbEntity
  8
0
  6
Continuous
 62
     7
100
AcDbCircle
 10
2.2101209509
 20
-0.4727365965
 30
0.0
 40
0.4220954086491571
100
AcDbArc
 50
264.733337089
 51
270.0
  0
ARC
  5
80
330
1F
100
AcDbEntity
  8
0
  6
Continuous
 62
     7
100
AcDbCircle
 10
-0.3158321187
 20
2.5540117886
 30
0.0
 40
0.6654799999999998
100
AcDbArc
 50
321.0
 51
335.2666666667
  0
ARC
  5
81
330
1F
100
AcDbEntity
  8
0
  6
Continuous
 62
     7
100
AcDbCircle
 10
-2.2101208729
 20
-0.4727365965
 30
0.0
 40
0.4220954114320568
100
AcDbArc
 50
269.9999894083
 51
275.2667213137
  0
ARC
  5
82
330
1F
100
AcDbEntity
  8
0
  6
Continuous
 62
     7
100
AcDbCircle
 10
-1.8267666593
 20
-1.3308035467
 30
0.0
 40
0.4220954118958744
100
AcDbArc
 50
271.0110916837
 51
299.2666666665
  0
ARC
  5
83
330
1F
100
AcDbEntity
  8
0
  6
Continuous
 62
     7
100
AcDbCircle
 10
2.0539230311
 20
-1.5505245325
 30
0.0
 40
0.6654800000000001
100
AcDbArc
 50
84.733337089
 51
99.0
  0
ARC
  5
84
330
1F
100
AcDbEntity
  8
0
  6
Continuous
 62
     7
100
AcDbCircle
 10
0.6956585736
 20
2.1503891872
 30
0.0
 40
0.4220954114320606
100
AcDbArc
 50
127.0110916837
 51
155.2666666654
  0
ARC
  5
85
330
1F
100
AcDbEntity
  8
0
  6
Continuous
 62
     7
100
AcDbCircle
 10
-2.0539230311
 20
-1.5505245325
 30
0.0
 40
0.6654800000000021
100
AcDbArc
 50
81.0
 51
95.266666667
  0
ARC
  5
86
330
1F
100
AcDbEntity
  8
0
  6
Continuous
 62
     7
100
AcDbCircle
 10
-1.756724015
 20
-1.8805974792
 30
0.0
 40
0.6654799999999997
100
AcDbArc
 50
348.733337089
 51
3.0
  0
ARC
  5
87
330
1F
100
AcDbEntity
  8
0
  6
Continuous
 62
     7
100
AcDbCircle
 10
1.756724015
 20
-1.8805974792
 30
0.0
 40
0.6654800000000046
100
AcDbArc
 50
177.0
 51
191.2666666665
  0
ARC
  5
88
330
1F
100
AcDbEntity
  8
0
  6
Continuous
 62
     7
100
AcDbCircle
 10
0.7502831838
 20
2.461666364
 30
0.0
 40
0.6654799999999996
100
AcDbArc
 50
297.0
 51
311.2666666651
  0
ARC
  5
89
330
1F
100
AcDbEntity
  8
0
  6
Continuous
 62
     7
100
AcDbCircle
 10
-0.6956585736
 20
2.1503891872
 30
0.0
 40
0.4220954086491577
100
AcDbArc
 50
24.7333300966
 51
52.9889086676
  0
ARC
  5
8A
330
1F
100
AcDbEntity
  8
0
  6
Continuous
 62
     7
100
AcDbCircle
 10
1.8267666593
 20
-1.3308035467
 30
0.0
 40
0.4220954086491567
100
AcDbArc
 50
240.733337089
 51
268.9889086676
  0
ARC
  5
8B
330
1F
100
AcDbEntity
  8
0
  6
Continuous
 62
     7
100
AcDbCircle
 10
0.9347849229
 20
2.0995613126
 30
0.0
 40
0.2590800000000019
100
AcDbArc
 50
270.0
 51
297.0
  0
ARC
  5
8C
330
1F
100
AcDbEntity
  8
0
  6
Continuous
 62
     7
100
AcDbCircle
 10
1.5101578093
 20
1.6815284411
 30
0.0
 40
0.4220954118958809
100
AcDbArc
 50
103.0110916837
 51
131.266673658
  0
ARC
  5
8D
330
1F
100
AcDbEntity
  8
0
  6
Continuous
 62
     7
100
AcDbCircle
 10
1.2456969121
 20
-2.2518804024
 30
0.0
 40
0.6654799999999997
100
AcDbArc
 50
60.733337089
 51
75.0
  0
ARC
  5
8E
330
1F
100
AcDbEntity
  8
0
  6
Continuous
 62
     7
100
AcDbCircle
 10
1.6866677078
 20
1.9436764615
 30
0.0
 40
0.6654800000000002
100
AcDbArc
 50
273.0000000755
 51
287.266666667
  0
ARC
  5
8F
330
1F
100
AcDbEntity
  8
0
  6
Continuous
 62
     7
100
AcDbCircle
 10
1.3273371787
 20
2.2047453725
 30
0.0
 40
0.66548
100
AcDbArc
 50
180.733337089
 51
195.0
  0
ARC
  5
90
330
1F
100
AcDbEntity
  8
0
  6
Continuous
 62
     7
100
AcDbCircle
 10
-2.5070071988
 20
-0.5810688848
 30
0.0
 40
0.6654800000000018
100
AcDbArc
 50
57.0
 51
71.2666666665
  0
ARC
  5
91
330
1F
100
AcDbEntity
  8
0
  6
Continuous
 62
     7
100
AcDbCircle
 10
0.8399393385
 20
-2.4325353135
 30
0.0
 40
0.6654800000000027
100
AcDbArc
 50
153.0
 51
167.2666666669
  0
ARC
  5
92
330
1F
100
AcDbEntity
  8
0
  6
Continuous
 62
     7
100
AcDbCircle
 10
1.1275478166
 20
-1.9587624738
 30
0.0
 40
0.4220954086491571
100
AcDbArc
 50
216.733337089
 51
244.9889086676
  0
ARC
  5
93
330
1F
100
AcDbEntity
  8
0
  6
Continuous
 62
     7
100
AcDbCircle
 10
1.350880972
 20
-1.8593281466
 30
0.0
 40
0.2590800000000003
100
AcDbArc
 50
110.2714671391
 51
141.7285323794
  0
ARC
  5
94
330
1F
100
AcDbEntity
  8
0
  6
Continuous
 62
     7
100
AcDbCircle
 10
-1.7079370404
 20
1.5378334186
 30
0.0
 40
0.2590799999999898
100
AcDbArc
 50
302.2714671797
 51
333.7285324608
  0
ARC
  5
95
330
1F
100
AcDbEntity
  8
0
  6
Continuous
 62
     7
100
AcDbCircle
 10
0.0
 20
2.2982559817
 30
0.0
 40
0.2590800000000003
100
AcDbArc
 50
254.2714676202
 51
285.7285323794
  0
ARC
  5
96
330
1F
100
AcDbEntity
  8
0
  6
Continuous
 62
     7
100
AcDbCircle
 10
-0.9347849229
 20
2.0995613126
 30
0.0
 40
0.2590800000000023
100
AcDbArc
 50
243.0
 51
270.0
  0
ARC
  5
97
330
1F
100
AcDbEntity
  8
0
  6
Continuous
 62
     7
100
AcDbCircle
 10
2.0635370404
 20
0.9219161514
 30
0.0
 40
0.4220954114320598
100
AcDbArc
 50
79.0110916837
 51
107.266666666
  0
ARC
  5
98
330
1F
100
AcDbEntity
  8
0
  6
Continuous
 62
     7
100
AcDbCircle
 10
-2.2113252519
 20
0.467070806
 30
0.0
 40
0.4220954118958683
100
AcDbArc
 50
223.0110916837
 51
251.2666666662
  0
ARC
  5
99
330
1F
100
AcDbEntity
  8
0
  6
Continuous
 62
     7
100
AcDbCircle
 10
0.4778342871
 20
-2.2480335744
 30
0.0
 40
0.25908
100
AcDbArc
 50
51.0
 51
86.2714676198
  0
ARC
  5
9A
330
1F
100
AcDbEntity
  8
0
  6
Continuous
 62
     7
100
AcDbCircle
 10
1.350880972
 20
-1.8593281466
 30
0.0
 40
0.2590800000000004
100
AcDbArc
 50
141.7285323794
 51
177.0
  0
ARC
  5
9B
330
1F
100
AcDbEntity
  8
0
  6
Continuous
 62
     7
100
AcDbCircle
 10
1.7079370404
 20
1.5378334186
 30
0.0
 40
0.25908
100
AcDbArc
 50
270.0
 51
273.000000194
  0
ARC
  5
9C
330
1F
100
AcDbEntity
  8
0
  6
Continuous
 62
     7
100
AcDbCircle
 10
-0.9347849229
 20
2.0995613126
 30
0.0
 40
0.2590800000000016
100
AcDbArc
 50
309.7285323794
 51
345.0
  0
ARC
  5
9D
330
1F
100
AcDbEntity
  8
0
  6
Continuous
 62
     7
100
AcDbCircle
 10
-1.9903480645
 20
-1.1491279908
 30
0.0
 40
0.2590800000000003
100
AcDbArc
 50
339.0
 51
14.2714676198
  0
ARC
  5
9E
330
1F
100
AcDbEntity
  8
0
  6
Continuous
 62
     7
100
AcDbCircle
 10
-0.2333657129
 20
-2.2480335744
 30
0.0
 40
0.4220954114320575
100
AcDbArc
 50
319.0110916837
 51
347.2666666667
  0
ARC
  5
9F
330
1F
100
AcDbEntity
  8
0
  6
Continuous
 62
     7
100
AcDbCircle
 10
-2.2856658949
 20
-0.240233166
 30
0.0
 40
0.2590800000000003
100
AcDbArc
 50
350.2714671391
 51
21.7285323794
  0
ARC
  5
A0
330
1F
100
AcDbEntity
  8
0
  6
Continuous
 62
     7
100
AcDbCircle
 10
0.0
 20
0.0
 30
0.0
 40
2.526330089639115
100
AcDbArc
 50
28.0662701358
 51
31.9337299504
  0
ARC
  5
A1
330
1F
100
AcDbEntity
  8
0
  6
Continuous
 62
     7
100
AcDbCircle
 10
2.109333582
 20
1.474258452
 30
0.0
 40
0.6654799999999997
100
AcDbArc
 50
156.733337089
 51
171.0
  0
ARC
  5
A2
330
1F
100
AcDbEntity
  8
0
  6
Continuous
 62
     7
100
AcDbCircle
 10
-2.5266070463
 20
0.4888588519
 30
0.0
 40
0.6654800000000003
100
AcDbArc
 50
33.0
 51
47.2666666671
  0
ARC
  5
A3
330
1F
100
AcDbEntity
  8
0
  6
Continuous
 62
     7
100
AcDbCircle
 10
0.0
 20
0.0
 30
0.0
 40
2.526330089639126
100
AcDbArc
 50
172.0662701358
 51
175.9337299504
  0
ARC
  5
A4
330
1F
100
AcDbEntity
  8
0
  6
Continuous
 62
     7
100
AcDbCircle
 10
2.1857713275
 20
0.7102001558
 30
0.0
 40
0.2590800000000002
100
AcDbArc
 50
182.2714671797
 51
213.7285323794
  0
ARC
  5
A5
330
1F
100
AcDbEntity
  8
0
  6
Continuous
 62
     7
100
AcDbCircle
 10
-2.1857713275
 20
0.7102001558
 30
0.0
 40
0.2590800000000004
100
AcDbArc
 50
326.2714676198
 51
357.7285323794
  0
ARC
  5
A6
330
1F
100
AcDbEntity
  8
0
  6
Continuous
 62
     7
100
AcDbCircle
 10
0.0
 20
0.0
 30
0.0
 40
2.526330089639101
100
AcDbArc
 50
268.0662701358
 51
271.9337299504
  0
ARC
  5
A7
330
1F
100
AcDbEntity
  8
0
  6
Continuous
 62
     7
100
AcDbCircle
 10
0.9347849229
 20
2.0995613126
 30
0.0
 40
0.25908
100
AcDbArc
 50
195.0
 51
230.2714676198
  0
ARC
  5
A8
330
1F
100
AcDbEntity
  8
0
  6
Continuous
 62
     7
100
AcDbCircle
 10
0.2333657129
 20
-2.2480335744
 30
0.0
 40
0.4220954086491598
100
AcDbArc
 50
192.733337089
 51
220.9889086676
  0
ARC
  5
A9
330
1F
100
AcDbEntity
  8
0
  6
Continuous
 62
     7
100
AcDbCircle
 10
1.8301713275
 20
1.3261174229
 30
0.0
 40
0.422095408649157
100
AcDbArc
 50
312.733337089
 51
340.9889086676
  0
ARC
  5
AA
330
1F
100
AcDbEntity
  8
0
  6
Continuous
 62
     7
100
AcDbCircle
 10
-2.2601119788
 20
0.002896178
 30
0.0
 40
0.4220954086491575
100
AcDbArc
 50
96.7333289008
 51
124.98890731
  0
ARC
  5
AB
330
1F
100
AcDbEntity
  8
0
  6
Continuous
 62
     7
100
AcDbCircle
 10
-1.350880972
 20
-1.8593281466
 30
0.0
 40
0.2590800000000003
100
AcDbArc
 50
69.7285323794
 51
105.0
  0
ARC
  5
AC
330
1F
100
AcDbEntity
  8
0
  6
Continuous
 62
     7
100
AcDbCircle
 10
2.2601119706
 20
0.0028961838
 30
0.0
 40
0.4220954114320575
100
AcDbArc
 50
55.0110916837
 51
83.2666666664
  0
ARC
  5
AD
330
1F
100
AcDbEntity
  8
0
  6
Continuous
 62
     7
100
AcDbCircle
 10
-1.8301713275
 20
1.3261174229
 30
0.0
 40
0.42209541189588
100
AcDbArc
 50
199.0110916837
 51
227.2666666664
  0
ARC
  5
AE
330
1F
100
AcDbEntity
  8
0
  6
Continuous
 62
     7
100
AcDbCircle
 10
-0.4778342871
 20
-2.2480335744
 30
0.0
 40
0.2590800000000016
100
AcDbArc
 50
27.0
 51
62.2714669567
  0
ARC
  5
AF
330
1F
100
AcDbEntity
  8
0
  6
Continuous
 62
     7
100
AcDbCircle
 10
2.1857713275
 20
0.7102001558
 30
0.0
 40
0.259080000000004
100
AcDbArc
 50
147.0
 51
182.2714671797
  0
ARC
  5
B0
330
1F
100
AcDbEntity
  8
0
  6
Continuous
 62
     7
100
AcDbCircle
 10
-2.2856658949
 20
-0.240233166
 30
0.0
 40
0.2590800000000028
100
AcDbArc
 50
315.0
 51
350.2714671391
  0
ARC
  5
B1
330
1F
100
AcDbEntity
  8
0
  6
Continuous
 62
     7
100
AcDbCircle
 10
0.0
 20
0.0
 30
0.0
 40
2.526330089639107
100
AcDbArc
 50
4.0662701358
 51
7.9337299504
  0
ARC
  5
B2
330
1F
100
AcDbEntity
  8
0
  6
Continuous
 62
     7
100
AcDbCircle
 10
0.0
 20
0.0
 30
0.0
 40
2.526330089639129
100
AcDbArc
 50
148.0662701358
 51
151.9337299504
  0
ARC
  5
B3
330
1F
100
AcDbEntity
  8
0
  6
Continuous
 62
     7
100
AcDbCircle
 10
-1.9903480645
 20
-1.1491279908
 30
0.0
 40
0.2590800000000001
100
AcDbArc
 50
45.7285323794
 51
81.0
  0
ARC
  5
B4
330
1F
100
AcDbEntity
  8
0
  6
Continuous
 62
     7
100
AcDbCircle
 10
2.2113252519
 20
0.467070806
 30
0.0
 40
0.4220954086491574
100
AcDbArc
 50
288.733337089
 51
316.9889086676
  0
ARC
  5
B5
330
1F
100
AcDbEntity
  8
0
  6
Continuous
 62
     7
100
AcDbCircle
 10
2.2101209509
 20
-0.4727365965
 30
0.0
 40
0.4220954086491571
100
AcDbArc
 50
270.0
 51
292.9889086676
  0
ARC
  5
B6
330
1F
100
AcDbEntity
  8
0
  6
Continuous
 62
     7
100
AcDbCircle
 10
2.0658930085
 20
-0.9166245604
 30
0.0
 40
0.4220954114320646
100
AcDbArc
 50
31.0110916837
 51
59.2666565706
  0
ARC
  5
B7
330
1F
100
AcDbEntity
  8
0
  6
Continuous
 62
     7
100
AcDbCircle
 10
-1.132564154
 20
1.95586629
 30
0.0
 40
0.4220954118958818
100
AcDbArc
 50
175.0110916837
 51
203.2666666659
  0
ARC
  5
B8
330
1F
100
AcDbEntity
  8
0
  6
Continuous
 62
     7
100
AcDbCircle
 10
-2.3697551499
 20
-1.0034872561
 30
0.0
 40
0.6654800000000022
100
AcDbArc
 50
324.733337089
 51
339.0
  0
ARC
  5
B9
330
1F
100
AcDbEntity
  8
0
  6
Continuous
 62
     7
100
AcDbCircle
 10
2.2856658949
 20
-0.240233166
 30
0.0
 40
0.25908
100
AcDbArc
 50
123.0
 51
158.2714671797
  0
ARC
  5
BA
330
1F
100
AcDbEntity
  8
0
  6
Continuous
 62
     7
100
AcDbCircle
 10
0.0
 20
2.2982559817
 30
0.0
 40
0.2590800000000031
100
AcDbArc
 50
285.7285323794
 51
321.0
  0
ARC
  5
BB
330
1F
100
AcDbEntity
  8
0
  6
Continuous
 62
     7
100
AcDbCircle
 10
-2.1857713275
 20
0.7102001558
 30
0.0
 40
0.2590800000000004
100
AcDbArc
 50
291.0
 51
326.2714676198
  0
ARC
  5
BC
330
1F
100
AcDbEntity
  8
0
  6
Continuous
 62
     7
100
AcDbCircle
 10
0.0
 20
0.0
 30
0.0
 40
2.526330089639103
100
AcDbArc
 50
340.0662701358
 51
343.9337299504
  0
ARC
  5
BD
330
1F
100
AcDbEntity
  8
0
  6
Continuous
 62
     7
100
AcDbCircle
 10
2.5070071988
 20
-0.5810688848
 30
0.0
 40
0.66548
100
AcDbArc
 50
108.733337089
 51
123.0
  0
ARC
  5
BE
330
1F
100
AcDbEntity
  8
0
  6
Continuous
 62
     7
100
AcDbCircle
 10
0.0
 20
0.0
 30
0.0
 40
2.526330089639131
100
AcDbArc
 50
124.0662701358
 51
127.9337299504
  0
ARC
  5
BF
330
1F
100
AcDbEntity
  8
0
  6
Continuous
 62
     7
100
AcDbCircle
 10
-1.2456969121
 20
-2.2518804024
 30
0.0
 40
0.6654800000000025
100
AcDbArc
 50
105.0
 51
119.2666666646
  0
ARC
  5
C0
330
1F
100
AcDbEntity
  8
0
  6
Continuous
 62
     7
100
AcDbCircle
 10
-0.4778342871
 20
-2.2480335744
 30
0.0
 40
0.2590799999999995
100
AcDbArc
 50
93.7285323794
 51
129.0
  0
ARC
  5
C1
330
1F
100
AcDbEntity
  8
0
  6
Continuous
 62
     7
100
AcDbCircle
 10
2.1857713275
 20
0.7102001558
 30
0.0
 40
0.2590800000000036
100
AcDbArc
 50
213.7285323794
 51
249.0
  0
ARC
  5
C2
330
1F
100
AcDbEntity
  8
0
  6
Continuous
 62
     7
100
AcDbCircle
 10
-2.2856658949
 20
-0.240233166
 30
0.0
 40
0.2590800000000015
100
AcDbArc
 50
21.7285323794
 51
57.0
  0
ARC
  5
C3
330
1F
100
AcDbEntity
  8
0
  6
Continuous
 62
     7
100
AcDbCircle
 10
0.0
 20
0.0
 30
0.0
 40
2.526330089639106
100
AcDbArc
 50
244.0662701358
 51
247.9337299504
  0
ARC
  5
C4
330
1F
100
AcDbEntity
  8
0
  6
Continuous
 62
     7
100
AcDbCircle
 10
2.3697551499
 20
-1.0034872561
 30
0.0
 40
0.6654800000000003
100
AcDbArc
 50
201.0
 51
215.2666666671
  0
ARC
  5
C5
330
1F
100
AcDbEntity
  8
0
  6
Continuous
 62
     7
100
AcDbCircle
 10
-1.5101577517
 20
1.6815284278
 30
0.0
 40
0.4220954086491599
100
AcDbArc
 50
48.7333371622
 51
76.988916689
  0
ARC
  5
C6
330
1F
100
AcDbEntity
  8
0
  6
Continuous
 62
     7
100
AcDbCircle
 10
-0.7011674426
 20
-2.1485992472
 30
0.0
 40
0.4220954086491585
100
AcDbArc
 50
168.733337089
 51
196.9889086676
  0
ARC
  5
C7
330
1F
100
AcDbEntity
  8
0
  6
Continuous
 62
     7
100
AcDbCircle
 10
-0.2391263493
 20
2.2474281071
 30
0.0
 40
0.4220954118958693
100
AcDbArc
 50
151.0110916837
 51
179.2666666661
  0
ARC
  5
C8
330
1F
100
AcDbEntity
  8
0
  6
Continuous
 62
     7
100
AcDbCircle
 10
1.9903480645
 20
-1.1491279908
 30
0.0
 40
0.2590800000000007
100
AcDbArc
 50
99.0
 51
134.2714676202
  0
ARC
  5
C9
330
1F
100
AcDbEntity
  8
0
  6
Continuous
 62
     7
100
AcDbCircle
 10
0.0
 20
2.2982559817
 30
0.0
 40
0.2590800000000025
100
AcDbArc
 50
219.0
 51
254.2714676202
  0
ARC
  5
CA
330
1F
100
AcDbEntity
  8
0
  6
Continuous
 62
     7
100
AcDbCircle
 10
1.5144623773
 20
-1.6776525907
 30
0.0
 40
0.422095411432058
100
AcDbArc
 50
7.0110916837
 51
35.2666666663
  0
ARC
  5
CB
330
1F
100
AcDbEntity
  8
0
  6
Continuous
 62
     7
100
AcDbCircle
 10
0.0
 20
0.0
 30
0.0
 40
2.526330089639131
100
AcDbArc
 50
100.0662701358
 51
103.9337299504
  0
ARC
  5
CC
330
1F
100
AcDbEntity
  8
0
  6
Continuous
 62
     7
100
AcDbCircle
 10
2.2856658949
 20
-0.240233166
 30
0.0
 40
0.2590800000000025
100
AcDbArc
 50
189.7285323794
 51
225.0
  0
ARC
  5
CD
330
1F
100
AcDbEntity
  8
0
  6
Continuous
 62
     7
100
AcDbCircle
 10
0.9347849229
 20
2.0995613126
 30
0.0
 40
0.2590800000000019
100
AcDbArc
 50
270.0
 51
297.0
  0
ARC
  5
CE
330
1F
100
AcDbEntity
  8
0
  6
Continuous
 62
     7
100
AcDbCircle
 10
-2.1857713275
 20
0.7102001558
 30
0.0
 40
0.2590800000000004
100
AcDbArc
 50
357.7285323794
 51
33.0
  0
ARC
  5
CF
330
1F
100
AcDbEntity
  8
0
  6
Continuous
 62
     7
100
AcDbCircle
 10
1.7079370404
 20
1.5378334186
 30
0.0
 40
0.2590799999999854
100
AcDbArc
 50
171.0
 51
206.2714671797
  0
ARC
  5
D0
330
1F
100
AcDbEntity
  8
0
  6
Continuous
 62
     7
100
AcDbCircle
 10
1.6866677078
 20
1.9436764615
 30
0.0
 40
0.6654800000000002
100
AcDbArc
 50
273.0000000755
 51
287.266666667
  0
ARC
  5
D1
330
1F
100
AcDbEntity
  8
0
  6
Continuous
 62
     7
100
AcDbCircle
 10
1.5101578093
 20
1.6815284411
 30
0.0
 40
0.4220954118958809
100
AcDbArc
 50
103.0110916837
 51
131.266673658
  0
ARC
  5
D2
330
1F
100
AcDbEntity
  8
0
  6
Continuous
 62
     7
100
AcDbCircle
 10
-0.6956585736
 20
2.1503891872
 30
0.0
 40
0.4220954086491577
100
AcDbArc
 50
24.7333300966
 51
52.9889086676
  0
ARC
  5
D3
330
1F
100
AcDbEntity
  8
0
  6
Continuous
 62
     7
100
AcDbCircle
 10
-2.109333582
 20
1.474258452
 30
0.0
 40
0.6654799999999998
100
AcDbArc
 50
9.0
 51
23.2666666667
  0
ARC
  5
D4
330
1F
100
AcDbEntity
  8
0
  6
Continuous
 62
     7
100
AcDbCircle
 10
-2.5730340908
 20
0.0471350299
 30
0.0
 40
0.6654800000000004
100
AcDbArc
 50
300.733337089
 51
315.0
  0
ARC
  5
D5
330
1F
100
AcDbEntity
  8
0
  6
Continuous
 62
     7
100
AcDbCircle
 10
0.0
 20
0.0
 30
0.0
 40
2.526330089639112
100
AcDbArc
 50
220.0662701358
 51
223.9337299504
  0
ARC
  5
D6
330
1F
100
AcDbEntity
  8
0
  6
Continuous
 62
     7
100
AcDbCircle
 10
1.350880972
 20
-1.8593281466
 30
0.0
 40
0.2590800000000003
100
AcDbArc
 50
110.2714671391
 51
141.7285323794
  0
ARC
  5
D7
330
1F
100
AcDbEntity
  8
0
  6
Continuous
 62
     7
100
AcDbCircle
 10
-0.4778342871
 20
-2.2480335744
 30
0.0
 40
0.2590800000000016
100
AcDbArc
 50
27.0
 51
62.2714669567
  0
ARC
  5
D8
330
1F
100
AcDbEntity
  8
0
  6
Continuous
 62
     7
100
AcDbCircle
 10
0.0
 20
0.0
 30
0.0
 40
2.526330089639099
100
AcDbArc
 50
292.0662701358
 51
295.9337299504
  0
ARC
  5
D9
330
1F
100
AcDbEntity
  8
0
  6
Continuous
 62
     7
100
AcDbCircle
 10
2.1857713275
 20
0.7102001558
 30
0.0
 40
0.259080000000004
100
AcDbArc
 50
147.0
 51
182.2714671797
  0
ARC
  5
DA
330
1F
100
AcDbEntity
  8
0
  6
Continuous
 62
     7
100
AcDbCircle
 10
0.0
 20
0.0
 30
0.0
 40
2.526330089639131
100
AcDbArc
 50
100.0662701358
 51
103.9337299504
  0
ARC
  5
DB
330
1F
100
AcDbEntity
  8
0
  6
Continuous
 62
     7
100
AcDbCircle
 10
-1.7079370404
 20
1.5378334186
 30
0.0
 40
0.2590799999999828
100
AcDbArc
 50
333.7285324608
 51
9.0
  0
ARC
  5
DC
330
1F
100
AcDbEntity
  8
0
  6
Continuous
 62
     7
100
AcDbCircle
 10
-1.8267666593
 20
-1.3308035467
 30
0.0
 40
0.4220954118958744
100
AcDbArc
 50
271.0110916837
 51
299.2666666665
  0
ARC
  5
DD
330
1F
100
AcDbEntity
  8
0
  6
Continuous
 62
     7
100
AcDbCircle
 10
-2.2856658949
 20
-0.240233166
 30
0.0
 40
0.2590800000000003
100
AcDbArc
 50
350.2714671391
 51
21.7285323794
  0
ARC
  5
DE
330
1F
100
AcDbEntity
  8
0
  6
Continuous
 62
     7
100
AcDbCircle
 10
0.0
 20
2.2982559817
 30
0.0
 40
0.2590800000000003
100
AcDbArc
 50
254.2714676202
 51
285.7285323794
  0
ARC
  5
DF
330
1F
100
AcDbEntity
  8
0
  6
Continuous
 62
     7
100
AcDbCircle
 10
-0.8399393385
 20
-2.4325353135
 30
0.0
 40
0.66548
100
AcDbArc
 50
12.733337089
 51
27.0
  0
ARC
  5
E0
330
1F
100
AcDbEntity
  8
0
  6
Continuous
 62
     7
100
AcDbCircle
 10
1.9903480645
 20
-1.1491279908
 30
0.0
 40
0.2590800000000023
100
AcDbArc
 50
165.728533301
 51
201.0
  0
ARC
  5
E1
330
1F
100
AcDbEntity
  8
0
  6
Continuous
 62
     7
100
AcDbCircle
 10
2.5266070463
 20
0.4888588519
 30
0.0
 40
0.6654800000000004
100
AcDbArc
 50
132.733337089
 51
147.0
  0
ARC
  5
E2
330
1F
100
AcDbEntity
  8
0
  6
Continuous
 62
     7
100
AcDbCircle
 10
-2.1857713275
 20
0.7102001558
 30
0.0
 40
0.2590800000000004
100
AcDbArc
 50
291.0
 51
326.2714676198
  0
ARC
  5
E3
330
1F
100
AcDbEntity
  8
0
  6
Continuous
 62
     7
100
AcDbCircle
 10
1.9903480645
 20
-1.1491279908
 30
0.0
 40
0.2590799999999997
100
AcDbArc
 50
134.2714676202
 51
165.728533301
  0
ARC
  5
E4
330
1F
100
AcDbEntity
  8
0
  6
Continuous
 62
     7
100
AcDbCircle
 10
2.3314120622
 20
1.0896072411
 30
0.0
 40
0.6654800000000002
100
AcDbArc
 50
249.0
 51
263.2666666666
  0
ARC
  5
E5
330
1F
100
AcDbEntity
  8
0
  6
Continuous
 62
     7
100
AcDbCircle
 10
-2.3314120622
 20
1.0896072411
 30
0.0
 40
0.6654800000000001
100
AcDbArc
 50
276.733337089
 51
291.0
  0
ARC
  5
E6
330
1F
100
AcDbEntity
  8
0
  6
Continuous
 62
     7
100
AcDbCircle
 10
0.0
 20
0.0
 30
0.0
 40
2.526330089639119
100
AcDbArc
 50
196.0662701358
 51
199.9337299504
  0
ARC
  5
E7
330
1F
100
AcDbEntity
  8
0
  6
Continuous
 62
     7
100
AcDbCircle
 10
-1.2456969121
 20
-2.2518804024
 30
0.0
 40
0.6654800000000025
100
AcDbArc
 50
105.0
 51
119.2666666646
  0
ARC
  5
E8
330
1F
100
AcDbEntity
  8
0
  6
Continuous
 62
     7
100
AcDbCircle
 10
-1.9903480645
 20
-1.1491279908
 30
0.0
 40
0.2590800000000003
100
AcDbArc
 50
14.2714676198
 51
45.7285323794
  0
ARC
  5
E9
330
1F
100
AcDbEntity
  8
0
  6
Continuous
 62
     7
100
AcDbCircle
 10
1.7079370404
 20
1.5378334186
 30
0.0
 40
0.2590799999999854
100
AcDbArc
 50
171.0
 51
206.2714671797
  0
ARC
  5
EA
330
1F
100
AcDbEntity
  8
0
  6
Continuous
 62
     7
100
AcDbCircle
 10
-0.2220784802
 20
-2.5638656931
 30
0.0
 40
0.6654800000000027
100
AcDbArc
 50
129.0
 51
143.2666666656
  0
ARC
  5
EB
330
1F
100
AcDbEntity
  8
0
  6
Continuous
 62
     7
100
AcDbCircle
 10
0.2333657129
 20
-2.2480335744
 30
0.0
 40
0.4220954086491598
100
AcDbArc
 50
192.733337089
 51
220.9889086676
  0
ARC
  5
EC
330
1F
100
AcDbEntity
  8
0
  6
Continuous
 62
     7
100
AcDbCircle
 10
2.2856658949
 20
-0.240233166
 30
0.0
 40
0.25908
100
AcDbArc
 50
158.2714671797
 51
189.7285323794
  0
ARC
  5
ED
330
1F
100
AcDbEntity
  8
0
  6
Continuous
 62
     7
100
AcDbCircle
 10
1.7079370404
 20
1.5378334186
 30
0.0
 40
0.2590799999999912
100
AcDbArc
 50
206.2714671797
 51
237.7285323794
  0
ARC
  5
EE
330
1F
100
AcDbEntity
  8
0
  6
Continuous
 62
     7
100
AcDbCircle
 10
-1.756724015
 20
-1.8805974792
 30
0.0
 40
0.6654799999999997
100
AcDbArc
 50
348.733337089
 51
3.0
  0
ARC
  5
EF
330
1F
100
AcDbEntity
  8
0
  6
Continuous
 62
     7
100
AcDbCircle
 10
0.0
 20
0.0
 30
0.0
 40
2.526330089639101
100
AcDbArc
 50
268.0662701358
 51
271.9337299504
  0
ARC
  5
F0
330
1F
100
AcDbEntity
  8
0
  6
Continuous
 62
     7
100
AcDbCircle
 10
1.350880972
 20
-1.8593281466
 30
0.0
 40
0.2590800000000004
100
AcDbArc
 50
141.7285323794
 51
177.0
  0
ARC
  5
F1
330
1F
100
AcDbEntity
  8
0
  6
Continuous
 62
     7
100
AcDbCircle
 10
2.5070071988
 20
-0.5810688848
 30
0.0
 40
0.66548
100
AcDbArc
 50
108.733337089
 51
123.0
  0
ARC
  5
F2
330
1F
100
AcDbEntity
  8
0
  6
Continuous
 62
     7
100
AcDbCircle
 10
0.0
 20
0.0
 30
0.0
 40
2.526330089639115
100
AcDbArc
 50
28.0662701358
 51
31.9337299504
  0
ARC
  5
F3
330
1F
100
AcDbEntity
  8
0
  6
Continuous
 62
     7
100
AcDbCircle
 10
-0.3158321187
 20
2.5540117886
 30
0.0
 40
0.6654799999999998
100
AcDbArc
 50
321.0
 51
335.2666666667
  0
ARC
  5
F4
330
1F
100
AcDbEntity
  8
0
  6
Continuous
 62
     7
100
AcDbCircle
 10
-0.9347849229
 20
2.0995613126
 30
0.0
 40
0.2590800000000016
100
AcDbArc
 50
309.7285323794
 51
345.0
  0
ARC
  5
F5
330
1F
100
AcDbEntity
  8
0
  6
Continuous
 62
     7
100
AcDbCircle
 10
1.132564154
 20
1.95586629
 30
0.0
 40
0.4220954086491575
100
AcDbArc
 50
336.733337089
 51
4.9889086676
  0
ARC
  5
F6
330
1F
100
AcDbEntity
  8
0
  6
Continuous
 62
     7
100
AcDbCircle
 10
-1.132564154
 20
1.95586629
 30
0.0
 40
0.4220954118958818
100
AcDbArc
 50
175.0110916837
 51
203.2666666659
  0
ARC
  5
F7
330
1F
100
AcDbEntity
  8
0
  6
Continuous
 62
     7
100
AcDbCircle
 10
-1.5144623856
 20
-1.6776526583
 30
0.0
 40
0.422095408649165
100
AcDbArc
 50
144.7333289524
 51
172.9888994304
  0
ARC
  5
F8
330
1F
100
AcDbEntity
  8
0
  6
Continuous
 62
     7
100
AcDbCircle
 10
0.7011674426
 20
-2.1485992472
 30
0.0
 40
0.4220954114320568
100
AcDbArc
 50
343.0110916837
 51
11.266666667
  0
ARC
  5
F9
330
1F
100
AcDbEntity
  8
0
  6
Continuous
 62
     7
100
AcDbCircle
 10
-0.2391263493
 20
2.2474281071
 30
0.0
 40
0.4220954118958693
100
AcDbArc
 50
151.0110916837
 51
179.2666666661
  0
ARC
  5
FA
330
1F
100
AcDbEntity
  8
0
  6
Continuous
 62
     7
100
AcDbCircle
 10
-2.065892998
 20
-0.9166245428
 30
0.0
 40
0.42209540864916
100
AcDbArc
 50
120.7333395355
 51
148.988911445
  0
ARC
  5
FB
330
1F
100
AcDbEntity
  8
0
  6
Continuous
 62
     7
100
AcDbCircle
 10
2.2856658949
 20
-0.240233166
 30
0.0
 40
0.25908
100
AcDbArc
 50
123.0
 51
158.2714671797
  0
ARC
  5
FC
330
1F
100
AcDbEntity
  8
0
  6
Continuous
 62
     7
100
AcDbCircle
 10
2.0635370404
 20
0.9219161514
 30
0.0
 40
0.4220954114320598
100
AcDbArc
 50
79.0110916837
 51
107.266666666
  0
ARC
  5
FD
330
1F
100
AcDbEntity
  8
0
  6
Continuous
 62
     7
100
AcDbCircle
 10
1.5144623773
 20
-1.6776525907
 30
0.0
 40
0.422095411432058
100
AcDbArc
 50
7.0110916837
 51
35.2666666663
  0
CIRCLE
  5
FE
330
1F
100
AcDbEntity
  8
0
  6
Continuous
 62
     7
100
AcDbCircle
 10
0.0
 20
0.0
 30
0.0
 40
0.9524999999999916
  0
ARC
  5
FF
330
1F
100
AcDbEntity
  8
0
  6
Continuous
 62
     7
100
AcDbCircle
 10
-2.1857713275
 20
0.7102001558
 30
0.0
 40
0.2590800000000004
100
AcDbArc
 50
326.2714676198
 51
357.7285323794
  0
ARC
  5
100
330
1F
100
AcDbEntity
  8
0
  6
Continuous
 62
     7
100
AcDbCircle
 10
-0.2333657129
 20
-2.2480335744
 30
0.0
 40
0.4220954114320575
100
AcDbArc
 50
319.0110916837
 51
347.2666666667
  0
ARC
  5
101
330
1F
100
AcDbEntity
  8
0
  6
Continuous
 62
     7
100
AcDbCircle
 10
-2.2601119788
 20
0.002896178
 30
0.0
 40
0.4220954086491575
100
AcDbArc
 50
96.7333289008
 51
124.98890731
  0
ARC
  5
102
330
1F
100
AcDbEntity
  8
0
  6
Continuous
 62
     7
100
AcDbCircle
 10
-2.2101208729
 20
-0.4727365965
 30
0.0
 40
0.4220954419062239
100
AcDbArc
 50
247.0110819332
 51
269.9999894083
  0
ARC
  5
103
330
1F
100
AcDbEntity
  8
0
  6
Continuous
 62
     7
100
AcDbCircle
 10
1.8301713275
 20
1.3261174229
 30
0.0
 40
0.422095408649157
100
AcDbArc
 50
312.733337089
 51
340.9889086676
  0
ARC
  5
104
330
1F
100
AcDbEntity
  8
0
  6
Continuous
 62
     7
100
AcDbCircle
 10
-2.2856658949
 20
-0.240233166
 30
0.0
 40
0.2590800000000015
100
AcDbArc
 50
21.7285323794
 51
57.0
  0
ARC
  5
105
330
1F
100
AcDbEntity
  8
0
  6
Continuous
 62
     7
100
AcDbCircle
 10
-1.5101577517
 20
1.6815284278
 30
0.0
 40
0.4220954086491599
100
AcDbArc
 50
48.7333371622
 51
76.988916689
  0
ARC
  5
106
330
1F
100
AcDbEntity
  8
0
  6
Continuous
 62
     7
100
AcDbCircle
 10
2.0658930085
 20
-0.9166245604
 30
0.0
 40
0.4220954114320646
100
AcDbArc
 50
31.0110916837
 51
59.2666565706
  0
ARC
  5
107
330
1F
100
AcDbEntity
  8
0
  6
Continuous
 62
     7
100
AcDbCircle
 10
2.2101209509
 20
-0.4727365965
 30
0.0
 40
0.4220954086491571
100
AcDbArc
 50
270.0
 51
292.9889086676
  0
ARC
  5
108
330
1F
100
AcDbEntity
  8
0
  6
Continuous
 62
     7
100
AcDbCircle
 10
-1.8301713275
 20
1.3261174229
 30
0.0
 40
0.42209541189588
100
AcDbArc
 50
199.0110916837
 51
227.2666666664
  0
ARC
  5
109
330
1F
100
AcDbEntity
  8
0
  6
Continuous
 62
     7
100
AcDbCircle
 10
-1.3273371787
 20
2.2047453725
 30
0.0
 40
0.6654800000000051
100
AcDbArc
 50
345.0
 51
359.2666666666
  0
ARC
  5
10A
330
1F
100
AcDbEntity
  8
0
  6
Continuous
 62
     7
100
AcDbCircle
 10
0.0
 20
0.0
 30
0.0
 40
2.526330089639112
100
AcDbArc
 50
220.0662701358
 51
223.9337299504
  0
CIRCLE
  5
10B
330
1F
100
AcDbEntity
  8
0
  6
Continuous
 62
     7
100
AcDbCircle
 10
0.0
 20
0.0
 30
0.0
 40
0.9524999999999916
  0
ARC
  5
10C
330
1F
100
AcDbEntity
  8
0
  6
Continuous
 62
     7
100
AcDbCircle
 10
0.0
 20
0.0
 30
0.0
 40
2.526330089639129
100
AcDbArc
 50
148.0662701358
 51
151.9337299504
  0
ARC
  5
10D
330
1F
100
AcDbEntity
  8
0
  6
Continuous
 62
     7
100
AcDbCircle
 10
2.2601119706
 20
0.0028961838
 30
0.0
 40
0.4220954114320575
100
AcDbArc
 50
55.0110916837
 51
83.2666666664
  0
ARC
  5
10E
330
1F
100
AcDbEntity
  8
0
  6
Continuous
 62
     7
100
AcDbCircle
 10
0.2391263493
 20
2.2474281071
 30
0.0
 40
0.4220954086491577
100
AcDbArc
 50
0.733337089
 51
28.9889086676
  0
ARC
  5
10F
330
1F
100
AcDbEntity
  8
0
  6
Continuous
 62
     7
100
AcDbCircle
 10
-2.2113252519
 20
0.467070806
 30
0.0
 40
0.4220954118958683
100
AcDbArc
 50
223.0110916837
 51
251.2666666662
  0
ARC
  5
110
330
1F
100
AcDbEntity
  8
0
  6
Continuous
 62
     7
100
AcDbCircle
 10
2.2113252519
 20
0.467070806
 30
0.0
 40
0.4220954086491574
100
AcDbArc
 50
288.733337089
 51
316.9889086676
  0
ARC
  5
111
330
1F
100
AcDbEntity
  8
0
  6
Continuous
 62
     7
100
AcDbCircle
 10
-0.7011674426
 20
-2.1485992472
 30
0.0
 40
0.4220954086491585
100
AcDbArc
 50
168.733337089
 51
196.9889086676
  0
ARC
  5
112
330
1F
100
AcDbEntity
  8
0
  6
Continuous
 62
     7
100
AcDbCircle
 10
2.1857713275
 20
0.7102001558
 30
0.0
 40
0.2590800000000002
100
AcDbArc
 50
182.2714671797
 51
213.7285323794
  0
ARC
  5
113
330
1F
100
AcDbEntity
  8
0
  6
Continuous
 62
     7
100
AcDbCircle
 10
-1.350880972
 20
-1.8593281466
 30
0.0
 40
0.2590800000000002
100
AcDbArc
 50
3.0
 51
38.2714671797
  0
ARC
  5
114
330
1F
100
AcDbEntity
  8
0
  6
Continuous
 62
     7
100
AcDbCircle
 10
-2.0539230311
 20
-1.5505245325
 30
0.0
 40
0.6654800000000021
100
AcDbArc
 50
81.0
 51
95.266666667
  0
ARC
  5
115
330
1F
100
AcDbEntity
  8
0
  6
Continuous
 62
     7
100
AcDbCircle
 10
0.0
 20
0.0
 30
0.0
 40
2.526330089639126
100
AcDbArc
 50
172.0662701358
 51
175.9337299504
  0
ARC
  5
116
330
1F
100
AcDbEntity
  8
0
  6
Continuous
 62
     7
100
AcDbCircle
 10
1.3273371787
 20
2.2047453725
 30
0.0
 40
0.66548
100
AcDbArc
 50
180.733337089
 51
195.0
  0
ARC
  5
117
330
1F
100
AcDbEntity
  8
0
  6
Continuous
 62
     7
100
AcDbCircle
 10
2.5730340908
 20
0.0471350299
 30
0.0
 40
0.66548
100
AcDbArc
 50
225.0
 51
239.2666666663
  0
ARC
  5
118
330
1F
100
AcDbEntity
  8
0
  6
Continuous
 62
     7
100
AcDbCircle
 10
1.7079370404
 20
1.5378334186
 30
0.0
 40
0.25908
100
AcDbArc
 50
237.7285323794
 51
270.0
  0
ARC
  5
119
330
1F
100
AcDbEntity
  8
0
  6
Continuous
 62
     7
100
AcDbCircle
 10
-1.7079370404
 20
1.5378334186
 30
0.0
 40
0.2590800000000002
100
AcDbArc
 50
270.0000001899
 51
302.2714671797
  0
ARC
  5
11A
330
1F
100
AcDbEntity
  8
0
  6
Continuous
 62
     7
100
AcDbCircle
 10
1.1275478166
 20
-1.9587624738
 30
0.0
 40
0.4220954086491571
100
AcDbArc
 50
216.733337089
 51
244.9889086676
  0
ARC
  5
11B
330
1F
100
AcDbEntity
  8
0
  6
Continuous
 62
     7
100
AcDbCircle
 10
0.8399393385
 20
-2.4325353135
 30
0.0
 40
0.6654800000000027
100
AcDbArc
 50
153.0
 51
167.2666666669
  0
ARC
  5
11C
330
1F
100
AcDbEntity
  8
0
  6
Continuous
 62
     7
100
AcDbCircle
 10
-2.2856658949
 20
-0.240233166
 30
0.0
 40
0.2590800000000028
100
AcDbArc
 50
315.0
 51
350.2714671391
  0
ARC
  5
11D
330
1F
100
AcDbEntity
  8
0
  6
Continuous
 62
     7
100
AcDbCircle
 10
-2.1857713275
 20
0.7102001558
 30
0.0
 40
0.2590800000000004
100
AcDbArc
 50
357.7285323794
 51
33.0
  0
ARC
  5
11E
330
1F
100
AcDbEntity
  8
0
  6
Continuous
 62
     7
100
AcDbCircle
 10
0.0
 20
0.0
 30
0.0
 40
2.52633008963912
100
AcDbArc
 50
52.0662701358
 51
55.9337299504
  0
ARC
  5
11F
330
1F
100
AcDbEntity
  8
0
  6
Continuous
 62
     7
100
AcDbCircle
 10
2.2856658949
 20
-0.240233166
 30
0.0
 40
0.2590800000000025
100
AcDbArc
 50
189.7285323794
 51
225.0
  0
ARC
  5
120
330
1F
100
AcDbEntity
  8
0
  6
Continuous
 62
     7
100
AcDbCircle
 10
-2.2101208729
 20
-0.4727365965
 30
0.0
 40
0.4220954114320568
100
AcDbArc
 50
269.9999894083
 51
275.2667213137
  0
ARC
  5
121
330
1F
100
AcDbEntity
  8
0
  6
Continuous
 62
     7
100
AcDbCircle
 10
0.4778342871
 20
-2.2480335744
 30
0.0
 40
0.25908
100
AcDbArc
 50
86.2714676198
 51
117.7285328201
  0
ARC
  5
122
330
1F
100
AcDbEntity
  8
0
  6
Continuous
 62
     7
100
AcDbCircle
 10
0.3158321187
 20
2.5540117886
 30
0.0
 40
0.66548
100
AcDbArc
 50
204.733337089
 51
219.0
  0
ARC
  5
123
330
1F
100
AcDbEntity
  8
0
  6
Continuous
 62
     7
100
AcDbCircle
 10
0.0
 20
0.0
 30
0.0
 40
2.5263300896391
100
AcDbArc
 50
316.0662701358
 51
319.9337299504
  0
ARC
  5
124
330
1F
100
AcDbEntity
  8
0
  6
Continuous
 62
     7
100
AcDbCircle
 10
0.2220784802
 20
-2.5638656931
 30
0.0
 40
0.6654800000000002
100
AcDbArc
 50
36.733337089
 51
51.0
  0
ARC
  5
125
330
1F
100
AcDbEntity
  8
0
  6
Continuous
 62
     7
100
AcDbCircle
 10
-1.7079370404
 20
1.5378334186
 30
0.0
 40
0.2590799999999898
100
AcDbArc
 50
302.2714671797
 51
333.7285324608
  0
ARC
  5
126
330
1F
100
AcDbEntity
  8
0
  6
Continuous
 62
     7
100
AcDbCircle
 10
-2.3697551499
 20
-1.0034872561
 30
0.0
 40
0.6654800000000022
100
AcDbArc
 50
324.733337089
 51
339.0
  0
ARC
  5
127
330
1F
100
AcDbEntity
  8
0
  6
Continuous
 62
     7
100
AcDbCircle
 10
0.0
 20
0.0
 30
0.0
 40
2.526330089639131
100
AcDbArc
 50
124.0662701358
 51
127.9337299504
  0
ARC
  5
128
330
1F
100
AcDbEntity
  8
0
  6
Continuous
 62
     7
100
AcDbCircle
 10
1.8267666593
 20
-1.3308035467
 30
0.0
 40
0.4220954086491567
100
AcDbArc
 50
240.733337089
 51
268.9889086676
  0
ARC
  5
129
330
1F
100
AcDbEntity
  8
0
  6
Continuous
 62
     7
100
AcDbCircle
 10
0.4778342871
 20
-2.2480335744
 30
0.0
 40
0.25908
100
AcDbArc
 50
51.0
 51
86.2714676198
  0
ARC
  5
12A
330
1F
100
AcDbEntity
  8
0
  6
Continuous
 62
     7
100
AcDbCircle
 10
0.9347849229
 20
2.0995613126
 30
0.0
 40
0.25908
100
AcDbArc
 50
261.7285324608
 51
270.0
  0
ARC
  5
12B
330
1F
100
AcDbEntity
  8
0
  6
Continuous
 62
     7
100
AcDbCircle
 10
-0.4778342871
 20
-2.2480335744
 30
0.0
 40
0.2590799999999995
100
AcDbArc
 50
62.2714669567
 51
93.7285323794
  0
ARC
  5
12C
330
1F
100
AcDbEntity
  8
0
  6
Continuous
 62
     7
100
AcDbCircle
 10
-1.9903480645
 20
-1.1491279908
 30
0.0
 40
0.2590800000000003
100
AcDbArc
 50
339.0
 51
14.2714676198
  0
ARC
  5
12D
330
1F
100
AcDbEntity
  8
0
  6
Continuous
 62
     7
100
AcDbCircle
 10
-2.5266070463
 20
0.4888588519
 30
0.0
 40
0.6654800000000003
100
AcDbArc
 50
33.0
 51
47.2666666671
  0
ARC
  5
12E
330
1F
100
AcDbEntity
  8
0
  6
Continuous
 62
     7
100
AcDbCircle
 10
2.109333582
 20
1.474258452
 30
0.0
 40
0.6654799999999997
100
AcDbArc
 50
156.733337089
 51
171.0
  0
ARC
  5
12F
330
1F
100
AcDbEntity
  8
0
  6
Continuous
 62
     7
100
AcDbCircle
 10
2.1857713275
 20
0.7102001558
 30
0.0
 40
0.2590800000000036
100
AcDbArc
 50
213.7285323794
 51
249.0
  0
ARC
  5
130
330
1F
100
AcDbEntity
  8
0
  6
Continuous
 62
     7
100
AcDbCircle
 10
1.756724015
 20
-1.8805974792
 30
0.0
 40
0.6654800000000046
100
AcDbArc
 50
177.0
 51
191.2666666665
  0
ARC
  5
131
330
1F
100
AcDbEntity
  8
0
  6
Continuous
 62
     7
100
AcDbCircle
 10
-0.4778342871
 20
-2.2480335744
 30
0.0
 40
0.2590799999999995
100
AcDbArc
 50
93.7285323794
 51
129.0
  0
ARC
  5
132
330
1F
100
AcDbEntity
  8
0
  6
Continuous
 62
     7
100
AcDbCircle
 10
0.9347849229
 20
2.0995613126
 30
0.0
 40
0.2590799999999999
100
AcDbArc
 50
230.2714676198
 51
261.7285324608
  0
ARC
  5
133
330
1F
100
AcDbEntity
  8
0
  6
Continuous
 62
     7
100
AcDbCircle
 10
-0.9347849229
 20
2.0995613126
 30
0.0
 40
0.2590799999999998
100
AcDbArc
 50
278.271467539
 51
309.7285323794
  0
ARC
  5
134
330
1F
100
AcDbEntity
  8
0
  6
Continuous
 62
     7
100
AcDbCircle
 10
0.0
 20
2.2982559817
 30
0.0
 40
0.2590800000000031
100
AcDbArc
 50
285.7285323794
 51
321.0
  0
ARC
  5
135
330
1F
100
AcDbEntity
  8
0
  6
Continuous
 62
     7
100
AcDbCircle
 10
0.7502831838
 20
2.461666364
 30
0.0
 40
0.6654799999999996
100
AcDbArc
 50
297.0
 51
311.2666666651
  0
ARC
  5
136
330
1F
100
AcDbEntity
  8
0
  6
Continuous
 62
     7
100
AcDbCircle
 10
0.0
 20
0.0
 30
0.0
 40
2.526330089639103
100
AcDbArc
 50
340.0662701358
 51
343.9337299504
  0
ARC
  5
137
330
1F
100
AcDbEntity
  8
0
  6
Continuous
 62
     7
100
AcDbCircle
 10
1.2456969121
 20
-2.2518804024
 30
0.0
 40
0.6654799999999997
100
AcDbArc
 50
60.733337089
 51
75.0
  0
ARC
  5
138
330
1F
100
AcDbEntity
  8
0
  6
Continuous
 62
     7
100
AcDbCircle
 10
0.9347849229
 20
2.0995613126
 30
0.0
 40
0.25908
100
AcDbArc
 50
195.0
 51
230.2714676198
  0
ARC
  5
139
330
1F
100
AcDbEntity
  8
0
  6
Continuous
 62
     7
100
AcDbCircle
 10
-1.350880972
 20
-1.8593281466
 30
0.0
 40
0.2590800000000003
100
AcDbArc
 50
38.2714671797
 51
69.7285323794
  0
ARC
  5
13A
330
1F
100
AcDbEntity
  8
0
  6
Continuous
 62
     7
100
AcDbCircle
 10
-0.7502831838
 20
2.461666364
 30
0.0
 40
0.6654799999999998
100
AcDbArc
 50
228.733337089
 51
243.0
  0
ARC
  5
13B
330
1F
100
AcDbEntity
  8
0
  6
Continuous
 62
     7
100
AcDbCircle
 10
0.6956585736
 20
2.1503891872
 30
0.0
 40
0.4220954114320606
100
AcDbArc
 50
127.0110916837
 51
155.2666666654
  0
ARC
  5
13C
330
1F
100
AcDbEntity
  8
0
  6
Continuous
 62
     7
100
AcDbCircle
 10
2.2101209509
 20
-0.4727365965
 30
0.0
 40
0.4220954086491571
100
AcDbArc
 50
264.733337089
 51
270.0
  0
ARC
  5
13D
330
1F
100
AcDbEntity
  8
0
  6
Continuous
 62
     7
100
AcDbCircle
 10
1.350880972
 20
-1.8593281466
 30
0.0
 40
0.2590800000000003
100
AcDbArc
 50
75.0
 51
110.2714671391
  0
ARC
  5
13E
330
1F
100
AcDbEntity
  8
0
  6
Continuous
 62
     7
100
AcDbCircle
 10
-1.9903480645
 20
-1.1491279908
 30
0.0
 40
0.2590800000000001
100
AcDbArc
 50
45.7285323794
 51
81.0
  0
ARC
  5
13F
330
1F
100
AcDbEntity
  8
0
  6
Continuous
 62
     7
100
AcDbCircle
 10
-2.5070071988
 20
-0.5810688848
 30
0.0
 40
0.6654800000000018
100
AcDbArc
 50
57.0
 51
71.2666666665
  0
ARC
  5
140
330
1F
100
AcDbEntity
  8
0
  6
Continuous
 62
     7
100
AcDbCircle
 10
-0.9347849229
 20
2.0995613126
 30
0.0
 40
0.25908
100
AcDbArc
 50
270.0
 51
278.271467539
  0
ARC
  5
141
330
1F
100
AcDbEntity
  8
0
  6
Continuous
 62
     7
100
AcDbCircle
 10
0.0
 20
0.0
 30
0.0
 40
2.526330089639126
100
AcDbArc
 50
76.0662701358
 51
79.9337299504
  0
ARC
  5
142
330
1F
100
AcDbEntity
  8
0
  6
Continuous
 62
     7
100
AcDbCircle
 10
2.3697551499
 20
-1.0034872561
 30
0.0
 40
0.6654800000000003
100
AcDbArc
 50
201.0
 51
215.2666666671
  0
ARC
  5
143
330
1F
100
AcDbEntity
  8
0
  6
Continuous
 62
     7
100
AcDbCircle
 10
0.4778342871
 20
-2.2480335744
 30
0.0
 40
0.2590800000000016
100
AcDbArc
 50
117.7285328201
 51
153.0
  0
ARC
  5
144
330
1F
100
AcDbEntity
  8
0
  6
Continuous
 62
     7
100
AcDbCircle
 10
-1.1275478166
 20
-1.9587624738
 30
0.0
 40
0.4220954114320575
100
AcDbArc
 50
295.0110916837
 51
323.2666666692
  0
ARC
  5
145
330
1F
100
AcDbEntity
  8
0
  6
Continuous
 62
     7
100
AcDbCircle
 10
-2.0635370927
 20
0.9219161413
 30
0.0
 40
0.4220954086491572
100
AcDbArc
 50
72.7333237249
 51
100.988901434
  0
ARC
  5
146
330
1F
100
AcDbEntity
  8
0
  6
Continuous
 62
     7
100
AcDbCircle
 10
0.0
 20
0.0
 30
0.0
 40
2.526330089639107
100
AcDbArc
 50
4.0662701358
 51
7.9337299504
  0
ARC
  5
147
330
1F
100
AcDbEntity
  8
0
  6
Continuous
 62
     7
100
AcDbCircle
 10
2.0539230311
 20
-1.5505245325
 30
0.0
 40
0.6654800000000001
100
AcDbArc
 50
84.733337089
 51
99.0
  0
ARC
  5
148
330
1F
100
AcDbEntity
  8
0
  6
Continuous
 62
     7
100
AcDbCircle
 10
0.0
 20
0.0
 30
0.0
 40
2.526330089639106
100
AcDbArc
 50
244.0662701358
 51
247.9337299504
  0
ARC
  5
149
330
1F
100
AcDbEntity
  8
0
  6
Continuous
 62
     7
100
AcDbCircle
 10
-1.350880972
 20
-1.8593281466
 30
0.0
 40
0.2590800000000003
100
AcDbArc
 50
69.7285323794
 51
105.0
  0
ARC
  5
14A
330
1F
100
AcDbEntity
  8
0
  6
Continuous
 62
     7
100
AcDbCircle
 10
1.9903480645
 20
-1.1491279908
 30
0.0
 40
0.2590800000000007
100
AcDbArc
 50
99.0
 51
134.2714676202
  0
ARC
  5
14B
330
1F
100
AcDbEntity
  8
0
  6
Continuous
 62
     7
100
AcDbCircle
 10
-0.9347849229
 20
2.0995613126
 30
0.0
 40
0.2590800000000023
100
AcDbArc
 50
243.0
 51
270.0
  0
ARC
  5
14C
330
1F
100
AcDbEntity
  8
0
  6
Continuous
 62
     7
100
AcDbCircle
 10
1.9903480645
 20
-1.1491279908
 30
0.0
 40
0.2590799999999997
100
AcDbArc
 50
134.2714676202
 51
165.728533301
  0
ARC
  5
14D
330
1F
100
AcDbEntity
  8
0
  6
Continuous
 62
     7
100
AcDbCircle
 10
-1.7079370404
 20
1.5378334186
 30
0.0
 40
0.2590800000000002
100
AcDbArc
 50
266.9999986212
 51
270.0000001899
  0
ARC
  5
14E
330
1F
100
AcDbEntity
  8
0
  6
Continuous
 62
     7
100
AcDbCircle
 10
1.7079370404
 20
1.5378334186
 30
0.0
 40
0.25908
100
AcDbArc
 50
237.7285323794
 51
270.0
  0
ARC
  5
14F
330
1F
100
AcDbEntity
  8
0
  6
Continuous
 62
     7
100
AcDbCircle
 10
-1.6866677078
 20
1.9436764615
 30
0.0
 40
0.6654800000000001
100
AcDbArc
 50
252.733337089
 51
266.9999994632
  0
ARC
  5
150
330
1F
100
AcDbEntity
  8
0
  6
Continuous
 62
     7
100
AcDbCircle
 10
1.132564154
 20
1.95586629
 30
0.0
 40
0.4220954086491575
100
AcDbArc
 50
336.733337089
 51
4.9889086676
  0
ARC
  5
151
330
1F
100
AcDbEntity
  8
0
  6
Continuous
 62
     7
100
AcDbCircle
 10
-2.065892998
 20
-0.9166245428
 30
0.0
 40
0.42209540864916
100
AcDbArc
 50
120.7333395355
 51
148.988911445
  0
ARC
  5
152
330
1F
100
AcDbEntity
  8
0
  6
Continuous
 62
     7
100
AcDbCircle
 10
0.0
 20
0.0
 30
0.0
 40
2.52633008963912
100
AcDbArc
 50
52.0662701358
 51
55.9337299504
  0
ARC
  5
153
330
1F
100
AcDbEntity
  8
0
  6
Continuous
 62
     7
100
AcDbCircle
 10
0.0
 20
0.0
 30
0.0
 40
2.526330089639099
100
AcDbArc
 50
292.0662701358
 51
295.9337299504
  0
ARC
  5
154
330
1F
100
AcDbEntity
  8
0
  6
Continuous
 62
     7
100
AcDbCircle
 10
0.4778342871
 20
-2.2480335744
 30
0.0
 40
0.2590800000000016
100
AcDbArc
 50
117.7285328201
 51
153.0
  0
ARC
  5
155
330
1F
100
AcDbEntity
  8
0
  6
Continuous
 62
     7
100
AcDbCircle
 10
-1.350880972
 20
-1.8593281466
 30
0.0
 40
0.2590800000000002
100
AcDbArc
 50
3.0
 51
38.2714671797
  0
ARC
  5
156
330
1F
100
AcDbEntity
  8
0
  6
Continuous
 62
     7
100
AcDbCircle
 10
1.9903480645
 20
-1.1491279908
 30
0.0
 40
0.2590800000000023
100
AcDbArc
 50
165.728533301
 51
201.0
  0
ARC
  5
157
330
1F
100
AcDbEntity
  8
0
  6
Continuous
 62
     7
100
AcDbCircle
 10
0.0
 20
0.0
 30
0.0
 40
2.526330089639119
100
AcDbArc
 50
196.0662701358
 51
199.9337299504
  0
ARC
  5
158
330
1F
100
AcDbEntity
  8
0
  6
Continuous
 62
     7
100
AcDbCircle
 10
-2.3314120622
 20
1.0896072411
 30
0.0
 40
0.6654800000000001
100
AcDbArc
 50
276.733337089
 51
291.0
  0
ARC
  5
159
330
1F
100
AcDbEntity
  8
0
  6
Continuous
 62
     7
100
AcDbCircle
 10
0.7011674426
 20
-2.1485992472
 30
0.0
 40
0.4220954114320568
100
AcDbArc
 50
343.0110916837
 51
11.266666667
  0
ARC
  5
15A
330
1F
100
AcDbEntity
  8
0
  6
Continuous
 62
     7
100
AcDbCircle
 10
-1.7079370404
 20
1.5378334186
 30
0.0
 40
0.2590799999999828
100
AcDbArc
 50
333.7285324608
 51
9.0
  0
ARC
  5
15B
330
1F
100
AcDbEntity
  8
0
  6
Continuous
 62
     7
100
AcDbCircle
 10
1.350880972
 20
-1.8593281466
 30
0.0
 40
0.2590800000000003
100
AcDbArc
 50
75.0
 51
110.2714671391
  0
ARC
  5
15C
330
1F
100
AcDbEntity
  8
0
  6
Continuous
 62
     7
100
AcDbCircle
 10
-2.2101208729
 20
-0.4727365965
 30
0.0
 40
0.4220954419062239
100
AcDbArc
 50
247.0110819332
 51
269.9999894083
  0
ARC
  5
15D
330
1F
100
AcDbEntity
  8
0
  6
Continuous
 62
     7
100
AcDbCircle
 10
0.2391263493
 20
2.2474281071
 30
0.0
 40
0.4220954086491577
100
AcDbArc
 50
0.733337089
 51
28.9889086676
  0
ARC
  5
15E
330
1F
100
AcDbEntity
  8
0
  6
Continuous
 62
     7
100
AcDbCircle
 10
-1.5144623856
 20
-1.6776526583
 30
0.0
 40
0.422095408649165
100
AcDbArc
 50
144.7333289524
 51
172.9888994304
  0
ARC
  5
15F
330
1F
100
AcDbEntity
  8
0
  6
Continuous
 62
     7
100
AcDbCircle
 10
0.0
 20
0.0
 30
0.0
 40
2.526330089639126
100
AcDbArc
 50
76.0662701358
 51
79.9337299504
  0
ARC
  5
160
330
1F
100
AcDbEntity
  8
0
  6
Continuous
 62
     7
100
AcDbCircle
 10
0.0
 20
0.0
 30
0.0
 40
2.5263300896391
100
AcDbArc
 50
316.0662701358
 51
319.9337299504
  0
LINE
  5
161
330
1F
100
AcDbEntity
  8
0
  6
Continuous
 62
     7
100
AcDbLine
 10
2.2816020079
 20
-0.5538103325
 30
0.0
 11
2.2329451456
 21
-0.5248817004
 31
0.0
  0
LINE
  5
162
330
1F
100
AcDbEntity
  8
0
  6
Continuous
 62
     7
100
AcDbLine
 10
-0.6611871886
 20
2.2528303911
 30
0.0
 11
-0.6619116863
 21
2.1962280706
 31
0.0
  0
LINE
  5
163
330
1F
100
AcDbEntity
  8
0
  6
Continuous
 62
     7
100
AcDbLine
 10
0.3122841187
 20
2.3269920288
 30
0.0
 11
0.2886000189
 21
2.275577916
 31
0.0
  0
LINE
  5
164
330
1F
100
AcDbEntity
  8
0
  6
Continuous
 62
     7
100
AcDbLine
 10
-2.1713757915
 20
-0.8930499907
 30
0.0
 11
-2.1150082921
 21
-0.88785401
 31
0.0
  0
LINE
  5
165
330
1F
100
AcDbEntity
  8
0
  6
Continuous
 62
     7
100
AcDbLine
 10
-2.1165998322
 20
1.0160799278
 30
0.0
 11
-2.0750208942
 21
0.977667176
 31
0.0
  0
LINE
  5
166
330
1F
100
AcDbEntity
  8
0
  6
Continuous
 62
     7
100
AcDbLine
 10
-1.5203332235
 20
1.7891339131
 30
0.0
 11
-1.4979728473
 21
1.7371304406
 31
0.0
  0
LINE
  5
167
330
1F
100
AcDbEntity
  8
0
  6
Continuous
 62
     7
100
AcDbLine
 10
-0.7892688087
 20
-2.2112141508
 30
0.0
 11
-0.7554126682
 21
-2.1658477609
 31
0.0
  0
LINE
  5
168
330
1F
100
AcDbEntity
  8
0
  6
Continuous
 62
     7
100
AcDbLine
 10
-1.6204147548
 20
-1.6990200975
 30
0.0
 11
-1.5710334585
 21
-1.6713463707
 31
0.0
  0
LINE
  5
169
330
1F
100
AcDbEntity
  8
0
  6
Continuous
 62
     7
100
AcDbLine
 10
1.859092152
 20
-1.4339419945
 30
0.0
 11
1.8264082741
 21
-1.3877239059
 31
0.0
  0
LINE
  5
16A
330
1F
100
AcDbEntity
  8
0
  6
Continuous
 62
     7
100
AcDbLine
 10
1.1151284376
 20
-2.0661320966
 30
0.0
 11
1.1040688196
 21
-2.010616041
 31
0.0
  0
LINE
  5
16B
330
1F
100
AcDbEntity
  8
0
  6
Continuous
 62
     7
100
AcDbLine
 10
1.9382509469
 20
1.3249892603
 30
0.0
 11
1.8841950589
 21
1.3081872201
 31
0.0
  0
LINE
  5
16C
330
1F
100
AcDbEntity
  8
0
  6
Continuous
 62
     7
100
AcDbLine
 10
0.1783488857
 20
-2.3410691891
 30
0.0
 11
0.1908258361
 21
-2.2858543967
 31
0.0
  0
LINE
  5
16D
330
1F
100
AcDbEntity
  8
0
  6
Continuous
 62
     7
100
AcDbLine
 10
-0.7892702377
 20
-2.2112160664
 30
0.0
 11
-0.7554126676
 21
-2.1658477602
 31
0.0
  0
LINE
  5
16E
330
1F
100
AcDbEntity
  8
0
  6
Continuous
 62
     7
100
AcDbLine
 10
2.2816040625
 20
-0.5538115535
 30
0.0
 11
2.2329451448
 21
-0.5248816999
 31
0.0
  0
LINE
  5
16F
330
1F
100
AcDbEntity
  8
0
  6
Continuous
 62
     7
100
AcDbLine
 10
-2.3468871013
 20
0.0673364921
 30
0.0
 11
-2.2932789776
 21
0.0491563749
 31
0.0
  0
LINE
  5
170
330
1F
100
AcDbEntity
  8
0
  6
Continuous
 62
     7
100
AcDbLine
 10
1.8590935323
 20
-1.4339439455
 30
0.0
 11
1.8264082736
 21
-1.3877239051
 31
0.0
  0
LINE
  5
171
330
1F
100
AcDbEntity
  8
0
  6
Continuous
 62
     7
100
AcDbLine
 10
1.115128905
 20
-2.0661344404
 30
0.0
 11
1.1040688194
 21
-2.0106160401
 31
0.0
  0
LINE
  5
172
330
1F
100
AcDbEntity
  8
0
  6
Continuous
 62
     7
100
AcDbLine
 10
0.1783483594
 20
-2.3410715204
 30
0.0
 11
0.1908258363
 21
-2.2858543958
 31
0.0
  0
LINE
  5
173
330
1F
100
AcDbEntity
  8
0
  6
Continuous
 62
     7
100
AcDbLine
 10
1.938253229
 20
1.3249899701
 30
0.0
 11
1.8841950579
 21
1.3081872198
 31
0.0
  0
LINE
  5
174
330
1F
100
AcDbEntity
  8
0
  6
Continuous
 62
     7
100
AcDbLine
 10
2.3096020322
 20
0.4220802366
 30
0.0
 11
2.2533855158
 21
0.4287173195
 31
0.0
  0
LINE
  5
175
330
1F
100
AcDbEntity
  8
0
  6
Continuous
 62
     7
100
AcDbLine
 10
1.2317586247
 20
1.9987955695
 30
0.0
 11
1.1892101582
 21
1.9614596652
 31
0.0
  0
LINE
  5
176
330
1F
100
AcDbEntity
  8
0
  6
Continuous
 62
     7
100
AcDbLine
 10
0.3122851183
 20
2.3269941997
 30
0.0
 11
0.2886000185
 21
2.2755779152
 31
0.0
  0
LINE
  5
177
330
1F
100
AcDbEntity
  8
0
  6
Continuous
 62
     7
100
AcDbLine
 10
1.2317577272
 20
1.9987947813
 30
0.0
 11
1.1892101589
 21
1.9614596658
 31
0.0
  0
LINE
  5
178
330
1F
100
AcDbEntity
  8
0
  6
Continuous
 62
     7
100
AcDbLine
 10
2.3096044056
 20
0.4220799569
 30
0.0
 11
2.2533855148
 21
0.4287173196
 31
0.0
  0
LINE
  5
179
330
1F
100
AcDbEntity
  8
0
  6
Continuous
 62
     7
100
AcDbLine
 10
-1.1892101269
 20
1.9614596377
 30
0.0
 11
-1.2317586306
 21
1.9987956076
 31
0.0
  0
LINE
  5
17A
330
1F
100
AcDbEntity
  8
0
  6
Continuous
 62
     7
100
AcDbLine
 10
-0.288600001
 20
2.2755778773
 30
0.0
 11
-0.3122841117
 21
2.3269920069
 31
0.0
  0
LINE
  5
17B
330
1F
100
AcDbEntity
  8
0
  6
Continuous
 62
     7
100
AcDbLine
 10
-2.2329451089
 20
-0.5248816786
 30
0.0
 11
-2.2816019721
 21
-0.5538103032
 31
0.0
  0
LINE
  5
17C
330
1F
100
AcDbEntity
  8
0
  6
Continuous
 62
     7
100
AcDbLine
 10
2.1150082505
 20
-0.8878540062
 30
0.0
 11
2.1713762995
 21
-0.8930500342
 31
0.0
  0
LINE
  5
17D
330
1F
100
AcDbEntity
  8
0
  6
Continuous
 62
     7
100
AcDbLine
 10
-2.2533854734
 20
0.4287173245
 30
0.0
 11
-2.3096020085
 21
0.4220802318
 31
0.0
  0
LINE
  5
17E
330
1F
100
AcDbEntity
  8
0
  6
Continuous
 62
     7
100
AcDbLine
 10
0.6619116868
 20
2.1962280289
 30
0.0
 11
0.661187185
 21
2.2528304206
 31
0.0
  0
LINE
  5
17F
330
1F
100
AcDbEntity
  8
0
  6
Continuous
 62
     7
100
AcDbLine
 10
0.7554126426
 20
-2.1658477267
 30
0.0
 11
0.7892688281
 21
-2.2112141721
 31
0.0
  0
LINE
  5
180
330
1F
100
AcDbEntity
  8
0
  6
Continuous
 62
     7
100
AcDbLine
 10
1.4979728308
 20
1.7371304022
 30
0.0
 11
1.5203332322
 21
1.7891339416
 31
0.0
  0
LINE
  5
181
330
1F
100
AcDbEntity
  8
0
  6
Continuous
 62
     7
100
AcDbLine
 10
-0.1783488767
 20
-2.3410692164
 30
0.0
 11
-0.1908258455
 21
-2.2858543551
 31
0.0
  0
LINE
  5
182
330
1F
100
AcDbEntity
  8
0
  6
Continuous
 62
     7
100
AcDbLine
 10
2.0750208636
 20
0.9776671477
 30
0.0
 11
2.1165998518
 21
1.0160799502
 31
0.0
  0
LINE
  5
183
330
1F
100
AcDbEntity
  8
0
  6
Continuous
 62
     7
100
AcDbLine
 10
2.2932789381
 20
0.0491563615
 30
0.0
 11
2.3468871283
 21
0.0673365047
 31
0.0
  0
LINE
  5
184
330
1F
100
AcDbEntity
  8
0
  6
Continuous
 62
     7
100
AcDbLine
 10
-1.1040688113
 20
-2.0106159991
 30
0.0
 11
-1.1151284405
 21
-2.0661321252
 31
0.0
  0
LINE
  5
185
330
1F
100
AcDbEntity
  8
0
  6
Continuous
 62
     7
100
AcDbLine
 10
1.5710334221
 20
-1.6713463503
 30
0.0
 11
1.6204147822
 21
-1.6990201091
 31
0.0
  0
LINE
  5
186
330
1F
100
AcDbEntity
  8
0
  6
Continuous
 62
     7
100
AcDbLine
 10
-1.8841950181
 20
1.3081872074
 30
0.0
 11
-1.9382509333
 21
1.3249892268
 31
0.0
  0
LINE
  5
187
330
1F
100
AcDbEntity
  8
0
  6
Continuous
 62
     7
100
AcDbLine
 10
-1.9382509333
 20
1.3249892268
 30
0.0
 11
-1.8841950181
 21
1.3081872074
 31
0.0
  0
LINE
  5
188
330
1F
100
AcDbEntity
  8
0
  6
Continuous
 62
     7
100
AcDbLine
 10
-1.2317586306
 20
1.9987956076
 30
0.0
 11
-1.1892101269
 21
1.9614596377
 31
0.0
  0
LINE
  5
189
330
1F
100
AcDbEntity
  8
0
  6
Continuous
 62
     7
100
AcDbLine
 10
-1.8264082495
 20
-1.3877238711
 30
0.0
 11
-1.85909214
 21
-1.433942038
 31
0.0
  0
LINE
  5
18A
330
1F
100
AcDbEntity
  8
0
  6
Continuous
 62
     7
100
AcDbLine
 10
-2.2816019721
 20
-0.5538103032
 30
0.0
 11
-2.2329451089
 21
-0.5248816786
 31
0.0
  0
LINE
  5
18B
330
1F
100
AcDbEntity
  8
0
  6
Continuous
 62
     7
100
AcDbLine
 10
0.661187185
 20
2.2528304206
 30
0.0
 11
0.6619116868
 21
2.1962280289
 31
0.0
  0
LINE
  5
18C
330
1F
100
AcDbEntity
  8
0
  6
Continuous
 62
     7
100
AcDbLine
 10
-2.2932789795
 20
0.0491563755
 30
0.0
 11
-2.3468871031
 21
0.0673364927
 31
0.0
  0
LINE
  5
18D
330
1F
100
AcDbEntity
  8
0
  6
Continuous
 62
     7
100
AcDbLine
 10
2.1713762995
 20
-0.8930500342
 30
0.0
 11
2.1150082505
 21
-0.8878540062
 31
0.0
  0
LINE
  5
18E
330
1F
100
AcDbEntity
  8
0
  6
Continuous
 62
     7
100
AcDbLine
 10
0.0
 20
0.7361677812
 30
0.0
 11
0.63754
 21
0.3680838906
 31
0.0
  0
LINE
  5
18F
330
1F
100
AcDbEntity
  8
0
  6
Continuous
 62
     7
100
AcDbLine
 10
-2.0750208956
 20
0.9776671773
 30
0.0
 11
-2.1165998336
 21
1.0160799291
 31
0.0
  0
LINE
  5
190
330
1F
100
AcDbEntity
  8
0
  6
Continuous
 62
     7
100
AcDbLine
 10
1.6204147822
 20
-1.6990201091
 30
0.0
 11
1.5710334221
 21
-1.6713463503
 31
0.0
  0
LINE
  5
191
330
1F
100
AcDbEntity
  8
0
  6
Continuous
 62
     7
100
AcDbLine
 10
1.5203332322
 20
1.7891339416
 30
0.0
 11
1.4979728308
 21
1.7371304022
 31
0.0
  0
LINE
  5
192
330
1F
100
AcDbEntity
  8
0
  6
Continuous
 62
     7
100
AcDbLine
 10
-1.85909214
 20
-1.433942038
 30
0.0
 11
-1.8264082495
 21
-1.3877238711
 31
0.0
  0
LINE
  5
193
330
1F
100
AcDbEntity
  8
0
  6
Continuous
 62
     7
100
AcDbLine
 10
0.63754
 20
0.3680838906
 30
0.0
 11
0.63754
 21
-0.3680838906
 31
0.0
  0
LINE
  5
194
330
1F
100
AcDbEntity
  8
0
  6
Continuous
 62
     7
100
AcDbLine
 10
0.7892688281
 20
-2.2112141721
 30
0.0
 11
0.7554126426
 21
-2.1658477267
 31
0.0
  0
LINE
  5
195
330
1F
100
AcDbEntity
  8
0
  6
Continuous
 62
     7
100
AcDbLine
 10
-0.3122841117
 20
2.3269920069
 30
0.0
 11
-0.288600001
 21
2.2755778773
 31
0.0
  0
LINE
  5
196
330
1F
100
AcDbEntity
  8
0
  6
Continuous
 62
     7
100
AcDbLine
 10
-1.497972848
 20
1.7371304423
 30
0.0
 11
-1.5203332242
 21
1.7891339149
 31
0.0
  0
LINE
  5
197
330
1F
100
AcDbEntity
  8
0
  6
Continuous
 62
     7
100
AcDbLine
 10
0.63754
 20
-0.3680838906
 30
0.0
 11
0.0
 21
-0.7361677812
 31
0.0
  0
LINE
  5
198
330
1F
100
AcDbEntity
  8
0
  6
Continuous
 62
     7
100
AcDbLine
 10
0.0
 20
-0.7361677812
 30
0.0
 11
-0.63754
 21
-0.3680838906
 31
0.0
  0
LINE
  5
199
330
1F
100
AcDbEntity
  8
0
  6
Continuous
 62
     7
100
AcDbLine
 10
-0.63754
 20
-0.3680838906
 30
0.0
 11
-0.63754
 21
0.3680838906
 31
0.0
  0
LINE
  5
19A
330
1F
100
AcDbEntity
  8
0
  6
Continuous
 62
     7
100
AcDbLine
 10
-0.63754
 20
0.3680838906
 30
0.0
 11
0.0
 21
0.7361677812
 31
0.0
  0
LINE
  5
19B
330
1F
100
AcDbEntity
  8
0
  6
Continuous
 62
     7
100
AcDbLine
 10
0.63754
 20
-0.3680838906
 30
0.0
 11
0.0
 21
-0.7361677812
 31
0.0
  0
LINE
  5
19C
330
1F
100
AcDbEntity
  8
0
  6
Continuous
 62
     7
100
AcDbLine
 10
0.0
 20
-0.7361677812
 30
0.0
 11
-0.63754
 21
-0.3680838906
 31
0.0
  0
LINE
  5
19D
330
1F
100
AcDbEntity
  8
0
  6
Continuous
 62
     7
100
AcDbLine
 10
-0.63754
 20
0.3680838906
 30
0.0
 11
0.0
 21
0.7361677812
 31
0.0
  0
LINE
  5
19E
330
1F
100
AcDbEntity
  8
0
  6
Continuous
 62
     7
100
AcDbLine
 10
0.63754
 20
0.3680838906
 30
0.0
 11
0.63754
 21
-0.3680838906
 31
0.0
  0
LINE
  5
19F
330
1F
100
AcDbEntity
  8
0
  6
Continuous
 62
     7
100
AcDbLine
 10
0.0
 20
0.7361677812
 30
0.0
 11
0.63754
 21
0.3680838906
 31
0.0
  0
LINE
  5
1A0
330
1F
100
AcDbEntity
  8
0
  6
Continuous
 62
     7
100
AcDbLine
 10
2.3468871283
 20
0.0673365047
 30
0.0
 11
2.2932789381
 21
0.0491563615
 31
0.0
  0
LINE
  5
1A1
330
1F
100
AcDbEntity
  8
0
  6
Continuous
 62
     7
100
AcDbLine
 10
-1.1151284405
 20
-2.0661321252
 30
0.0
 11
-1.1040688113
 21
-2.0106159991
 31
0.0
  0
LINE
  5
1A2
330
1F
100
AcDbEntity
  8
0
  6
Continuous
 62
     7
100
AcDbLine
 10
-2.1150082939
 20
-0.8878540102
 30
0.0
 11
-2.1713757934
 21
-0.8930499909
 31
0.0
  0
LINE
  5
1A3
330
1F
100
AcDbEntity
  8
0
  6
Continuous
 62
     7
100
AcDbLine
 10
-2.3096020085
 20
0.4220802318
 30
0.0
 11
-2.2533854734
 21
0.4287173245
 31
0.0
  0
LINE
  5
1A4
330
1F
100
AcDbEntity
  8
0
  6
Continuous
 62
     7
100
AcDbLine
 10
-0.6619116863
 20
2.1962280725
 30
0.0
 11
-0.6611871886
 21
2.252830393
 31
0.0
  0
LINE
  5
1A5
330
1F
100
AcDbEntity
  8
0
  6
Continuous
 62
     7
100
AcDbLine
 10
2.1165998518
 20
1.0160799502
 30
0.0
 11
2.0750208636
 21
0.9776671477
 31
0.0
  0
LINE
  5
1A6
330
1F
100
AcDbEntity
  8
0
  6
Continuous
 62
     7
100
AcDbLine
 10
-0.1783488767
 20
-2.3410692164
 30
0.0
 11
-0.1908258455
 21
-2.2858543551
 31
0.0
  0
LINE
  5
1A7
330
1F
100
AcDbEntity
  8
0
  6
Continuous
 62
     7
100
AcDbLine
 10
-1.5710334601
 20
-1.6713463716
 30
0.0
 11
-1.6204147565
 21
-1.6990200985
 31
0.0
  0
LINE
  5
1A8
330
1F
100
AcDbEntity
  8
0
  6
Continuous
 62
     7
100
AcDbLine
 10
-0.63754
 20
-0.3680838906
 30
0.0
 11
-0.63754
 21
0.3680838906
 31
0.0
  0
MTEXT
  5
1AA
330
1F
100
AcDbEntity
  8
0
  6
Continuous
 62
     7
100
AcDbMText
 10
-2.5199705606
 20
-2.6282867288
 30
0.0
 40
0.483362
 41
0.0
 71
     1
 72
     1
  1
SOLIDWORKS Educational Product.
  7
SLDTEXTSTYLE0
 73
     1
 44
1.0
  0
MTEXT
  5
1AB
330
1F
100
AcDbEntity
  8
0
  6
Continuous
 62
     7
100
AcDbMText
 10
-2.5199705606
 20
-3.3533297288
 30
0.0
 40
0.483362
 41
0.0
 71
     1
 72
     1
  1
For Instructional Use Only.
  7
SLDTEXTSTYLE0
 73
     1
 44
1.0
  0
ENDSEC
  0
SECTION
  2
OBJECTS
  0
DICTIONARY
  5
C
330
0
100
AcDbDictionary
281
     1
  3
ACAD_GROUP
350
D
  3
ACAD_LAYOUT
350
1A
  3
ACAD_MLINESTYLE
350
17
  3
ACAD_PLOTSETTINGS
350
19
  3
ACAD_PLOTSTYLENAME
350
E
  3
ACAD_SCALELIST
350
47
  3
DWGPROPS
350
1AC
  0
DICTIONARY
  5
D
102
{ACAD_REACTORS
330
C
102
}
330
C
100
AcDbDictionary
281
     1
  0
DICTIONARY
  5
1A
102
{ACAD_REACTORS
330
C
102
}
330
C
100
AcDbDictionary
281
     1
  3
Layout1
350
1E
  3
Layout2
350
26
  3
Model
350
22
  0
DICTIONARY
  5
17
102
{ACAD_REACTORS
330
C
102
}
330
C
100
AcDbDictionary
281
     1
  3
Standard
350
18
  0
DICTIONARY
  5
19
102
{ACAD_REACTORS
330
C
102
}
330
C
100
AcDbDictionary
281
     1
  0
ACDBDICTIONARYWDFLT
  5
E
102
{ACAD_REACTORS
330
C
102
}
330
C
100
AcDbDictionary
281
     1
  3
Normal
350
F
100
AcDbDictionaryWithDefault
340
F
  0
DICTIONARY
  5
47
102
{ACAD_REACTORS
330
C
102
}
330
C
100
AcDbDictionary
281
     1
  3
A0
350
48
  3
A1
350
49
  3
A2
350
4A
  3
A3
350
4B
  3
A4
350
4C
  3
A5
350
4D
  3
A6
350
4E
  3
A7
350
4F
  3
A8
350
50
  3
A9
350
51
  3
B0
350
52
  3
B1
350
53
  3
B2
350
54
  3
B3
350
55
  3
B4
350
56
  3
B5
350
57
  3
B6
350
58
  0
XRECORD
  5
1AC
102
{ACAD_REACTORS
330
C
102
}
330
C
100
AcDbXrecord
280
     1
  1
DWGPROPS COOKIE
  2

  3

  4

  6

  7

  8
mylesseckler
  9

300
=
301
=
302
=
303
=
304
=
305
=
306
=
307
=
308
=
309
=
 40
0.0
 41
2460725.216622894
 42
2460725.216662581
  1

 90
        0
  0
LAYOUT
  5
1E
102
{ACAD_REACTORS
330
1A
102
}
330
1A
100
AcDbPlotSettings
  1

  2
none_device
  4

  6

 40
0.0
 41
0.0
 42
0.0
 43
0.0
 44
0.0
 45
0.0
 46
0.0
 47
0.0
 48
0.0
 49
0.0
140
0.0
141
0.0
142
1.0
143
1.0
 70
   688
 72
     1
 73
     0
 74
     5
  7

 75
    16
147
1.0
148
0.0
149
0.0
100
AcDbLayout
  1
Layout1
 70
     1
 71
     1
 10
0.0
 20
0.0
 11
420.0
 21
297.0
 12
0.0
 22
0.0
 32
0.0
 14
1.0000000000E+20
 24
1.0000000000E+20
 34
1.0000000000E+20
 15
-1.0000000000E+20
 25
-1.0000000000E+20
 35
-1.0000000000E+20
146
0.0
 13
0.0
 23
0.0
 33
0.0
 16
1.0
 26
0.0
 36
0.0
 17
0.0
 27
1.0
 37
0.0
 76
     0
330
1B
  0
LAYOUT
  5
26
102
{ACAD_REACTORS
330
1A
102
}
330
1A
100
AcDbPlotSettings
  1

  2
none_device
  4

  6

 40
0.0
 41
0.0
 42
0.0
 43
0.0
 44
0.0
 45
0.0
 46
0.0
 47
0.0
 48
0.0
 49
0.0
140
0.0
141
0.0
142
1.0
143
1.0
 70
   688
 72
     1
 73
     0
 74
     5
  7

 75
    16
147
1.0
148
0.0
149
0.0
100
AcDbLayout
  1
Layout2
 70
     1
 71
     2
 10
0.0
 20
0.0
 11
0.0
 21
0.0
 12
0.0
 22
0.0
 32
0.0
 14
0.0
 24
0.0
 34
0.0
 15
0.0
 25
0.0
 35
0.0
146
0.0
 13
0.0
 23
0.0
 33
0.0
 16
1.0
 26
0.0
 36
0.0
 17
0.0
 27
1.0
 37
0.0
 76
     0
330
23
  0
LAYOUT
  5
22
102
{ACAD_REACTORS
330
1A
102
}
330
1A
100
AcDbPlotSettings
  1

  2
none_device
  4
ANSI_A_(11.00_x_8.50_Inches)
  6

 40
6.35
 41
19.05
 42
6.35000508
 43
19.05000254
 44
279.4
 45
215.9
 46
133.349997473
 47
89.7289480619
 48
0.0
 49
0.0
140
0.0
141
0.0
142
1.6783775873
143
1.0
 70
  1696
 72
     0
 73
     0
 74
     0
  7

 75
     0
147
0.0179189148
148
-1300.4909072572
149
0.0
100
AcDbLayout
  1
Model
 70
     1
 71
     0
 10
0.0
 20
0.0
 11
420.0
 21
297.0
 12
0.0
 22
0.0
 32
0.0
 14
-2.5199705606
 24
-2.5263300896
 34
0.0
 15
2.51997056
 25
2.4874403896
 35
0.0
146
0.0
 13
0.0
 23
0.0
 33
0.0
 16
1.0
 26
0.0
 36
0.0
 17
0.0
 27
1.0
 37
0.0
 76
     0
330
1F
331
29
  0
MLINESTYLE
  5
18
102
{ACAD_REACTORS
330
17
102
}
330
17
100
AcDbMlineStyle
  2
Standard
 70
     0
  3

 62
   256
 51
90.0
 52
90.0
 71
     2
 49
0.5
 62
   256
  6
BYLAYER
 49
-0.5
 62
   256
  6
BYLAYER
  0
ACDBPLACEHOLDER
  5
F
102
{ACAD_REACTORS
330
E
102
}
330
E
  0
SCALE
  5
48
102
{ACAD_REACTORS
330
47
102
}
330
47
100
AcDbScale
 70
     0
300
1:1
140
1.0
141
1.0
290
     1
  0
SCALE
  5
49
102
{ACAD_REACTORS
330
47
102
}
330
47
100
AcDbScale
 70
     0
300
1:2
140
1.0
141
2.0
290
     0
  0
SCALE
  5
4A
102
{ACAD_REACTORS
330
47
102
}
330
47
100
AcDbScale
 70
     0
300
1:4
140
1.0
141
4.0
290
     0
  0
SCALE
  5
4B
102
{ACAD_REACTORS
330
47
102
}
330
47
100
AcDbScale
 70
     0
300
1:5
140
1.0
141
5.0
290
     0
  0
SCALE
  5
4C
102
{ACAD_REACTORS
330
47
102
}
330
47
100
AcDbScale
 70
     0
300
1:8
140
1.0
141
8.0
290
     0
  0
SCALE
  5
4D
102
{ACAD_REACTORS
330
47
102
}
330
47
100
AcDbScale
 70
     0
300
1:10
140
1.0
141
10.0
290
     0
  0
SCALE
  5
4E
102
{ACAD_REACTORS
330
47
102
}
330
47
100
AcDbScale
 70
     0
300
1:16
140
1.0
141
16.0
290
     0
  0
SCALE
  5
4F
102
{ACAD_REACTORS
330
47
102
}
330
47
100
AcDbScale
 70
     0
300
1:20
140
1.0
141
20.0
290
     0
  0
SCALE
  5
50
102
{ACAD_REACTORS
330
47
102
}
330
47
100
AcDbScale
 70
     0
300
1:30
140
1.0
141
30.0
290
     0
  0
SCALE
  5
51
102
{ACAD_REACTORS
330
47
102
}
330
47
100
AcDbScale
 70
     0
300
1:40
140
1.0
141
40.0
290
     0
  0
SCALE
  5
52
102
{ACAD_REACTORS
330
47
102
}
330
47
100
AcDbScale
 70
     0
300
1:50
140
1.0
141
50.0
290
     0
  0
SCALE
  5
53
102
{ACAD_REACTORS
330
47
102
}
330
47
100
AcDbScale
 70
     0
300
1:100
140
1.0
141
100.0
290
     0
  0
SCALE
  5
54
102
{ACAD_REACTORS
330
47
102
}
330
47
100
AcDbScale
 70
     0
300
2:1
140
2.0
141
1.0
290
     0
  0
SCALE
  5
55
102
{ACAD_REACTORS
330
47
102
}
330
47
100
AcDbScale
 70
     0
300
4:1
140
4.0
141
1.0
290
     0
  0
SCALE
  5
56
102
{ACAD_REACTORS
330
47
102
}
330
47
100
AcDbScale
 70
     0
300
8:1
140
8.0
141
1.0
290
     0
  0
SCALE
  5
57
102
{ACAD_REACTORS
330
47
102
}
330
47
100
AcDbScale
 70
     0
300
10:1
140
10.0
141
1.0
290
     0
  0
SCALE
  5
58
102
{ACAD_REACTORS
330
47
102
}
330
47
100
AcDbScale
 70
     0
300
100:1
140
100.0
141
1.0
290
     0
  0
ENDSEC
  0
EOF
