  0
SECTION
  2
HEADER
  9
$ACADVER
  1
AC1014
  9
$ACADMAINTVER
 70
     9
  9
$DWGCODEPAGE
  3
ANSI_1252
  9
$INSBASE
 10
0.0
 20
0.0
 30
0.0
  9
$EXTMIN
 10
0.5249999999999999
 20
0.05469328418686
 30
0.0
  9
$EXTMAX
 10
11.03799496867776
 20
8.064581265361625
 30
0.0
  9
$LIMMIN
 10
0.0
 20
0.0
  9
$LIMMAX
 10
12.0
 20
9.0
  9
$ORTHOMODE
 70
     0
  9
$REGENMODE
 70
     1
  9
$FILLMODE
 70
     1
  9
$QTEXTMODE
 70
     0
  9
$MIRRTEXT
 70
     1
  9
$DRAGMODE
 70
     2
  9
$LTSCALE
 40
0.5
  9
$OSMODE
 70
    23
  9
$ATTMODE
 70
     1
  9
$TEXTSIZE
 40
0.12
  9
$TRACEWID
 40
0.05
  9
$TEXTSTYLE
  7
ONSHAPE-STANDARD
  9
$CLAYER
  8
0
  9
$CELTYPE
  6
BYLAYER
  9
$CECOLOR
 62
   256
  9
$CELTSCALE
 40
1.0
  9
$DELOBJ
 70
     1
  9
$DISPSILH
 70
     0
  9
$DIMSCALE
 40
1.0
  9
$DIMASZ
 40
0.18
  9
$DIMEXO
 40
0.0625
  9
$DIMDLI
 40
0.38
  9
$DIMRND
 40
0.0
  9
$DIMDLE
 40
0.0
  9
$DIMEXE
 40
0.08
  9
$DIMTP
 40
0.0
  9
$DIMTM
 40
0.0
  9
$DIMTXT
 40
0.12
  9
$DIMCEN
 40
0.09
  9
$DIMTSZ
 40
0.0
  9
$DIMTOL
 70
     0
  9
$DIMLIM
 70
     0
  9
$DIMTIH
 70
     1
  9
$DIMTOH
 70
     1
  9
$DIMSE1
 70
     0
  9
$DIMSE2
 70
     0
  9
$DIMTAD
 70
     0
  9
$DIMZIN
 70
     7
  9
$DIMBLK
  1

  9
$DIMASO
 70
     1
  9
$DIMSHO
 70
     1
  9
$DIMPOST
  1

  9
$DIMAPOST
  1

  9
$DIMALT
 70
     0
  9
$DIMALTD
 70
     2
  9
$DIMALTF
 40
25.4
  9
$DIMLFAC
 40
1.0
  9
$DIMTOFL
 70
     0
  9
$DIMTVP
 40
0.0
  9
$DIMTIX
 70
     0
  9
$DIMSOXD
 70
     0
  9
$DIMSAH
 70
     0
  9
$DIMBLK1
  1

  9
$DIMBLK2
  1

  9
$DIMSTYLE
  2
ONSHAPE-STANDARD
  9
$DIMCLRD
 70
     7
  9
$DIMCLRE
 70
     7
  9
$DIMCLRT
 70
     7
  9
$DIMTFAC
 40
1.0
  9
$DIMGAP
 40
0.09
  9
$DIMJUST
 70
     0
  9
$DIMSD1
 70
     0
  9
$DIMSD2
 70
     0
  9
$DIMTOLJ
 70
     1
  9
$DIMTZIN
 70
     7
  9
$DIMALTZ
 70
     7
  9
$DIMALTTZ
 70
     0
  9
$DIMFIT
 70
     3
  9
$DIMUPT
 70
     1
  9
$DIMUNIT
 70
     2
  9
$DIMDEC
 70
     3
  9
$DIMTDEC
 70
     3
  9
$DIMALTU
 70
     2
  9
$DIMALTTD
 70
     2
  9
$DIMTXSTY
  7
ONSHAPE-STANDARD-DIMENSION
  9
$DIMAUNIT
 70
     0
  9
$LUNITS
 70
     2
  9
$LUPREC
 70
     4
  9
$SKETCHINC
 40
0.1
  9
$FILLETRAD
 40
0.5
  9
$AUNITS
 70
     0
  9
$AUPREC
 70
     0
  9
$MENU
  1
.
  9
$ELEVATION
 40
0.0
  9
$PELEVATION
 40
0.0
  9
$THICKNESS
 40
0.0
  9
$LIMCHECK
 70
     0
  9
$CHAMFERA
 40
0.0
  9
$CHAMFERB
 40
0.0
  9
$CHAMFERC
 40
0.0
  9
$CHAMFERD
 40
0.0
  9
$SKPOLY
 70
     0
  9
$TDCREATE
 40
2460726.623902014
  9
$TDUPDATE
 40
2460726.623902488
  9
$TDINDWG
 40
0.0
  9
$TDUSRTIMER
 40
0.0
  9
$USRTIMER
 70
     1
  9
$ANGBASE
 50
0.0
  9
$ANGDIR
 70
     0
  9
$PDMODE
 70
    33
  9
$PDSIZE
 40
0.0393700787401575
  9
$PLINEWID
 40
0.0
  9
$COORDS
 70
     1
  9
$SPLFRAME
 70
     0
  9
$SPLINETYPE
 70
     6
  9
$SPLINESEGS
 70
     8
  9
$ATTDIA
 70
     0
  9
$ATTREQ
 70
     1
  9
$HANDLING
 70
     1
  9
$HANDSEED
  5
2ED
  9
$SURFTAB1
 70
     6
  9
$SURFTAB2
 70
     6
  9
$SURFTYPE
 70
     6
  9
$SURFU
 70
     6
  9
$SURFV
 70
     6
  9
$UCSNAME
  2

  9
$UCSORG
 10
0.0
 20
0.0
 30
0.0
  9
$UCSXDIR
 10
1.0
 20
0.0
 30
0.0
  9
$UCSYDIR
 10
0.0
 20
1.0
 30
0.0
  9
$PUCSNAME
  2

  9
$PUCSORG
 10
0.0
 20
0.0
 30
0.0
  9
$PUCSXDIR
 10
1.0
 20
0.0
 30
0.0
  9
$PUCSYDIR
 10
0.0
 20
1.0
 30
0.0
  9
$USERI1
 70
     0
  9
$USERI2
 70
     0
  9
$USERI3
 70
     0
  9
$USERI4
 70
     0
  9
$USERI5
 70
     0
  9
$USERR1
 40
0.0
  9
$USERR2
 40
0.0
  9
$USERR3
 40
0.0
  9
$USERR4
 40
0.0
  9
$USERR5
 40
0.0
  9
$WORLDVIEW
 70
     1
  9
$SHADEDGE
 70
     3
  9
$SHADEDIF
 70
    70
  9
$TILEMODE
 70
     1
  9
$MAXACTVP
 70
    64
  9
$PINSBASE
 10
0.0
 20
0.0
 30
0.0
  9
$PLIMCHECK
 70
     0
  9
$PEXTMIN
 10
1.000000000000000E+20
 20
1.000000000000000E+20
 30
1.000000000000000E+20
  9
$PEXTMAX
 10
-1.000000000000000E+20
 20
-1.000000000000000E+20
 30
-1.000000000000000E+20
  9
$PLIMMIN
 10
0.0
 20
0.0
  9
$PLIMMAX
 10
12.0
 20
9.0
  9
$UNITMODE
 70
     0
  9
$VISRETAIN
 70
     1
  9
$PLINEGEN
 70
     0
  9
$PSLTSCALE
 70
     1
  9
$TREEDEPTH
 70
  3020
  9
$PICKSTYLE
 70
     1
  9
$CMLSTYLE
  2
STANDARD
  9
$CMLJUST
 70
     0
  9
$CMLSCALE
 40
1.0
  9
$PROXYGRAPHICS
 70
     1
  9
$MEASUREMENT
 70
     0
  0
ENDSEC
  0
SECTION
  2
CLASSES
  0
CLASS
  1
ACDBDICTIONARYWDFLT
  2
AcDbDictionaryWithDefault
  3
ObjectDBX Classes
 90
        0
280
     0
281
     0
  0
CLASS
  1
VISUALSTYLE
  2
AcDbVisualStyle
  3
ObjectDBX Classes
 90
     4095
280
     0
281
     0
  0
CLASS
  1
MATERIAL
  2
AcDbMaterial
  3
ObjectDBX Classes
 90
     1153
280
     0
281
     0
  0
CLASS
  1
SCALE
  2
AcDbScale
  3
ObjectDBX Classes
 90
     1153
280
     0
281
     0
  0
CLASS
  1
TABLESTYLE
  2
AcDbTableStyle
  3
ObjectDBX Classes
 90
     4095
280
     0
281
     0
  0
CLASS
  1
MLEADERSTYLE
  2
AcDbMLeaderStyle
  3
ACDB_MLEADERSTYLE_CLASS
 90
     4095
280
     0
281
     0
  0
CLASS
  1
SUN
  2
AcDbSun
  3
SCENEOE
 90
     1153
280
     0
281
     0
  0
CLASS
  1
DICTIONARYVAR
  2
AcDbDictionaryVar
  3
ObjectDBX Classes
 90
        0
280
     0
281
     0
  0
CLASS
  1
XRECORD
  2
AcDbXrecord
  3
ObjectDBX Classes
 90
        0
280
     0
281
     0
  0
CLASS
  1
LWPOLYLINE
  2
AcDbPolyline
  3
ObjectDBX Classes
 90
        0
280
     0
281
     1
  0
CLASS
  1
HATCH
  2
AcDbHatch
  3
ObjectDBX Classes
 90
        0
280
     0
281
     1
  0
CLASS
  1
ACDBPLACEHOLDER
  2
AcDbPlaceHolder
  3
ObjectDBX Classes
 90
        0
280
     0
281
     0
  0
CLASS
  1
LAYOUT
  2
AcDbLayout
  3
ObjectDBX Classes
 90
        0
280
     0
281
     0
  0
ENDSEC
  0
SECTION
  2
TABLES
  0
TABLE
  2
VPORT
  5
8
102
{ACAD_XDICTIONARY
360
2E2
102
}
330
0
100
AcDbSymbolTable
 70
     1
  0
VPORT
  5
29
330
8
100
AcDbSymbolTableRecord
100
AcDbViewportTableRecord
  2
*ACTIVE
 70
     0
 10
0.0
 20
0.0
 11
1.0
 21
1.0
 12
5.781497484338882
 22
4.412137274774242
 13
0.0
 23
0.0
 14
0.5
 24
0.5
 15
0.5
 25
0.5
 16
0.0
 26
0.0
 36
1.0
 17
0.0
 27
0.0
 37
0.0
 40
7.45098574079826
 41
1.439172646558103
 42
50.0
 43
0.0
 44
0.0
 50
0.0
 51
0.0
 71
     0
 72
   100
 73
     1
 74
     3
 75
     0
 76
     0
 77
     0
 78
     0
  0
ENDTAB
  0
TABLE
  2
LTYPE
  5
5
330
0
100
AcDbSymbolTable
 70
     2
  0
LTYPE
  5
14
330
5
100
AcDbSymbolTableRecord
100
AcDbLinetypeTableRecord
  2
BYBLOCK
 70
     0
  3

 72
    65
 73
     0
 40
0.0
  0
LTYPE
  5
15
330
5
100
AcDbSymbolTableRecord
100
AcDbLinetypeTableRecord
  2
BYLAYER
 70
     0
  3

 72
    65
 73
     0
 40
0.0
  0
LTYPE
  5
16
330
5
100
AcDbSymbolTableRecord
100
AcDbLinetypeTableRecord
  2
CONTINUOUS
 70
     0
  3
Solid line
 72
    65
 73
     0
 40
0.0
  0
LTYPE
  5
150
330
5
100
AcDbSymbolTableRecord
100
AcDbLinetypeTableRecord
  2
CENTER
 70
     0
  3
Center line ____ _ ____ _ ____ _
 72
    65
 73
     4
 40
0.7199999999999999
 49
0.45
 74
     0
 49
-0.09
 74
     0
 49
0.09
 74
     0
 49
-0.09
 74
     0
  0
ENDTAB
  0
TABLE
  2
LAYER
  5
2
330
0
100
AcDbSymbolTable
 70
     5
  0
LAYER
  5
10
330
2
100
AcDbSymbolTableRecord
100
AcDbLayerTableRecord
  2
0
 70
     0
 62
     7
  6
CONTINUOUS
  0
LAYER
  5
73
330
2
100
AcDbSymbolTableRecord
100
AcDbLayerTableRecord
  2
VISIBLE
 70
     0
 62
     7
  6
CONTINUOUS
  0
LAYER
  5
10B
330
2
100
AcDbSymbolTableRecord
100
AcDbLayerTableRecord
  2
TANGENT_LINES
 70
     0
 62
     7
  6
CONTINUOUS
  0
LAYER
  5
14A
330
2
100
AcDbSymbolTableRecord
100
AcDbLayerTableRecord
  2
ANNOTATION_TEXT
 70
     0
 62
     7
  6
CONTINUOUS
  0
LAYER
  5
14F
330
2
100
AcDbSymbolTableRecord
100
AcDbLayerTableRecord
  2
CENTERMARKS
 70
     0
 62
     7
  6
CONTINUOUS
  0
ENDTAB
  0
TABLE
  2
STYLE
  5
3
330
0
100
AcDbSymbolTable
 70
    36
  0
STYLE
  5
11
330
3
100
AcDbSymbolTableRecord
100
AcDbTextStyleTableRecord
  2
STANDARD
 70
     0
 40
0.0
 41
1.0
 50
0.0
 71
     0
 42
0.12
  3
txt
  4

  0
STYLE
  5
70
330
3
100
AcDbSymbolTableRecord
100
AcDbTextStyleTableRecord
  2
ONSHAPE-STANDARD
 70
     0
 40
0.0
 41
1.0
 50
0.0
 71
     0
 42
0.12
  3
NotoSans-Regular.ttf
  4

1001
ACAD
1000
Noto Sans
1071
        0
  0
STYLE
  5
72
330
3
100
AcDbSymbolTableRecord
100
AcDbTextStyleTableRecord
  2
ONSHAPE-STANDARD-DIMENSION
 70
     0
 40
0.0
 41
1.0
 50
0.0
 71
     0
 42
0.12
  3

  4

1001
ACAD
1000
Noto Sans
1071
        0
  0
STYLE
  5
14D
330
3
100
AcDbSymbolTableRecord
100
AcDbTextStyleTableRecord
  2
ONSHAPE-STANDARD-VIEW-LABE
 70
     0
 40
0.12
 41
1.0
 50
0.0
 71
     0
 42
0.12
  3
NotoSans-Regular.ttf
  4

1001
ACAD
1000
Noto Sans
1071
        0
  0
STYLE
  5
268
330
3
100
AcDbSymbolTableRecord
100
AcDbTextStyleTableRecord
  2
ONSHAPE-STANDARD-BOLD
 70
     0
 40
0.0
 41
1.0
 50
0.0
 71
     0
 42
0.12
  3
NotoSans-Bold.ttf
  4

1001
ACAD
1000
Noto Sans
1071
 33554432
  0
STYLE
  5
269
330
3
100
AcDbSymbolTableRecord
100
AcDbTextStyleTableRecord
  2
ONSHAPE-STANDARD-FIELDS
 70
     0
 40
0.0
 41
1.0
 50
0.0
 71
     0
 42
0.12
  3

  4

1001
ACAD
1000
Noto Sans
1071
        0
  0
STYLE
  5
26A
330
3
100
AcDbSymbolTableRecord
100
AcDbTextStyleTableRecord
  2
ONSHAPE-STANDARD-TCFIELDS
 70
     0
 40
0.0
 41
1.0
 50
0.0
 71
     0
 42
0.12
  3
NotoSansTC-Regular.otf
  4

1001
ACAD
1000
Noto Sans TC
1071
        0
  0
STYLE
  5
26B
330
3
100
AcDbSymbolTableRecord
100
AcDbTextStyleTableRecord
  2
ONSHAPE-STANDARD-SCFIELDS
 70
     0
 40
0.0
 41
1.0
 50
0.0
 71
     0
 42
0.12
  3
NotoSansSC-Regular.otf
  4

1001
ACAD
1000
Noto Sans SC
1071
        0
  0
STYLE
  5
26C
330
3
100
AcDbSymbolTableRecord
100
AcDbTextStyleTableRecord
  2
ONSHAPE-STANDARD-KOREANFIE
 70
     0
 40
0.0
 41
1.0
 50
0.0
 71
     0
 42
0.12
  3
NotoSansKR-Regular.otf
  4

1001
ACAD
1000
Noto Sans KR
1071
        0
  0
STYLE
  5
26D
330
3
100
AcDbSymbolTableRecord
100
AcDbTextStyleTableRecord
  2
ONSHAPE-STANDARD-JAPANESEF
 70
     0
 40
0.0
 41
1.0
 50
0.0
 71
     0
 42
0.12
  3
NotoSansJP-Regular.otf
  4

1001
ACAD
1000
Noto Sans JP
1071
        0
  0
STYLE
  5
26F
330
3
100
AcDbSymbolTableRecord
100
AcDbTextStyleTableRecord
  2
TTFSTYLE
 70
     0
 40
0.0
 41
1.0
 50
0.0
 71
     0
 42
0.12
  3
Verdana.ttf
  4

1001
ACAD
1000
Verdana
1071
       34
  0
STYLE
  5
270
330
3
100
AcDbSymbolTableRecord
100
AcDbTextStyleTableRecord
  2
ONSHAPE-STANDARD-GTOLERANC
 70
     0
 40
0.0
 41
1.0
 50
0.0
 71
     0
 42
0.12
  3

  4

1001
ACAD
1000
Noto Sans
1071
        0
  0
STYLE
  5
271
330
3
100
AcDbSymbolTableRecord
100
AcDbTextStyleTableRecord
  2
ONSHAPE-STANDARD-TABLE-DAT
 70
     0
 40
0.0
 41
1.0
 50
0.0
 71
     0
 42
0.12
  3
NotoSans-Regular.ttf
  4

1001
ACAD
1000
Noto Sans
1071
        0
  0
STYLE
  5
272
330
3
100
AcDbSymbolTableRecord
100
AcDbTextStyleTableRecord
  2
ONSHAPE-STANDARD-TABLE-TIT
 70
     0
 40
0.0
 41
1.0
 50
0.0
 71
     0
 42
0.12
  3
NotoSans-Bold.ttf
  4

1001
ACAD
1000
Noto Sans
1071
 33554432
  0
STYLE
  5
273
330
3
100
AcDbSymbolTableRecord
100
AcDbTextStyleTableRecord
  2
ONSHAPE-STANDARD-TABLE-HEA
 70
     0
 40
0.0
 41
1.0
 50
0.0
 71
     0
 42
0.12
  3
NotoSans-Bold.ttf
  4

1001
ACAD
1000
Noto Sans
1071
 33554432
  0
STYLE
  5
274
330
3
100
AcDbSymbolTableRecord
100
AcDbTextStyleTableRecord
  2
ONSHAPE-STANDARD-BOMTABLE-
 70
     0
 40
0.0
 41
1.0
 50
0.0
 71
     0
 42
0.12
  3
NotoSans-Regular.ttf
  4

1001
ACAD
1000
Noto Sans
1071
        0
  0
STYLE
  5
275
330
3
100
AcDbSymbolTableRecord
100
AcDbTextStyleTableRecord
  2
ONSHAPE-STANDARD-BOMTABLE0
 70
     0
 40
0.0
 41
1.0
 50
0.0
 71
     0
 42
0.12
  3
NotoSans-Bold.ttf
  4

1001
ACAD
1000
Noto Sans
1071
 33554432
  0
STYLE
  5
276
330
3
100
AcDbSymbolTableRecord
100
AcDbTextStyleTableRecord
  2
ONSHAPE-STANDARD-BOMTABLE1
 70
     0
 40
0.0
 41
1.0
 50
0.0
 71
     0
 42
0.12
  3
NotoSans-Bold.ttf
  4

1001
ACAD
1000
Noto Sans
1071
 33554432
  0
STYLE
  5
277
330
3
100
AcDbSymbolTableRecord
100
AcDbTextStyleTableRecord
  2
ONSHAPE-STANDARD-NOTESTYLE
 70
     0
 40
0.12
 41
1.0
 50
0.0
 71
     0
 42
0.12
  3
Noto Sans
  4

1001
ACAD
1000
Noto Sans
1071
        0
  0
STYLE
  5
278
330
3
100
AcDbSymbolTableRecord
100
AcDbTextStyleTableRecord
  2
ONSHAPE-STANDARD-DATUM-DIM
 70
     0
 40
0.12
 41
1.0
 50
0.0
 71
     0
 42
0.12
  3
Noto Sans
  4

1001
ACAD
1000
Noto Sans
1071
        0
  0
STYLE
  5
279
330
3
100
AcDbSymbolTableRecord
100
AcDbTextStyleTableRecord
  2
ONSHAPE-DETAIL-VIEW-LEADER
 70
     0
 40
0.12
 41
1.0
 50
0.0
 71
     0
 42
0.12
  3
Noto Sans
  4

1001
ACAD
1000
Noto Sans
1071
        0
  0
STYLE
  5
27A
330
3
100
AcDbSymbolTableRecord
100
AcDbTextStyleTableRecord
  2
ONSHAPE-STANDARD-HOLE-CALL
 70
     0
 40
0.12
 41
1.0
 50
0.0
 71
     0
 42
0.12
  3
Noto Sans
  4

1001
ACAD
1000
Noto Sans
1071
        0
  0
STYLE
  5
27B
330
3
100
AcDbSymbolTableRecord
100
AcDbTextStyleTableRecord
  2
ONSHAPE-STANDARD-HOLETABLE
 70
     0
 40
0.0
 41
1.0
 50
0.0
 71
     0
 42
0.12
  3
NotoSans-Regular.ttf
  4

1001
ACAD
1000
Noto Sans
1071
        0
  0
STYLE
  5
27C
330
3
100
AcDbSymbolTableRecord
100
AcDbTextStyleTableRecord
  2
ONSHAPE-STANDARD-HOLETABL0
 70
     0
 40
0.0
 41
1.0
 50
0.0
 71
     0
 42
0.12
  3
NotoSans-Bold.ttf
  4

1001
ACAD
1000
Noto Sans
1071
 33554432
  0
STYLE
  5
27D
330
3
100
AcDbSymbolTableRecord
100
AcDbTextStyleTableRecord
  2
ONSHAPE-STANDARD-HOLETABL1
 70
     0
 40
0.0
 41
1.0
 50
0.0
 71
     0
 42
0.12
  3
NotoSans-Bold.ttf
  4

1001
ACAD
1000
Noto Sans
1071
 33554432
  0
STYLE
  5
27E
330
3
100
AcDbSymbolTableRecord
100
AcDbTextStyleTableRecord
  2
ONSHAPE-STANDARD-HOLE-TAG
 70
     0
 40
0.12
 41
1.0
 50
0.0
 71
     0
 42
0.12
  3
Noto Sans
  4

1001
ACAD
1000
Noto Sans
1071
        0
  0
STYLE
  5
27F
330
3
100
AcDbSymbolTableRecord
100
AcDbTextStyleTableRecord
  2
ONSHAPE-STANDARD-REVISIONT
 70
     0
 40
0.0
 41
1.0
 50
0.0
 71
     0
 42
0.12
  3
NotoSans-Regular.ttf
  4

1001
ACAD
1000
Noto Sans
1071
        0
  0
STYLE
  5
280
330
3
100
AcDbSymbolTableRecord
100
AcDbTextStyleTableRecord
  2
ONSHAPE-STANDARD-REVISION0
 70
     0
 40
0.0
 41
1.0
 50
0.0
 71
     0
 42
0.12
  3
NotoSans-Bold.ttf
  4

1001
ACAD
1000
Noto Sans
1071
 33554432
  0
STYLE
  5
281
330
3
100
AcDbSymbolTableRecord
100
AcDbTextStyleTableRecord
  2
ONSHAPE-STANDARD-REVISION1
 70
     0
 40
0.0
 41
1.0
 50
0.0
 71
     0
 42
0.12
  3
NotoSans-Bold.ttf
  4

1001
ACAD
1000
Noto Sans
1071
 33554432
  0
STYLE
  5
282
330
3
100
AcDbSymbolTableRecord
100
AcDbTextStyleTableRecord
  2
ONSHAPE-STANDARD-REVISION-
 70
     0
 40
0.12
 41
1.0
 50
0.0
 71
     0
 42
0.12
  3
Noto Sans
  4

1001
ACAD
1000
Noto Sans
1071
        0
  0
STYLE
  5
283
330
3
100
AcDbSymbolTableRecord
100
AcDbTextStyleTableRecord
  2
ONSHAPE-STANDARD-CUTLISTTA
 70
     0
 40
0.0
 41
1.0
 50
0.0
 71
     0
 42
0.12
  3
NotoSans-Regular.ttf
  4

1001
ACAD
1000
Noto Sans
1071
        0
  0
STYLE
  5
284
330
3
100
AcDbSymbolTableRecord
100
AcDbTextStyleTableRecord
  2
ONSHAPE-STANDARD-CUTLISTT0
 70
     0
 40
0.0
 41
1.0
 50
0.0
 71
     0
 42
0.12
  3
NotoSans-Bold.ttf
  4

1001
ACAD
1000
Noto Sans
1071
 33554432
  0
STYLE
  5
285
330
3
100
AcDbSymbolTableRecord
100
AcDbTextStyleTableRecord
  2
ONSHAPE-STANDARD-CUTLISTT1
 70
     0
 40
0.0
 41
1.0
 50
0.0
 71
     0
 42
0.12
  3
NotoSans-Bold.ttf
  4

1001
ACAD
1000
Noto Sans
1071
 33554432
  0
STYLE
  5
286
330
3
100
AcDbSymbolTableRecord
100
AcDbTextStyleTableRecord
  2
ONSHAPE-STANDARD-CUSTOMTAB
 70
     0
 40
0.0
 41
1.0
 50
0.0
 71
     0
 42
0.12
  3
NotoSans-Regular.ttf
  4

1001
ACAD
1000
Noto Sans
1071
        0
  0
STYLE
  5
287
330
3
100
AcDbSymbolTableRecord
100
AcDbTextStyleTableRecord
  2
ONSHAPE-STANDARD-CUSTOMTA0
 70
     0
 40
0.0
 41
1.0
 50
0.0
 71
     0
 42
0.12
  3
NotoSans-Bold.ttf
  4

1001
ACAD
1000
Noto Sans
1071
 33554432
  0
STYLE
  5
288
330
3
100
AcDbSymbolTableRecord
100
AcDbTextStyleTableRecord
  2
ONSHAPE-STANDARD-CUSTOMTA1
 70
     0
 40
0.0
 41
1.0
 50
0.0
 71
     0
 42
0.12
  3
NotoSans-Bold.ttf
  4

1001
ACAD
1000
Noto Sans
1071
 33554432
  0
ENDTAB
  0
TABLE
  2
VIEW
  5
6
330
0
100
AcDbSymbolTable
 70
     0
  0
ENDTAB
  0
TABLE
  2
UCS
  5
7
330
0
100
AcDbSymbolTable
 70
     0
  0
ENDTAB
  0
TABLE
  2
APPID
  5
9
330
0
100
AcDbSymbolTable
 70
     3
  0
APPID
  5
12
330
9
100
AcDbSymbolTableRecord
100
AcDbRegAppTableRecord
  2
ACAD
 70
     0
  0
APPID
  5
14E
330
9
100
AcDbSymbolTableRecord
100
AcDbRegAppTableRecord
  2
ONSHAPE_NOTES_ANNOTATION_D
 70
     0
  0
APPID
  5
2EC
330
9
100
AcDbSymbolTableRecord
100
AcDbRegAppTableRecord
  2
ACAD_MLEADERVER
 70
     0
  0
ENDTAB
  0
TABLE
  2
DIMSTYLE
  5
A
330
0
100
AcDbSymbolTable
 70
    21
  0
DIMSTYLE
105
27
330
A
100
AcDbSymbolTableRecord
100
AcDbDimStyleTableRecord
  2
STANDARD
 70
     0
  3

  4

  5

  6

  7

 40
1.0
 41
0.18
 42
0.0625
 43
0.38
 44
0.18
 45
0.0
 46
0.0
 47
0.0
 48
0.0
140
0.18
141
0.09
142
0.0
143
25.4
144
1.0
145
0.0
146
1.0
147
0.09
 71
     0
 72
     0
 73
     1
 74
     1
 75
     0
 76
     0
 77
     0
 78
     0
170
     0
171
     2
172
     0
173
     0
174
     0
175
     0
176
     0
177
     0
178
     0
270
     2
271
     4
272
     4
273
     2
274
     2
340
11
275
     0
280
     0
281
     0
282
     0
283
     1
284
     0
285
     0
286
     0
287
     3
288
     0
  0
DIMSTYLE
105
71
330
A
100
AcDbSymbolTableRecord
100
AcDbDimStyleTableRecord
  2
ONSHAPE-STANDARD
 70
     0
  3

  4

  5

  6

  7

 40
1.0
 41
0.18
 42
0.0625
 43
0.38
 44
0.08
 45
0.0
 46
0.0
 47
0.0
 48
0.0
140
0.12
141
0.09
142
0.0
143
25.4
144
1.0
145
0.0
146
1.0
147
0.09
 71
     0
 72
     0
 73
     1
 74
     1
 75
     0
 76
     0
 77
     0
 78
     7
170
     0
171
     2
172
     0
173
     0
174
     0
175
     0
176
     7
177
     7
178
     7
179
     1
270
     2
271
     3
272
     3
273
     2
274
     2
340
72
275
     0
280
     0
281
     0
282
     0
283
     1
284
     7
285
     7
286
     0
287
     3
288
     1
  0
DIMSTYLE
105
28B
330
A
100
AcDbSymbolTableRecord
100
AcDbDimStyleTableRecord
  2
ANSI
 70
     0
  3

  4
mm
  5

  6

  7

 40
1.0
 41
0.12
 42
0.05
 43
0.5
 44
0.1
 45
0.0
 46
0.0
 47
0.1
 48
0.1
140
0.12
141
0.0
142
0.0
143
25.4
144
1.0
145
0.0
146
0.71
147
0.06
 71
     0
 72
     0
 73
     1
 74
     1
 75
     0
 76
     0
 77
     0
 78
     7
170
     0
171
     2
172
     0
173
     0
174
     0
175
     0
176
     7
177
     7
178
     7
270
     2
271
     3
272
     4
273
     2
274
     2
340
11
275
     0
280
     0
281
     0
282
     0
283
     1
284
     7
285
     7
286
     0
287
     3
288
     1
  0
DIMSTYLE
105
28C
330
A
100
AcDbSymbolTableRecord
100
AcDbDimStyleTableRecord
  2
ANSI$3
 70
     0
  3

  4
mm
  5

  6

  7

 40
1.0
 41
0.12
 42
0.05
 43
0.5
 44
0.1
 45
0.0
 46
0.0
 47
0.1
 48
0.1
140
0.12
141
0.0
142
0.0
143
25.4
144
1.0
145
0.0
146
0.71
147
0.06
 71
     0
 72
     0
 73
     1
 74
     1
 75
     0
 76
     0
 77
     0
 78
     7
170
     0
171
     2
172
     0
173
     0
174
     0
175
     0
176
     7
177
     7
178
     7
270
     2
271
     3
272
     4
273
     2
274
     2
340
11
275
     0
280
     0
281
     0
282
     0
283
     1
284
     7
285
     7
286
     0
288
     1
  0
DIMSTYLE
105
28D
330
A
100
AcDbSymbolTableRecord
100
AcDbDimStyleTableRecord
  2
ANSI$4
 70
     0
  3

  4
mm
  5

  6

  7

 40
1.0
 41
0.12
 42
0.05
 43
0.5
 44
0.1
 45
0.0
 46
0.0
 47
0.1
 48
0.1
140
0.12
141
0.0
142
0.0
143
25.4
144
1.0
145
0.0
146
0.71
147
0.06
 71
     0
 72
     0
 73
     1
 74
     1
 75
     0
 76
     0
 77
     0
 78
     7
170
     0
171
     2
172
     0
173
     0
174
     0
175
     0
176
     7
177
     7
178
     7
270
     2
271
     3
272
     4
273
     2
274
     2
340
11
275
     0
280
     0
281
     0
282
     0
283
     1
284
     7
285
     7
286
     0
287
     3
288
     1
  0
DIMSTYLE
105
28E
330
A
100
AcDbSymbolTableRecord
100
AcDbDimStyleTableRecord
  2
ANSI$7
 70
     0
  3

  4
mm
  5

  6

  7

 40
1.0
 41
0.12
 42
0.05
 43
0.5
 44
0.1
 45
0.0
 46
0.0
 47
0.1
 48
0.1
140
0.12
141
0.0
142
0.0
143
25.4
144
1.0
145
0.0
146
0.71
147
0.06
 71
     0
 72
     0
 73
     1
 74
     1
 75
     0
 76
     0
 77
     0
 78
     7
170
     0
171
     2
172
     0
173
     0
174
     0
175
     0
176
     7
177
     7
178
     7
270
     2
271
     3
272
     4
273
     2
274
     2
340
11
275
     0
280
     0
281
     0
282
     0
283
     1
284
     7
285
     7
286
     0
287
     3
288
     1
  0
DIMSTYLE
105
28F
330
A
100
AcDbSymbolTableRecord
100
AcDbDimStyleTableRecord
  2
ANSI$SF
 70
     0
  3

  4
mm
  5

  6

  7

 40
1.0
 41
0.12
 42
0.05
 43
0.5
 44
0.1
 45
0.0
 46
0.0
 47
0.1
 48
0.1
140
0.12
141
0.0
142
0.0
143
25.4
144
1.0
145
0.0
146
0.71
147
0.06
 71
     0
 72
     0
 73
     1
 74
     1
 75
     1
 76
     1
 77
     0
 78
     7
170
     0
171
     2
172
     0
173
     0
174
     0
175
     0
176
     7
177
     7
178
     7
270
     2
271
     3
272
     4
273
     2
274
     2
340
11
275
     0
280
     0
281
     0
282
     0
283
     1
284
     7
285
     7
286
     0
287
     3
288
     1
  0
DIMSTYLE
105
290
330
A
100
AcDbSymbolTableRecord
100
AcDbDimStyleTableRecord
  2
ANSI$SH
 70
     0
  3

  4
mm
  5

  6

  7

 40
1.0
 41
0.12
 42
0.05
 43
0.5
 44
0.1
 45
0.0
 46
0.0
 47
0.1
 48
0.1
140
0.12
141
0.0
142
0.0
143
25.4
144
1.0
145
0.0
146
0.71
147
0.06
 71
     0
 72
     0
 73
     1
 74
     1
 75
     1
 76
     1
 77
     0
 78
     7
170
     0
171
     2
172
     0
173
     1
174
     0
175
     0
176
     7
177
     7
178
     7
270
     2
271
     3
272
     4
273
     2
274
     2
340
11
275
     0
280
     0
281
     0
282
     0
283
     1
284
     7
285
     7
286
     0
287
     3
288
     1
  0
DIMSTYLE
105
293
330
A
100
AcDbSymbolTableRecord
100
AcDbDimStyleTableRecord
  2
ONSHAPE-STANDARD$0
 70
     0
  3

  4

  5

  6

  7

 40
1.0
 41
0.18
 42
0.0625
 43
0.38
 44
0.08
 45
0.0
 46
0.0
 47
0.0
 48
0.0
140
0.12
141
0.09
142
0.0
143
25.4
144
1.0
145
0.0
146
1.0
147
0.09
 71
     0
 72
     0
 73
     1
 74
     1
 75
     0
 76
     0
 77
     0
 78
     7
170
     0
171
     2
172
     0
173
     0
174
     0
175
     0
176
     7
177
     7
178
     7
179
     1
270
     2
271
     3
272
     3
273
     2
274
     2
340
72
275
     0
280
     0
281
     0
282
     0
283
     1
284
     7
285
     7
286
     0
287
     3
288
     1
  0
DIMSTYLE
105
294
330
A
100
AcDbSymbolTableRecord
100
AcDbDimStyleTableRecord
  2
ONSHAPE-STANDARD$2
 70
     0
  3

  4

  5

  6

  7

 40
1.0
 41
0.18
 42
0.0625
 43
0.38
 44
0.08
 45
0.0
 46
0.0
 47
0.0
 48
0.0
140
0.12
141
0.09
142
0.0
143
25.4
144
1.0
145
0.0
146
1.0
147
0.09
 71
     0
 72
     0
 73
     1
 74
     1
 75
     0
 76
     0
 77
     0
 78
     7
170
     0
171
     2
172
     0
173
     0
174
     0
175
     0
176
     7
177
     7
178
     7
179
     1
270
     2
271
     3
272
     3
273
     2
274
     2
340
72
275
     0
280
     0
281
     0
282
     0
283
     1
284
     7
285
     7
286
     0
287
     3
288
     1
  0
DIMSTYLE
105
295
330
A
100
AcDbSymbolTableRecord
100
AcDbDimStyleTableRecord
  2
ONSHAPE-STANDARD$3
 70
     0
  3

  4

  5

  6

  7

 40
1.0
 41
0.18
 42
0.0625
 43
0.38
 44
0.08
 45
0.0
 46
0.0
 47
0.0
 48
0.0
140
0.12
141
0.0
142
0.0
143
25.4
144
1.0
145
0.0
146
1.0
147
0.09
 71
     0
 72
     0
 73
     1
 74
     1
 75
     0
 76
     0
 77
     0
 78
     7
170
     0
171
     2
172
     0
173
     0
174
     0
175
     0
176
     7
177
     7
178
     7
179
     1
270
     2
271
     3
272
     3
273
     2
274
     2
340
72
275
     0
280
     0
281
     0
282
     0
283
     1
284
     7
285
     7
286
     0
287
     3
288
     1
  0
DIMSTYLE
105
296
330
A
100
AcDbSymbolTableRecord
100
AcDbDimStyleTableRecord
  2
ONSHAPE-STANDARD$4
 70
     0
  3

  4

  5

  6

  7

 40
1.0
 41
0.18
 42
0.0625
 43
0.38
 44
0.08
 45
0.0
 46
0.0
 47
0.0
 48
0.0
140
0.12
141
0.0
142
0.0
143
25.4
144
1.0
145
0.0
146
1.0
147
0.09
 71
     0
 72
     0
 73
     1
 74
     1
 75
     0
 76
     0
 77
     0
 78
     7
170
     0
171
     2
172
     0
173
     0
174
     0
175
     0
176
     7
177
     7
178
     7
179
     1
270
     2
271
     3
272
     3
273
     2
274
     2
340
72
275
     0
280
     0
281
     0
282
     0
283
     1
284
     7
285
     7
286
     0
287
     3
288
     1
  0
DIMSTYLE
105
297
330
A
100
AcDbSymbolTableRecord
100
AcDbDimStyleTableRecord
  2
ONSHAPE-STANDARD$6
 70
     0
  3

  4

  5

  6

  7

 40
1.0
 41
0.02
 42
0.0625
 43
0.38
 44
0.08
 45
0.0
 46
0.0
 47
0.0
 48
0.0
140
0.12
141
0.09
142
0.0
143
25.4
144
1.0
145
0.0
146
1.0
147
0.09
 71
     0
 72
     0
 73
     1
 74
     1
 75
     0
 76
     0
 77
     0
 78
     7
170
     0
171
     2
172
     0
173
     0
174
     0
175
     0
176
     7
177
     7
178
     7
179
     1
270
     2
271
     3
272
     3
273
     2
274
     2
340
72
275
     0
280
     0
281
     0
282
     0
283
     1
284
     7
285
     7
286
     0
287
     3
288
     1
  0
DIMSTYLE
105
298
330
A
100
AcDbSymbolTableRecord
100
AcDbDimStyleTableRecord
  2
ONSHAPE-STANDARD$7
 70
     0
  3

  4

  5

  6

  7

 40
1.0
 41
0.18
 42
0.0625
 43
0.38
 44
0.08
 45
0.0
 46
0.0
 47
0.0
 48
0.0
140
0.12
141
0.09
142
0.0
143
25.4
144
1.0
145
0.0
146
1.0
147
0.09
 71
     0
 72
     0
 73
     1
 74
     1
 75
     0
 76
     0
 77
     0
 78
     7
170
     0
171
     2
172
     0
173
     0
174
     0
175
     0
176
     7
177
     7
178
     7
179
     1
270
     2
271
     3
272
     3
273
     2
274
     2
340
72
275
     0
280
     0
281
     0
282
     0
283
     1
284
     7
285
     7
286
     0
287
     3
288
     1
  0
DIMSTYLE
105
299
330
A
100
AcDbSymbolTableRecord
100
AcDbDimStyleTableRecord
  2
ONSHAPE-STANDARD-GTOLERANC
 70
     0
  3

  4

  5

  6

  7

 40
1.0
 41
0.18
 42
0.0625
 43
0.38
 44
0.08
 45
0.0
 46
0.0
 47
0.0
 48
0.0
140
0.12
141
0.09
142
0.0
143
25.4
144
1.0
145
0.0
146
1.0
147
0.09
 71
     0
 72
     0
 73
     1
 74
     1
 75
     0
 76
     0
 77
     0
 78
     7
170
     0
171
     2
172
     0
173
     0
174
     0
175
     0
176
     7
177
     7
178
     7
179
     1
270
     2
271
     3
272
     3
273
     2
274
     2
340
270
275
     0
280
     0
281
     0
282
     0
283
     1
284
     7
285
     7
286
     0
287
     3
288
     1
  0
DIMSTYLE
105
29B
330
A
100
AcDbSymbolTableRecord
100
AcDbDimStyleTableRecord
  2
ONSHAPE-ORDINATESTYLE
 70
     0
  3

  4

  5

  6

  7

 40
1.0
 41
0.02
 42
0.0625
 43
0.38
 44
0.08
 45
0.0
 46
0.0
 47
0.0
 48
0.0
140
0.12
141
0.09
142
0.0
143
25.4
144
1.0
145
0.0
146
1.0
147
0.09
 71
     0
 72
     0
 73
     1
 74
     1
 75
     0
 76
     0
 77
     0
 78
     7
170
     0
171
     2
172
     0
173
     0
174
     0
175
     0
176
     7
177
     7
178
     7
179
     1
270
     2
271
     3
272
     3
273
     2
274
     2
340
72
275
     0
280
     0
281
     0
282
     0
283
     1
284
     7
285
     7
286
     0
287
     3
288
     1
  0
DIMSTYLE
105
29C
330
A
100
AcDbSymbolTableRecord
100
AcDbDimStyleTableRecord
  2
ONSHAPE-CHAMFERDIMSTYLE
 70
     0
  3

  4

  5

  6

  7

 40
1.0
 41
0.18
 42
0.0625
 43
0.38
 44
0.08
 45
0.0
 46
0.0
 47
0.0
 48
0.0
140
0.12
141
0.09
142
0.0
143
25.4
144
1.0
145
0.0
146
1.0
147
0.09
 71
     0
 72
     0
 73
     1
 74
     1
 75
     0
 76
     0
 77
     0
 78
     7
170
     0
171
     2
172
     0
173
     0
174
     0
175
     0
176
     7
177
     7
178
     7
179
     1
270
     2
271
     3
272
     3
273
     2
274
     2
340
72
275
     0
280
     0
281
     0
282
     0
283
     1
284
     7
285
     7
286
     0
287
     3
288
     1
  0
DIMSTYLE
105
29D
330
A
100
AcDbSymbolTableRecord
100
AcDbDimStyleTableRecord
  2
ONSHAPE-SKETCHDRIVENDIMSTY
 70
     0
  3

  4

  5

  6

  7

 40
1.0
 41
0.18
 42
0.0625
 43
0.38
 44
0.08
 45
0.0
 46
0.0
 47
0.0
 48
0.0
140
0.12
141
0.09
142
0.0
143
25.4
144
1.0
145
0.0
146
1.0
147
0.09
 71
     0
 72
     0
 73
     1
 74
     1
 75
     0
 76
     0
 77
     0
 78
     7
170
     0
171
     2
172
     0
173
     0
174
     0
175
     0
176
   251
177
   251
178
   251
179
     1
270
     2
271
     3
272
     3
273
     2
274
     2
340
72
275
     0
280
     0
281
     0
282
     0
283
     1
284
     7
285
     7
286
     0
287
     3
288
     1
  0
DIMSTYLE
105
29E
330
A
100
AcDbSymbolTableRecord
100
AcDbDimStyleTableRecord
  2
ONSHAPE-SKETCHDRIVENDIMST0
 70
     0
  3

  4

  5

  6

  7

 40
1.0
 41
0.18
 42
0.0625
 43
0.38
 44
0.08
 45
0.0
 46
0.0
 47
0.0
 48
0.0
140
0.12
141
0.09
142
0.0
143
25.4
144
1.0
145
0.0
146
1.0
147
0.09
 71
     0
 72
     0
 73
     1
 74
     1
 75
     0
 76
     0
 77
     0
 78
     7
170
     0
171
     2
172
     0
173
     0
174
     0
175
     0
176
   251
177
   251
178
   251
179
     1
270
     2
271
     3
272
     3
273
     2
274
     2
340
72
275
     0
280
     0
281
     0
282
     0
283
     1
284
     7
285
     7
286
     0
287
     3
288
     1
  0
DIMSTYLE
105
29F
330
A
100
AcDbSymbolTableRecord
100
AcDbDimStyleTableRecord
  2
ONSHAPE-SKETCHDRIVENDIMST1
 70
     0
  3

  4

  5

  6

  7

 40
1.0
 41
0.18
 42
0.0625
 43
0.38
 44
0.08
 45
0.0
 46
0.0
 47
0.0
 48
0.0
140
0.12
141
0.0
142
0.0
143
25.4
144
1.0
145
0.0
146
1.0
147
0.09
 71
     0
 72
     0
 73
     1
 74
     1
 75
     0
 76
     0
 77
     0
 78
     7
170
     0
171
     2
172
     0
173
     0
174
     0
175
     0
176
   251
177
   251
178
   251
179
     1
270
     2
271
     3
272
     3
273
     2
274
     2
340
72
275
     0
280
     0
281
     0
282
     0
283
     1
284
     7
285
     7
286
     0
287
     3
288
     1
  0
DIMSTYLE
105
2A0
330
A
100
AcDbSymbolTableRecord
100
AcDbDimStyleTableRecord
  2
ONSHAPE-SKETCHDRIVENDIMST2
 70
     0
  3

  4

  5

  6

  7

 40
1.0
 41
0.18
 42
0.0625
 43
0.38
 44
0.08
 45
0.0
 46
0.0
 47
0.0
 48
0.0
140
0.12
141
0.0
142
0.0
143
25.4
144
1.0
145
0.0
146
1.0
147
0.09
 71
     0
 72
     0
 73
     1
 74
     1
 75
     0
 76
     0
 77
     0
 78
     7
170
     0
171
     2
172
     0
173
     0
174
     0
175
     0
176
   251
177
   251
178
   251
179
     1
270
     2
271
     3
272
     3
273
     2
274
     2
340
72
275
     0
280
     0
281
     0
282
     0
283
     1
284
     7
285
     7
286
     0
287
     3
288
     1
  0
ENDTAB
  0
TABLE
  2
BLOCK_RECORD
  5
1
330
0
100
AcDbSymbolTable
 70
     0
  0
BLOCK_RECORD
  5
1F
330
1
100
AcDbSymbolTableRecord
100
AcDbBlockTableRecord
  2
*MODEL_SPACE
  0
BLOCK_RECORD
  5
1B
330
1
100
AcDbSymbolTableRecord
100
AcDbBlockTableRecord
  2
*PAPER_SPACE
  0
ENDTAB
  0
ENDSEC
  0
SECTION
  2
BLOCKS
  0
BLOCK
  5
20
330
1F
100
AcDbEntity
  8
0
100
AcDbBlockBegin
  2
*MODEL_SPACE
 70
     0
 10
0.0
 20
0.0
 30
0.0
  3
*MODEL_SPACE
  1

  0
ENDBLK
  5
21
330
1F
100
AcDbEntity
  8
0
100
AcDbBlockEnd
  0
BLOCK
  5
1C
330
1B
100
AcDbEntity
 67
     1
  8
0
100
AcDbBlockBegin
  2
*PAPER_SPACE
 70
     0
 10
0.0
 20
0.0
 30
0.0
  3
*PAPER_SPACE
  1

  0
ENDBLK
  5
1D
330
1B
100
AcDbEntity
 67
     1
  8
0
100
AcDbBlockEnd
  0
ENDSEC
  0
SECTION
  2
ENTITIES
  0
CIRCLE
  5
75
330
1F
100
AcDbEntity
  8
VISIBLE
100
AcDbCircle
 10
10.025
 20
7.689581265361624
 30
0.0
 40
0.0979999999999998
  0
CIRCLE
  5
76
330
1F
100
AcDbEntity
  8
VISIBLE
100
AcDbCircle
 10
10.025
 20
7.064581265361624
 30
0.0
 40
0.2812500000000002
  0
CIRCLE
  5
77
330
1F
100
AcDbEntity
  8
VISIBLE
100
AcDbCircle
 10
9.400000000000002
 20
7.064581265361624
 30
0.0
 40
0.0979999999999999
  0
CIRCLE
  5
78
330
1F
100
AcDbEntity
  8
VISIBLE
100
AcDbCircle
 10
10.025
 20
6.439581265361624
 30
0.0
 40
0.0979999999999998
  0
CIRCLE
  5
79
330
1F
100
AcDbEntity
  8
VISIBLE
100
AcDbCircle
 10
10.65
 20
7.064581265361624
 30
0.0
 40
0.098
  0
CIRCLE
  5
7A
330
1F
100
AcDbEntity
  8
VISIBLE
100
AcDbCircle
 10
6.336106781186548
 20
7.753474484175077
 30
0.0
 40
0.0979999999999999
  0
CIRCLE
  5
7B
330
1F
100
AcDbEntity
  8
VISIBLE
100
AcDbCircle
 10
7.025000000000001
 20
7.064581265361625
 30
0.0
 40
0.4062499999999995
  0
CIRCLE
  5
7C
330
1F
100
AcDbEntity
  8
VISIBLE
100
AcDbCircle
 10
7.732106781186548
 20
7.771688046548172
 30
0.0
 40
0.0979999999999999
  0
CIRCLE
  5
7D
330
1F
100
AcDbEntity
  8
VISIBLE
100
AcDbCircle
 10
7.713893218813454
 20
6.375688046548172
 30
0.0
 40
0.0979999999999999
  0
CIRCLE
  5
7E
330
1F
100
AcDbEntity
  8
VISIBLE
100
AcDbCircle
 10
6.317893218813454
 20
6.357474484175077
 30
0.0
 40
0.0979999999999999
  0
CIRCLE
  5
7F
330
1F
100
AcDbEntity
  8
VISIBLE
100
AcDbCircle
 10
2.275
 20
7.564581265361624
 30
0.0
 40
0.1285
  0
CIRCLE
  5
80
330
1F
100
AcDbEntity
  8
VISIBLE
100
AcDbCircle
 10
1.025000000000001
 20
7.564581265361623
 30
0.0
 40
0.1285
  0
CIRCLE
  5
81
330
1F
100
AcDbEntity
  8
VISIBLE
100
AcDbCircle
 10
4.775000000000001
 20
7.564581265361623
 30
0.0
 40
0.1285
  0
CIRCLE
  5
82
330
1F
100
AcDbEntity
  8
VISIBLE
100
AcDbCircle
 10
5.352350269189628
 20
6.564581265361623
 30
0.0
 40
0.1285
  0
CIRCLE
  5
83
330
1F
100
AcDbEntity
  8
VISIBLE
100
AcDbCircle
 10
4.102350269189628
 20
6.564581265361623
 30
0.0
 40
0.1285
  0
CIRCLE
  5
84
330
1F
100
AcDbEntity
  8
VISIBLE
100
AcDbCircle
 10
3.525
 20
7.564581265361624
 30
0.0
 40
0.1285
  0
CIRCLE
  5
85
330
1F
100
AcDbEntity
  8
VISIBLE
100
AcDbCircle
 10
2.852350269189628
 20
6.564581265361623
 30
0.0
 40
0.1285
  0
LINE
  5
86
330
1F
100
AcDbEntity
  8
VISIBLE
100
AcDbLine
 10
7.712500000000002
 20
6.064581265361623
 30
0.0
 11
10.525
 21
6.064581265361624
 31
0.0
  0
LINE
  5
87
330
1F
100
AcDbEntity
  8
VISIBLE
100
AcDbLine
 10
8.197917529685416
 20
7.687769295933184
 30
0.0
 11
8.699063384285932
 21
6.852526204932321
 31
0.0
  0
LINE
  5
88
330
1F
100
AcDbEntity
  8
VISIBLE
100
AcDbLine
 10
7.337500000000001
 20
8.002081265361625
 30
0.0
 11
6.712500000000001
 21
8.002081265361625
 31
0.0
  0
LINE
  5
89
330
1F
100
AcDbEntity
  8
VISIBLE
100
AcDbLine
 10
6.712500000000001
 20
8.064581265361625
 30
0.0
 11
7.337500000000001
 21
8.064581265361625
 31
0.0
  0
LINE
  5
8A
330
1F
100
AcDbEntity
  8
VISIBLE
100
AcDbLine
 10
8.087500000000002
 20
7.056074356362487
 30
0.0
 11
8.087500000000002
 21
6.377081265361623
 31
0.0
  0
LINE
  5
8B
330
1F
100
AcDbEntity
  8
VISIBLE
100
AcDbLine
 10
6.712500000000001
 20
8.002081265361625
 30
0.0
 11
6.712500000000001
 21
8.064581265361625
 31
0.0
  0
LINE
  5
8C
330
1F
100
AcDbEntity
  8
VISIBLE
100
AcDbLine
 10
6.712500000000001
 20
6.064581265361623
 30
0.0
 11
7.337500000000001
 21
6.064581265361623
 31
0.0
  0
LINE
  5
8D
330
1F
100
AcDbEntity
  8
VISIBLE
100
AcDbLine
 10
1.757651991520968
 20
6.724116195565225
 30
0.0
 11
1.502424004239518
 21
6.871472142726896
 31
0.0
  0
LINE
  5
8E
330
1F
100
AcDbEntity
  8
VISIBLE
100
AcDbLine
 10
8.931250000000002
 20
7.752081265361625
 30
0.0
 11
8.931250000000002
 21
6.916838174360762
 31
0.0
  0
LINE
  5
8F
330
1F
100
AcDbEntity
  8
VISIBLE
100
AcDbLine
 10
11.02500000000001
 20
7.564581265361624
 30
0.0
 11
11.02500000000001
 21
6.564581265361624
 31
0.0
  0
LINE
  5
90
330
1F
100
AcDbEntity
  8
VISIBLE
100
AcDbLine
 10
1.758253175473055
 20
7.189581265361623
 30
0.0
 11
1.928405166994022
 21
6.89486937103828
 31
0.0
  0
LINE
  5
91
330
1F
100
AcDbEntity
  8
VISIBLE
100
AcDbLine
 10
1.902590742770464
 20
7.814581265361625
 30
0.0
 11
1.794337567297408
 21
7.627081265361622
 31
0.0
  0
LINE
  5
92
330
1F
100
AcDbEntity
  8
VISIBLE
100
AcDbLine
 10
2.010843918243518
 20
7.877081265361625
 30
0.0
 11
2.539156081756484
 21
7.877081265361625
 31
0.0
  0
LINE
  5
93
330
1F
100
AcDbEntity
  8
VISIBLE
100
AcDbLine
 10
1.794337567297407
 20
7.502081265361623
 30
0.0
 11
2.166746824526946
 21
6.857049510631075
 31
0.0
  0
LINE
  5
94
330
1F
100
AcDbEntity
  8
VISIBLE
100
AcDbLine
 10
2.647409257229538
 20
7.814581265361625
 30
0.0
 11
2.755662432702594
 21
7.627081265361623
 31
0.0
  0
LINE
  5
95
330
1F
100
AcDbEntity
  8
VISIBLE
100
AcDbLine
 10
2.755662432702594
 20
7.502081265361623
 30
0.0
 11
2.383253175473056
 21
6.857049510631075
 31
0.0
  0
LINE
  5
96
330
1F
100
AcDbEntity
  8
VISIBLE
100
AcDbLine
 10
4.294337567297408
 20
7.502081265361623
 30
0.0
 11
4.666746824526947
 21
6.857049510631075
 31
0.0
  0
LINE
  5
97
330
1F
100
AcDbEntity
  8
VISIBLE
100
AcDbLine
 10
7.337500000000001
 20
6.127081265361624
 30
0.0
 11
7.337500000000001
 21
6.064581265361623
 31
0.0
  0
LINE
  5
98
330
1F
100
AcDbEntity
  8
VISIBLE
100
AcDbLine
 10
4.402590742770463
 20
7.814581265361625
 30
0.0
 11
4.294337567297408
 21
7.627081265361623
 31
0.0
  0
LINE
  5
99
330
1F
100
AcDbEntity
  8
VISIBLE
100
AcDbLine
 10
7.712500000000002
 20
8.064581265361625
 30
0.0
 11
10.525
 21
8.064581265361625
 31
0.0
  0
LINE
  5
9A
330
1F
100
AcDbEntity
  8
VISIBLE
100
AcDbLine
 10
1.541746824526946
 20
7.189581265361623
 30
0.0
 11
1.456670828766463
 21
7.042225318199951
 31
0.0
  0
LINE
  5
9B
330
1F
100
AcDbEntity
  8
VISIBLE
100
AcDbLine
 10
4.510843918243519
 20
7.877081265361625
 30
0.0
 11
5.039156081756484
 21
7.877081265361625
 31
0.0
  0
LINE
  5
9C
330
1F
100
AcDbEntity
  8
VISIBLE
100
AcDbLine
 10
5.255662432702594
 20
7.502081265361622
 30
0.0
 11
4.883253175473056
 21
6.857049510631075
 31
0.0
  0
LINE
  5
9D
330
1F
100
AcDbEntity
  8
VISIBLE
100
AcDbLine
 10
8.212500000000002
 20
6.252081265361623
 30
0.0
 11
8.619895854600518
 21
6.252081265361623
 31
0.0
  0
LINE
  5
9E
330
1F
100
AcDbEntity
  8
VISIBLE
100
AcDbLine
 10
0.525
 20
8.064581265361623
 30
0.0
 11
6.337500000000001
 21
8.064581265361625
 31
0.0
  0
LINE
  5
9F
330
1F
100
AcDbEntity
  8
VISIBLE
100
AcDbLine
 10
2.546234122634726
 20
6.268828089888569
 30
0.0
 11
2.515424219832353
 21
6.286616195565225
 31
0.0
  0
LINE
  5
A0
330
1F
100
AcDbEntity
  8
VISIBLE
100
AcDbLine
 10
2.419337567297408
 20
6.419549510631075
 30
0.0
 11
2.469671044359298
 21
6.332369371038279
 31
0.0
  0
LINE
  5
A1
330
1F
100
AcDbEntity
  8
VISIBLE
100
AcDbLine
 10
7.712500000000002
 20
6.064581265361623
 30
0.0
 11
7.712500000000002
 21
6.127081265361624
 31
0.0
  0
LINE
  5
A2
330
1F
100
AcDbEntity
  8
VISIBLE
100
AcDbLine
 10
3.260843918243518
 20
7.877081265361625
 30
0.0
 11
3.789156081756484
 21
7.877081265361625
 31
0.0
  0
LINE
  5
A3
330
1F
100
AcDbEntity
  8
VISIBLE
100
AcDbLine
 10
8.319686615714069
 20
7.120386325790927
 30
0.0
 11
8.727082470314588
 21
6.441393234790064
 31
0.0
  0
LINE
  5
A4
330
1F
100
AcDbEntity
  8
VISIBLE
100
AcDbLine
 10
3.008253175473055
 20
7.189581265361623
 30
0.0
 11
3.380662432702595
 21
6.544549510631075
 31
0.0
  0
LINE
  5
A5
330
1F
100
AcDbEntity
  8
VISIBLE
100
AcDbLine
 10
3.669337567297408
 20
6.419549510631075
 30
0.0
 11
3.729941011960089
 21
6.314581265361623
 31
0.0
  0
LINE
  5
A6
330
1F
100
AcDbEntity
  8
VISIBLE
100
AcDbLine
 10
3.380662432702594
 20
6.419549510631075
 30
0.0
 11
3.320058988039914
 21
6.314581265361623
 31
0.0
  0
LINE
  5
A7
330
1F
100
AcDbEntity
  8
VISIBLE
100
AcDbLine
 10
7.900000000000002
 20
8.002081265361625
 30
0.0
 11
7.712500000000002
 21
8.002081265361625
 31
0.0
  0
LINE
  5
A8
330
1F
100
AcDbEntity
  8
VISIBLE
100
AcDbLine
 10
7.337500000000001
 20
8.064581265361625
 30
0.0
 11
7.337500000000001
 21
8.002081265361625
 31
0.0
  0
LINE
  5
A9
330
1F
100
AcDbEntity
  8
VISIBLE
100
AcDbLine
 10
3.838194187433144
 20
6.252081265361623
 30
0.0
 11
4.461805812566859
 21
6.252081265361623
 31
0.0
  0
LINE
  5
AA
330
1F
100
AcDbEntity
  8
VISIBLE
100
AcDbLine
 10
1.397409257229538
 20
7.814581265361625
 30
0.0
 11
1.505662432702594
 21
7.627081265361623
 31
0.0
  0
LINE
  5
AB
330
1F
100
AcDbEntity
  8
VISIBLE
100
AcDbLine
 10
8.305104145399483
 20
7.877081265361625
 30
0.0
 11
8.806250000000002
 21
7.877081265361625
 31
0.0
  0
LINE
  5
AC
330
1F
100
AcDbEntity
  8
VISIBLE
100
AcDbLine
 10
6.337500000000001
 20
6.127081265361624
 30
0.0
 11
6.337500000000001
 21
6.064581265361623
 31
0.0
  0
LINE
  5
AD
330
1F
100
AcDbEntity
  8
VISIBLE
100
AcDbLine
 10
1.505662432702594
 20
7.502081265361622
 30
0.0
 11
1.294291065556881
 21
7.135975318199951
 31
0.0
  0
LINE
  5
AE
330
1F
100
AcDbEntity
  8
VISIBLE
100
AcDbLine
 10
2.791746824526946
 20
7.189581265361623
 30
0.0
 11
2.419337567297408
 21
6.544549510631075
 31
0.0
  0
LINE
  5
AF
330
1F
100
AcDbEntity
  8
VISIBLE
100
AcDbLine
 10
4.258253175473055
 20
7.189581265361623
 30
0.0
 11
4.630662432702595
 21
6.544549510631075
 31
0.0
  0
LINE
  5
B0
330
1F
100
AcDbEntity
  8
VISIBLE
100
AcDbLine
 10
7.900000000000002
 20
8.002081265361625
 30
0.0
 11
7.900000000000002
 21
6.127081265361625
 31
0.0
  0
LINE
  5
B1
330
1F
100
AcDbEntity
  8
VISIBLE
100
AcDbLine
 10
0.7125
 20
7.752081265361625
 30
0.0
 11
0.7125
 21
7.399703762862632
 31
0.0
  0
LINE
  5
B2
330
1F
100
AcDbEntity
  8
VISIBLE
100
AcDbLine
 10
6.337500000000001
 20
8.064581265361625
 30
0.0
 11
6.337500000000001
 21
8.002081265361625
 31
0.0
  0
LINE
  5
B3
330
1F
100
AcDbEntity
  8
VISIBLE
100
AcDbLine
 10
0.8374999999999999
 20
7.877081265361625
 30
0.0
 11
1.289156081756484
 21
7.877081265361625
 31
0.0
  0
LINE
  5
B4
330
1F
100
AcDbEntity
  8
VISIBLE
100
AcDbLine
 10
4.630662432702595
 20
6.419549510631075
 30
0.0
 11
4.570058988039914
 21
6.314581265361623
 31
0.0
  0
LINE
  5
B5
330
1F
100
AcDbEntity
  8
VISIBLE
100
AcDbLine
 10
3.044337567297407
 20
7.502081265361623
 30
0.0
 11
3.416746824526947
 21
6.857049510631074
 31
0.0
  0
LINE
  5
B6
330
1F
100
AcDbEntity
  8
VISIBLE
100
AcDbLine
 10
5.147409257229539
 20
7.814581265361625
 30
0.0
 11
5.255662432702595
 21
7.627081265361623
 31
0.0
  0
LINE
  5
B7
330
1F
100
AcDbEntity
  8
VISIBLE
100
AcDbLine
 10
1.123537890083826
 20
7.090222142726897
 30
0.0
 11
0.7749999999999998
 21
7.291450587389577
 31
0.0
  0
LINE
  5
B8
330
1F
100
AcDbEntity
  8
VISIBLE
100
AcDbLine
 10
6.337500000000001
 20
6.127081265361624
 30
0.0
 11
6.150000000000002
 21
6.127081265361625
 31
0.0
  0
LINE
  5
B9
330
1F
100
AcDbEntity
  8
VISIBLE
100
AcDbLine
 10
5.652590742770464
 20
7.814581265361625
 30
0.0
 11
5.544337567297407
 21
7.627081265361623
 31
0.0
  0
LINE
  5
BA
330
1F
100
AcDbEntity
  8
VISIBLE
100
AcDbLine
 10
7.900000000000002
 20
6.127081265361625
 30
0.0
 11
7.712500000000002
 21
6.127081265361624
 31
0.0
  0
LINE
  5
BB
330
1F
100
AcDbEntity
  8
VISIBLE
100
AcDbLine
 10
5.291746824526946
 20
7.189581265361623
 30
0.0
 11
4.919337567297409
 21
6.544549510631075
 31
0.0
  0
LINE
  5
BC
330
1F
100
AcDbEntity
  8
VISIBLE
100
AcDbLine
 10
4.041746824526946
 20
7.189581265361623
 30
0.0
 11
3.669337567297408
 21
6.544549510631075
 31
0.0
  0
LINE
  5
BD
330
1F
100
AcDbEntity
  8
VISIBLE
100
AcDbLine
 10
5.760843918243518
 20
7.877081265361625
 30
0.0
 11
5.837500000000002
 21
7.877081265361625
 31
0.0
  0
LINE
  5
BE
330
1F
100
AcDbEntity
  8
VISIBLE
100
AcDbLine
 10
2.608734122634726
 20
6.252081265361623
 30
0.0
 11
3.21180581256686
 21
6.252081265361623
 31
0.0
  0
LINE
  5
BF
330
1F
100
AcDbEntity
  8
VISIBLE
100
AcDbLine
 10
3.152590742770463
 20
7.814581265361625
 30
0.0
 11
3.044337567297407
 21
7.627081265361623
 31
0.0
  0
LINE
  5
C0
330
1F
100
AcDbEntity
  8
VISIBLE
100
AcDbLine
 10
6.712500000000001
 20
6.064581265361623
 30
0.0
 11
6.712500000000001
 21
6.127081265361624
 31
0.0
  0
LINE
  5
C1
330
1F
100
AcDbEntity
  8
VISIBLE
100
AcDbLine
 10
2.524999999999999
 20
6.064581265361623
 30
0.0
 11
6.337500000000001
 21
6.064581265361623
 31
0.0
  0
LINE
  5
C2
330
1F
100
AcDbEntity
  8
VISIBLE
100
AcDbLine
 10
0.525
 20
8.064581265361623
 30
0.0
 11
0.525
 21
7.219281803740873
 31
0.0
  0
LINE
  5
C3
330
1F
100
AcDbEntity
  8
VISIBLE
100
AcDbLine
 10
2.524999999999999
 20
6.064581265361623
 30
0.0
 11
0.525
 21
7.219281803740873
 31
0.0
  0
LINE
  5
C4
330
1F
100
AcDbEntity
  8
VISIBLE
100
AcDbLine
 10
6.150000000000002
 20
8.002081265361625
 30
0.0
 11
6.150000000000002
 21
6.127081265361625
 31
0.0
  0
LINE
  5
C5
330
1F
100
AcDbEntity
  8
VISIBLE
100
AcDbLine
 10
4.005662432702595
 20
7.502081265361622
 30
0.0
 11
3.633253175473056
 21
6.857049510631075
 31
0.0
  0
LINE
  5
C6
330
1F
100
AcDbEntity
  8
VISIBLE
100
AcDbLine
 10
7.337500000000001
 20
6.127081265361624
 30
0.0
 11
6.712500000000001
 21
6.127081265361624
 31
0.0
  0
LINE
  5
C7
330
1F
100
AcDbEntity
  8
VISIBLE
100
AcDbLine
 10
5.962500000000001
 20
7.752081265361625
 30
0.0
 11
5.962500000000001
 21
7.244309037050239
 31
0.0
  0
LINE
  5
C8
330
1F
100
AcDbEntity
  8
VISIBLE
100
AcDbLine
 10
3.897409257229539
 20
7.814581265361625
 30
0.0
 11
4.005662432702595
 21
7.627081265361623
 31
0.0
  0
LINE
  5
C9
330
1F
100
AcDbEntity
  8
VISIBLE
100
AcDbLine
 10
4.919337567297409
 20
6.419549510631075
 30
0.0
 11
4.979941011960089
 21
6.314581265361623
 31
0.0
  0
LINE
  5
CA
330
1F
100
AcDbEntity
  8
VISIBLE
100
AcDbLine
 10
7.712500000000002
 20
8.002081265361625
 30
0.0
 11
7.712500000000002
 21
8.064581265361625
 31
0.0
  0
LINE
  5
CB
330
1F
100
AcDbEntity
  8
VISIBLE
100
AcDbLine
 10
6.337500000000001
 20
8.002081265361625
 30
0.0
 11
6.150000000000002
 21
8.002081265361625
 31
0.0
  0
LINE
  5
CC
330
1F
100
AcDbEntity
  8
VISIBLE
100
AcDbLine
 10
5.088194187433143
 20
6.252081265361623
 30
0.0
 11
5.833012701892221
 21
6.252081265361623
 31
0.0
  0
LINE
  5
CD
330
1F
100
AcDbEntity
  8
VISIBLE
100
AcDbLine
 10
5.508253175473056
 20
7.189581265361623
 30
0.0
 11
5.941265877365276
 21
6.439581265361623
 31
0.0
  0
LINE
  5
CE
330
1F
100
AcDbEntity
  8
VISIBLE
100
AcDbLine
 10
5.544337567297407
 20
7.502081265361623
 30
0.0
 11
5.729246824526947
 21
7.181809037050238
 31
0.0
  0
ARC
  5
CF
330
1F
100
AcDbEntity
  8
VISIBLE
100
AcDbCircle
 10
10.525
 20
7.564581265361622
 30
0.0
 40
0.5000000000000007
100
AcDbArc
 50
0.0000000000000018
 51
90.0
  0
ARC
  5
D0
330
1F
100
AcDbEntity
  8
VISIBLE
100
AcDbCircle
 10
8.212500000000002
 20
6.377081265361623
 30
0.0
 40
0.125
100
AcDbArc
 50
179.9999999999996
 51
270.0
  0
ARC
  5
D1
330
1F
100
AcDbEntity
  8
VISIBLE
100
AcDbCircle
 10
8.212500000000002
 20
7.056074356362487
 30
0.0
 40
0.125
100
AcDbArc
 50
30.96375653207373
 51
179.9999999999996
  0
ARC
  5
D2
330
1F
100
AcDbEntity
  8
VISIBLE
100
AcDbCircle
 10
8.619895854600518
 20
6.377081265361623
 30
0.0
 40
0.125
100
AcDbArc
 50
270.0
 51
30.9637565320729
  0
LINE
  5
D3
330
1F
100
AcDbEntity
  8
VISIBLE
100
AcDbLine
 10
7.337500000000002
 20
6.127081265361623
 30
0.0
 11
7.712500000000002
 21
6.127081265361623
 31
0.0
  0
LINE
  5
D4
330
1F
100
AcDbEntity
  8
VISIBLE
100
AcDbLine
 10
7.712500000000002
 20
6.064581265361623
 30
0.0
 11
7.337500000000002
 21
6.064581265361623
 31
0.0
  0
LINE
  5
D5
330
1F
100
AcDbEntity
  8
VISIBLE
100
AcDbLine
 10
6.337500000000001
 20
8.002081265361625
 30
0.0
 11
6.712500000000001
 21
8.002081265361625
 31
0.0
  0
LINE
  5
D6
330
1F
100
AcDbEntity
  8
VISIBLE
100
AcDbLine
 10
6.337500000000001
 20
8.064581265361625
 30
0.0
 11
6.712500000000001
 21
8.064581265361625
 31
0.0
  0
LINE
  5
D7
330
1F
100
AcDbEntity
  8
VISIBLE
100
AcDbLine
 10
6.337500000000001
 20
6.127081265361623
 30
0.0
 11
6.712500000000001
 21
6.127081265361623
 31
0.0
  0
ARC
  5
D8
330
1F
100
AcDbEntity
  8
VISIBLE
100
AcDbCircle
 10
1.820151991520968
 20
6.83236937103828
 30
0.0
 40
0.125
100
AcDbArc
 50
240.0
 51
29.99999999999998
  0
ARC
  5
D9
330
1F
100
AcDbEntity
  8
VISIBLE
100
AcDbCircle
 10
1.564924004239518
 20
6.979725318199951
 30
0.0
 40
0.125
100
AcDbArc
 50
150.0
 51
240.0
  0
ARC
  5
DA
330
1F
100
AcDbEntity
  8
VISIBLE
100
AcDbCircle
 10
1.650000000000001
 20
7.127081265361623
 30
0.0
 40
0.125
100
AcDbArc
 50
29.99999999999998
 51
150.0
  0
ARC
  5
DB
330
1F
100
AcDbEntity
  8
VISIBLE
100
AcDbCircle
 10
1.902590742770462
 20
7.564581265361622
 30
0.0
 40
0.125
100
AcDbArc
 50
150.0
 51
209.9999999999995
  0
ARC
  5
DC
330
1F
100
AcDbEntity
  8
VISIBLE
100
AcDbCircle
 10
3.89740925722954
 20
7.564581265361622
 30
0.0
 40
0.125
100
AcDbArc
 50
330.0000000000001
 51
29.99999999999993
  0
ARC
  5
DD
330
1F
100
AcDbEntity
  8
VISIBLE
100
AcDbCircle
 10
4.15
 20
7.127081265361623
 30
0.0
 40
0.125
100
AcDbArc
 50
29.99999999999993
 51
149.9999999999999
  0
ARC
  5
DE
330
1F
100
AcDbEntity
  8
VISIBLE
100
AcDbCircle
 10
4.52240925722954
 20
6.482049510631075
 30
0.0
 40
0.125
100
AcDbArc
 50
329.9999999999995
 51
29.99999999999993
  0
ARC
  5
DF
330
1F
100
AcDbEntity
  8
VISIBLE
100
AcDbCircle
 10
3.838194187433144
 20
6.377081265361623
 30
0.0
 40
0.125
100
AcDbArc
 50
209.9999999999999
 51
270.0
  0
ARC
  5
E0
330
1F
100
AcDbEntity
  8
VISIBLE
100
AcDbCircle
 10
4.461805812566859
 20
6.377081265361623
 30
0.0
 40
0.125
100
AcDbArc
 50
270.0
 51
330.0000000000005
  0
ARC
  5
E1
330
1F
100
AcDbEntity
  8
VISIBLE
100
AcDbCircle
 10
1.289156081756483
 20
7.752081265361625
 30
0.0
 40
0.125
100
AcDbArc
 50
29.99999999999998
 51
89.9999999999999
  0
ARC
  5
E2
330
1F
100
AcDbEntity
  8
VISIBLE
100
AcDbCircle
 10
2.527590742770462
 20
6.482049510631075
 30
0.0
 40
0.125
100
AcDbArc
 50
150.0
 51
210.0
  0
ARC
  5
E3
330
1F
100
AcDbEntity
  8
VISIBLE
100
AcDbCircle
 10
3.777590742770463
 20
6.482049510631075
 30
0.0
 40
0.125
100
AcDbArc
 50
150.0
 51
210.0
  0
ARC
  5
E4
330
1F
100
AcDbEntity
  8
VISIBLE
100
AcDbCircle
 10
1.39740925722954
 20
7.564581265361622
 30
0.0
 40
0.125
100
AcDbArc
 50
330.0
 51
30.00000000000044
  0
ARC
  5
E5
330
1F
100
AcDbEntity
  8
VISIBLE
100
AcDbCircle
 10
2.577924219832352
 20
6.394869371038279
 30
0.0
 40
0.125
100
AcDbArc
 50
210.0
 51
239.9999999999997
  0
ARC
  5
E6
330
1F
100
AcDbEntity
  8
VISIBLE
100
AcDbCircle
 10
2.608734122634726
 20
6.377081265361623
 30
0.0
 40
0.125
100
AcDbArc
 50
239.9999999999997
 51
270.0
  0
ARC
  5
E7
330
1F
100
AcDbEntity
  8
VISIBLE
100
AcDbCircle
 10
0.8374999999999999
 20
7.399703762862632
 30
0.0
 40
0.125
100
AcDbArc
 50
179.9999999999996
 51
240.0
  0
ARC
  5
E8
330
1F
100
AcDbEntity
  8
VISIBLE
100
AcDbCircle
 10
10.525
 20
6.564581265361626
 30
0.0
 40
0.5000000000000008
100
AcDbArc
 50
270.0
 51
0.0000000000000018
  0
LINE
  5
E9
330
1F
100
AcDbEntity
  8
VISIBLE
100
AcDbLine
 10
7.337500000000002
 20
8.002081265361625
 30
0.0
 11
7.712500000000002
 21
8.002081265361625
 31
0.0
  0
ARC
  5
EA
330
1F
100
AcDbEntity
  8
VISIBLE
100
AcDbCircle
 10
4.775000000000001
 20
6.919549510631075
 30
0.0
 40
0.125
100
AcDbArc
 50
209.9999999999999
 51
330.0000000000001
  0
ARC
  5
EB
330
1F
100
AcDbEntity
  8
VISIBLE
100
AcDbCircle
 10
3.27240925722954
 20
6.482049510631075
 30
0.0
 40
0.125
100
AcDbArc
 50
329.9999999999995
 51
30.00000000000004
  0
ARC
  5
EC
330
1F
100
AcDbEntity
  8
VISIBLE
100
AcDbCircle
 10
1.186037890083826
 20
7.198475318199951
 30
0.0
 40
0.125
100
AcDbArc
 50
239.9999999999996
 51
330.0
  0
ARC
  5
ED
330
1F
100
AcDbEntity
  8
VISIBLE
100
AcDbCircle
 10
2.900000000000001
 20
7.127081265361623
 30
0.0
 40
0.125
100
AcDbArc
 50
30.00000000000004
 51
150.0000000000001
  0
ARC
  5
EE
330
1F
100
AcDbEntity
  8
VISIBLE
100
AcDbCircle
 10
3.789156081756484
 20
7.752081265361625
 30
0.0
 40
0.125
100
AcDbArc
 50
29.99999999999993
 51
90.0
  0
ARC
  5
EF
330
1F
100
AcDbEntity
  8
VISIBLE
100
AcDbCircle
 10
8.806250000000002
 20
7.752081265361624
 30
0.0
 40
0.125
100
AcDbArc
 50
0.0000000000004072
 51
90.0
  0
ARC
  5
F0
330
1F
100
AcDbEntity
  8
VISIBLE
100
AcDbCircle
 10
5.400000000000001
 20
7.127081265361623
 30
0.0
 40
0.125
100
AcDbArc
 50
29.99999999999993
 51
150.0000000000004
  0
ARC
  5
F1
330
1F
100
AcDbEntity
  8
VISIBLE
100
AcDbCircle
 10
3.152590742770462
 20
7.564581265361623
 30
0.0
 40
0.125
100
AcDbArc
 50
150.0000000000001
 51
209.9999999999999
  0
ARC
  5
F2
330
1F
100
AcDbEntity
  8
VISIBLE
100
AcDbCircle
 10
5.652590742770462
 20
7.564581265361623
 30
0.0
 40
0.125
100
AcDbArc
 50
150.0000000000001
 51
209.9999999999999
  0
LINE
  5
F3
330
1F
100
AcDbEntity
  8
VISIBLE
100
AcDbLine
 10
7.337500000000002
 20
8.064581265361625
 30
0.0
 11
7.712500000000002
 21
8.064581265361625
 31
0.0
  0
ARC
  5
F4
330
1F
100
AcDbEntity
  8
VISIBLE
100
AcDbCircle
 10
5.027590742770463
 20
6.482049510631075
 30
0.0
 40
0.125
100
AcDbArc
 50
150.0000000000001
 51
209.9999999999999
  0
ARC
  5
F5
330
1F
100
AcDbEntity
  8
VISIBLE
100
AcDbCircle
 10
5.14740925722954
 20
7.564581265361623
 30
0.0
 40
0.125
100
AcDbArc
 50
329.9999999999995
 51
29.99999999999993
  0
ARC
  5
F6
330
1F
100
AcDbEntity
  8
VISIBLE
100
AcDbCircle
 10
5.833012701892221
 20
6.377081265361623
 30
0.0
 40
0.125
100
AcDbArc
 50
270.0
 51
29.99999999999993
  0
ARC
  5
F7
330
1F
100
AcDbEntity
  8
VISIBLE
100
AcDbCircle
 10
2.010843918243518
 20
7.752081265361625
 30
0.0
 40
0.125
100
AcDbArc
 50
90.0
 51
150.0
  0
ARC
  5
F8
330
1F
100
AcDbEntity
  8
VISIBLE
100
AcDbCircle
 10
8.305104145399483
 20
7.752081265361625
 30
0.0
 40
0.125
100
AcDbArc
 50
90.0
 51
210.9637565320737
  0
ARC
  5
F9
330
1F
100
AcDbEntity
  8
VISIBLE
100
AcDbCircle
 10
5.837500000000002
 20
7.244309037050239
 30
0.0
 40
0.125
100
AcDbArc
 50
210.0000000000005
 51
0.000000000000007
  0
ARC
  5
FA
330
1F
100
AcDbEntity
  8
VISIBLE
100
AcDbCircle
 10
3.525000000000001
 20
6.919549510631075
 30
0.0
 40
0.125
100
AcDbArc
 50
210.0000000000005
 51
329.9999999999995
  0
ARC
  5
FB
330
1F
100
AcDbEntity
  8
VISIBLE
100
AcDbCircle
 10
3.260843918243518
 20
7.752081265361625
 30
0.0
 40
0.125
100
AcDbArc
 50
90.0
 51
150.0000000000001
  0
ARC
  5
FC
330
1F
100
AcDbEntity
  8
VISIBLE
100
AcDbCircle
 10
5.837500000000002
 20
7.752081265361624
 30
0.0
 40
0.125
100
AcDbArc
 50
0.000000000000007
 51
90.0
  0
LINE
  5
FD
330
1F
100
AcDbEntity
  8
VISIBLE
100
AcDbLine
 10
6.712500000000001
 20
6.064581265361623
 30
0.0
 11
6.337500000000001
 21
6.064581265361623
 31
0.0
  0
ARC
  5
FE
330
1F
100
AcDbEntity
  8
VISIBLE
100
AcDbCircle
 10
0.8374999999999999
 20
7.752081265361625
 30
0.0
 40
0.125
100
AcDbArc
 50
89.99999999999994
 51
179.9999999999996
  0
ARC
  5
FF
330
1F
100
AcDbEntity
  8
VISIBLE
100
AcDbCircle
 10
5.760843918243518
 20
7.752081265361625
 30
0.0
 40
0.125
100
AcDbArc
 50
90.0
 51
150.0000000000001
  0
ARC
  5
100
330
1F
100
AcDbEntity
  8
VISIBLE
100
AcDbCircle
 10
2.275000000000001
 20
6.919549510631075
 30
0.0
 40
0.125
100
AcDbArc
 50
209.9999999999999
 51
330.0000000000001
  0
ARC
  5
101
330
1F
100
AcDbEntity
  8
VISIBLE
100
AcDbCircle
 10
8.806250000000002
 20
6.916838174360762
 30
0.0
 40
0.125
100
AcDbArc
 50
210.9637565320729
 51
0.0000000000004072
  0
ARC
  5
102
330
1F
100
AcDbEntity
  8
VISIBLE
100
AcDbCircle
 10
5.039156081756484
 20
7.752081265361625
 30
0.0
 40
0.125
100
AcDbArc
 50
29.99999999999993
 51
90.0
  0
ARC
  5
103
330
1F
100
AcDbEntity
  8
VISIBLE
100
AcDbCircle
 10
2.64740925722954
 20
7.564581265361623
 30
0.0
 40
0.125
100
AcDbArc
 50
330.0
 51
30.00000000000004
  0
ARC
  5
104
330
1F
100
AcDbEntity
  8
VISIBLE
100
AcDbCircle
 10
3.21180581256686
 20
6.377081265361623
 30
0.0
 40
0.125
100
AcDbArc
 50
270.0
 51
330.0
  0
ARC
  5
105
330
1F
100
AcDbEntity
  8
VISIBLE
100
AcDbCircle
 10
5.088194187433143
 20
6.377081265361623
 30
0.0
 40
0.125
100
AcDbArc
 50
209.9999999999999
 51
270.0
  0
ARC
  5
106
330
1F
100
AcDbEntity
  8
VISIBLE
100
AcDbCircle
 10
4.510843918243519
 20
7.752081265361625
 30
0.0
 40
0.125
100
AcDbArc
 50
90.0
 51
150.0000000000004
  0
ARC
  5
107
330
1F
100
AcDbEntity
  8
VISIBLE
100
AcDbCircle
 10
4.402590742770463
 20
7.564581265361623
 30
0.0
 40
0.125
100
AcDbArc
 50
150.0000000000001
 51
209.9999999999999
  0
ARC
  5
108
330
1F
100
AcDbEntity
  8
VISIBLE
100
AcDbCircle
 10
2.539156081756484
 20
7.752081265361625
 30
0.0
 40
0.125
100
AcDbArc
 50
30.00000000000004
 51
90.0
  0
CIRCLE
  5
10C
330
1F
100
AcDbEntity
  8
VISIBLE
100
AcDbCircle
 10
10.025
 20
3.995994964750621
 30
0.0
 40
0.125
  0
CIRCLE
  5
10D
330
1F
100
AcDbEntity
  8
VISIBLE
100
AcDbCircle
 10
4.025
 20
3.995994964750621
 30
0.0
 40
0.2187500000000001
  0
CIRCLE
  5
10E
330
1F
100
AcDbEntity
  8
VISIBLE
100
AcDbCircle
 10
5.025
 20
3.995994964750621
 30
0.0
 40
0.125
  0
CIRCLE
  5
10F
330
1F
100
AcDbEntity
  8
VISIBLE
100
AcDbCircle
 10
3.025
 20
3.995994964750621
 30
0.0
 40
0.125
  0
CIRCLE
  5
110
330
1F
100
AcDbEntity
  8
VISIBLE
100
AcDbCircle
 10
1.024999999999999
 20
3.995994964750621
 30
0.0
 40
0.125
  0
CIRCLE
  5
111
330
1F
100
AcDbEntity
  8
VISIBLE
100
AcDbCircle
 10
2.024999999999999
 20
3.995994964750621
 30
0.0
 40
0.125
  0
CIRCLE
  5
112
330
1F
100
AcDbEntity
  8
VISIBLE
100
AcDbCircle
 10
4.025
 20
3.99599496475062
 30
0.0
 40
0.125
  0
LINE
  5
113
330
1F
100
AcDbEntity
  8
VISIBLE
100
AcDbLine
 10
0.525
 20
4.433494964750619
 30
0.0
 11
0.5249999999999999
 21
3.558494964750619
 31
0.0
  0
LINE
  5
114
330
1F
100
AcDbEntity
  8
VISIBLE
100
AcDbLine
 10
2.524999999999999
 20
3.495994964750619
 30
0.0
 11
10.525
 21
3.49599496475062
 31
0.0
  0
LINE
  5
115
330
1F
100
AcDbEntity
  8
VISIBLE
100
AcDbLine
 10
7.712500000000002
 20
4.495994964750619
 30
0.0
 11
10.525
 21
4.495994964750619
 31
0.0
  0
LINE
  5
116
330
1F
100
AcDbEntity
  8
VISIBLE
100
AcDbLine
 10
2.524999999999999
 20
3.495994964750619
 30
0.0
 11
2.524999999999999
 21
4.495994964750619
 31
0.0
  0
LINE
  5
117
330
1F
100
AcDbEntity
  8
VISIBLE
100
AcDbLine
 10
2.416746824526946
 20
4.433494964750619
 30
0.0
 11
0.525
 21
4.433494964750619
 31
0.0
  0
LINE
  5
118
330
1F
100
AcDbEntity
  8
VISIBLE
100
AcDbLine
 10
6.712500000000001
 20
4.495994964750619
 30
0.0
 11
7.337500000000001
 21
4.495994964750619
 31
0.0
  0
LINE
  5
119
330
1F
100
AcDbEntity
  8
VISIBLE
100
AcDbLine
 10
0.525
 20
4.433494964750619
 30
0.0
 11
0.525
 21
4.495994964750619
 31
0.0
  0
LINE
  5
11A
330
1F
100
AcDbEntity
  8
VISIBLE
100
AcDbLine
 10
2.524999999999999
 20
4.495994964750619
 30
0.0
 11
6.337500000000001
 21
4.495994964750619
 31
0.0
  0
LINE
  5
11B
330
1F
100
AcDbEntity
  8
VISIBLE
100
AcDbLine
 10
10.76706145913796
 20
4.433494964750619
 30
0.0
 11
10.76706145913796
 21
3.558494964750619
 31
0.0
  0
LINE
  5
11C
330
1F
100
AcDbEntity
  8
VISIBLE
100
AcDbLine
 10
0.5249999999999999
 20
3.495994964750619
 30
0.0
 11
0.5249999999999999
 21
3.558494964750619
 31
0.0
  0
LINE
  5
11D
330
1F
100
AcDbEntity
  8
VISIBLE
100
AcDbLine
 10
2.416746824526947
 20
3.558494964750619
 30
0.0
 11
0.5249999999999999
 21
3.558494964750619
 31
0.0
  0
LINE
  5
11E
330
1F
100
AcDbEntity
  8
VISIBLE
100
AcDbLine
 10
2.416746824526946
 20
4.433494964750619
 30
0.0
 11
2.416746824526947
 21
3.558494964750619
 31
0.0
  0
LINE
  5
11F
330
1F
100
AcDbEntity
  8
VISIBLE
100
AcDbLine
 10
2.524999999999999
 20
3.495994964750619
 30
0.0
 11
0.5249999999999999
 21
3.495994964750619
 31
0.0
  0
LINE
  5
120
330
1F
100
AcDbEntity
  8
TANGENT_LINES
100
AcDbLine
 10
10.525
 20
3.49599496475062
 30
0.0
 11
10.525
 21
4.495994964750619
 31
0.0
  0
LINE
  5
121
330
1F
100
AcDbEntity
  8
VISIBLE
100
AcDbLine
 10
11.02500000000001
 20
4.433494964750619
 30
0.0
 11
11.02500000000001
 21
4.495994964750619
 31
0.0
  0
LINE
  5
122
330
1F
100
AcDbEntity
  8
VISIBLE
100
AcDbLine
 10
2.524999999999999
 20
4.495994964750619
 30
0.0
 11
0.525
 21
4.495994964750619
 31
0.0
  0
LINE
  5
123
330
1F
100
AcDbEntity
  8
VISIBLE
100
AcDbLine
 10
11.02500000000001
 20
3.49599496475062
 30
0.0
 11
11.025
 21
3.558494964750619
 31
0.0
  0
LINE
  5
124
330
1F
100
AcDbEntity
  8
VISIBLE
100
AcDbLine
 10
10.525
 20
4.495994964750619
 30
0.0
 11
11.025
 21
4.495994964750619
 31
0.0
  0
LINE
  5
125
330
1F
100
AcDbEntity
  8
VISIBLE
100
AcDbLine
 10
10.525
 20
3.49599496475062
 30
0.0
 11
11.025
 21
3.49599496475062
 31
0.0
  0
CIRCLE
  5
126
330
1F
100
AcDbEntity
  8
VISIBLE
100
AcDbCircle
 10
8.025000000000002
 20
3.995994964750621
 30
0.0
 40
0.125
  0
LINE
  5
127
330
1F
100
AcDbEntity
  8
VISIBLE
100
AcDbLine
 10
10.76706145913796
 20
4.433494964750619
 30
0.0
 11
11.025
 21
4.433494964750619
 31
0.0
  0
CIRCLE
  5
128
330
1F
100
AcDbEntity
  8
VISIBLE
100
AcDbCircle
 10
9.025000000000002
 20
3.995994964750621
 30
0.0
 40
0.125
  0
ARC
  5
129
330
1F
100
AcDbEntity
  8
VISIBLE
100
AcDbCircle
 10
6.525000000000001
 20
4.495994964750619
 30
0.0
 40
0.1875000000000001
100
AcDbArc
 50
180.0
 51
0.0
  0
LINE
  5
12A
330
1F
100
AcDbEntity
  8
VISIBLE
100
AcDbLine
 10
10.76706145913796
 20
3.558494964750619
 30
0.0
 11
11.025
 21
3.558494964750619
 31
0.0
  0
ARC
  5
12B
330
1F
100
AcDbEntity
  8
VISIBLE
100
AcDbCircle
 10
7.525000000000002
 20
4.495994964750619
 30
0.0
 40
0.1875000000000001
100
AcDbArc
 50
180.0
 51
0.0
  0
CIRCLE
  5
12F
330
1F
100
AcDbEntity
  8
VISIBLE
100
AcDbCircle
 10
9.037994968677761
 20
1.25969328418686
 30
0.0
 40
0.125
  0
CIRCLE
  5
130
330
1F
100
AcDbEntity
  8
VISIBLE
100
AcDbCircle
 10
5.03799496867776
 20
1.259693284186859
 30
0.0
 40
0.21875
  0
CIRCLE
  5
131
330
1F
100
AcDbEntity
  8
VISIBLE
100
AcDbCircle
 10
3.037994968677759
 20
1.259693284186859
 30
0.0
 40
0.21875
  0
CIRCLE
  5
132
330
1F
100
AcDbEntity
  8
VISIBLE
100
AcDbCircle
 10
1.037994968677759
 20
1.259693284186858
 30
0.0
 40
0.125
  0
CIRCLE
  5
133
330
1F
100
AcDbEntity
  8
VISIBLE
100
AcDbCircle
 10
2.037994968677759
 20
1.259693284186859
 30
0.0
 40
0.125
  0
CIRCLE
  5
134
330
1F
100
AcDbEntity
  8
VISIBLE
100
AcDbCircle
 10
4.03799496867776
 20
1.259693284186859
 30
0.0
 40
0.125
  0
CIRCLE
  5
135
330
1F
100
AcDbEntity
  8
VISIBLE
100
AcDbCircle
 10
8.037994968677761
 20
1.25969328418686
 30
0.0
 40
0.125
  0
CIRCLE
  5
136
330
1F
100
AcDbEntity
  8
VISIBLE
100
AcDbCircle
 10
3.037994968677759
 20
1.259693284186859
 30
0.0
 40
0.125
  0
CIRCLE
  5
137
330
1F
100
AcDbEntity
  8
VISIBLE
100
AcDbCircle
 10
5.03799496867776
 20
1.259693284186859
 30
0.0
 40
0.125
  0
LINE
  5
138
330
1F
100
AcDbEntity
  8
VISIBLE
100
AcDbLine
 10
11.03799496867776
 20
0.8221932841868616
 30
0.0
 11
11.03799496867776
 21
0.7596932841868607
 31
0.0
  0
LINE
  5
139
330
1F
100
AcDbEntity
  8
VISIBLE
100
AcDbLine
 10
11.03799496867776
 20
1.75969328418686
 30
0.0
 11
11.03799496867776
 21
1.697193284186861
 31
0.0
  0
LINE
  5
13A
330
1F
100
AcDbEntity
  8
VISIBLE
100
AcDbLine
 10
6.725494968677761
 20
0.7596932841868604
 30
0.0
 11
7.350494968677761
 21
0.7596932841868604
 31
0.0
  0
LINE
  5
13B
330
1F
100
AcDbEntity
  8
VISIBLE
100
AcDbLine
 10
0.5379949686777592
 20
1.75969328418686
 30
0.0
 11
10.53799496867776
 21
1.75969328418686
 31
0.0
  0
LINE
  5
13C
330
1F
100
AcDbEntity
  8
VISIBLE
100
AcDbLine
 10
7.725494968677761
 20
0.7596932841868604
 30
0.0
 11
10.53799496867776
 21
0.7596932841868607
 31
0.0
  0
LINE
  5
13D
330
1F
100
AcDbEntity
  8
VISIBLE
100
AcDbLine
 10
10.78005642781573
 20
0.8221932841868613
 30
0.0
 11
10.78005642781572
 21
1.697193284186861
 31
0.0
  0
LINE
  5
13E
330
1F
100
AcDbEntity
  8
VISIBLE
100
AcDbLine
 10
0.5379949686777593
 20
0.7596932841868602
 30
0.0
 11
0.5379949686777592
 21
1.75969328418686
 31
0.0
  0
LINE
  5
13F
330
1F
100
AcDbEntity
  8
VISIBLE
100
AcDbLine
 10
0.5379949686777593
 20
0.7596932841868602
 30
0.0
 11
6.350494968677761
 21
0.7596932841868604
 31
0.0
  0
LINE
  5
140
330
1F
100
AcDbEntity
  8
TANGENT_LINES
100
AcDbLine
 10
10.53799496867776
 20
1.75969328418686
 30
0.0
 11
10.53799496867776
 21
0.7596932841868607
 31
0.0
  0
LINE
  5
141
330
1F
100
AcDbEntity
  8
VISIBLE
100
AcDbLine
 10
11.03799496867776
 20
1.75969328418686
 30
0.0
 11
10.53799496867776
 21
1.75969328418686
 31
0.0
  0
LINE
  5
142
330
1F
100
AcDbEntity
  8
VISIBLE
100
AcDbLine
 10
11.03799496867776
 20
0.7596932841868607
 30
0.0
 11
10.53799496867776
 21
0.7596932841868606
 31
0.0
  0
LINE
  5
143
330
1F
100
AcDbEntity
  8
VISIBLE
100
AcDbLine
 10
11.03799496867776
 20
0.8221932841868616
 30
0.0
 11
10.78005642781573
 21
0.8221932841868614
 31
0.0
  0
LINE
  5
144
330
1F
100
AcDbEntity
  8
VISIBLE
100
AcDbLine
 10
11.03799496867776
 20
1.697193284186861
 30
0.0
 11
10.78005642781572
 21
1.697193284186861
 31
0.0
  0
ARC
  5
145
330
1F
100
AcDbEntity
  8
VISIBLE
100
AcDbCircle
 10
7.537994968677761
 20
0.7596932841868604
 30
0.0
 40
0.1875000000000001
100
AcDbArc
 50
0.0000000000001357
 51
179.9999999999998
  0
ARC
  5
146
330
1F
100
AcDbEntity
  8
VISIBLE
100
AcDbCircle
 10
6.537994968677761
 20
0.7596932841868604
 30
0.0
 40
0.1875000000000001
100
AcDbArc
 50
0.0000000000001357
 51
179.9999999999998
  0
MTEXT
  5
147
102
{ACAD_XDICTIONARY
360
148
102
}
330
1F
100
AcDbEntity
  8
ANNOTATION_TEXT
 62
     7
 60
     1
100
AcDbMText
 10
5.775000000000002
 20
5.389581265361622
 30
0.0
 40
0.12
 41
0.0
 71
     2
 72
     1
  1

  7
ONSHAPE-STANDARD-VIEW-LABE
1001
ACAD
1000
ACAD_MTEXT_DEFINED_HEIGHT_BEGIN
1070
    46
1040
0.12
1000
ACAD_MTEXT_DEFINED_HEIGHT_END
  0
LINE
  5
151
330
1F
100
AcDbEntity
  8
CENTERMARKS
  6
CONTINUOUS
100
AcDbLine
 10
9.98
 20
7.689581265361624
 30
0.0
 11
10.07
 21
7.689581265361624
 31
0.0
  0
LINE
  5
152
330
1F
100
AcDbEntity
  8
CENTERMARKS
  6
CONTINUOUS
100
AcDbLine
 10
10.025
 20
7.644581265361624
 30
0.0
 11
10.025
 21
7.734581265361624
 31
0.0
  0
LINE
  5
153
330
1F
100
AcDbEntity
  8
CENTERMARKS
  6
CENTER
100
AcDbLine
 10
9.935000000000002
 20
7.689581265361624
 30
0.0
 11
9.837000000000003
 21
7.689581265361624
 31
0.0
  0
LINE
  5
154
330
1F
100
AcDbEntity
  8
CENTERMARKS
  6
CENTER
100
AcDbLine
 10
10.115
 20
7.689581265361624
 30
0.0
 11
10.213
 21
7.689581265361624
 31
0.0
  0
LINE
  5
155
330
1F
100
AcDbEntity
  8
CENTERMARKS
  6
CENTER
100
AcDbLine
 10
10.025
 20
7.779581265361624
 30
0.0
 11
10.025
 21
7.877581265361624
 31
0.0
  0
LINE
  5
156
330
1F
100
AcDbEntity
  8
CENTERMARKS
  6
CENTER
100
AcDbLine
 10
10.025
 20
7.599581265361624
 30
0.0
 11
10.025
 21
7.501581265361624
 31
0.0
  0
LINE
  5
159
330
1F
100
AcDbEntity
  8
CENTERMARKS
  6
CONTINUOUS
100
AcDbLine
 10
9.98
 20
7.064581265361624
 30
0.0
 11
10.07
 21
7.064581265361624
 31
0.0
  0
LINE
  5
15A
330
1F
100
AcDbEntity
  8
CENTERMARKS
  6
CONTINUOUS
100
AcDbLine
 10
10.025
 20
7.019581265361624
 30
0.0
 11
10.025
 21
7.109581265361624
 31
0.0
  0
LINE
  5
15B
330
1F
100
AcDbEntity
  8
CENTERMARKS
  6
CENTER
100
AcDbLine
 10
9.935000000000002
 20
7.064581265361624
 30
0.0
 11
9.653750000000002
 21
7.064581265361624
 31
0.0
  0
LINE
  5
15C
330
1F
100
AcDbEntity
  8
CENTERMARKS
  6
CENTER
100
AcDbLine
 10
10.115
 20
7.064581265361624
 30
0.0
 11
10.39625
 21
7.064581265361624
 31
0.0
  0
LINE
  5
15D
330
1F
100
AcDbEntity
  8
CENTERMARKS
  6
CENTER
100
AcDbLine
 10
10.025
 20
7.154581265361624
 30
0.0
 11
10.025
 21
7.435831265361624
 31
0.0
  0
LINE
  5
15E
330
1F
100
AcDbEntity
  8
CENTERMARKS
  6
CENTER
100
AcDbLine
 10
10.025
 20
6.974581265361624
 30
0.0
 11
10.025
 21
6.693331265361624
 31
0.0
  0
LINE
  5
161
330
1F
100
AcDbEntity
  8
CENTERMARKS
  6
CONTINUOUS
100
AcDbLine
 10
9.355
 20
7.064581265361624
 30
0.0
 11
9.445
 21
7.064581265361624
 31
0.0
  0
LINE
  5
162
330
1F
100
AcDbEntity
  8
CENTERMARKS
  6
CONTINUOUS
100
AcDbLine
 10
9.400000000000002
 20
7.019581265361624
 30
0.0
 11
9.400000000000002
 21
7.109581265361624
 31
0.0
  0
LINE
  5
163
330
1F
100
AcDbEntity
  8
CENTERMARKS
  6
CENTER
100
AcDbLine
 10
9.310000000000002
 20
7.064581265361624
 30
0.0
 11
9.212
 21
7.064581265361624
 31
0.0
  0
LINE
  5
164
330
1F
100
AcDbEntity
  8
CENTERMARKS
  6
CENTER
100
AcDbLine
 10
9.490000000000002
 20
7.064581265361624
 30
0.0
 11
9.588000000000001
 21
7.064581265361624
 31
0.0
  0
LINE
  5
165
330
1F
100
AcDbEntity
  8
CENTERMARKS
  6
CENTER
100
AcDbLine
 10
9.400000000000002
 20
7.154581265361624
 30
0.0
 11
9.400000000000002
 21
7.252581265361624
 31
0.0
  0
LINE
  5
166
330
1F
100
AcDbEntity
  8
CENTERMARKS
  6
CENTER
100
AcDbLine
 10
9.400000000000002
 20
6.974581265361624
 30
0.0
 11
9.400000000000002
 21
6.876581265361624
 31
0.0
  0
LINE
  5
169
330
1F
100
AcDbEntity
  8
CENTERMARKS
  6
CONTINUOUS
100
AcDbLine
 10
9.98
 20
6.439581265361624
 30
0.0
 11
10.07
 21
6.439581265361624
 31
0.0
  0
LINE
  5
16A
330
1F
100
AcDbEntity
  8
CENTERMARKS
  6
CONTINUOUS
100
AcDbLine
 10
10.025
 20
6.394581265361624
 30
0.0
 11
10.025
 21
6.484581265361624
 31
0.0
  0
LINE
  5
16B
330
1F
100
AcDbEntity
  8
CENTERMARKS
  6
CENTER
100
AcDbLine
 10
9.935000000000002
 20
6.439581265361624
 30
0.0
 11
9.837000000000003
 21
6.439581265361624
 31
0.0
  0
LINE
  5
16C
330
1F
100
AcDbEntity
  8
CENTERMARKS
  6
CENTER
100
AcDbLine
 10
10.115
 20
6.439581265361624
 30
0.0
 11
10.213
 21
6.439581265361624
 31
0.0
  0
LINE
  5
16D
330
1F
100
AcDbEntity
  8
CENTERMARKS
  6
CENTER
100
AcDbLine
 10
10.025
 20
6.529581265361624
 30
0.0
 11
10.025
 21
6.627581265361624
 31
0.0
  0
LINE
  5
16E
330
1F
100
AcDbEntity
  8
CENTERMARKS
  6
CENTER
100
AcDbLine
 10
10.025
 20
6.349581265361624
 30
0.0
 11
10.025
 21
6.251581265361624
 31
0.0
  0
LINE
  5
171
330
1F
100
AcDbEntity
  8
CENTERMARKS
  6
CONTINUOUS
100
AcDbLine
 10
10.605
 20
7.064581265361624
 30
0.0
 11
10.695
 21
7.064581265361624
 31
0.0
  0
LINE
  5
172
330
1F
100
AcDbEntity
  8
CENTERMARKS
  6
CONTINUOUS
100
AcDbLine
 10
10.65
 20
7.019581265361624
 30
0.0
 11
10.65
 21
7.109581265361624
 31
0.0
  0
LINE
  5
173
330
1F
100
AcDbEntity
  8
CENTERMARKS
  6
CENTER
100
AcDbLine
 10
10.56
 20
7.064581265361624
 30
0.0
 11
10.462
 21
7.064581265361624
 31
0.0
  0
LINE
  5
174
330
1F
100
AcDbEntity
  8
CENTERMARKS
  6
CENTER
100
AcDbLine
 10
10.74
 20
7.064581265361624
 30
0.0
 11
10.838
 21
7.064581265361624
 31
0.0
  0
LINE
  5
175
330
1F
100
AcDbEntity
  8
CENTERMARKS
  6
CENTER
100
AcDbLine
 10
10.65
 20
7.154581265361624
 30
0.0
 11
10.65
 21
7.252581265361624
 31
0.0
  0
LINE
  5
176
330
1F
100
AcDbEntity
  8
CENTERMARKS
  6
CENTER
100
AcDbLine
 10
10.65
 20
6.974581265361624
 30
0.0
 11
10.65
 21
6.876581265361624
 31
0.0
  0
LINE
  5
179
330
1F
100
AcDbEntity
  8
CENTERMARKS
  6
CONTINUOUS
100
AcDbLine
 10
6.291106781186548
 20
7.753474484175077
 30
0.0
 11
6.381106781186548
 21
7.753474484175077
 31
0.0
  0
LINE
  5
17A
330
1F
100
AcDbEntity
  8
CENTERMARKS
  6
CONTINUOUS
100
AcDbLine
 10
6.336106781186548
 20
7.708474484175077
 30
0.0
 11
6.336106781186548
 21
7.798474484175077
 31
0.0
  0
LINE
  5
17B
330
1F
100
AcDbEntity
  8
CENTERMARKS
  6
CENTER
100
AcDbLine
 10
6.246106781186548
 20
7.753474484175077
 30
0.0
 11
6.148106781186549
 21
7.753474484175077
 31
0.0
  0
LINE
  5
17C
330
1F
100
AcDbEntity
  8
CENTERMARKS
  6
CENTER
100
AcDbLine
 10
6.426106781186548
 20
7.753474484175077
 30
0.0
 11
6.524106781186548
 21
7.753474484175077
 31
0.0
  0
LINE
  5
17D
330
1F
100
AcDbEntity
  8
CENTERMARKS
  6
CENTER
100
AcDbLine
 10
6.336106781186548
 20
7.843474484175077
 30
0.0
 11
6.336106781186548
 21
7.941474484175076
 31
0.0
  0
LINE
  5
17E
330
1F
100
AcDbEntity
  8
CENTERMARKS
  6
CENTER
100
AcDbLine
 10
6.336106781186548
 20
7.663474484175077
 30
0.0
 11
6.336106781186548
 21
7.565474484175077
 31
0.0
  0
LINE
  5
181
330
1F
100
AcDbEntity
  8
CENTERMARKS
  6
CONTINUOUS
100
AcDbLine
 10
6.980000000000001
 20
7.064581265361625
 30
0.0
 11
7.070000000000001
 21
7.064581265361625
 31
0.0
  0
LINE
  5
182
330
1F
100
AcDbEntity
  8
CENTERMARKS
  6
CONTINUOUS
100
AcDbLine
 10
7.025000000000001
 20
7.019581265361625
 30
0.0
 11
7.025000000000001
 21
7.109581265361625
 31
0.0
  0
LINE
  5
183
330
1F
100
AcDbEntity
  8
CENTERMARKS
  6
CENTER
100
AcDbLine
 10
6.935000000000001
 20
7.064581265361625
 30
0.0
 11
6.528750000000002
 21
7.064581265361625
 31
0.0
  0
LINE
  5
184
330
1F
100
AcDbEntity
  8
CENTERMARKS
  6
CENTER
100
AcDbLine
 10
7.115000000000001
 20
7.064581265361625
 30
0.0
 11
7.52125
 21
7.064581265361625
 31
0.0
  0
LINE
  5
185
330
1F
100
AcDbEntity
  8
CENTERMARKS
  6
CENTER
100
AcDbLine
 10
7.025000000000001
 20
7.154581265361625
 30
0.0
 11
7.025000000000001
 21
7.560831265361624
 31
0.0
  0
LINE
  5
186
330
1F
100
AcDbEntity
  8
CENTERMARKS
  6
CENTER
100
AcDbLine
 10
7.025000000000001
 20
6.974581265361625
 30
0.0
 11
7.025000000000001
 21
6.568331265361626
 31
0.0
  0
LINE
  5
189
330
1F
100
AcDbEntity
  8
CENTERMARKS
  6
CONTINUOUS
100
AcDbLine
 10
7.687106781186548
 20
7.771688046548172
 30
0.0
 11
7.777106781186548
 21
7.771688046548172
 31
0.0
  0
LINE
  5
18A
330
1F
100
AcDbEntity
  8
CENTERMARKS
  6
CONTINUOUS
100
AcDbLine
 10
7.732106781186548
 20
7.726688046548172
 30
0.0
 11
7.732106781186548
 21
7.816688046548172
 31
0.0
  0
LINE
  5
18B
330
1F
100
AcDbEntity
  8
CENTERMARKS
  6
CENTER
100
AcDbLine
 10
7.642106781186548
 20
7.771688046548172
 30
0.0
 11
7.544106781186549
 21
7.771688046548172
 31
0.0
  0
LINE
  5
18C
330
1F
100
AcDbEntity
  8
CENTERMARKS
  6
CENTER
100
AcDbLine
 10
7.822106781186548
 20
7.771688046548172
 30
0.0
 11
7.920106781186548
 21
7.771688046548172
 31
0.0
  0
LINE
  5
18D
330
1F
100
AcDbEntity
  8
CENTERMARKS
  6
CENTER
100
AcDbLine
 10
7.732106781186548
 20
7.861688046548172
 30
0.0
 11
7.732106781186548
 21
7.959688046548171
 31
0.0
  0
LINE
  5
18E
330
1F
100
AcDbEntity
  8
CENTERMARKS
  6
CENTER
100
AcDbLine
 10
7.732106781186548
 20
7.681688046548172
 30
0.0
 11
7.732106781186548
 21
7.583688046548172
 31
0.0
  0
LINE
  5
191
330
1F
100
AcDbEntity
  8
CENTERMARKS
  6
CONTINUOUS
100
AcDbLine
 10
7.668893218813454
 20
6.375688046548172
 30
0.0
 11
7.758893218813454
 21
6.375688046548172
 31
0.0
  0
LINE
  5
192
330
1F
100
AcDbEntity
  8
CENTERMARKS
  6
CONTINUOUS
100
AcDbLine
 10
7.713893218813454
 20
6.330688046548172
 30
0.0
 11
7.713893218813454
 21
6.420688046548172
 31
0.0
  0
LINE
  5
193
330
1F
100
AcDbEntity
  8
CENTERMARKS
  6
CENTER
100
AcDbLine
 10
7.623893218813454
 20
6.375688046548172
 30
0.0
 11
7.525893218813454
 21
6.375688046548172
 31
0.0
  0
LINE
  5
194
330
1F
100
AcDbEntity
  8
CENTERMARKS
  6
CENTER
100
AcDbLine
 10
7.803893218813454
 20
6.375688046548172
 30
0.0
 11
7.901893218813454
 21
6.375688046548172
 31
0.0
  0
LINE
  5
195
330
1F
100
AcDbEntity
  8
CENTERMARKS
  6
CENTER
100
AcDbLine
 10
7.713893218813454
 20
6.465688046548172
 30
0.0
 11
7.713893218813454
 21
6.563688046548172
 31
0.0
  0
LINE
  5
196
330
1F
100
AcDbEntity
  8
CENTERMARKS
  6
CENTER
100
AcDbLine
 10
7.713893218813454
 20
6.285688046548172
 30
0.0
 11
7.713893218813454
 21
6.187688046548172
 31
0.0
  0
LINE
  5
199
330
1F
100
AcDbEntity
  8
CENTERMARKS
  6
CONTINUOUS
100
AcDbLine
 10
6.272893218813454
 20
6.357474484175077
 30
0.0
 11
6.362893218813454
 21
6.357474484175077
 31
0.0
  0
LINE
  5
19A
330
1F
100
AcDbEntity
  8
CENTERMARKS
  6
CONTINUOUS
100
AcDbLine
 10
6.317893218813454
 20
6.312474484175077
 30
0.0
 11
6.317893218813454
 21
6.402474484175077
 31
0.0
  0
LINE
  5
19B
330
1F
100
AcDbEntity
  8
CENTERMARKS
  6
CENTER
100
AcDbLine
 10
6.227893218813454
 20
6.357474484175077
 30
0.0
 11
6.129893218813455
 21
6.357474484175077
 31
0.0
  0
LINE
  5
19C
330
1F
100
AcDbEntity
  8
CENTERMARKS
  6
CENTER
100
AcDbLine
 10
6.407893218813454
 20
6.357474484175077
 30
0.0
 11
6.505893218813454
 21
6.357474484175077
 31
0.0
  0
LINE
  5
19D
330
1F
100
AcDbEntity
  8
CENTERMARKS
  6
CENTER
100
AcDbLine
 10
6.317893218813454
 20
6.447474484175077
 30
0.0
 11
6.317893218813454
 21
6.545474484175076
 31
0.0
  0
LINE
  5
19E
330
1F
100
AcDbEntity
  8
CENTERMARKS
  6
CENTER
100
AcDbLine
 10
6.317893218813454
 20
6.267474484175077
 30
0.0
 11
6.317893218813454
 21
6.169474484175077
 31
0.0
  0
LINE
  5
1A1
330
1F
100
AcDbEntity
  8
CENTERMARKS
  6
CONTINUOUS
100
AcDbLine
 10
2.23
 20
7.564581265361624
 30
0.0
 11
2.32
 21
7.564581265361624
 31
0.0
  0
LINE
  5
1A2
330
1F
100
AcDbEntity
  8
CENTERMARKS
  6
CONTINUOUS
100
AcDbLine
 10
2.275
 20
7.519581265361624
 30
0.0
 11
2.275
 21
7.609581265361624
 31
0.0
  0
LINE
  5
1A3
330
1F
100
AcDbEntity
  8
CENTERMARKS
  6
CENTER
100
AcDbLine
 10
2.185
 20
7.564581265361624
 30
0.0
 11
2.056500000000001
 21
7.564581265361624
 31
0.0
  0
LINE
  5
1A4
330
1F
100
AcDbEntity
  8
CENTERMARKS
  6
CENTER
100
AcDbLine
 10
2.365
 20
7.564581265361624
 30
0.0
 11
2.4935
 21
7.564581265361624
 31
0.0
  0
LINE
  5
1A5
330
1F
100
AcDbEntity
  8
CENTERMARKS
  6
CENTER
100
AcDbLine
 10
2.275
 20
7.654581265361624
 30
0.0
 11
2.275
 21
7.783081265361623
 31
0.0
  0
LINE
  5
1A6
330
1F
100
AcDbEntity
  8
CENTERMARKS
  6
CENTER
100
AcDbLine
 10
2.275
 20
7.474581265361624
 30
0.0
 11
2.275
 21
7.346081265361624
 31
0.0
  0
LINE
  5
1A9
330
1F
100
AcDbEntity
  8
CENTERMARKS
  6
CONTINUOUS
100
AcDbLine
 10
0.9800000000000008
 20
7.564581265361623
 30
0.0
 11
1.070000000000001
 21
7.564581265361623
 31
0.0
  0
LINE
  5
1AA
330
1F
100
AcDbEntity
  8
CENTERMARKS
  6
CONTINUOUS
100
AcDbLine
 10
1.025000000000001
 20
7.519581265361623
 30
0.0
 11
1.025000000000001
 21
7.609581265361623
 31
0.0
  0
LINE
  5
1AB
330
1F
100
AcDbEntity
  8
CENTERMARKS
  6
CENTER
100
AcDbLine
 10
0.9350000000000007
 20
7.564581265361623
 30
0.0
 11
0.8065000000000007
 21
7.564581265361623
 31
0.0
  0
LINE
  5
1AC
330
1F
100
AcDbEntity
  8
CENTERMARKS
  6
CENTER
100
AcDbLine
 10
1.115000000000001
 20
7.564581265361623
 30
0.0
 11
1.243500000000001
 21
7.564581265361623
 31
0.0
  0
LINE
  5
1AD
330
1F
100
AcDbEntity
  8
CENTERMARKS
  6
CENTER
100
AcDbLine
 10
1.025000000000001
 20
7.654581265361623
 30
0.0
 11
1.025000000000001
 21
7.783081265361623
 31
0.0
  0
LINE
  5
1AE
330
1F
100
AcDbEntity
  8
CENTERMARKS
  6
CENTER
100
AcDbLine
 10
1.025000000000001
 20
7.474581265361623
 30
0.0
 11
1.025000000000001
 21
7.346081265361623
 31
0.0
  0
LINE
  5
1B1
330
1F
100
AcDbEntity
  8
CENTERMARKS
  6
CONTINUOUS
100
AcDbLine
 10
4.730000000000001
 20
7.564581265361623
 30
0.0
 11
4.820000000000001
 21
7.564581265361623
 31
0.0
  0
LINE
  5
1B2
330
1F
100
AcDbEntity
  8
CENTERMARKS
  6
CONTINUOUS
100
AcDbLine
 10
4.775000000000001
 20
7.519581265361623
 30
0.0
 11
4.775000000000001
 21
7.609581265361623
 31
0.0
  0
LINE
  5
1B3
330
1F
100
AcDbEntity
  8
CENTERMARKS
  6
CENTER
100
AcDbLine
 10
4.685000000000001
 20
7.564581265361623
 30
0.0
 11
4.556500000000002
 21
7.564581265361623
 31
0.0
  0
LINE
  5
1B4
330
1F
100
AcDbEntity
  8
CENTERMARKS
  6
CENTER
100
AcDbLine
 10
4.865000000000001
 20
7.564581265361623
 30
0.0
 11
4.993500000000001
 21
7.564581265361623
 31
0.0
  0
LINE
  5
1B5
330
1F
100
AcDbEntity
  8
CENTERMARKS
  6
CENTER
100
AcDbLine
 10
4.775000000000001
 20
7.654581265361623
 30
0.0
 11
4.775000000000001
 21
7.783081265361623
 31
0.0
  0
LINE
  5
1B6
330
1F
100
AcDbEntity
  8
CENTERMARKS
  6
CENTER
100
AcDbLine
 10
4.775000000000001
 20
7.474581265361623
 30
0.0
 11
4.775000000000001
 21
7.346081265361623
 31
0.0
  0
LINE
  5
1B9
330
1F
100
AcDbEntity
  8
CENTERMARKS
  6
CONTINUOUS
100
AcDbLine
 10
5.307350269189628
 20
6.564581265361623
 30
0.0
 11
5.397350269189628
 21
6.564581265361623
 31
0.0
  0
LINE
  5
1BA
330
1F
100
AcDbEntity
  8
CENTERMARKS
  6
CONTINUOUS
100
AcDbLine
 10
5.352350269189628
 20
6.519581265361623
 30
0.0
 11
5.352350269189628
 21
6.609581265361623
 31
0.0
  0
LINE
  5
1BB
330
1F
100
AcDbEntity
  8
CENTERMARKS
  6
CENTER
100
AcDbLine
 10
5.262350269189628
 20
6.564581265361623
 30
0.0
 11
5.133850269189629
 21
6.564581265361623
 31
0.0
  0
LINE
  5
1BC
330
1F
100
AcDbEntity
  8
CENTERMARKS
  6
CENTER
100
AcDbLine
 10
5.442350269189628
 20
6.564581265361623
 30
0.0
 11
5.570850269189628
 21
6.564581265361623
 31
0.0
  0
LINE
  5
1BD
330
1F
100
AcDbEntity
  8
CENTERMARKS
  6
CENTER
100
AcDbLine
 10
5.352350269189628
 20
6.654581265361623
 30
0.0
 11
5.352350269189628
 21
6.783081265361623
 31
0.0
  0
LINE
  5
1BE
330
1F
100
AcDbEntity
  8
CENTERMARKS
  6
CENTER
100
AcDbLine
 10
5.352350269189628
 20
6.474581265361623
 30
0.0
 11
5.352350269189628
 21
6.346081265361623
 31
0.0
  0
LINE
  5
1C1
330
1F
100
AcDbEntity
  8
CENTERMARKS
  6
CONTINUOUS
100
AcDbLine
 10
4.057350269189628
 20
6.564581265361623
 30
0.0
 11
4.147350269189628
 21
6.564581265361623
 31
0.0
  0
LINE
  5
1C2
330
1F
100
AcDbEntity
  8
CENTERMARKS
  6
CONTINUOUS
100
AcDbLine
 10
4.102350269189628
 20
6.519581265361623
 30
0.0
 11
4.102350269189628
 21
6.609581265361623
 31
0.0
  0
LINE
  5
1C3
330
1F
100
AcDbEntity
  8
CENTERMARKS
  6
CENTER
100
AcDbLine
 10
4.012350269189628
 20
6.564581265361623
 30
0.0
 11
3.883850269189628
 21
6.564581265361623
 31
0.0
  0
LINE
  5
1C4
330
1F
100
AcDbEntity
  8
CENTERMARKS
  6
CENTER
100
AcDbLine
 10
4.192350269189628
 20
6.564581265361623
 30
0.0
 11
4.320850269189628
 21
6.564581265361623
 31
0.0
  0
LINE
  5
1C5
330
1F
100
AcDbEntity
  8
CENTERMARKS
  6
CENTER
100
AcDbLine
 10
4.102350269189628
 20
6.654581265361623
 30
0.0
 11
4.102350269189628
 21
6.783081265361623
 31
0.0
  0
LINE
  5
1C6
330
1F
100
AcDbEntity
  8
CENTERMARKS
  6
CENTER
100
AcDbLine
 10
4.102350269189628
 20
6.474581265361623
 30
0.0
 11
4.102350269189628
 21
6.346081265361623
 31
0.0
  0
LINE
  5
1C9
330
1F
100
AcDbEntity
  8
CENTERMARKS
  6
CONTINUOUS
100
AcDbLine
 10
3.48
 20
7.564581265361624
 30
0.0
 11
3.57
 21
7.564581265361624
 31
0.0
  0
LINE
  5
1CA
330
1F
100
AcDbEntity
  8
CENTERMARKS
  6
CONTINUOUS
100
AcDbLine
 10
3.525
 20
7.519581265361624
 30
0.0
 11
3.525
 21
7.609581265361624
 31
0.0
  0
LINE
  5
1CB
330
1F
100
AcDbEntity
  8
CENTERMARKS
  6
CENTER
100
AcDbLine
 10
3.435
 20
7.564581265361624
 30
0.0
 11
3.3065
 21
7.564581265361624
 31
0.0
  0
LINE
  5
1CC
330
1F
100
AcDbEntity
  8
CENTERMARKS
  6
CENTER
100
AcDbLine
 10
3.615
 20
7.564581265361624
 30
0.0
 11
3.7435
 21
7.564581265361624
 31
0.0
  0
LINE
  5
1CD
330
1F
100
AcDbEntity
  8
CENTERMARKS
  6
CENTER
100
AcDbLine
 10
3.525
 20
7.654581265361624
 30
0.0
 11
3.525
 21
7.783081265361623
 31
0.0
  0
LINE
  5
1CE
330
1F
100
AcDbEntity
  8
CENTERMARKS
  6
CENTER
100
AcDbLine
 10
3.525
 20
7.474581265361624
 30
0.0
 11
3.525
 21
7.346081265361624
 31
0.0
  0
LINE
  5
1D1
330
1F
100
AcDbEntity
  8
CENTERMARKS
  6
CONTINUOUS
100
AcDbLine
 10
2.807350269189628
 20
6.564581265361623
 30
0.0
 11
2.897350269189628
 21
6.564581265361623
 31
0.0
  0
LINE
  5
1D2
330
1F
100
AcDbEntity
  8
CENTERMARKS
  6
CONTINUOUS
100
AcDbLine
 10
2.852350269189628
 20
6.519581265361623
 30
0.0
 11
2.852350269189628
 21
6.609581265361623
 31
0.0
  0
LINE
  5
1D3
330
1F
100
AcDbEntity
  8
CENTERMARKS
  6
CENTER
100
AcDbLine
 10
2.762350269189628
 20
6.564581265361623
 30
0.0
 11
2.633850269189628
 21
6.564581265361623
 31
0.0
  0
LINE
  5
1D4
330
1F
100
AcDbEntity
  8
CENTERMARKS
  6
CENTER
100
AcDbLine
 10
2.942350269189628
 20
6.564581265361623
 30
0.0
 11
3.070850269189628
 21
6.564581265361623
 31
0.0
  0
LINE
  5
1D5
330
1F
100
AcDbEntity
  8
CENTERMARKS
  6
CENTER
100
AcDbLine
 10
2.852350269189628
 20
6.654581265361623
 30
0.0
 11
2.852350269189628
 21
6.783081265361623
 31
0.0
  0
LINE
  5
1D6
330
1F
100
AcDbEntity
  8
CENTERMARKS
  6
CENTER
100
AcDbLine
 10
2.852350269189628
 20
6.474581265361623
 30
0.0
 11
2.852350269189628
 21
6.346081265361623
 31
0.0
  0
LINE
  5
1D9
330
1F
100
AcDbEntity
  8
CENTERMARKS
  6
CONTINUOUS
100
AcDbLine
 10
9.98
 20
3.995994964750621
 30
0.0
 11
10.07
 21
3.995994964750621
 31
0.0
  0
LINE
  5
1DA
330
1F
100
AcDbEntity
  8
CENTERMARKS
  6
CONTINUOUS
100
AcDbLine
 10
10.025
 20
3.950994964750621
 30
0.0
 11
10.025
 21
4.040994964750621
 31
0.0
  0
LINE
  5
1DB
330
1F
100
AcDbEntity
  8
CENTERMARKS
  6
CENTER
100
AcDbLine
 10
9.935000000000002
 20
3.995994964750621
 30
0.0
 11
9.810000000000002
 21
3.995994964750621
 31
0.0
  0
LINE
  5
1DC
330
1F
100
AcDbEntity
  8
CENTERMARKS
  6
CENTER
100
AcDbLine
 10
10.115
 20
3.995994964750621
 30
0.0
 11
10.24
 21
3.995994964750621
 31
0.0
  0
LINE
  5
1DD
330
1F
100
AcDbEntity
  8
CENTERMARKS
  6
CENTER
100
AcDbLine
 10
10.025
 20
4.085994964750621
 30
0.0
 11
10.025
 21
4.210994964750621
 31
0.0
  0
LINE
  5
1DE
330
1F
100
AcDbEntity
  8
CENTERMARKS
  6
CENTER
100
AcDbLine
 10
10.025
 20
3.905994964750621
 30
0.0
 11
10.025
 21
3.780994964750621
 31
0.0
  0
LINE
  5
1E1
330
1F
100
AcDbEntity
  8
CENTERMARKS
  6
CONTINUOUS
100
AcDbLine
 10
3.98
 20
3.995994964750621
 30
0.0
 11
4.07
 21
3.995994964750621
 31
0.0
  0
LINE
  5
1E2
330
1F
100
AcDbEntity
  8
CENTERMARKS
  6
CONTINUOUS
100
AcDbLine
 10
4.025
 20
3.950994964750621
 30
0.0
 11
4.025
 21
4.040994964750621
 31
0.0
  0
LINE
  5
1E3
330
1F
100
AcDbEntity
  8
CENTERMARKS
  6
CENTER
100
AcDbLine
 10
3.935
 20
3.995994964750621
 30
0.0
 11
3.71625
 21
3.995994964750621
 31
0.0
  0
LINE
  5
1E4
330
1F
100
AcDbEntity
  8
CENTERMARKS
  6
CENTER
100
AcDbLine
 10
4.115
 20
3.995994964750621
 30
0.0
 11
4.33375
 21
3.995994964750621
 31
0.0
  0
LINE
  5
1E5
330
1F
100
AcDbEntity
  8
CENTERMARKS
  6
CENTER
100
AcDbLine
 10
4.025
 20
4.085994964750621
 30
0.0
 11
4.025
 21
4.304744964750621
 31
0.0
  0
LINE
  5
1E6
330
1F
100
AcDbEntity
  8
CENTERMARKS
  6
CENTER
100
AcDbLine
 10
4.025
 20
3.905994964750621
 30
0.0
 11
4.025
 21
3.687244964750621
 31
0.0
  0
LINE
  5
1E9
330
1F
100
AcDbEntity
  8
CENTERMARKS
  6
CONTINUOUS
100
AcDbLine
 10
4.98
 20
3.995994964750621
 30
0.0
 11
5.07
 21
3.995994964750621
 31
0.0
  0
LINE
  5
1EA
330
1F
100
AcDbEntity
  8
CENTERMARKS
  6
CONTINUOUS
100
AcDbLine
 10
5.025
 20
3.950994964750621
 30
0.0
 11
5.025
 21
4.040994964750621
 31
0.0
  0
LINE
  5
1EB
330
1F
100
AcDbEntity
  8
CENTERMARKS
  6
CENTER
100
AcDbLine
 10
4.935
 20
3.995994964750621
 30
0.0
 11
4.81
 21
3.995994964750621
 31
0.0
  0
LINE
  5
1EC
330
1F
100
AcDbEntity
  8
CENTERMARKS
  6
CENTER
100
AcDbLine
 10
5.115
 20
3.995994964750621
 30
0.0
 11
5.24
 21
3.995994964750621
 31
0.0
  0
LINE
  5
1ED
330
1F
100
AcDbEntity
  8
CENTERMARKS
  6
CENTER
100
AcDbLine
 10
5.025
 20
4.085994964750621
 30
0.0
 11
5.025
 21
4.210994964750621
 31
0.0
  0
LINE
  5
1EE
330
1F
100
AcDbEntity
  8
CENTERMARKS
  6
CENTER
100
AcDbLine
 10
5.025
 20
3.905994964750621
 30
0.0
 11
5.025
 21
3.780994964750621
 31
0.0
  0
LINE
  5
1F1
330
1F
100
AcDbEntity
  8
CENTERMARKS
  6
CONTINUOUS
100
AcDbLine
 10
2.98
 20
3.995994964750621
 30
0.0
 11
3.07
 21
3.995994964750621
 31
0.0
  0
LINE
  5
1F2
330
1F
100
AcDbEntity
  8
CENTERMARKS
  6
CONTINUOUS
100
AcDbLine
 10
3.025
 20
3.950994964750621
 30
0.0
 11
3.025
 21
4.040994964750621
 31
0.0
  0
LINE
  5
1F3
330
1F
100
AcDbEntity
  8
CENTERMARKS
  6
CENTER
100
AcDbLine
 10
2.935
 20
3.995994964750621
 30
0.0
 11
2.81
 21
3.995994964750621
 31
0.0
  0
LINE
  5
1F4
330
1F
100
AcDbEntity
  8
CENTERMARKS
  6
CENTER
100
AcDbLine
 10
3.115
 20
3.995994964750621
 30
0.0
 11
3.24
 21
3.995994964750621
 31
0.0
  0
LINE
  5
1F5
330
1F
100
AcDbEntity
  8
CENTERMARKS
  6
CENTER
100
AcDbLine
 10
3.025
 20
4.085994964750621
 30
0.0
 11
3.025
 21
4.210994964750621
 31
0.0
  0
LINE
  5
1F6
330
1F
100
AcDbEntity
  8
CENTERMARKS
  6
CENTER
100
AcDbLine
 10
3.025
 20
3.905994964750621
 30
0.0
 11
3.025
 21
3.780994964750621
 31
0.0
  0
LINE
  5
1F9
330
1F
100
AcDbEntity
  8
CENTERMARKS
  6
CONTINUOUS
100
AcDbLine
 10
0.9799999999999994
 20
3.995994964750621
 30
0.0
 11
1.069999999999999
 21
3.995994964750621
 31
0.0
  0
LINE
  5
1FA
330
1F
100
AcDbEntity
  8
CENTERMARKS
  6
CONTINUOUS
100
AcDbLine
 10
1.024999999999999
 20
3.950994964750621
 30
0.0
 11
1.024999999999999
 21
4.040994964750621
 31
0.0
  0
LINE
  5
1FB
330
1F
100
AcDbEntity
  8
CENTERMARKS
  6
CENTER
100
AcDbLine
 10
0.9349999999999994
 20
3.995994964750621
 30
0.0
 11
0.8099999999999994
 21
3.995994964750621
 31
0.0
  0
LINE
  5
1FC
330
1F
100
AcDbEntity
  8
CENTERMARKS
  6
CENTER
100
AcDbLine
 10
1.115
 20
3.995994964750621
 30
0.0
 11
1.24
 21
3.995994964750621
 31
0.0
  0
LINE
  5
1FD
330
1F
100
AcDbEntity
  8
CENTERMARKS
  6
CENTER
100
AcDbLine
 10
1.024999999999999
 20
4.085994964750621
 30
0.0
 11
1.024999999999999
 21
4.210994964750621
 31
0.0
  0
LINE
  5
1FE
330
1F
100
AcDbEntity
  8
CENTERMARKS
  6
CENTER
100
AcDbLine
 10
1.024999999999999
 20
3.905994964750621
 30
0.0
 11
1.024999999999999
 21
3.780994964750621
 31
0.0
  0
LINE
  5
201
330
1F
100
AcDbEntity
  8
CENTERMARKS
  6
CONTINUOUS
100
AcDbLine
 10
1.98
 20
3.995994964750621
 30
0.0
 11
2.069999999999999
 21
3.995994964750621
 31
0.0
  0
LINE
  5
202
330
1F
100
AcDbEntity
  8
CENTERMARKS
  6
CONTINUOUS
100
AcDbLine
 10
2.024999999999999
 20
3.950994964750621
 30
0.0
 11
2.024999999999999
 21
4.040994964750621
 31
0.0
  0
LINE
  5
203
330
1F
100
AcDbEntity
  8
CENTERMARKS
  6
CENTER
100
AcDbLine
 10
1.935
 20
3.995994964750621
 30
0.0
 11
1.81
 21
3.995994964750621
 31
0.0
  0
LINE
  5
204
330
1F
100
AcDbEntity
  8
CENTERMARKS
  6
CENTER
100
AcDbLine
 10
2.114999999999999
 20
3.995994964750621
 30
0.0
 11
2.239999999999999
 21
3.995994964750621
 31
0.0
  0
LINE
  5
205
330
1F
100
AcDbEntity
  8
CENTERMARKS
  6
CENTER
100
AcDbLine
 10
2.024999999999999
 20
4.085994964750621
 30
0.0
 11
2.024999999999999
 21
4.210994964750621
 31
0.0
  0
LINE
  5
206
330
1F
100
AcDbEntity
  8
CENTERMARKS
  6
CENTER
100
AcDbLine
 10
2.024999999999999
 20
3.905994964750621
 30
0.0
 11
2.024999999999999
 21
3.780994964750621
 31
0.0
  0
LINE
  5
209
330
1F
100
AcDbEntity
  8
CENTERMARKS
  6
CONTINUOUS
100
AcDbLine
 10
7.980000000000001
 20
3.995994964750621
 30
0.0
 11
8.07
 21
3.995994964750621
 31
0.0
  0
LINE
  5
20A
330
1F
100
AcDbEntity
  8
CENTERMARKS
  6
CONTINUOUS
100
AcDbLine
 10
8.025000000000002
 20
3.950994964750621
 30
0.0
 11
8.025000000000002
 21
4.040994964750621
 31
0.0
  0
LINE
  5
20B
330
1F
100
AcDbEntity
  8
CENTERMARKS
  6
CENTER
100
AcDbLine
 10
7.935000000000001
 20
3.995994964750621
 30
0.0
 11
7.810000000000001
 21
3.995994964750621
 31
0.0
  0
LINE
  5
20C
330
1F
100
AcDbEntity
  8
CENTERMARKS
  6
CENTER
100
AcDbLine
 10
8.115000000000002
 20
3.995994964750621
 30
0.0
 11
8.240000000000002
 21
3.995994964750621
 31
0.0
  0
LINE
  5
20D
330
1F
100
AcDbEntity
  8
CENTERMARKS
  6
CENTER
100
AcDbLine
 10
8.025000000000002
 20
4.085994964750621
 30
0.0
 11
8.025000000000002
 21
4.210994964750621
 31
0.0
  0
LINE
  5
20E
330
1F
100
AcDbEntity
  8
CENTERMARKS
  6
CENTER
100
AcDbLine
 10
8.025000000000002
 20
3.905994964750621
 30
0.0
 11
8.025000000000002
 21
3.780994964750621
 31
0.0
  0
LINE
  5
211
330
1F
100
AcDbEntity
  8
CENTERMARKS
  6
CONTINUOUS
100
AcDbLine
 10
8.98
 20
3.995994964750621
 30
0.0
 11
9.07
 21
3.995994964750621
 31
0.0
  0
LINE
  5
212
330
1F
100
AcDbEntity
  8
CENTERMARKS
  6
CONTINUOUS
100
AcDbLine
 10
9.025000000000002
 20
3.950994964750621
 30
0.0
 11
9.025000000000002
 21
4.040994964750621
 31
0.0
  0
LINE
  5
213
330
1F
100
AcDbEntity
  8
CENTERMARKS
  6
CENTER
100
AcDbLine
 10
8.935000000000002
 20
3.995994964750621
 30
0.0
 11
8.810000000000002
 21
3.995994964750621
 31
0.0
  0
LINE
  5
214
330
1F
100
AcDbEntity
  8
CENTERMARKS
  6
CENTER
100
AcDbLine
 10
9.115000000000002
 20
3.995994964750621
 30
0.0
 11
9.240000000000002
 21
3.995994964750621
 31
0.0
  0
LINE
  5
215
330
1F
100
AcDbEntity
  8
CENTERMARKS
  6
CENTER
100
AcDbLine
 10
9.025000000000002
 20
4.085994964750621
 30
0.0
 11
9.025000000000002
 21
4.210994964750621
 31
0.0
  0
LINE
  5
216
330
1F
100
AcDbEntity
  8
CENTERMARKS
  6
CENTER
100
AcDbLine
 10
9.025000000000002
 20
3.905994964750621
 30
0.0
 11
9.025000000000002
 21
3.780994964750621
 31
0.0
  0
MTEXT
  5
217
102
{ACAD_XDICTIONARY
360
218
102
}
330
1F
100
AcDbEntity
  8
ANNOTATION_TEXT
 62
     7
 60
     1
100
AcDbMText
 10
5.775000000000002
 20
2.910994964750619
 30
0.0
 40
0.12
 41
0.0
 71
     2
 72
     1
  1

  7
ONSHAPE-STANDARD-VIEW-LABE
1001
ACAD
1000
ACAD_MTEXT_DEFINED_HEIGHT_BEGIN
1070
    46
1040
0.12
1000
ACAD_MTEXT_DEFINED_HEIGHT_END
  0
LINE
  5
220
330
1F
100
AcDbEntity
  8
CENTERMARKS
  6
CONTINUOUS
100
AcDbLine
 10
8.99299496867776
 20
1.25969328418686
 30
0.0
 11
9.08299496867776
 21
1.25969328418686
 31
0.0
  0
LINE
  5
221
330
1F
100
AcDbEntity
  8
CENTERMARKS
  6
CONTINUOUS
100
AcDbLine
 10
9.037994968677761
 20
1.21469328418686
 30
0.0
 11
9.037994968677761
 21
1.30469328418686
 31
0.0
  0
LINE
  5
222
330
1F
100
AcDbEntity
  8
CENTERMARKS
  6
CENTER
100
AcDbLine
 10
8.947994968677762
 20
1.25969328418686
 30
0.0
 11
8.822994968677762
 21
1.25969328418686
 31
0.0
  0
LINE
  5
223
330
1F
100
AcDbEntity
  8
CENTERMARKS
  6
CENTER
100
AcDbLine
 10
9.127994968677761
 20
1.25969328418686
 30
0.0
 11
9.252994968677761
 21
1.25969328418686
 31
0.0
  0
LINE
  5
224
330
1F
100
AcDbEntity
  8
CENTERMARKS
  6
CENTER
100
AcDbLine
 10
9.037994968677761
 20
1.34969328418686
 30
0.0
 11
9.037994968677761
 21
1.47469328418686
 31
0.0
  0
LINE
  5
225
330
1F
100
AcDbEntity
  8
CENTERMARKS
  6
CENTER
100
AcDbLine
 10
9.037994968677761
 20
1.16969328418686
 30
0.0
 11
9.037994968677761
 21
1.04469328418686
 31
0.0
  0
LINE
  5
228
330
1F
100
AcDbEntity
  8
CENTERMARKS
  6
CONTINUOUS
100
AcDbLine
 10
4.99299496867776
 20
1.259693284186859
 30
0.0
 11
5.08299496867776
 21
1.259693284186859
 31
0.0
  0
LINE
  5
229
330
1F
100
AcDbEntity
  8
CENTERMARKS
  6
CONTINUOUS
100
AcDbLine
 10
5.03799496867776
 20
1.214693284186859
 30
0.0
 11
5.03799496867776
 21
1.304693284186859
 31
0.0
  0
LINE
  5
22A
330
1F
100
AcDbEntity
  8
CENTERMARKS
  6
CENTER
100
AcDbLine
 10
4.94799496867776
 20
1.259693284186859
 30
0.0
 11
4.72924496867776
 21
1.259693284186859
 31
0.0
  0
LINE
  5
22B
330
1F
100
AcDbEntity
  8
CENTERMARKS
  6
CENTER
100
AcDbLine
 10
5.12799496867776
 20
1.259693284186859
 30
0.0
 11
5.34674496867776
 21
1.259693284186859
 31
0.0
  0
LINE
  5
22C
330
1F
100
AcDbEntity
  8
CENTERMARKS
  6
CENTER
100
AcDbLine
 10
5.03799496867776
 20
1.349693284186859
 30
0.0
 11
5.03799496867776
 21
1.568443284186859
 31
0.0
  0
LINE
  5
22D
330
1F
100
AcDbEntity
  8
CENTERMARKS
  6
CENTER
100
AcDbLine
 10
5.03799496867776
 20
1.169693284186859
 30
0.0
 11
5.03799496867776
 21
0.9509432841868595
 31
0.0
  0
LINE
  5
230
330
1F
100
AcDbEntity
  8
CENTERMARKS
  6
CONTINUOUS
100
AcDbLine
 10
2.992994968677759
 20
1.259693284186859
 30
0.0
 11
3.082994968677759
 21
1.259693284186859
 31
0.0
  0
LINE
  5
231
330
1F
100
AcDbEntity
  8
CENTERMARKS
  6
CONTINUOUS
100
AcDbLine
 10
3.037994968677759
 20
1.214693284186859
 30
0.0
 11
3.037994968677759
 21
1.304693284186859
 31
0.0
  0
LINE
  5
232
330
1F
100
AcDbEntity
  8
CENTERMARKS
  6
CENTER
100
AcDbLine
 10
2.947994968677759
 20
1.259693284186859
 30
0.0
 11
2.729244968677759
 21
1.259693284186859
 31
0.0
  0
LINE
  5
233
330
1F
100
AcDbEntity
  8
CENTERMARKS
  6
CENTER
100
AcDbLine
 10
3.127994968677759
 20
1.259693284186859
 30
0.0
 11
3.346744968677759
 21
1.259693284186859
 31
0.0
  0
LINE
  5
234
330
1F
100
AcDbEntity
  8
CENTERMARKS
  6
CENTER
100
AcDbLine
 10
3.037994968677759
 20
1.349693284186859
 30
0.0
 11
3.037994968677759
 21
1.568443284186859
 31
0.0
  0
LINE
  5
235
330
1F
100
AcDbEntity
  8
CENTERMARKS
  6
CENTER
100
AcDbLine
 10
3.037994968677759
 20
1.169693284186859
 30
0.0
 11
3.037994968677759
 21
0.950943284186859
 31
0.0
  0
LINE
  5
238
330
1F
100
AcDbEntity
  8
CENTERMARKS
  6
CONTINUOUS
100
AcDbLine
 10
0.9929949686777587
 20
1.259693284186858
 30
0.0
 11
1.082994968677759
 21
1.259693284186858
 31
0.0
  0
LINE
  5
239
330
1F
100
AcDbEntity
  8
CENTERMARKS
  6
CONTINUOUS
100
AcDbLine
 10
1.037994968677759
 20
1.214693284186859
 30
0.0
 11
1.037994968677759
 21
1.304693284186858
 31
0.0
  0
LINE
  5
23A
330
1F
100
AcDbEntity
  8
CENTERMARKS
  6
CENTER
100
AcDbLine
 10
0.9479949686777587
 20
1.259693284186858
 30
0.0
 11
0.8229949686777587
 21
1.259693284186858
 31
0.0
  0
LINE
  5
23B
330
1F
100
AcDbEntity
  8
CENTERMARKS
  6
CENTER
100
AcDbLine
 10
1.127994968677759
 20
1.259693284186858
 30
0.0
 11
1.252994968677759
 21
1.259693284186858
 31
0.0
  0
LINE
  5
23C
330
1F
100
AcDbEntity
  8
CENTERMARKS
  6
CENTER
100
AcDbLine
 10
1.037994968677759
 20
1.349693284186858
 30
0.0
 11
1.037994968677759
 21
1.474693284186858
 31
0.0
  0
LINE
  5
23D
330
1F
100
AcDbEntity
  8
CENTERMARKS
  6
CENTER
100
AcDbLine
 10
1.037994968677759
 20
1.169693284186859
 30
0.0
 11
1.037994968677759
 21
1.044693284186859
 31
0.0
  0
LINE
  5
240
330
1F
100
AcDbEntity
  8
CENTERMARKS
  6
CONTINUOUS
100
AcDbLine
 10
1.992994968677759
 20
1.259693284186859
 30
0.0
 11
2.082994968677759
 21
1.259693284186859
 31
0.0
  0
LINE
  5
241
330
1F
100
AcDbEntity
  8
CENTERMARKS
  6
CONTINUOUS
100
AcDbLine
 10
2.037994968677759
 20
1.214693284186859
 30
0.0
 11
2.037994968677759
 21
1.304693284186859
 31
0.0
  0
LINE
  5
242
330
1F
100
AcDbEntity
  8
CENTERMARKS
  6
CENTER
100
AcDbLine
 10
1.947994968677759
 20
1.259693284186859
 30
0.0
 11
1.822994968677759
 21
1.259693284186859
 31
0.0
  0
LINE
  5
243
330
1F
100
AcDbEntity
  8
CENTERMARKS
  6
CENTER
100
AcDbLine
 10
2.127994968677759
 20
1.259693284186859
 30
0.0
 11
2.252994968677759
 21
1.259693284186859
 31
0.0
  0
LINE
  5
244
330
1F
100
AcDbEntity
  8
CENTERMARKS
  6
CENTER
100
AcDbLine
 10
2.037994968677759
 20
1.349693284186859
 30
0.0
 11
2.037994968677759
 21
1.474693284186859
 31
0.0
  0
LINE
  5
245
330
1F
100
AcDbEntity
  8
CENTERMARKS
  6
CENTER
100
AcDbLine
 10
2.037994968677759
 20
1.169693284186859
 30
0.0
 11
2.037994968677759
 21
1.044693284186859
 31
0.0
  0
LINE
  5
248
330
1F
100
AcDbEntity
  8
CENTERMARKS
  6
CONTINUOUS
100
AcDbLine
 10
3.99299496867776
 20
1.259693284186859
 30
0.0
 11
4.08299496867776
 21
1.259693284186859
 31
0.0
  0
LINE
  5
249
330
1F
100
AcDbEntity
  8
CENTERMARKS
  6
CONTINUOUS
100
AcDbLine
 10
4.03799496867776
 20
1.214693284186859
 30
0.0
 11
4.03799496867776
 21
1.304693284186859
 31
0.0
  0
LINE
  5
24A
330
1F
100
AcDbEntity
  8
CENTERMARKS
  6
CENTER
100
AcDbLine
 10
3.94799496867776
 20
1.259693284186859
 30
0.0
 11
3.82299496867776
 21
1.259693284186859
 31
0.0
  0
LINE
  5
24B
330
1F
100
AcDbEntity
  8
CENTERMARKS
  6
CENTER
100
AcDbLine
 10
4.12799496867776
 20
1.259693284186859
 30
0.0
 11
4.25299496867776
 21
1.259693284186859
 31
0.0
  0
LINE
  5
24C
330
1F
100
AcDbEntity
  8
CENTERMARKS
  6
CENTER
100
AcDbLine
 10
4.03799496867776
 20
1.349693284186859
 30
0.0
 11
4.03799496867776
 21
1.474693284186859
 31
0.0
  0
LINE
  5
24D
330
1F
100
AcDbEntity
  8
CENTERMARKS
  6
CENTER
100
AcDbLine
 10
4.03799496867776
 20
1.169693284186859
 30
0.0
 11
4.03799496867776
 21
1.044693284186859
 31
0.0
  0
LINE
  5
250
330
1F
100
AcDbEntity
  8
CENTERMARKS
  6
CONTINUOUS
100
AcDbLine
 10
7.992994968677761
 20
1.25969328418686
 30
0.0
 11
8.08299496867776
 21
1.25969328418686
 31
0.0
  0
LINE
  5
251
330
1F
100
AcDbEntity
  8
CENTERMARKS
  6
CONTINUOUS
100
AcDbLine
 10
8.037994968677761
 20
1.21469328418686
 30
0.0
 11
8.037994968677761
 21
1.30469328418686
 31
0.0
  0
LINE
  5
252
330
1F
100
AcDbEntity
  8
CENTERMARKS
  6
CENTER
100
AcDbLine
 10
7.947994968677761
 20
1.25969328418686
 30
0.0
 11
7.822994968677761
 21
1.25969328418686
 31
0.0
  0
LINE
  5
253
330
1F
100
AcDbEntity
  8
CENTERMARKS
  6
CENTER
100
AcDbLine
 10
8.127994968677761
 20
1.25969328418686
 30
0.0
 11
8.252994968677761
 21
1.25969328418686
 31
0.0
  0
LINE
  5
254
330
1F
100
AcDbEntity
  8
CENTERMARKS
  6
CENTER
100
AcDbLine
 10
8.037994968677761
 20
1.34969328418686
 30
0.0
 11
8.037994968677761
 21
1.47469328418686
 31
0.0
  0
LINE
  5
255
330
1F
100
AcDbEntity
  8
CENTERMARKS
  6
CENTER
100
AcDbLine
 10
8.037994968677761
 20
1.16969328418686
 30
0.0
 11
8.037994968677761
 21
1.04469328418686
 31
0.0
  0
MTEXT
  5
256
102
{ACAD_XDICTIONARY
360
257
102
}
330
1F
100
AcDbEntity
  8
ANNOTATION_TEXT
 62
     7
 60
     1
100
AcDbMText
 10
5.787994968677761
 20
0.17469328418686
 30
0.0
 40
0.12
 41
0.0
 71
     2
 72
     1
  1

  7
ONSHAPE-STANDARD-VIEW-LABE
1001
ACAD
1000
ACAD_MTEXT_DEFINED_HEIGHT_BEGIN
1070
    46
1040
0.12
1000
ACAD_MTEXT_DEFINED_HEIGHT_END
  0
ENDSEC
  0
SECTION
  2
OBJECTS
  0
DICTIONARY
  5
C
330
0
100
AcDbDictionary
  3
ACAD_GROUP
350
D
  3
ACAD_LAYOUT
350
1A
  3
ACAD_MATERIAL
350
43
  3
ACAD_MLEADERSTYLE
350
6B
  3
ACAD_MLINESTYLE
350
17
  3
ACAD_PLOTSETTINGS
350
19
  3
ACAD_SCALELIST
350
47
  3
ACAD_VISUALSTYLE
350
2A
  3
ACDBHEADERROUNDTRIPXREC
350
2BB
  3
ACDBVARIABLEDICTIONARY
350
6E
  3
ONSHAPE_DATA
350
25D
  0
DICTIONARY
  5
2E2
330
8
100
AcDbDictionary
280
     1
  3
ACAD_XREC_ROUNDTRIP
360
2E3
  0
DICTIONARY
  5
148
330
147
100
AcDbDictionary
280
     1
  3
ONSHAPE_VIEW_ID
360
149
  0
DICTIONARY
  5
218
330
217
100
AcDbDictionary
280
     1
  3
ONSHAPE_VIEW_ID
360
219
  0
DICTIONARY
  5
257
330
256
100
AcDbDictionary
280
     1
  3
ONSHAPE_VIEW_ID
360
258
  0
DICTIONARY
  5
D
102
{ACAD_REACTORS
330
C
102
}
330
C
100
AcDbDictionary
  0
DICTIONARY
  5
1A
102
{ACAD_REACTORS
330
C
102
}
330
C
100
AcDbDictionary
  0
DICTIONARY
  5
43
102
{ACAD_REACTORS
330
C
102
}
330
C
100
AcDbDictionary
  3
BYBLOCK
350
45
  3
BYLAYER
350
44
  3
GLOBAL
350
46
  0
DICTIONARY
  5
6B
102
{ACAD_REACTORS
330
C
102
}
330
C
100
AcDbDictionary
  3
STANDARD
350
6C
  0
DICTIONARY
  5
17
102
{ACAD_REACTORS
330
C
102
}
330
C
100
AcDbDictionary
  3
STANDARD
350
18
  0
DICTIONARY
  5
19
102
{ACAD_REACTORS
330
C
102
}
330
C
100
AcDbDictionary
  0
DICTIONARY
  5
47
102
{ACAD_REACTORS
330
C
102
}
330
C
100
AcDbDictionary
  3
A0
350
48
  3
A1
350
49
  3
A2
350
4A
  3
A3
350
4B
  3
A4
350
4C
  3
A5
350
4D
  3
A6
350
4E
  3
A7
350
4F
  3
A8
350
50
  3
A9
350
51
  3
B0
350
52
  3
B1
350
53
  3
B2
350
54
  3
B3
350
55
  3
B4
350
56
  3
B5
350
57
  3
B6
350
58
  3
B7
350
59
  3
B8
350
5A
  3
B9
350
5B
  3
C0
350
5C
  3
C1
350
5D
  3
C2
350
5E
  3
C3
350
5F
  3
C4
350
60
  3
C5
350
61
  3
C6
350
62
  3
C7
350
63
  3
C8
350
64
  3
C9
350
65
  3
D0
350
66
  3
D1
350
67
  3
D2
350
68
  0
DICTIONARY
  5
2A
102
{ACAD_REACTORS
330
C
102
}
330
C
100
AcDbDictionary
  3
2DWIREFRAME
350
2F
  3
BASIC
350
32
  3
BRIGHTEN
350
36
  3
COLORCHANGE
350
3A
  3
CONCEPTUAL
350
34
  3
DIM
350
35
  3
EDGECOLOROFF
350
3D
  3
FACEPATTERN
350
39
  3
FLAT
350
2B
  3
FLATWITHEDGES
350
2C
  3
GOURAUD
350
2D
  3
GOURAUDWITHEDGES
350
2E
  3
HIDDEN
350
31
  3
JITTEROFF
350
3B
  3
LINEPATTERN
350
38
  3
OVERHANGOFF
350
3C
  3
REALISTIC
350
33
  3
SHADED
350
42
  3
SHADED_WITH_EDGES
350
41
  3
SHADES_OF_GRAY
350
3E
  3
SKETCHY
350
3F
  3
THICKEN
350
37
  3
WIREFRAME
350
30
  3
X-RAY
350
40
  0
DICTIONARY
  5
2BB
102
{ACAD_REACTORS
330
C
102
}
330
C
100
AcDbDictionary
  3
CEPSNID
350
2C5
  3
CEPSNTYPE
350
2C4
  3
DIMSTYLEDATA
350
2DB
  3
FINGERPRINTGUID
350
2C6
  3
HYPERLINKBASE
350
2BE
  3
INSUNITS
350
2C3
  3
LAYOUTDICT
350
2C0
  3
LWETCUNION
350
2C2
  3
PLOTSETDICT
350
2C1
  3
PSVPSCALE
350
2C8
  3
PUCSBASE
350
2CB
  3
PUCSORGBACK
350
2D1
  3
PUCSORGBOTTOM
350
2CD
  3
PUCSORGFRONT
350
2D0
  3
PUCSORGLEFT
350
2CE
  3
PUCSORGRIGHT
350
2CF
  3
PUCSORGTOP
350
2CC
  3
PUCSORTHOREF
350
2C9
  3
PUCSORTHOVIEW
350
2CA
  3
STYLESHEET
350
2BF
  3
TSTACKALIGN
350
2BC
  3
TSTACKSIZE
350
2BD
  3
UCSBASE
350
2D4
  3
UCSORGBACK
350
2DA
  3
UCSORGBOTTOM
350
2D6
  3
UCSORGFRONT
350
2D9
  3
UCSORGLEFT
350
2D7
  3
UCSORGRIGHT
350
2D8
  3
UCSORGTOP
350
2D5
  3
UCSORTHOREF
350
2D2
  3
UCSORTHOVIEW
350
2D3
  3
VERSIONGUID
350
2C7
  0
DICTIONARY
  5
6E
102
{ACAD_REACTORS
330
C
102
}
330
C
100
AcDbDictionary
  3
CANNOSCALE
350
2E4
  3
CMLEADERSTYLE
350
2DD
  3
CTABLESTYLE
350
2DC
  3
DIMASSOC
350
2E0
  3
HIDETEXT
350
2E1
  3
MSLTSCALE
350
2E5
  3
OLEFRAME
350
6F
  0
DICTIONARY
  5
25D
102
{ACAD_REACTORS
330
C
102
}
330
C
100
AcDbDictionary
280
     1
  3
DIM_UNITS
360
25E
  3
ONSHAPE_ANG_TOL_PRECISION
360
261
  3
ONSHAPE_DIMENSION_TEXT_HOR
360
265
  3
ONSHAPE_JOGDIMENSION_LOCK_
360
263
  3
ONSHAPE_SHOWDIMENSIONSLINE
360
264
  3
ONSHAPE_UNDERLINEOVERRIDEN
360
262
  3
ONSHAPE_VSHARP_EXTENSION
360
260
  3
ONSHAPE_WELD_STANDARD
360
25F
  0
XRECORD
  5
2E3
102
{ACAD_REACTORS
330
2E2
102
}
330
2E2
100
AcDbXrecord
102
VTR_0.000_0.000_1.000_1.000_VISUALSTYLE
340
2F
102
VTR_0.000_0.000_1.000_1.000_GRIDDISPLAY
 70
     3
102
VTR_0.000_0.000_1.000_1.000_GRIDMAJOR
 70
     5
102
VTR_0.000_0.000_1.000_1.000_DEFAULTLIGHTING
280
     1
102
VTR_0.000_0.000_1.000_1.000_DEFAULTLIGHTINGTYPE
 70
     1
102
VTR_0.000_0.000_1.000_1.000_BRIGHTNESS
141
0.0
102
VTR_0.000_0.000_1.000_1.000_CONTRAST
142
0.0
  0
XRECORD
  5
149
102
{ACAD_REACTORS
330
148
102
}
330
148
100
AcDbXrecord
330
0
  0
XRECORD
  5
219
102
{ACAD_REACTORS
330
218
102
}
330
218
100
AcDbXrecord
330
0
  0
XRECORD
  5
258
102
{ACAD_REACTORS
330
257
102
}
330
257
100
AcDbXrecord
330
0
  0
MATERIAL
  5
45
102
{ACAD_REACTORS
330
43
102
}
102
{ACAD_XDICTIONARY
360
2E8
102
}
330
43
100
AcDbMaterial
  1
BYBLOCK
  0
MATERIAL
  5
44
102
{ACAD_REACTORS
330
43
102
}
102
{ACAD_XDICTIONARY
360
2E6
102
}
330
43
100
AcDbMaterial
  1
BYLAYER
  0
MATERIAL
  5
46
102
{ACAD_REACTORS
330
43
102
}
102
{ACAD_XDICTIONARY
360
2EA
102
}
330
43
100
AcDbMaterial
  1
GLOBAL
  0
ACAD_PROXY_OBJECT
  5
6C
102
{ACAD_REACTORS
330
6B
102
}
330
6B
100
AcDbProxyObject
 90
      499
 91
      505
 93
      610
310
40901902A4063FBFFFFFE056BD1B81E855B9FC0AD7A3703D0AD73F4214DD185B99185C9900AD7A3703D0AC73F90140501A02B5E8DC0F42B1CFC02B5E8DC0F42B1CFE5764000000000000300FC0
340
14
340
0
340
11
340
0
 94
        0
1001
ACAD_MLEADERVER
1070
     2
  0
MLINESTYLE
  5
18
102
{ACAD_REACTORS
330
17
102
}
330
17
100
AcDbMlineStyle
  2
Standard
 70
     0
  3

 62
   256
 51
90.0
 52
90.0
 71
     2
 49
0.5
 62
   256
  6
BYLAYER
 49
-0.5
 62
   256
  6
BYLAYER
  0
ACAD_PROXY_OBJECT
  5
48
102
{ACAD_REACTORS
330
47
102
}
330
47
100
AcDbProxyObject
 90
      499
 91
      503
 93
       41
310
903313A31580
  0
ACAD_PROXY_OBJECT
  5
49
102
{ACAD_REACTORS
330
47
102
}
330
47
100
AcDbProxyObject
 90
      499
 91
      503
 93
      105
310
903313A324000000000000004000
  0
ACAD_PROXY_OBJECT
  5
4A
102
{ACAD_REACTORS
330
47
102
}
330
47
100
AcDbProxyObject
 90
      499
 91
      503
 93
      105
310
903313A344000000000000104000
  0
ACAD_PROXY_OBJECT
  5
4B
102
{ACAD_REACTORS
330
47
102
}
330
47
100
AcDbProxyObject
 90
      499
 91
      503
 93
      105
310
903313A354000000000000144000
  0
ACAD_PROXY_OBJECT
  5
4C
102
{ACAD_REACTORS
330
47
102
}
330
47
100
AcDbProxyObject
 90
      499
 91
      503
 93
      105
310
903313A384000000000000204000
  0
ACAD_PROXY_OBJECT
  5
4D
102
{ACAD_REACTORS
330
47
102
}
330
47
100
AcDbProxyObject
 90
      499
 91
      503
 93
      113
310
904313A31304000000000000244000
  0
ACAD_PROXY_OBJECT
  5
4E
102
{ACAD_REACTORS
330
47
102
}
330
47
100
AcDbProxyObject
 90
      499
 91
      503
 93
      113
310
904313A31364000000000000304000
  0
ACAD_PROXY_OBJECT
  5
4F
102
{ACAD_REACTORS
330
47
102
}
330
47
100
AcDbProxyObject
 90
      499
 91
      503
 93
      113
310
904313A32304000000000000344000
  0
ACAD_PROXY_OBJECT
  5
50
102
{ACAD_REACTORS
330
47
102
}
330
47
100
AcDbProxyObject
 90
      499
 91
      503
 93
      113
310
904313A333040000000000003E4000
  0
ACAD_PROXY_OBJECT
  5
51
102
{ACAD_REACTORS
330
47
102
}
330
47
100
AcDbProxyObject
 90
      499
 91
      503
 93
      113
310
904313A34304000000000000444000
  0
ACAD_PROXY_OBJECT
  5
52
102
{ACAD_REACTORS
330
47
102
}
330
47
100
AcDbProxyObject
 90
      499
 91
      503
 93
      113
310
904313A35304000000000000494000
  0
ACAD_PROXY_OBJECT
  5
53
102
{ACAD_REACTORS
330
47
102
}
330
47
100
AcDbProxyObject
 90
      499
 91
      503
 93
      121
310
905313A3130304000000000000594000
  0
ACAD_PROXY_OBJECT
  5
54
102
{ACAD_REACTORS
330
47
102
}
330
47
100
AcDbProxyObject
 90
      499
 91
      503
 93
      105
310
903323A310000000000000010100
  0
ACAD_PROXY_OBJECT
  5
55
102
{ACAD_REACTORS
330
47
102
}
330
47
100
AcDbProxyObject
 90
      499
 91
      503
 93
      105
310
903343A310000000000000410100
  0
ACAD_PROXY_OBJECT
  5
56
102
{ACAD_REACTORS
330
47
102
}
330
47
100
AcDbProxyObject
 90
      499
 91
      503
 93
      105
310
903383A310000000000000810100
  0
ACAD_PROXY_OBJECT
  5
57
102
{ACAD_REACTORS
330
47
102
}
330
47
100
AcDbProxyObject
 90
      499
 91
      503
 93
      113
310
90431303A310000000000000910100
  0
ACAD_PROXY_OBJECT
  5
58
102
{ACAD_REACTORS
330
47
102
}
330
47
100
AcDbProxyObject
 90
      499
 91
      503
 93
      121
310
9053130303A310000000000001650100
  0
ACAD_PROXY_OBJECT
  5
59
102
{ACAD_REACTORS
330
47
102
}
330
47
100
AcDbProxyObject
 90
      499
 91
      503
 93
      257
310
90E312F31323822203D2031272D3022000000000000200FC000000000000284000
  0
ACAD_PROXY_OBJECT
  5
5A
102
{ACAD_REACTORS
330
47
102
}
330
47
100
AcDbProxyObject
 90
      499
 91
      503
 93
      249
310
90D312F363422203D2031272D3022000000000000240FC000000000000284000
  0
ACAD_PROXY_OBJECT
  5
5B
102
{ACAD_REACTORS
330
47
102
}
330
47
100
AcDbProxyObject
 90
      499
 91
      503
 93
      249
310
90D312F333222203D2031272D3022000000000000280FC000000000000284000
  0
ACAD_PROXY_OBJECT
  5
5C
102
{ACAD_REACTORS
330
47
102
}
330
47
100
AcDbProxyObject
 90
      499
 91
      503
 93
      249
310
90D312F313622203D2031272D30220000000000002C0FC000000000000284000
  0
ACAD_PROXY_OBJECT
  5
5D
102
{ACAD_REACTORS
330
47
102
}
330
47
100
AcDbProxyObject
 90
      499
 91
      503
 93
      249
310
90D332F333222203D2031272D30220000000000002E0FC000000000000284000
  0
ACAD_PROXY_OBJECT
  5
5E
102
{ACAD_REACTORS
330
47
102
}
330
47
100
AcDbProxyObject
 90
      499
 91
      503
 93
      241
310
90C312F3822203D2031272D3022000000000000300FC000000000000284000
  0
ACAD_PROXY_OBJECT
  5
5F
102
{ACAD_REACTORS
330
47
102
}
330
47
100
AcDbProxyObject
 90
      499
 91
      503
 93
      249
310
90D332F313622203D2031272D3022000000000000320FC000000000000284000
  0
ACAD_PROXY_OBJECT
  5
60
102
{ACAD_REACTORS
330
47
102
}
330
47
100
AcDbProxyObject
 90
      499
 91
      503
 93
      241
310
90C312F3422203D2031272D3022000000000000340FC000000000000284000
  0
ACAD_PROXY_OBJECT
  5
61
102
{ACAD_REACTORS
330
47
102
}
330
47
100
AcDbProxyObject
 90
      499
 91
      503
 93
      241
310
90C332F3822203D2031272D3022000000000000360FC000000000000284000
  0
ACAD_PROXY_OBJECT
  5
62
102
{ACAD_REACTORS
330
47
102
}
330
47
100
AcDbProxyObject
 90
      499
 91
      503
 93
      241
310
90C312F3222203D2031272D3022000000000000380FC000000000000284000
  0
ACAD_PROXY_OBJECT
  5
63
102
{ACAD_REACTORS
330
47
102
}
330
47
100
AcDbProxyObject
 90
      499
 91
      503
 93
      241
310
90C332F3422203D2031272D30220000000000003A0FC000000000000284000
  0
ACAD_PROXY_OBJECT
  5
64
102
{ACAD_REACTORS
330
47
102
}
330
47
100
AcDbProxyObject
 90
      499
 91
      503
 93
      161
310
90A3122203D2031272D30224000000000000284000
  0
ACAD_PROXY_OBJECT
  5
65
102
{ACAD_REACTORS
330
47
102
}
330
47
100
AcDbProxyObject
 90
      499
 91
      503
 93
      257
310
90E312D312F3222203D2031272D30220000000000003E0FC000000000000284000
  0
ACAD_PROXY_OBJECT
  5
66
102
{ACAD_REACTORS
330
47
102
}
330
47
100
AcDbProxyObject
 90
      499
 91
      503
 93
      225
310
90A3322203D2031272D302200000000000002100000000000000284000
  0
ACAD_PROXY_OBJECT
  5
67
102
{ACAD_REACTORS
330
47
102
}
330
47
100
AcDbProxyObject
 90
      499
 91
      503
 93
      225
310
90A3622203D2031272D302200000000000006100000000000000284000
  0
ACAD_PROXY_OBJECT
  5
68
102
{ACAD_REACTORS
330
47
102
}
330
47
100
AcDbProxyObject
 90
      499
 91
      503
 93
      249
310
90D31272D3022203D2031272D30220000000000000A100000000000000284000
  0
ACAD_PROXY_OBJECT
  5
2F
102
{ACAD_REACTORS
330
2A
102
}
330
2A
100
AcDbProxyObject
 90
      499
 91
      501
 93
      436
310
42CC9915DA5C99599C985B595049028333333333333E33F0000000000000F90107901411070040501600405405064090741402480A0340
1001
ACAD
1000
AcDbSavedByObjectVersion
1070
     0
  0
ACAD_PROXY_OBJECT
  5
32
102
{ACAD_REACTORS
330
2A
102
}
330
2A
100
AcDbProxyObject
 90
      499
 91
      501
 93
      388
310
4150985CDA58D07406404333333333333E33F0000000000000F90107A41107004050150841D405064090741402480A0350
1001
ACAD
1000
AcDbSavedByObjectVersion
1070
     0
  0
ACAD_PROXY_OBJECT
  5
36
102
{ACAD_REACTORS
330
2A
102
}
330
2A
100
AcDbProxyObject
 90
      499
 91
      501
 93
      428
310
42109C9A59DA1D195B90C409028333333333333E33F0000000000000F9010790141107004050150841D405064090741402480A029950
1001
ACAD
1000
AcDbSavedByObjectVersion
1070
     0
  0
ACAD_PROXY_OBJECT
  5
3A
102
{ACAD_REACTORS
330
2A
102
}
330
2A
100
AcDbProxyObject
 90
      499
 91
      501
 93
      452
310
42D0DBDB1BDC90DA185B99D95104090240C333333333333E33F0000000000000F90108901411070040501508421405064090741402480A0350
1001
ACAD
1000
AcDbSavedByObjectVersion
1070
     0
  0
ACAD_PROXY_OBJECT
  5
34
102
{ACAD_REACTORS
330
2A
102
}
330
2A
100
AcDbProxyObject
 90
      499
 91
      501
 93
      500
310
4290DBDB98D95C1D1D585B10940D028333333333333E33F0000000000000F90107902409070040501000000000018199010841D405064090740C02480A0340
1001
ACAD
1000
AcDbSavedByObjectVersion
1070
     0
  0
ACAD_PROXY_OBJECT
  5
35
102
{ACAD_REACTORS
330
2A
102
}
330
2A
100
AcDbProxyObject
 90
      499
 91
      501
 93
      412
310
40D11A5B50B409028333333333333E33F0000000000000F9010790141107004050150841D405064090741402480A02677FFFFFD0
1001
ACAD
1000
AcDbSavedByObjectVersion
1070
     0
  0
ACAD_PROXY_OBJECT
  5
3D
102
{ACAD_REACTORS
330
2A
102
}
330
2A
100
AcDbProxyObject
 90
      499
 91
      501
 93
      452
310
43115919D950DBDB1BDC93D999916409028333333333333E33F0000000000000F9010790141107004050150841D405064090741402480A0350
1001
ACAD
1000
AcDbSavedByObjectVersion
1070
     0
  0
ACAD_PROXY_OBJECT
  5
39
102
{ACAD_REACTORS
330
2A
102
}
330
2A
100
AcDbProxyObject
 90
      499
 91
      501
 93
      444
310
42D19858D95C185D1D195C9B90F409028333333333333E33F0000000000000F9010790141107004050150841D405064090741402480A0350
1001
ACAD
1000
AcDbSavedByObjectVersion
1070
     0
  0
ACAD_PROXY_OBJECT
  5
2B
102
{ACAD_REACTORS
330
2A
102
}
330
2A
100
AcDbProxyObject
 90
      499
 91
      501
 93
      380
310
41119B185D240901404333333333333E33F0000000000000F9010740A907004050150841D405064090741402480A1B50
1001
ACAD
1000
AcDbSavedByObjectVersion
1070
     0
  0
ACAD_PROXY_OBJECT
  5
2C
102
{ACAD_REACTORS
330
2A
102
}
330
2A
100
AcDbProxyObject
 90
      499
 91
      501
 93
      468
310
43519B185D15DA5D1A115919D95CD0140901404333333333333E33F0000000000000F90107409019070040501600405405064090741402480A1B50
1001
ACAD
1000
AcDbSavedByObjectVersion
1070
     0
  0
ACAD_PROXY_OBJECT
  5
2D
102
{ACAD_REACTORS
330
2A
102
}
330
2A
100
AcDbProxyObject
 90
      499
 91
      501
 93
      404
310
41D1DBDD5C985D5910240902404333333333333E33F0000000000000F9010740A9070040501641D405064090741402480A1B50
1001
ACAD
1000
AcDbSavedByObjectVersion
1070
     0
  0
ACAD_PROXY_OBJECT
  5
2E
102
{ACAD_REACTORS
330
2A
102
}
330
2A
100
AcDbProxyObject
 90
      499
 91
      501
 93
      492
310
4411DBDD5C985D5915DA5D1A115919D95CD0340902404333333333333E33F0000000000000F90107409019070040501600405405064090741402480A1B50
1001
ACAD
1000
AcDbSavedByObjectVersion
1070
     0
  0
ACAD_PROXY_OBJECT
  5
31
102
{ACAD_REACTORS
330
2A
102
}
330
2A
100
AcDbProxyObject
 90
      499
 91
      501
 93
      476
310
41921A5919195B90640502408333333333333E33F0000000000000F901079024090700405020000000000001110200405405064090740C02480A0340
1001
ACAD
1000
AcDbSavedByObjectVersion
1070
     0
  0
ACAD_PROXY_OBJECT
  5
3B
102
{ACAD_REACTORS
330
2A
102
}
330
2A
100
AcDbProxyObject
 90
      499
 91
      501
 93
      428
310
42529A5D1D195C93D999914409028333333333333E33F0000000000000F9010790141107004050150A41D405064090741402480A0350
1001
ACAD
1000
AcDbSavedByObjectVersion
1070
     0
  0
ACAD_PROXY_OBJECT
  5
38
102
{ACAD_REACTORS
330
2A
102
}
330
2A
100
AcDbProxyObject
 90
      499
 91
      501
 93
      444
310
42D31A5B995C185D1D195C9B90E409028333333333333E33F0000000000000F9010790141107004050750841D405064090741402483A0350
1001
ACAD
1000
AcDbSavedByObjectVersion
1070
     0
  0
ACAD_PROXY_OBJECT
  5
3C
102
{ACAD_REACTORS
330
2A
102
}
330
2A
100
AcDbProxyObject
 90
      499
 91
      501
 93
      444
310
42D3DD995C9A185B99D3D999915409028333333333333E33F0000000000000F9010790141107004050150941D405064090741402480A0350
1001
ACAD
1000
AcDbSavedByObjectVersion
1070
     0
  0
ACAD_PROXY_OBJECT
  5
33
102
{ACAD_REACTORS
330
2A
102
}
330
2A
100
AcDbProxyObject
 90
      499
 91
      501
 93
      428
310
425499585B1A5CDD1A58D08409038333333333333E33F0000000000000F9010740A907004050150800405405064090740C02480A1B40
1001
ACAD
1000
AcDbSavedByObjectVersion
1070
     0
  0
ACAD_PROXY_OBJECT
  5
42
102
{ACAD_REACTORS
330
2A
102
}
330
2A
100
AcDbProxyObject
 90
      499
 91
      501
 93
      420
310
4194DA1859195911B40902404333333333333E33F0000000000000F9010740A41107004050150800405405064090840C02480A0B40
1001
ACAD
1000
AcDbSavedByObjectVersion
1070
     0
  0
ACAD_PROXY_OBJECT
  5
41
102
{ACAD_REACTORS
330
2A
102
}
330
2A
100
AcDbProxyObject
 90
      499
 91
      501
 93
      516
310
4454DA18591959081DDA5D1A08195919D95CD1A40902404333333333333E33F0000000000000F901074090142907004050250800405405064090740C02480A0B40
1001
ACAD
1000
AcDbSavedByObjectVersion
1070
     0
  0
ACAD_PROXY_OBJECT
  5
3E
102
{ACAD_REACTORS
330
2A
102
}
330
2A
100
AcDbProxyObject
 90
      499
 91
      501
 93
      532
310
4394DA1859195CC81BD98811DC985E5174090240C333333333333E33F0000000000000F901079024090741D01000000000000111010841D405064090740C02480A0340
1001
ACAD
1000
AcDbSavedByObjectVersion
1070
     0
  0
ACAD_PROXY_OBJECT
  5
3F
102
{ACAD_REACTORS
330
2A
102
}
330
2A
100
AcDbProxyObject
 90
      499
 91
      501
 93
      476
310
41D4DAD95D18DA1E51840502408333333333333E33F0000000000000F901079024090741D01000000000000111010B41D405064090741802480A0340
1001
ACAD
1000
AcDbSavedByObjectVersion
1070
     0
  0
ACAD_PROXY_OBJECT
  5
37
102
{ACAD_REACTORS
330
2A
102
}
330
2A
100
AcDbProxyObject
 90
      499
 91
      501
 93
      412
310
41D51A1A58DAD95B90D409028333333333333E33F0000000000000F9010790141107004050150C41D405064090741402480A0350
1001
ACAD
1000
AcDbSavedByObjectVersion
1070
     0
  0
ACAD_PROXY_OBJECT
  5
30
102
{ACAD_REACTORS
330
2A
102
}
330
2A
100
AcDbProxyObject
 90
      499
 91
      501
 93
      420
310
4255DA5C99599C985B595059028333333333333E33F0000000000000F90107901411070040501600405405064090740C02480A0340
1001
ACAD
1000
AcDbSavedByObjectVersion
1070
     0
  0
ACAD_PROXY_OBJECT
  5
40
102
{ACAD_REACTORS
330
2A
102
}
330
2A
100
AcDbProxyObject
 90
      499
 91
      501
 93
      404
310
41560B54985E51940902404000000000000E03F0000000000000F9010740501907004050150841D405064090740C02480A1B40
1001
ACAD
1000
AcDbSavedByObjectVersion
1070
     0
  0
XRECORD
  5
2C5
102
{ACAD_REACTORS
330
2BB
102
}
330
2BB
100
AcDbXrecord
340
0
  0
XRECORD
  5
2C4
102
{ACAD_REACTORS
330
2BB
102
}
330
2BB
100
AcDbXrecord
 90
        0
  0
XRECORD
  5
2DB
102
{ACAD_REACTORS
330
2BB
102
}
330
2BB
100
AcDbXrecord
1000
DSTYLE
1002
{
1070
   179
 70
     1
1070
   285
 70
     7
1070
   176
 70
     7
1070
   177
 70
     7
1070
   178
 70
     7
1070
   271
 70
     3
1070
    44
 40
0.08
1070
   371
 70
    13
1070
   372
 70
    13
1070
   272
 70
     3
1070
   340
340
72
1070
   140
 40
0.12
1070
   284
 70
     7
1070
   288
 70
     1
1070
    78
 70
     7
1070
    90
 70
     1
1002
}
  0
XRECORD
  5
2C6
102
{ACAD_REACTORS
330
2BB
102
}
330
2BB
100
AcDbXrecord
  1
{e1b17376-7571-6463-b773-3236b4703672}
  0
XRECORD
  5
2BE
102
{ACAD_REACTORS
330
2BB
102
}
330
2BB
100
AcDbXrecord
  1

  0
XRECORD
  5
2C3
102
{ACAD_REACTORS
330
2BB
102
}
330
2BB
100
AcDbXrecord
 90
        1
  0
XRECORD
  5
2C0
102
{ACAD_REACTORS
330
2BB
102
}
330
2BB
100
AcDbXrecord
340
1A
  0
XRECORD
  5
2C2
102
{ACAD_REACTORS
330
2BB
102
}
330
2BB
100
AcDbXrecord
 90
    10269
  0
XRECORD
  5
2C1
102
{ACAD_REACTORS
330
2BB
102
}
330
2BB
100
AcDbXrecord
340
19
  0
XRECORD
  5
2C8
102
{ACAD_REACTORS
330
2BB
102
}
330
2BB
100
AcDbXrecord
 40
0.0
  0
XRECORD
  5
2CB
102
{ACAD_REACTORS
330
2BB
102
}
330
2BB
100
AcDbXrecord
340
0
  0
XRECORD
  5
2D1
102
{ACAD_REACTORS
330
2BB
102
}
330
2BB
100
AcDbXrecord
 10
0.0
 20
0.0
 30
0.0
  0
XRECORD
  5
2CD
102
{ACAD_REACTORS
330
2BB
102
}
330
2BB
100
AcDbXrecord
 10
0.0
 20
0.0
 30
0.0
  0
XRECORD
  5
2D0
102
{ACAD_REACTORS
330
2BB
102
}
330
2BB
100
AcDbXrecord
 10
0.0
 20
0.0
 30
0.0
  0
XRECORD
  5
2CE
102
{ACAD_REACTORS
330
2BB
102
}
330
2BB
100
AcDbXrecord
 10
0.0
 20
0.0
 30
0.0
  0
XRECORD
  5
2CF
102
{ACAD_REACTORS
330
2BB
102
}
330
2BB
100
AcDbXrecord
 10
0.0
 20
0.0
 30
0.0
  0
XRECORD
  5
2CC
102
{ACAD_REACTORS
330
2BB
102
}
330
2BB
100
AcDbXrecord
 10
0.0
 20
0.0
 30
0.0
  0
XRECORD
  5
2C9
102
{ACAD_REACTORS
330
2BB
102
}
330
2BB
100
AcDbXrecord
340
0
  0
XRECORD
  5
2CA
102
{ACAD_REACTORS
330
2BB
102
}
330
2BB
100
AcDbXrecord
 70
     0
  0
XRECORD
  5
2BF
102
{ACAD_REACTORS
330
2BB
102
}
330
2BB
100
AcDbXrecord
  1

  0
XRECORD
  5
2BC
102
{ACAD_REACTORS
330
2BB
102
}
330
2BB
100
AcDbXrecord
 90
        1
  0
XRECORD
  5
2BD
102
{ACAD_REACTORS
330
2BB
102
}
330
2BB
100
AcDbXrecord
 90
       70
  0
XRECORD
  5
2D4
102
{ACAD_REACTORS
330
2BB
102
}
330
2BB
100
AcDbXrecord
340
0
  0
XRECORD
  5
2DA
102
{ACAD_REACTORS
330
2BB
102
}
330
2BB
100
AcDbXrecord
 10
0.0
 20
0.0
 30
0.0
  0
XRECORD
  5
2D6
102
{ACAD_REACTORS
330
2BB
102
}
330
2BB
100
AcDbXrecord
 10
0.0
 20
0.0
 30
0.0
  0
XRECORD
  5
2D9
102
{ACAD_REACTORS
330
2BB
102
}
330
2BB
100
AcDbXrecord
 10
0.0
 20
0.0
 30
0.0
  0
XRECORD
  5
2D7
102
{ACAD_REACTORS
330
2BB
102
}
330
2BB
100
AcDbXrecord
 10
0.0
 20
0.0
 30
0.0
  0
XRECORD
  5
2D8
102
{ACAD_REACTORS
330
2BB
102
}
330
2BB
100
AcDbXrecord
 10
0.0
 20
0.0
 30
0.0
  0
XRECORD
  5
2D5
102
{ACAD_REACTORS
330
2BB
102
}
330
2BB
100
AcDbXrecord
 10
0.0
 20
0.0
 30
0.0
  0
XRECORD
  5
2D2
102
{ACAD_REACTORS
330
2BB
102
}
330
2BB
100
AcDbXrecord
340
0
  0
XRECORD
  5
2D3
102
{ACAD_REACTORS
330
2BB
102
}
330
2BB
100
AcDbXrecord
 70
     0
  0
XRECORD
  5
2C7
102
{ACAD_REACTORS
330
2BB
102
}
330
2BB
100
AcDbXrecord
  1
{FAEB1C32-E019-11D5-929B-00C0DF256EC4}
  0
DICTIONARYVAR
  5
2E4
102
{ACAD_REACTORS
330
6E
102
}
330
6E
100
DictionaryVariables
280
     0
  1
1:1
  0
DICTIONARYVAR
  5
2DD
102
{ACAD_REACTORS
330
6E
102
}
330
6E
100
DictionaryVariables
280
     0
  1
Standard
  0
DICTIONARYVAR
  5
2DC
102
{ACAD_REACTORS
330
6E
102
}
330
6E
100
DictionaryVariables
280
     0
  1
Onshape-Standard
  0
DICTIONARYVAR
  5
2E0
102
{ACAD_REACTORS
330
6E
102
}
330
6E
100
DictionaryVariables
280
     0
  1
2
  0
DICTIONARYVAR
  5
2E1
102
{ACAD_REACTORS
330
6E
102
}
330
6E
100
DictionaryVariables
280
     0
  1
1
  0
DICTIONARYVAR
  5
2E5
102
{ACAD_REACTORS
330
6E
102
}
330
6E
100
DictionaryVariables
280
     0
  1
1
  0
DICTIONARYVAR
  5
6F
102
{ACAD_REACTORS
330
6E
102
}
330
6E
100
DictionaryVariables
280
     0
  1
0
  0
XRECORD
  5
25E
102
{ACAD_REACTORS
330
25D
102
}
330
25D
100
AcDbXrecord
 70
     1
  0
XRECORD
  5
261
102
{ACAD_REACTORS
330
25D
102
}
330
25D
100
AcDbXrecord
 90
        0
  0
XRECORD
  5
265
102
{ACAD_REACTORS
330
25D
102
}
330
25D
100
AcDbXrecord
 90
        5
  0
XRECORD
  5
263
102
{ACAD_REACTORS
330
25D
102
}
330
25D
100
AcDbXrecord
 90
        0
  0
ACAD_PROXY_OBJECT
  5
264
102
{ACAD_REACTORS
330
25D
102
}
330
25D
100
AcDbProxyObject
 90
      499
 91
      508
 93
       34
310
40C8804000
  0
ACAD_PROXY_OBJECT
  5
262
102
{ACAD_REACTORS
330
25D
102
}
330
25D
100
AcDbProxyObject
 90
      499
 91
      508
 93
       34
310
40C8804040
  0
XRECORD
  5
260
102
{ACAD_REACTORS
330
25D
102
}
330
25D
100
AcDbXrecord
 90
        0
  0
XRECORD
  5
25F
102
{ACAD_REACTORS
330
25D
102
}
330
25D
100
AcDbXrecord
 90
        0
  0
DICTIONARY
  5
2E8
330
45
100
AcDbDictionary
280
     1
  3
ACAD_XREC_ROUNDTRIP
360
2E9
  0
DICTIONARY
  5
2E6
330
44
100
AcDbDictionary
280
     1
  3
ACAD_XREC_ROUNDTRIP
360
2E7
  0
DICTIONARY
  5
2EA
330
46
100
AcDbDictionary
280
     1
  3
ACAD_XREC_ROUNDTRIP
360
2EB
  0
XRECORD
  5
2E9
102
{ACAD_REACTORS
330
2E8
102
}
330
2E8
100
AcDbXrecord
102
MATERIAL
148
0.0
149
0.0
149
0.0
 93
        0
 94
      127
282
     0
 72
     1
 77
     1
171
     1
175
     1
179
     1
273
     0
  0
XRECORD
  5
2E7
102
{ACAD_REACTORS
330
2E6
102
}
330
2E6
100
AcDbXrecord
102
MATERIAL
148
0.0
149
0.0
149
0.0
 93
        0
 94
      127
282
     0
 72
     1
 77
     1
171
     1
175
     1
179
     1
273
     0
  0
XRECORD
  5
2EB
102
{ACAD_REACTORS
330
2EA
102
}
330
2EA
100
AcDbXrecord
102
MATERIAL
148
0.0
149
0.0
149
0.0
 93
        0
 94
      127
282
     0
 72
     1
 77
     1
171
     1
175
     1
179
     1
273
     0
  0
ENDSEC
  0
EOF
